<svg width="210" height="150" viewBox="0 0 507 363" fill="none" xmlns="http://www.w3.org/2000/svg">
<path d="M486.685 83.5278L282.578 171.257L311.989 252.365L333.009 310.323L338.293 324.901L385.328 342.753L387.029 343.398L436.161 362.039L459.746 351.952L491.876 338.141L507 331.641L486.685 83.5278Z" fill="#F2F2F2"/>
<path d="M492.035 329.792L491.993 331.895L491.876 338.142L459.746 351.952L438.048 361.278L437.133 358.218L436.161 362.039L387.028 343.398L386.267 325.4V325.396L386.099 321.396L482.35 314.935L484.237 317.827L484.611 318.401L492.035 329.792Z" fill="#2F2E41"/>
<path d="M422.273 138.589C422.273 138.589 415.814 161.843 414.522 161.843C413.23 161.843 426.795 179.93 426.795 179.93L446.82 190.912L453.925 161.197C453.925 161.197 447.466 145.048 448.758 136.651L422.273 138.589Z" fill="#FFB8B8"/>
<path d="M432.609 147.632C445.809 147.632 456.509 136.932 456.509 123.732C456.509 110.532 445.809 99.8311 432.609 99.8311C419.409 99.8311 408.708 110.532 408.708 123.732C408.708 136.932 419.409 147.632 432.609 147.632Z" fill="#FFB8B8"/>
<path d="M435.839 173.471L416.742 156.886L405.478 162.489L380.932 177.992C380.932 177.992 387.392 317.52 384.162 322.688C384.162 322.688 391.267 338.837 433.255 329.147C475.242 319.458 486.224 318.166 486.224 318.166L477.18 232.899L488.162 179.284L451.275 153.49L439.714 173.471L435.839 173.471Z" fill="#009688"/>
<path d="M364.783 227.731C364.783 227.731 355.093 258.092 362.199 261.321C369.305 264.551 375.118 263.259 375.118 263.259L386.1 236.775L364.783 227.731Z" fill="#FFB8B8"/>
<path d="M499.143 222.564L504.956 249.694V304.601C504.956 304.601 496.559 339.483 490.099 330.439C483.64 321.396 483.773 318.532 483.773 318.532L492.037 305.893L488.161 254.216L477.863 229.564L499.143 222.564Z" fill="#FFB8B8"/>
<path d="M455.217 99.831C455.217 99.831 447.466 83.036 432.609 86.9117C417.752 90.7875 409.354 96.6012 408.708 102.415C408.062 108.228 409.031 116.949 409.031 116.949C409.031 116.949 410.646 104.999 420.981 107.583C431.317 110.166 447.466 108.228 447.466 108.228L450.05 131.483C450.05 131.483 452.956 127.284 456.186 129.868C459.416 132.452 465.553 104.999 455.217 99.831Z" fill="#2F2E41"/>
<path d="M478.033 227.897L480.369 240.045L503.262 233.971L499.057 222.758L478.033 227.897Z" fill="#3F3D56"/>
<path d="M364.358 227.517L360.708 239.336L383.769 244.74L385.33 232.867L364.358 227.517Z" fill="#3F3D56"/>
<path d="M473.304 177.992L488.161 179.284C488.161 179.284 504.956 225.147 503.019 226.439C501.081 227.731 477.826 235.483 474.596 233.545C471.366 231.607 473.304 177.992 473.304 177.992Z" fill="#009688"/>
<path d="M386.1 179.284L380.932 177.992C380.932 177.992 371.243 190.265 368.013 204.477C364.783 218.688 360.261 232.899 362.845 232.899C365.429 232.899 388.683 241.942 388.683 241.942L386.1 179.284Z" fill="#009688"/>
<path d="M438.319 182.577C440.9 182.577 442.992 180.486 442.992 177.905C442.992 175.325 440.9 173.233 438.319 173.233C435.739 173.233 433.647 175.325 433.647 177.905C433.647 180.486 435.739 182.577 438.319 182.577Z" fill="#3F3D56"/>
<path d="M474.392 260.513L424.485 276.246L404.116 211.634C423.346 208.938 439.982 203.693 454.023 195.901C456.625 217.94 463.275 239.494 474.392 260.513Z" fill="#E6E6E6"/>
<path d="M469.72 267.521L419.813 283.254L399.444 218.643C418.674 215.946 435.31 210.702 449.351 202.909C451.953 224.949 458.603 246.503 469.72 267.521Z" fill="white"/>
<path d="M368.013 242.588C368.013 242.588 360.261 256.8 362.199 261.321C364.137 265.843 380.286 268.427 382.224 268.427C384.162 268.427 407.416 263.259 407.416 263.259C407.416 263.259 442.944 246.464 432.609 238.067C422.273 229.669 402.895 249.694 402.895 249.694H387.391L378.994 243.88L368.013 242.588Z" fill="#FFB8B8"/>
<path d="M84.8607 59.0271H0.432861V96.7674H84.8607V59.0271Z" fill="#F2F2F2"/>
<path d="M307.404 181.628H292.683V194.617H307.404V181.628Z" fill="#3F3D56"/>
<path d="M277.962 181.628H263.242V194.617H277.962V181.628Z" fill="#3F3D56"/>
<path d="M336.846 153.053H322.125V167.773H336.846V153.053Z" fill="#009688"/>
<path d="M322.125 167.773H307.404V181.628H322.125V167.773Z" fill="#3F3D56"/>
<path d="M292.683 167.773H277.962V181.628H292.683V167.773Z" fill="#3F3D56"/>
<path d="M118.199 193.751H103.478V206.74H118.199V193.751Z" fill="#009688"/>
<path d="M250.686 179.896H235.965V193.751H250.686V179.896Z" fill="#3F3D56"/>
<path d="M162.361 179.896H147.64V193.751H162.361V179.896Z" fill="#3F3D56"/>
<path d="M147.64 165.176H132.92V179.897H147.64V165.176Z" fill="#3F3D56"/>
<path d="M221.244 179.896H206.523V193.751H221.244V179.896Z" fill="#3F3D56"/>
<path d="M206.523 165.176H191.803V179.897H206.523V165.176Z" fill="#3F3D56"/>
<path d="M191.803 179.896H177.082V193.751H191.803V179.896Z" fill="#3F3D56"/>
<path d="M132.92 179.896H118.199V193.751H132.92V179.896Z" fill="#3F3D56"/>
<path d="M235.965 165.176H221.244V179.897H235.965V165.176Z" fill="#009688"/>
<path d="M287.808 142.443L280.161 134.244L288.36 126.596L296.008 134.795L287.808 142.443ZM281.38 134.286L287.851 141.224L294.789 134.753L288.318 127.815L281.38 134.286Z" fill="#3F3D56"/>
<path d="M184.295 108.71H173.083V97.4978H184.295V108.71ZM173.945 107.848H183.433V98.3603H173.945V107.848Z" fill="#3F3D56"/>
<path d="M392.55 87.0621H381.338V75.8496H392.55V87.0621ZM382.2 86.1996H391.688V76.7121H382.2V86.1996Z" fill="#3F3D56"/>
<path d="M110.159 201.574L109.497 200.927C112.545 197.471 114.855 193.43 116.286 189.05C118.539 182.27 119.639 171.562 112.087 159.053C104.36 146.255 104.012 135.86 105.081 129.394C106.244 122.358 109.212 118.413 109.337 118.249L110.073 118.811C110.044 118.85 107.102 122.773 105.986 129.6C104.955 135.902 105.315 146.045 112.88 158.574C120.625 171.403 119.478 182.408 117.151 189.381C114.631 196.937 110.341 201.388 110.159 201.574Z" fill="#3F3D56"/>
<path d="M227.06 172.132L226.397 171.486C229.445 168.03 231.755 163.988 233.186 159.608C235.439 152.828 236.539 142.12 228.987 129.612C221.26 116.814 220.912 106.419 221.981 99.9524C223.144 92.9161 226.112 88.972 226.237 88.8076L226.973 89.3699C226.944 89.4086 224.002 93.3317 222.886 100.158C221.855 106.461 222.215 116.604 229.78 129.133C237.525 141.961 236.378 152.967 234.052 159.94C231.531 167.495 227.241 171.947 227.06 172.132Z" fill="#3F3D56"/>
<path d="M328.806 160.875L328.143 160.229C331.191 156.773 333.501 152.731 334.932 148.351C337.185 141.571 338.286 130.863 330.734 118.355C323.006 105.557 322.659 95.162 323.727 88.6954C324.891 81.659 327.858 77.7149 327.984 77.5505L328.72 78.1128C328.69 78.1515 325.748 82.0746 324.632 88.9011C323.602 95.2036 323.961 105.347 331.526 117.876C339.272 130.704 338.124 141.71 335.798 148.683C333.277 156.238 328.987 160.69 328.806 160.875Z" fill="#3F3D56"/>
<path d="M63.0203 70.9397H22.2737V71.8658H63.0203V70.9397Z" fill="#3F3D56"/>
<path d="M63.0203 77.4343H22.2737V78.3604H63.0203V77.4343Z" fill="#3F3D56"/>
<path d="M63.0203 83.9287H22.2737V84.8548H63.0203V83.9287Z" fill="#3F3D56"/>
<path d="M291.192 9.02612H250.445V9.95218H291.192V9.02612Z" fill="#3F3D56"/>
<path d="M291.192 15.5205H250.445V16.4466H291.192V15.5205Z" fill="#3F3D56"/>
<path d="M291.192 22.0149H250.445V22.941H291.192V22.0149Z" fill="#3F3D56"/>
<path d="M386.877 152.77H346.13V153.696H386.877V152.77Z" fill="#3F3D56"/>
<path d="M386.877 159.264H346.13V160.19H386.877V159.264Z" fill="#3F3D56"/>
<path d="M386.877 165.759H346.13V166.685H386.877V165.759Z" fill="#3F3D56"/>
<path d="M59.6885 48.5445C66.7284 32.7528 77.339 22.365 91.2252 17.6693C101.535 14.1827 113.459 13.8533 126.664 16.6897C136.401 18.797 145.746 22.4266 154.353 27.4448C200.195 54.0505 228.537 54.287 244.241 49.8003C261.459 44.8811 267.761 33.3383 267.822 33.2222L268.587 33.6278C268.524 33.7468 262.08 45.5916 244.513 50.6233C234.386 53.524 222.553 53.6438 209.343 50.9793C192.903 47.6629 174.255 39.9968 153.918 28.1939C145.39 23.2214 136.131 19.6247 126.482 17.5363C104.824 12.8842 75.7922 14.5486 60.479 48.897L59.6885 48.5445Z" fill="#2F2E41"/>
<path d="M110.839 118.849C119.447 118.849 126.425 111.87 126.425 103.262C126.425 94.6537 119.447 87.6753 110.839 87.6753C102.23 87.6753 95.252 94.6537 95.252 103.262C95.252 111.87 102.23 118.849 110.839 118.849Z" fill="#3F3D56"/>
<path d="M228.605 91.572C237.213 91.572 244.191 84.5936 244.191 75.9854C244.191 67.3771 237.213 60.3987 228.605 60.3987C219.996 60.3987 213.018 67.3771 213.018 75.9854C213.018 84.5936 219.996 91.572 228.605 91.572Z" fill="#3F3D56"/>
<path d="M330.351 77.7171C338.959 77.7171 345.938 70.7387 345.938 62.1304C345.938 53.5221 338.959 46.5437 330.351 46.5437C321.743 46.5437 314.764 53.5221 314.764 62.1304C314.764 70.7387 321.743 77.7171 330.351 77.7171Z" fill="#3F3D56"/>
<path d="M96.5508 97.2006H0V47.8428H96.5508V97.2006ZM0.865927 96.3347H95.6849V48.7087H0.865927V96.3347Z" fill="#3F3D56"/>
<path d="M206.524 26.5549H122.096V64.2952H206.524V26.5549Z" fill="#F2F2F2"/>
<path d="M184.683 38.4675H143.936V39.3936H184.683V38.4675Z" fill="#3F3D56"/>
<path d="M184.683 44.9619H143.936V45.888H184.683V44.9619Z" fill="#3F3D56"/>
<path d="M183.384 50.1575H142.637V51.0835H183.384V50.1575Z" fill="#3F3D56"/>
<path d="M218.213 64.7282H121.663V15.3704H218.213V64.7282ZM122.529 63.8622H217.347V16.2363H122.529V63.8622Z" fill="#3F3D56"/>
<path d="M424.304 11.8342H339.876V49.5745H424.304V11.8342Z" fill="#F2F2F2"/>
<path d="M402.463 23.7468H361.717V24.6729H402.463V23.7468Z" fill="#3F3D56"/>
<path d="M402.463 30.2412H361.717V31.1673H402.463V30.2412Z" fill="#3F3D56"/>
<path d="M402.463 36.7356H361.717V37.6617H402.463V36.7356Z" fill="#3F3D56"/>
<path d="M435.994 50.0075H339.443V0.649658H435.994V50.0075ZM340.309 49.1415H435.128V1.51558H340.309V49.1415Z" fill="#3F3D56"/>
<path d="M9.15112 313.595C9.15073 313.267 9.22504 312.942 9.36842 312.647C9.51179 312.352 9.72046 312.093 9.97865 311.89L23.1499 301.525L23.1499 275.633C23.1499 275.058 23.3783 274.507 23.7849 274.1C24.1915 273.694 24.7429 273.465 25.3179 273.465C25.8929 273.465 26.4443 273.694 26.8509 274.1C27.2574 274.507 27.4858 275.058 27.4858 275.633L27.4858 302.578C27.4858 302.906 27.4112 303.23 27.2679 303.525C27.1246 303.82 26.9161 304.078 26.6583 304.281L12.6595 315.297C12.3397 315.549 11.9557 315.705 11.5512 315.749C11.1467 315.792 10.7382 315.721 10.3722 315.543C10.0062 315.366 9.69764 315.089 9.48171 314.744C9.26578 314.399 9.15121 314 9.15112 313.594L9.15112 313.595Z" fill="#06DAF7"/>
<path d="M40.4937 302.578L40.4937 275.633C40.4937 275.058 40.7221 274.507 41.1286 274.1C41.5352 273.694 42.0867 273.465 42.6616 273.465C43.2366 273.465 43.788 273.694 44.1946 274.1C44.6012 274.507 44.8296 275.058 44.8296 275.633L44.8296 302.578C44.8296 303.153 44.6012 303.704 44.1946 304.111C43.788 304.517 43.2366 304.746 42.6616 304.746C42.0867 304.746 41.5352 304.517 41.1286 304.111C40.7221 303.704 40.4937 303.153 40.4937 302.578Z" fill="#06DAF7"/>
<path d="M57.8374 316.204L57.8374 275.633C57.8374 275.058 58.0658 274.507 58.4724 274.1C58.879 273.694 59.4304 273.465 60.0054 273.465C60.5804 273.465 61.1318 273.694 61.5384 274.1C61.9449 274.507 62.1733 275.058 62.1733 275.633L62.1733 316.204C62.1733 316.779 61.9449 317.33 61.5384 317.737C61.1318 318.143 60.5804 318.372 60.0054 318.372C59.4304 318.372 58.879 318.143 58.4724 317.737C58.0658 317.33 57.8374 316.779 57.8374 316.204Z" fill="#06DAF7"/>
<path d="M75.1809 292.66L75.1809 275.633C75.1809 275.058 75.4093 274.507 75.8159 274.1C76.2225 273.694 76.7739 273.465 77.3489 273.465C77.9239 273.465 78.4753 273.694 78.8819 274.1C79.2884 274.507 79.5168 275.058 79.5168 275.633L79.5168 292.66C79.5168 293.235 79.2884 293.786 78.8819 294.193C78.4753 294.599 77.9239 294.828 77.3489 294.828C76.7739 294.828 76.2225 294.599 75.8159 294.193C75.4093 293.786 75.1809 293.235 75.1809 292.66Z" fill="#06DAF7"/>
<path d="M63.0776 341.781C63.0774 341.496 63.1334 341.214 63.2424 340.951C63.3515 340.688 63.5115 340.449 63.7131 340.248L92.5247 311.436L92.5247 275.633C92.5247 275.058 92.7531 274.507 93.1597 274.1C93.5662 273.694 94.1177 273.465 94.6926 273.465C95.2676 273.465 95.819 273.694 96.2256 274.1C96.6322 274.507 96.8606 275.058 96.8606 275.633L96.8606 312.334C96.8603 312.909 96.6317 313.46 96.2251 313.866L66.778 343.313C66.4748 343.616 66.0886 343.822 65.6682 343.906C65.2478 343.99 64.8121 343.947 64.4161 343.783C64.0201 343.619 63.6816 343.341 63.4433 342.985C63.2051 342.628 63.0778 342.209 63.0776 341.781Z" fill="#06DAF7"/>
<path d="M110.281 339.898L110.281 275.633C110.281 275.058 110.509 274.507 110.916 274.1C111.322 273.694 111.874 273.465 112.449 273.465C113.024 273.465 113.575 273.694 113.982 274.1C114.388 274.507 114.617 275.058 114.617 275.633L114.617 339.898C114.617 340.473 114.388 341.024 113.982 341.431C113.575 341.837 113.024 342.066 112.449 342.066C111.874 342.066 111.322 341.837 110.916 341.431C110.509 341.024 110.281 340.473 110.281 339.898Z" fill="#06DAF7"/>
<path d="M124.321 312.334L124.321 275.633C124.321 275.058 124.549 274.507 124.956 274.1C125.362 273.694 125.914 273.465 126.489 273.465C127.064 273.465 127.615 273.694 128.022 274.1C128.428 274.507 128.657 275.058 128.657 275.633L128.657 311.436L138.578 321.357C138.985 321.764 139.213 322.315 139.213 322.89C139.213 323.465 138.985 324.017 138.578 324.423C138.172 324.83 137.62 325.058 137.045 325.058C136.47 325.058 135.919 324.83 135.512 324.423L124.956 313.867C124.755 313.666 124.595 313.427 124.486 313.164C124.377 312.901 124.321 312.619 124.321 312.334Z" fill="#06DAF7"/>
<path d="M154.466 253.102C154.466 247.126 152.092 241.395 147.866 237.17C143.641 232.945 137.91 230.571 131.934 230.571L131.882 230.571C131.72 227.401 130.774 224.321 129.128 221.607C127.482 218.892 125.188 216.629 122.452 215.02C119.716 213.411 116.624 212.506 113.452 212.387C110.28 212.268 107.128 212.938 104.279 214.337C101.318 209.584 97.2151 205.646 92.3437 202.883C87.4723 200.121 81.9872 198.62 76.3878 198.519C70.7884 198.418 65.2527 199.72 60.2848 202.305C55.3168 204.89 51.0745 208.677 47.9441 213.32C45.1422 212.405 42.1672 212.147 39.2498 212.567C36.3323 212.987 33.5508 214.073 31.1207 215.742C28.6907 217.41 26.6776 219.615 25.2373 222.187C23.797 224.759 22.9684 227.627 22.8156 230.571L22.7635 230.571C19.7906 230.549 16.8428 231.115 14.0898 232.238C11.3368 233.36 8.8332 235.016 6.7232 237.111C4.6132 239.205 2.93855 241.696 1.79576 244.441C0.652952 247.186 0.0645878 250.129 0.0645877 253.102C0.0645875 256.075 0.652951 259.019 1.79576 261.763C2.93855 264.508 4.6132 266.999 6.7232 269.094C8.8332 271.188 11.3368 272.844 14.0898 273.967C16.8428 275.089 19.7906 275.656 22.7635 275.633L131.934 275.633C137.91 275.633 143.641 273.26 147.867 269.034C152.092 264.809 154.466 259.077 154.466 253.102Z" fill="#FF6CA8"/>
<path d="M73.619 210.156C73.619 209.582 73.8474 209.03 74.254 208.624C74.6605 208.217 75.212 207.989 75.7869 207.989C82.1768 207.996 88.303 210.537 92.8213 215.056C97.3396 219.574 99.8812 225.7 99.8884 232.09C99.8884 232.665 99.66 233.216 99.2534 233.623C98.8469 234.03 98.2954 234.258 97.7205 234.258C97.1455 234.258 96.5941 234.03 96.1875 233.623C95.7809 233.216 95.5525 232.665 95.5525 232.09C95.5453 226.851 93.4604 221.828 89.755 218.123C86.0497 214.419 81.0264 212.335 75.7869 212.329C75.5018 212.329 75.2195 212.273 74.9562 212.164C74.6928 212.055 74.4536 211.895 74.2522 211.693C74.0508 211.491 73.8912 211.251 73.7826 210.988C73.6739 210.724 73.6183 210.442 73.619 210.156Z" fill="#EF4A8A"/>
<path d="M129.291 263.517C129.291 262.942 129.519 262.39 129.926 261.984C130.332 261.577 130.884 261.349 131.459 261.349C132.541 261.349 133.614 261.135 134.614 260.721C135.614 260.307 136.523 259.699 137.289 258.934C138.055 258.168 138.662 257.259 139.077 256.259C139.491 255.258 139.704 254.186 139.704 253.103C139.704 252.02 139.491 250.948 139.077 249.948C138.662 248.947 138.055 248.038 137.289 247.272C136.523 246.507 135.614 245.899 134.614 245.485C133.614 245.071 132.541 244.857 131.459 244.857C130.884 244.857 130.332 244.629 129.926 244.222C129.519 243.816 129.291 243.264 129.291 242.689C129.291 242.114 129.519 241.563 129.926 241.156C130.332 240.75 130.884 240.521 131.459 240.521C134.796 240.521 137.996 241.847 140.356 244.207C142.715 246.566 144.041 249.767 144.041 253.104C144.041 256.441 142.715 259.641 140.356 262.001C137.996 264.36 134.796 265.686 131.459 265.686C131.174 265.686 130.892 265.63 130.629 265.521C130.366 265.412 130.126 265.252 129.925 265.05C129.724 264.849 129.564 264.61 129.455 264.347C129.346 264.084 129.29 263.801 129.291 263.517Z" fill="#EF4A8A"/>
<path d="M79.6718 241.723C79.6718 241.148 79.9002 240.596 80.3067 240.19C80.7133 239.783 81.2647 239.555 81.8397 239.555C82.4147 239.555 82.9661 239.783 83.3727 240.19C83.7793 240.596 84.0077 241.148 84.0077 241.723C84.0106 244.55 85.1352 247.261 87.1347 249.261C89.1341 251.26 91.8451 252.385 94.6728 252.388L101.681 252.388C104.509 252.385 107.22 251.26 109.219 249.261C111.218 247.261 112.343 244.55 112.346 241.723L112.346 240.794C112.346 240.219 112.574 239.667 112.981 239.261C113.388 238.854 113.939 238.626 114.514 238.626C115.089 238.626 115.64 238.854 116.047 239.261C116.453 239.667 116.682 240.219 116.682 240.794L116.682 241.723C116.677 245.7 115.095 249.513 112.283 252.325C109.471 255.137 105.658 256.719 101.681 256.724L94.6728 256.724C90.6957 256.719 86.8828 255.137 84.0705 252.325C81.2583 249.513 79.6764 245.7 79.6718 241.723Z" fill="#EF4A8A"/>
<path d="M57.8375 254.573L57.8375 242.185C57.8427 237.71 59.6227 233.42 62.787 230.255C65.9513 227.091 70.2416 225.311 74.7166 225.306C75.2915 225.306 75.843 225.534 76.2495 225.941C76.6561 226.347 76.8845 226.899 76.8845 227.474C76.8845 228.049 76.6561 228.6 76.2495 229.007C75.843 229.413 75.2915 229.642 74.7166 229.642C71.391 229.645 68.2027 230.968 65.8512 233.32C63.4997 235.671 62.177 238.859 62.1734 242.185L62.1734 254.573C62.1734 255.148 61.945 255.7 61.5384 256.106C61.1318 256.513 60.5804 256.741 60.0054 256.741C59.4304 256.741 58.879 256.513 58.4724 256.106C58.0659 255.7 57.8375 255.148 57.8375 254.573Z" fill="#EF4A8A"/>
<path d="M27.7956 262.47C27.8015 257.215 29.8917 252.177 33.6077 248.461C37.3236 244.745 42.3618 242.655 47.617 242.649C48.1919 242.649 48.7434 242.878 49.1499 243.284C49.5565 243.691 49.7849 244.242 49.7849 244.817C49.7849 245.392 49.5565 245.944 49.1499 246.35C48.7434 246.757 48.1919 246.985 47.617 246.985C43.5114 246.99 39.5753 248.623 36.6722 251.526C33.7691 254.429 32.1361 258.365 32.1315 262.47C32.1315 263.045 31.9031 263.597 31.4966 264.003C31.09 264.41 30.5386 264.638 29.9636 264.638C29.3886 264.638 28.8372 264.41 28.4306 264.003C28.024 263.597 27.7956 263.045 27.7956 262.47Z" fill="#EF4A8A"/>
<path d="M32.3324 231.393C32.3325 231.285 32.3404 231.176 32.356 231.069C32.7899 228.195 34.3462 225.61 36.6834 223.881C39.0207 222.153 41.9481 221.422 44.8236 221.849C45.108 221.888 45.3819 221.983 45.6294 222.128C45.8769 222.274 46.093 222.467 46.2651 222.697C46.4373 222.926 46.5621 223.188 46.6324 223.466C46.7026 223.745 46.7168 224.034 46.6743 224.318C46.6317 224.602 46.5331 224.875 46.3843 225.12C46.2355 225.366 46.0395 225.579 45.8075 225.749C45.5755 225.918 45.3122 226.039 45.0329 226.106C44.7537 226.172 44.464 226.183 44.1806 226.136C42.4424 225.879 40.6729 226.321 39.2602 227.366C37.8475 228.411 36.9069 229.974 36.6448 231.711C36.5644 232.252 36.2822 232.743 35.8548 233.085C35.4274 233.427 34.8866 233.595 34.3408 233.555C33.7949 233.514 33.2845 233.269 32.912 232.868C32.5395 232.467 32.3325 231.94 32.3324 231.393Z" fill="#EF4A8A"/>
<path d="M9.41387 253.644C9.41781 250.031 10.8548 246.567 13.4095 244.012C15.9643 241.458 19.4281 240.021 23.041 240.017C23.616 240.017 24.1674 240.245 24.574 240.652C24.9806 241.058 25.209 241.61 25.209 242.185C25.209 242.76 24.9806 243.311 24.574 243.718C24.1674 244.124 23.616 244.353 23.041 244.353C20.5776 244.355 18.2159 245.335 16.474 247.077C14.7322 248.819 13.7524 251.181 13.7498 253.644C13.7498 254.219 13.5214 254.77 13.1148 255.177C12.7082 255.584 12.1568 255.812 11.5818 255.812C11.0068 255.812 10.4554 255.584 10.0489 255.177C9.64228 254.77 9.41387 254.219 9.41387 253.644Z" fill="#EF4A8A"/>
<path d="M36.2347 309.004C36.2347 312.553 39.1122 315.431 42.6618 315.431C46.2114 315.431 49.0889 312.553 49.0889 309.004C49.0889 305.454 46.2114 302.577 42.6618 302.577C39.1122 302.577 36.2347 305.454 36.2347 309.004Z" fill="#284CB2"/>
<path d="M0.000157734 317.754C0.000157415 321.302 2.8771 324.179 6.42599 324.179C9.97487 324.179 12.8518 321.302 12.8518 317.754C12.8518 314.205 9.97487 311.328 6.42599 311.328C2.8771 311.328 0.000158052 314.205 0.000157734 317.754Z" fill="#284CB2"/>
<path d="M53.5797 322.631C53.5797 326.18 56.4567 329.057 60.0056 329.057C63.5545 329.057 66.4314 326.18 66.4314 322.631C66.4314 319.082 63.5545 316.205 60.0056 316.205C56.4567 316.205 53.5797 319.082 53.5797 322.631Z" fill="#284CB2"/>
<path d="M54.2745 346.324C54.2745 349.873 57.152 352.751 60.7016 352.751C64.2512 352.751 67.1287 349.873 67.1287 346.324C67.1287 342.774 64.2512 339.897 60.7016 339.897C57.152 339.897 54.2745 342.774 54.2745 346.324Z" fill="#284CB2"/>
<path d="M85.5563 339.898C85.5563 343.447 88.4332 346.324 91.9821 346.324C95.531 346.324 98.408 343.447 98.408 339.898C98.408 336.349 95.531 333.472 91.9821 333.472C88.4332 333.472 85.5563 336.349 85.5563 339.898Z" fill="#284CB2"/>
<path d="M26.6498 339.898C26.6498 343.447 29.5268 346.324 33.0756 346.324C36.6245 346.324 39.5015 343.447 39.5015 339.898C39.5015 336.349 36.6245 333.472 33.0756 333.472C29.5268 333.472 26.6498 336.349 26.6498 339.898Z" fill="#284CB2"/>
<path d="M106.022 346.323C106.022 349.873 108.899 352.75 112.449 352.75C115.998 352.75 118.876 349.873 118.876 346.323C118.876 342.774 115.998 339.896 112.449 339.896C108.899 339.896 106.022 342.774 106.022 346.323Z" fill="#284CB2"/>
<path d="M135.445 327.122C135.445 330.671 138.323 333.549 141.872 333.549C145.422 333.549 148.3 330.671 148.3 327.122C148.3 323.572 145.422 320.695 141.872 320.695C138.323 320.695 135.445 323.572 135.445 327.122Z" fill="#284CB2"/>
<path d="M71.1291 299.086C71.1291 302.635 74.006 305.512 77.5549 305.512C81.1038 305.512 83.9807 302.635 83.9807 299.086C83.9807 295.537 81.1038 292.66 77.5549 292.66C74.006 292.66 71.1291 295.537 71.1291 299.086Z" fill="#284CB2"/>
</svg>
