<svg width="243" height="150" viewBox="0 0 596 368" fill="none" xmlns="http://www.w3.org/2000/svg">
<path opacity="0.1" d="M307.741 66.2873C272.172 72.2978 236.652 69.7212 202.484 65.9734C168.315 62.2256 134.231 57.3315 98.6468 58.8067C75.7563 59.7536 50.2643 64.2888 34.2814 77.4709C18.8965 90.1496 16.4993 107.259 16.4694 122.704C16.4295 134.321 17.4362 146.342 25.6694 155.597C31.3908 162.016 40.1971 166.616 46.8305 172.541C69.9103 193.124 62.8932 225.534 47.7475 253.089C40.6407 266.017 31.949 278.731 27.1097 291.962C22.2705 305.194 21.6276 319.373 30.2894 330.163C38.8714 340.863 55.4724 346.894 72.781 350.018C107.937 356.368 147.104 352.426 185.001 347.083C268.872 335.217 351.877 316.717 434.702 298.262C465.348 291.429 496.127 284.567 525.651 274.719C542.048 269.236 558.744 262.414 569.334 251.793C582.79 238.337 583.129 219.932 570.161 208.933C548.402 190.493 499.153 194.585 482.322 173.503C473.063 161.896 477.094 146.132 484.465 132.208C500.269 102.345 530.815 72.841 526.857 43.0679C524.126 22.6345 503.289 5.72454 475.36 1.31889C446.085 -3.29609 408.488 5.45542 391.633 26.0185C374.304 47.2045 339.149 60.9647 307.741 66.2873Z" fill="#01A6DC"/>
<path d="M337.12 179.165H195.865V211.873H337.12V179.165Z" fill="#565661"/>
<path opacity="0.1" d="M337.12 179.165H195.865V211.873H337.12V179.165Z" fill="black"/>
<path d="M212.765 212.95L213.757 300.27L200.171 334.569L199.12 212.95H212.765Z" fill="#BCBEC9"/>
<path d="M197.355 185.444L334.883 186.272V210.632H197.355V185.444Z" fill="#565661"/>
<path d="M323.116 212.95L334.883 214.609V333.243L323.116 296.956V212.95Z" fill="#BCBEC9"/>
<path d="M405.632 180.476H339.353V321.317H405.632V180.476Z" fill="#EFEFF0"/>
<path d="M400.329 184.388H344.656V292.65H400.329V184.388Z" fill="#565661"/>
<path opacity="0.1" d="M400.329 184.388H344.656V292.65H400.329V184.388Z" fill="black"/>
<path d="M400.329 186.605H344.656V210.632H400.329V186.605Z" fill="#565661"/>
<path d="M400.329 212.95H344.656V263.984H400.329V212.95Z" fill="#565661"/>
<path d="M400.329 267.133H344.656V318.167H400.329V267.133Z" fill="#565661"/>
<path opacity="0.1" d="M400.329 267.133H344.656V318.167H400.329V267.133Z" fill="black"/>
<path d="M346.978 330.487C348.96 330.487 350.566 328.434 350.566 325.902C350.566 323.37 348.96 321.317 346.978 321.317C344.996 321.317 343.39 323.37 343.39 325.902C343.39 328.434 344.996 330.487 346.978 330.487Z" fill="#565661"/>
<path d="M396.741 330.706C398.723 330.706 400.329 328.653 400.329 326.121C400.329 323.589 398.723 321.536 396.741 321.536C394.759 321.536 393.153 323.589 393.153 326.121C393.153 328.653 394.759 330.706 396.741 330.706Z" fill="#565661"/>
<path d="M195.367 334.569H200.171L198.85 181.697H191.554L195.367 334.569Z" fill="#EFEFF0"/>
<path d="M334.883 180.476V333.243H339.353V181.697L334.883 180.476Z" fill="#EFEFF0"/>
<path d="M199.085 209.137V214.609H334.883V210.632L199.085 209.137Z" fill="#EFEFF0"/>
<path d="M208.29 170.204H380.449L405.468 178.487V183.291L190.727 181.637V176.748L208.29 170.204Z" fill="white"/>
<path d="M190.727 176.748L405.468 178.487V183.291L190.727 181.637V176.748Z" fill="#BCBEC9"/>
<path d="M210.178 233.722L209.182 233.573C209.182 233.528 209.182 233.488 209.182 233.448C209.152 233.214 209.117 232.984 209.082 232.75C209.491 233.074 209.879 233.398 210.238 233.722H210.178Z" fill="url(#paint0_linear)"/>
<path d="M188.519 310.677C189.167 310.527 189.825 310.402 190.483 310.313C195.001 309.669 199.609 310.348 203.749 312.266C203.331 315.346 202.917 318.531 203.804 321.506C204.422 323.6 205.663 325.493 205.927 327.676C206.593 327.791 207.213 328.088 207.72 328.535C208.226 328.982 208.597 329.562 208.793 330.208C208.984 330.78 209.08 331.379 209.077 331.982C209.072 332.728 208.978 333.471 208.798 334.195C208.737 334.773 208.454 335.305 208.007 335.678C207.56 336.05 206.986 336.233 206.406 336.189C202.548 336.627 198.766 335.107 195.177 333.617L188.2 330.716C187.383 330.377 186.56 330.034 185.778 329.615C184.294 328.813 182.976 327.736 181.896 326.44C181.667 326.209 181.507 325.919 181.432 325.603C181.302 324.726 182.329 324.203 182.982 323.609C183.173 323.429 183.341 323.224 183.48 323.001C184.253 321.835 184.328 320.225 184.791 318.85C185.888 315.586 189.277 313.482 190.473 310.298C190.537 310.123 190.597 309.949 190.647 309.77" fill="#A26565"/>
<path opacity="0.1" d="M209.077 331.982C209.072 332.728 208.978 333.471 208.798 334.195C208.737 334.773 208.454 335.305 208.007 335.678C207.56 336.05 206.986 336.233 206.406 336.189C202.548 336.627 198.766 335.107 195.177 333.617L188.2 330.716C187.383 330.377 186.56 330.034 185.778 329.615C184.294 328.813 182.976 327.736 181.896 326.44C181.667 326.209 181.507 325.919 181.432 325.603C181.302 324.726 182.329 324.203 182.982 323.609C183.173 323.429 183.341 323.224 183.48 323.001C185.404 323.415 187.791 324.626 189.262 325.095C190.734 325.496 192.148 326.087 193.468 326.854C195.302 328.03 196.623 329.844 198.178 331.339C199.732 332.834 201.741 334.195 203.909 334.011C205.055 333.838 206.16 333.456 207.168 332.884L209.077 331.982Z" fill="black"/>
<path d="M200.909 261.158C201.039 261.61 201.027 262.091 200.875 262.536C200.724 262.982 200.44 263.37 200.062 263.65C199.409 264.053 198.567 263.999 197.919 264.437C197.116 265 197.002 266.117 196.862 267.084C196.364 270.408 194.714 273.423 193.304 276.478C191.893 279.533 190.702 282.867 191.221 286.186C191.574 288.439 192.681 290.841 191.644 292.87C191.39 293.368 191.011 293.811 190.722 294.295C189.302 296.667 190.109 299.672 190.054 302.433C190.075 302.74 190.008 303.046 189.86 303.316C189.642 303.57 189.374 303.777 189.073 303.924C188.567 304.296 188.151 304.777 187.857 305.332C187.562 305.887 187.397 306.501 187.373 307.128C187.331 308.383 187.482 309.637 187.822 310.846C187.876 311.334 188.092 311.79 188.435 312.142C188.831 312.404 189.3 312.536 189.775 312.521C192.906 312.774 195.978 313.521 198.876 314.733C200.764 315.521 202.598 316.508 204.607 316.886C204.801 316.947 205.006 316.967 205.208 316.945C205.41 316.924 205.606 316.861 205.783 316.762C206.036 316.534 206.21 316.232 206.281 315.9C207.054 313.358 207.836 310.736 207.572 308.095C207.458 306.959 207.154 305.847 207.074 304.711C206.725 300.226 209.76 296.179 210.722 291.753C211.156 289.76 211.156 287.696 211.465 285.683C212.302 280.166 215.342 275.217 216.513 269.76C216.676 268.742 216.93 267.742 217.271 266.77C218.143 264.656 220.161 262.942 220.206 260.654C220.234 260.151 220.101 259.652 219.827 259.229C219.358 258.713 218.733 258.364 218.048 258.232C215.341 257.487 212.585 256.931 209.8 256.568C208.524 256.317 207.221 256.227 205.923 256.299C204.236 256.497 202.615 257.069 201.178 257.973C199.254 259.159 200.49 259.443 200.909 261.158Z" fill="#454B69"/>
<path opacity="0.05" d="M200.909 261.158C201.039 261.61 201.027 262.091 200.875 262.536C200.724 262.982 200.44 263.37 200.062 263.65C199.409 264.053 198.567 263.999 197.919 264.437C197.116 265 197.002 266.117 196.862 267.084C196.364 270.408 194.714 273.423 193.304 276.478C191.893 279.533 190.702 282.867 191.221 286.186C191.574 288.439 192.681 290.841 191.644 292.87C191.39 293.368 191.011 293.811 190.722 294.295C189.302 296.667 190.109 299.672 190.054 302.433C190.075 302.74 190.008 303.046 189.86 303.316C189.642 303.57 189.374 303.777 189.073 303.924C188.567 304.296 188.151 304.777 187.857 305.332C187.562 305.887 187.397 306.501 187.373 307.128C187.331 308.383 187.482 309.637 187.822 310.846C187.876 311.334 188.092 311.79 188.435 312.142C188.831 312.404 189.3 312.536 189.775 312.521C192.906 312.774 195.978 313.521 198.876 314.733C200.764 315.521 202.598 316.508 204.607 316.886C204.801 316.947 205.006 316.967 205.208 316.945C205.41 316.924 205.606 316.861 205.783 316.762C206.036 316.534 206.21 316.232 206.281 315.9C207.054 313.358 207.836 310.736 207.572 308.095C207.458 306.959 207.154 305.847 207.074 304.711C206.725 300.226 209.76 296.179 210.722 291.753C211.156 289.76 211.156 287.696 211.465 285.683C212.302 280.166 215.342 275.217 216.513 269.76C216.676 268.742 216.93 267.742 217.271 266.77C218.143 264.656 220.161 262.942 220.206 260.654C220.234 260.151 220.101 259.652 219.827 259.229C219.358 258.713 218.733 258.364 218.048 258.232C215.341 257.487 212.585 256.931 209.8 256.568C208.524 256.317 207.221 256.227 205.923 256.299C204.236 256.497 202.615 257.069 201.178 257.973C199.254 259.159 200.49 259.443 200.909 261.158Z" fill="black"/>
<path d="M191.156 336.268H186.905L184.124 279.134L183.929 275.885L187.542 274.614L187.787 278.068L191.156 336.268Z" fill="#565661"/>
<path opacity="0.1" d="M187.787 278.068L184.124 279.134L183.929 275.885L187.542 274.614L187.787 278.068Z" fill="black"/>
<path d="M244.497 348.354L237.485 349.201L205.18 275.885L196.469 275.247L181.168 279.712L178.193 367.003H171.181L173.942 276.523L157.152 276.951L127.189 351.538H120.815L152.327 264.367L153.543 261.008L200.505 259.398L212.212 265.962L212.362 266.341L244.497 348.354Z" fill="#565661"/>
<path opacity="0.1" d="M212.362 266.341C202.27 269.381 191.794 272.7 191.794 272.7C191.794 272.7 182.24 276.034 178.193 272.7C177.683 272.302 177.112 271.987 176.503 271.768C177.029 272.143 177.596 272.456 178.193 272.7L152.327 264.362L153.538 261.008L200.505 259.398L212.212 265.962L212.362 266.341Z" fill="black"/>
<path d="M164.592 251.873L183.715 247.622C183.715 247.622 229.406 256.124 232.805 259.523C232.805 259.523 196.254 266.959 192.217 269.491C188.18 272.022 164.163 274.823 164.592 251.873Z" fill="white"/>
<path d="M156.369 204.084C154.874 208.823 150.792 213.094 145.823 213.299C145.461 213.341 145.095 213.275 144.771 213.109C144.148 212.721 144.134 211.808 144.388 211.116C144.642 210.423 145.085 209.8 145.155 209.072C145.17 208.924 145.16 208.774 145.125 208.629C144.996 208.036 144.512 207.507 143.944 207.632C144.331 207.323 144.589 206.88 144.667 206.391C144.745 205.901 144.639 205.401 144.368 204.986C144.142 204.731 143.939 204.458 143.76 204.168C143.346 203.321 143.989 202.369 144.258 201.462C144.811 199.469 143.406 197.475 143.291 195.397C143.192 193.538 144.134 191.789 144.368 189.945C144.742 186.954 143.256 184.089 143.082 181.103C142.962 179.02 143.476 176.957 144.049 174.949C144.547 173.154 145.11 171.34 145.145 169.466C145.145 168.106 144.911 166.76 144.846 165.405C144.743 164.165 144.968 162.921 145.499 161.796C145.844 161.135 146.432 160.633 147.139 160.396C148.773 159.848 149.845 160.7 150.084 162.25C150.483 164.886 150.254 167.578 150.777 170.224C151.261 172.699 151.994 175.118 152.965 177.445C153.847 179.549 154.918 181.582 155.596 183.76C156.106 185.555 156.471 187.388 156.688 189.242C157.355 194.221 157.879 199.344 156.369 204.084Z" fill="#50A3A8"/>
<path d="M269.879 324.711C269.249 325.599 268.438 326.345 267.499 326.898C266.56 327.451 265.515 327.8 264.432 327.92C262.269 328.189 260.021 327.646 257.923 328.239C257.598 328.293 257.292 328.426 257.031 328.627C256.77 328.828 256.563 329.09 256.428 329.391C256.376 329.796 256.345 330.203 256.333 330.612C256.089 331.942 254.34 332.241 252.979 332.231L247.368 332.196C246.201 332.196 244.911 332.132 244.073 331.324C243.675 330.883 243.451 330.313 243.442 329.719C243.432 329.125 243.639 328.548 244.024 328.095C244.198 327.889 244.411 327.719 244.652 327.596C244.301 327.48 243.99 327.269 243.752 326.987C243.515 326.705 243.36 326.362 243.306 325.997C243.204 325.264 243.239 324.519 243.411 323.799C243.411 321.716 243.909 318.227 245.374 316.597C247.173 314.569 250.293 311.947 253.009 311.404C253.926 311.228 254.872 311.27 255.77 311.525C256.669 311.78 257.495 312.242 258.182 312.874C259.468 314.07 260.405 315.944 262.169 316.154C263.131 316.273 264.058 315.82 265.01 315.655C266.092 315.516 267.191 315.715 268.155 316.224C269.12 316.734 269.903 317.529 270.398 318.501C270.639 318.994 270.807 319.519 270.896 320.061C271.159 321.684 270.796 323.346 269.879 324.711Z" fill="#A26565"/>
<path opacity="0.1" d="M269.879 324.711C269.249 325.599 268.438 326.345 267.499 326.898C266.56 327.451 265.515 327.8 264.432 327.92C262.269 328.189 260.022 327.646 257.923 328.239C257.598 328.293 257.292 328.426 257.031 328.627C256.77 328.828 256.563 329.09 256.428 329.391C256.376 329.796 256.345 330.203 256.334 330.612C256.089 331.942 254.34 332.241 252.979 332.231L247.368 332.196C246.202 332.196 244.911 332.132 244.073 331.324C243.675 330.883 243.451 330.313 243.442 329.719C243.433 329.125 243.639 328.548 244.024 328.095C247.263 327.96 250.448 328.095 253.677 327.427C254.988 327.163 256.279 326.814 257.604 326.63C260.475 326.221 263.53 326.57 266.167 325.354C268.364 324.357 269.939 322.329 270.871 320.066C271.141 321.684 270.786 323.344 269.879 324.711Z" fill="black"/>
<path d="M255.073 316.831C253.079 318.376 250.742 319.582 248.23 319.712C245.718 319.842 243.052 318.715 241.821 316.532C240.022 313.328 241.616 308.872 239.413 305.932C238.726 305.01 237.734 304.357 237.006 303.465C236.279 302.573 235.86 301.232 236.508 300.285C235.726 300.584 234.898 299.827 234.669 299.019C234.44 298.212 234.584 297.345 234.445 296.527C234.081 294.36 231.953 292.969 230.931 291.045C229.909 289.122 230.049 286.625 229.934 284.347C229.68 278.798 227.614 273.485 224.054 269.221C223.376 268.414 222.509 267.592 221.452 267.632C221.636 265.808 220.42 264.063 218.845 263.146C217.271 262.229 215.397 261.92 213.573 261.741C195.168 259.927 175.99 266.769 158.417 261.013C153.528 259.413 148.814 256.737 145.823 252.541C144.658 250.944 143.825 249.13 143.372 247.205C142.92 245.281 142.856 243.286 143.187 241.337V241.267C143.88 237.729 145.748 236.857 148.843 235.242C152.416 233.353 156.151 231.787 160.002 230.562C167.478 228.225 175.527 227.383 183.241 229.097C186.845 229.904 190.318 231.24 193.927 232.023C195.347 232.332 196.777 232.551 198.218 232.735C200.455 233.014 202.703 233.199 204.956 233.458C212.159 234.287 219.252 235.883 226.117 238.217C228.673 239.085 231.23 240.076 233.428 241.646C235.166 242.909 236.636 244.505 237.752 246.341C238.868 248.177 239.607 250.217 239.927 252.341C240.136 253.807 240.141 255.332 240.46 256.752C240.762 257.946 241.162 259.113 241.656 260.241C245.915 270.769 249.394 281.597 252.067 292.635C252.219 293.455 252.5 294.246 252.9 294.978C253.538 296.009 254.634 296.702 255.277 297.734C256.772 300.166 255.332 303.56 256.657 306.091C257.116 306.968 257.878 307.661 258.337 308.538C259.832 311.414 257.624 314.853 255.073 316.831Z" fill="#454B69"/>
<path opacity="0.1" d="M229.605 259.568C230.314 259.007 230.925 258.334 231.414 257.574C231.906 256.811 232.101 255.895 231.963 254.998C232.157 256.132 232.083 257.297 231.746 258.398C231.41 259.499 230.82 260.505 230.024 261.337C228.773 262.618 226.426 263.874 224.597 263.435C224.856 261.97 228.444 260.555 229.605 259.568Z" fill="black"/>
<path opacity="0.1" d="M198.467 234.729C198.316 235.263 198.035 235.751 197.649 236.15C197.263 236.548 196.783 236.844 196.254 237.011C195.191 237.336 194.079 237.466 192.97 237.395H191.973C178.895 237.106 165.678 234.205 152.905 236.971C151.366 237.289 149.855 237.734 148.39 238.302C146.523 239.038 144.774 240.046 143.202 241.292V241.223C143.894 237.684 145.763 236.812 148.858 235.197C152.428 233.324 156.157 231.773 160.002 230.562C167.478 228.225 175.526 227.383 183.241 229.097C186.845 229.904 190.318 231.24 193.926 232.023C195.347 232.332 196.777 232.551 198.218 232.735C198.497 233.36 198.584 234.054 198.467 234.729Z" fill="black"/>
<path d="M198.467 234.016C198.317 234.552 198.037 235.041 197.65 235.441C197.264 235.84 196.784 236.137 196.254 236.304C195.191 236.629 194.078 236.758 192.97 236.683H191.973C178.895 236.394 165.678 233.493 152.905 236.259C151.366 236.577 149.856 237.02 148.39 237.585C146.434 238.364 144.611 239.44 142.982 240.774C142.6 239.724 142.22 238.673 141.841 237.62C141.383 236.364 142.838 236.085 143.117 234.958C143.301 234.196 142.987 233.328 142.828 232.516C142.787 232.317 142.76 232.116 142.748 231.913C142.658 230.114 143.301 229.077 144.777 228.105C149.152 225.215 154.49 223.231 159.484 221.741C162.138 220.902 164.881 220.37 167.657 220.156C171.584 219.927 175.506 220.655 179.329 221.577C184.029 222.738 188.679 224.273 192.845 226.73C194.888 227.921 196.882 229.416 197.983 231.539C198.423 232.285 198.593 233.16 198.467 234.016Z" fill="#A26565"/>
<path opacity="0.1" d="M156.369 204.084C154.874 208.823 150.792 213.094 145.823 213.299C145.462 213.341 145.096 213.275 144.772 213.109C144.149 212.721 144.134 211.809 144.388 211.116C144.642 210.423 145.086 209.8 145.155 209.072C145.17 208.924 145.16 208.774 145.126 208.629C147.762 204.911 150.319 201.153 151.33 196.753C151.535 195.995 151.598 195.206 151.515 194.425C151.38 193.528 150.927 192.716 150.677 191.849C150.239 190.314 150.443 188.689 150.568 187.099C151.087 180.098 149.918 173.076 147.159 166.621C146.486 165.066 145.719 163.491 145.484 161.831C145.829 161.17 146.417 160.668 147.124 160.431C148.759 159.883 149.83 160.735 150.069 162.285C150.468 164.921 150.239 167.612 150.762 170.259C151.246 172.734 151.979 175.153 152.95 177.48C153.832 179.583 154.904 181.617 155.582 183.795C156.092 185.59 156.457 187.423 156.673 189.277C157.356 194.221 157.879 199.344 156.369 204.084Z" fill="black"/>
<path opacity="0.1" d="M198.467 234.016C198.317 234.551 198.037 235.041 197.65 235.441C197.264 235.84 196.784 236.137 196.254 236.304C195.191 236.629 194.078 236.758 192.97 236.682H191.973C187.716 233.855 182.598 232.62 177.52 233.194C175.895 233.388 174.27 233.767 172.646 233.617C169.361 233.318 166.7 230.956 163.775 229.446C160.446 227.802 156.702 227.191 153.023 227.69C149.344 228.189 145.898 229.776 143.127 232.247L142.843 232.496C142.802 232.297 142.775 232.096 142.763 231.893C142.673 230.094 143.316 229.057 144.791 228.085C149.167 225.195 154.505 223.211 159.499 221.721C162.153 220.882 164.896 220.35 167.672 220.136C171.599 219.907 175.521 220.635 179.344 221.557C184.044 222.718 188.694 224.253 192.86 226.71C194.888 227.921 196.882 229.416 197.983 231.539C198.423 232.285 198.593 233.16 198.467 234.016Z" fill="black"/>
<path d="M209.645 179.424L209.576 179.603C208.459 182.499 206.406 184.946 205.09 187.767C203.431 191.34 203.022 195.347 202.653 199.274C202.334 202.638 202.02 206.022 202.274 209.396C202.912 217.709 206.974 225.594 208.061 233.747C208.328 235.63 208.397 237.536 208.265 239.433C208.175 240.635 207.956 241.925 207.159 242.812C206.361 243.7 204.811 244.048 203.954 243.196C204.338 242.464 204.726 241.736 205.115 241.003C202.838 239.234 199.409 240.505 196.747 239.399C195.576 238.9 194.639 238.003 193.657 237.201C191.417 235.379 188.834 234.023 186.062 233.214C183.29 232.404 180.384 232.157 177.515 232.486C175.89 232.685 174.266 233.064 172.641 232.915C169.357 232.611 166.695 230.253 163.77 228.743C160.441 227.1 156.697 226.489 153.019 226.987C149.34 227.485 145.894 229.07 143.122 231.539C142.424 232.187 141.487 232.945 140.63 232.536C140.299 232.333 140.031 232.041 139.858 231.694C136.593 226.117 138.995 218.925 142.484 213.493C145.973 208.061 150.593 203.052 152.028 196.757C152.235 196 152.298 195.211 152.212 194.43C152.078 193.533 151.624 192.721 151.375 191.853C150.937 190.318 151.141 188.694 151.266 187.104C151.788 180.102 150.623 173.078 147.867 166.621C147.069 164.762 146.122 162.878 146.122 160.859C146.122 157.68 148.4 155.043 150.284 152.487C152.452 149.546 154.271 146.292 157.017 143.875C159.618 141.577 163.386 140.172 166.606 141.338C172.076 140.01 177.707 139.461 183.331 139.708C185.275 139.798 187.283 140.002 188.988 140.944C190.812 141.941 192.122 143.715 193.917 144.777C195.227 145.559 196.737 145.928 198.163 146.476C202.099 148.013 205.348 150.919 207.313 154.66C209.307 158.522 209.805 162.963 210.243 167.288C210.662 171.36 211.061 175.591 209.645 179.424Z" fill="#50A3A8"/>
<path opacity="0.1" d="M202.274 209.396C202.912 217.709 206.974 225.593 208.061 233.747C205.888 231.908 202.862 230.059 202.459 227.921C202.01 225.608 200.575 222.578 200.336 220.241C200.096 217.904 201.736 215.048 200.017 213.443C199.179 212.661 201.407 212.88 200.59 212.078C198.751 210.288 198.297 207.532 198.183 204.976C197.988 200.45 198.561 195.875 197.729 191.425C197.231 188.679 196.189 186.062 195.357 183.396C194.39 180.291 193.692 177.111 192.995 173.927C192.308 171.095 191.808 168.222 191.499 165.325C191.285 162.833 191.385 160.191 192.496 157.919C193.608 155.646 195.855 153.802 198.377 153.837C206.81 153.947 205.354 165.38 207.208 170.662C207.951 172.766 208.953 174.799 209.356 176.992C209.504 177.851 209.584 178.721 209.596 179.593C208.479 182.489 206.426 184.936 205.11 187.757C203.451 191.33 203.042 195.337 202.673 199.264C202.334 202.638 202.02 206.022 202.274 209.396Z" fill="black"/>
<path d="M207.757 170.533C208.499 172.636 209.501 174.67 209.905 176.862C210.578 180.535 209.536 184.438 210.667 187.996C210.962 188.756 211.208 189.533 211.405 190.324C211.599 191.455 211.375 192.611 211.375 193.762C211.375 195.616 211.958 197.411 212.477 199.19C214.229 205.236 215.389 211.438 215.94 217.709C216.023 219.395 216.288 221.066 216.733 222.693C216.942 223.245 217.122 223.807 217.271 224.378C217.405 225.139 217.437 225.915 217.366 226.685C217.231 229.127 216.957 231.579 217.231 234.011C217.505 236.443 218.392 238.91 220.221 240.54C218.587 240.894 216.857 241.248 215.262 240.724C213.02 239.992 211.674 237.734 210.533 235.681C209.088 233.059 203.595 230.697 203.027 227.752C202.584 225.444 201.148 222.414 200.909 220.072C200.67 217.729 202.305 214.884 200.585 213.279C199.753 212.496 201.981 212.711 201.158 211.913C199.324 210.124 198.871 207.368 198.756 204.806C198.562 200.286 199.13 195.711 198.303 191.261C197.804 188.514 196.763 185.898 195.93 183.227C194.964 180.127 194.266 176.947 193.568 173.758C192.879 170.927 192.38 168.053 192.073 165.156C191.859 162.664 191.953 160.017 193.07 157.745C194.186 155.472 196.434 153.633 198.951 153.663C207.348 153.812 205.903 165.25 207.757 170.533Z" fill="#50A3A8"/>
<path opacity="0.1" d="M183.725 172.481C184.513 173.403 185.524 174.415 186.715 174.236C186.625 174.379 186.482 174.481 186.317 174.52C186.152 174.559 185.978 174.532 185.833 174.445C185.547 174.256 185.318 173.992 185.17 173.683L183.466 170.807C183.242 170.433 181.697 168.255 181.318 169.511C181.168 170.044 183.341 172.033 183.725 172.481Z" fill="black"/>
<path opacity="0.1" d="M182.808 179.653C182.759 178.713 182.363 177.825 181.697 177.161C181.098 176.618 180.399 176.196 179.638 175.92C177.769 175.153 175.557 174.535 173.528 174.634C174.266 175.711 176.633 176.354 177.819 176.962C179.501 177.829 181.163 178.726 182.808 179.653Z" fill="black"/>
<path opacity="0.1" d="M188.115 200.067C187.772 202.618 185.683 204.552 183.57 206.047C181.457 207.542 179.085 208.828 177.704 210.991C176.747 212.486 176.319 214.221 175.506 215.781C174.609 217.5 173.269 218.945 172.197 220.56C171.126 222.175 170.288 224.103 170.617 226.017C170.622 226.105 170.645 226.191 170.684 226.27C170.724 226.349 170.779 226.419 170.847 226.476C170.949 226.519 171.061 226.535 171.172 226.523C171.283 226.511 171.389 226.471 171.48 226.406C173.652 225.27 174.51 222.673 175.422 220.425C176.379 218.157 177.457 215.941 178.651 213.787C179.189 212.79 179.783 211.704 180.784 211.151C181.47 210.865 182.172 210.62 182.887 210.418C183.902 209.953 184.791 209.254 185.484 208.38C188.205 205.134 189.625 200.995 189.471 196.762C189.441 195.87 189.391 191.574 188.051 192.9C186.71 194.226 188.345 198.332 188.115 200.067Z" fill="black"/>
<path d="M191.4 102.2C195.686 104.069 199.374 108.181 199.239 112.841C199.125 117.735 195.028 122.345 196.438 127.035C197.256 129.756 199.718 131.58 201.666 133.648C209.087 141.502 209.072 155.213 201.627 163.052C198.776 166.043 195.113 168.171 192.098 171.026C181.467 181.044 181.014 198.372 186.705 211.823C182.344 212.767 177.9 213.268 173.438 213.319C171.35 213.319 168.793 212.965 168.036 211.016C167.338 209.217 168.534 206.785 167.159 205.454C166.511 204.831 165.539 204.747 164.667 204.602C159.055 203.695 154.45 199.215 152.347 193.937C150.244 188.659 150.354 182.718 151.56 177.166C152.417 173.154 153.757 168.739 151.769 165.15C149.277 160.635 142.11 158.731 142.22 153.568C142.31 149.337 147.298 147.279 150.129 144.134C155.352 138.343 152.865 129.357 152.855 121.552C152.855 114.685 155.258 107.598 160.371 103.023C167.976 96.1601 182.623 98.3879 191.4 102.2Z" fill="#4A3939"/>
<g opacity="0.1">
<path opacity="0.1" d="M152.586 160.032C150.398 156.085 144.652 154.131 143.317 150.249C142.648 151.155 142.273 152.244 142.24 153.369C142.13 158.532 149.287 160.436 151.789 164.956C152.61 166.556 152.956 168.359 152.786 170.149C153.573 166.681 154.266 163.062 152.586 160.032Z" fill="black"/>
<path opacity="0.1" d="M197.012 120.645C197.909 118.029 199.209 115.388 199.274 112.671C199.283 112.377 199.275 112.083 199.249 111.789C198.248 114.79 196.713 117.7 197.012 120.645Z" fill="black"/>
<path opacity="0.1" d="M153.444 134.585C155.158 129.168 153.678 122.45 153.673 116.439C153.673 115.711 153.703 114.979 153.758 114.251C153.167 116.574 152.869 118.961 152.871 121.358C152.881 125.649 153.633 130.304 153.444 134.585Z" fill="black"/>
<path opacity="0.1" d="M202.459 157.954C199.608 160.944 195.945 163.072 192.93 165.928C187.548 170.997 184.782 177.939 184.089 185.3C185.375 179.818 187.971 174.769 192.133 170.847C195.123 168.006 198.811 165.888 201.662 162.873C205.053 159.178 207.022 154.399 207.219 149.387C206.358 152.589 204.723 155.531 202.459 157.954Z" fill="black"/>
<path opacity="0.1" d="M174.271 208.205C172.183 208.205 169.626 207.847 168.868 205.898C168.171 204.104 169.367 201.672 167.991 200.336C167.343 199.713 166.366 199.628 165.499 199.484C159.893 198.582 155.288 194.096 153.184 188.824C151.634 184.926 151.301 180.675 151.689 176.479C151.649 176.643 151.614 176.808 151.58 176.977C150.393 182.529 150.269 188.475 152.367 193.753C154.465 199.03 159.075 203.511 164.682 204.413C165.569 204.557 166.546 204.647 167.174 205.265C168.564 206.601 167.353 209.033 168.051 210.827C168.808 212.776 171.365 213.159 173.453 213.134C177.915 213.083 182.359 212.582 186.72 211.639C186.105 210.185 185.568 208.7 185.11 207.189C181.531 207.825 177.906 208.165 174.271 208.205Z" fill="black"/>
</g>
<path opacity="0.1" d="M190.593 186.471C191.824 187.398 193.159 183.865 192.397 182.982C192.192 183.212 190.403 186.341 190.593 186.471Z" fill="black"/>
<path opacity="0.1" d="M195.84 250.433C197.291 249.934 198.831 249.436 199.778 248.24C200.56 247.278 201.203 243.46 199.548 245.289C198.143 246.859 197.48 248.928 195.84 250.433Z" fill="black"/>
<path opacity="0.1" d="M210.607 246.431C210.433 247.607 210.109 248.828 209.277 249.675C209.122 249.835 208.778 249.934 208.733 249.72C209.663 249.225 210.527 248.616 211.305 247.906C212.99 246.236 213.219 242.125 210.652 241.033C210.627 242.837 210.881 244.597 210.607 246.431Z" fill="black"/>
<path d="M228.335 239.02C228.335 239.02 214.191 233.463 209.077 234.036C203.964 234.609 214.869 242.668 214.869 242.668L221.387 247.064C221.387 247.064 225.374 245.569 225.639 245.454C225.903 245.339 228.335 239.02 228.335 239.02Z" fill="#454B69"/>
<path d="M131.017 179.404C131.017 179.404 141.642 173.244 155.666 180.899C169.691 188.554 172.028 233.603 172.028 233.603C172.028 233.603 166.292 279.498 188.41 269.286C188.41 269.286 228.778 256.752 232.82 259.513C232.82 259.513 236.648 259.513 228.998 261.213C221.347 262.912 191.794 272.277 191.794 272.277C191.794 272.277 182.24 275.616 178.193 272.277C174.146 268.937 162.679 272.705 161.188 249.75C160.202 235.284 158.429 220.883 155.876 206.61L151.933 194.924L131.017 179.404Z" fill="#565661"/>
<path d="M129.741 250.383C129.741 250.383 134.415 203.844 126.75 187.054C120.082 172.422 145.868 179.264 152.596 181.258C153.637 181.569 154.546 182.218 155.178 183.102C159.165 188.709 173.468 211.181 169.252 241.248C169.252 241.248 167.552 268.025 178.178 272.272L145.439 261.726C142.783 260.869 140.087 260.156 137.366 259.538C133.897 258.751 128.245 256.513 129.741 250.383Z" fill="white"/>
<path d="M362.587 337.265H366.839L369.624 280.131L369.814 276.882L366.201 275.611L365.961 279.065L362.587 337.265Z" fill="#565661"/>
<path opacity="0.1" d="M365.961 279.065L369.625 280.131L369.814 276.882L366.201 275.611L365.961 279.065Z" fill="black"/>
<path d="M327.093 315.202C326.988 315.984 326.787 316.751 326.495 317.484C326.193 318.442 325.544 319.252 324.676 319.757C324.093 319.998 323.468 320.121 322.837 320.121C320.489 320.26 318.007 320.225 315.989 319.029C315.129 318.475 314.341 317.817 313.642 317.071C309.106 312.564 304.983 307.66 301.322 302.418C300.709 301.536 300.076 300.495 300.35 299.428C305.092 298.113 309.596 296.052 313.692 293.323C314.257 292.889 314.89 292.553 315.565 292.326C316.722 292.079 317.912 292.035 319.084 292.197C320.215 292.381 320.265 292.416 320.699 293.692C321.416 295.85 321.297 298.177 322.104 300.335C322.617 301.528 323.241 302.669 323.968 303.744C326.051 307.228 327.651 311.339 327.093 315.202Z" fill="#A26565"/>
<path opacity="0.1" d="M327.093 315.202C326.988 315.984 326.787 316.751 326.495 317.484C326.193 318.442 325.544 319.252 324.676 319.757C324.093 319.998 323.468 320.121 322.837 320.121C320.489 320.26 318.007 320.225 315.989 319.029C315.129 318.475 314.341 317.817 313.642 317.071C309.106 312.564 304.983 307.66 301.322 302.418C300.709 301.536 300.076 300.495 300.35 299.428C301.897 298.999 303.421 298.49 304.915 297.903L304.99 297.958C306.52 299.049 307.631 300.614 308.713 302.149L312.201 307.058C312.823 308.022 313.558 308.909 314.389 309.7C315.42 310.527 316.559 311.211 317.773 311.733C319.413 312.525 321.053 313.318 322.757 313.956C323.858 314.399 325.722 314.574 327.093 315.202Z" fill="black"/>
<path d="M330.312 261.98C329.969 262.808 329.552 263.604 329.067 264.357C324.434 272.136 320.861 280.498 318.441 289.221C317.753 289.067 317.365 290.004 317.37 290.717C317.375 291.429 317.37 292.326 316.712 292.585C316.517 292.66 316.298 292.66 316.109 292.745C315.69 292.934 315.57 293.468 315.511 293.926L314.923 298.242C314.718 299.737 314.539 301.357 315.271 302.678C315.777 303.463 316.432 304.14 317.2 304.671L326.928 312.346C327.327 312.66 327.821 312.994 328.299 312.82C329.39 312.421 328.424 310.467 329.296 309.675C329.874 309.132 330.791 309.54 331.593 309.475C332.64 309.396 333.432 308.434 333.696 307.422C333.882 306.392 333.9 305.338 333.751 304.302C333.685 303.83 333.74 303.348 333.911 302.902C334.208 302.429 334.617 302.037 335.102 301.761C336.79 300.528 338.15 298.9 339.063 297.02C339.976 295.14 340.415 293.065 340.34 290.976C340.261 290.34 340.284 289.695 340.41 289.067C340.612 288.492 340.918 287.958 341.312 287.492C344.845 282.713 347.791 277.524 350.716 272.346C352.401 269.356 354.115 266.321 354.703 262.952C354.754 262.827 354.775 262.691 354.765 262.556C354.754 262.421 354.713 262.291 354.643 262.175C354.573 262.059 354.478 261.96 354.364 261.888C354.249 261.815 354.12 261.77 353.985 261.756C352.526 261.3 351.037 260.944 349.53 260.689C344.95 259.762 340.529 258.332 336.074 256.956C331.618 255.581 331.653 258.382 330.312 261.98Z" fill="#454B69"/>
<path d="M309.246 349.351L316.263 350.198L348.563 276.882L357.275 276.244L372.58 280.709L375.55 368H382.562L379.801 277.52L396.592 277.948L426.554 352.535H432.928L401.416 265.364L400.205 262.005L353.238 260.395L341.531 266.959L341.381 267.338L309.246 349.351Z" fill="#565661"/>
<path opacity="0.1" d="M341.381 267.338C351.473 270.378 361.949 273.697 361.949 273.697C361.949 273.697 371.503 277.031 375.55 273.697C376.06 273.299 376.631 272.984 377.24 272.765C376.714 273.14 376.147 273.453 375.55 273.697L401.416 265.359L400.22 262.005L353.253 260.395L341.546 266.959L341.381 267.338Z" fill="black"/>
<path d="M389.151 252.87L370.028 248.619C370.028 248.619 324.337 257.121 320.938 260.52C320.938 260.52 357.489 267.956 361.526 270.487C365.563 273.019 389.579 275.82 389.151 252.87Z" fill="white"/>
<path d="M318.192 321.187C317.041 323.38 314.205 323.998 311.713 324.033C308.253 324.076 304.817 323.462 301.586 322.224C299.742 321.516 297.973 320.604 296.069 320.086C293.233 319.308 290.088 319.373 287.597 317.813C286.275 316.932 285.183 315.748 284.412 314.36C284.267 314.115 284.128 313.861 283.998 313.602C282.807 311.285 282.254 308.588 282.917 306.086C283.58 303.585 285.987 300.829 288.778 300.868C292.092 300.918 296.044 302.488 299.244 303.301C303.231 304.297 307.218 305.449 310.741 307.557C313.692 309.331 316.298 311.878 317.689 314.988C317.956 315.587 318.176 316.207 318.346 316.841C318.78 318.277 318.88 319.877 318.192 321.187Z" fill="#A26565"/>
<path opacity="0.1" d="M318.192 321.187C317.04 323.38 314.205 323.998 311.713 324.033C308.253 324.076 304.817 323.462 301.586 322.224C299.742 321.516 297.973 320.604 296.069 320.086C293.233 319.308 290.088 319.373 287.596 317.813C286.275 316.932 285.183 315.748 284.412 314.36C284.267 314.115 284.128 313.861 283.998 313.602C284.496 313.642 284.955 313.692 285.204 313.717C288.264 314.011 291.185 315.127 294.105 315.969C298.16 317.14 302.346 317.794 306.565 317.913C309.555 317.998 312.675 317.778 315.286 316.318C316.066 315.826 316.875 315.382 317.708 314.988C317.976 315.587 318.196 316.207 318.366 316.842C318.78 318.277 318.879 319.877 318.192 321.187Z" fill="black"/>
<path d="M339.607 226.426C333.128 225.364 326.53 225.105 319.961 224.846L311.928 224.527C311.356 224.461 310.777 224.531 310.238 224.731C309.773 225.03 309.332 225.363 308.917 225.728C308.11 226.276 307.078 226.336 306.106 226.391C299.212 226.771 292.356 227.66 285.593 229.052C282.105 229.765 278.481 230.697 275.86 233.104C273.089 235.651 271.873 239.533 271.778 243.291C271.684 247.049 272.67 250.742 273.712 254.35C275.038 258.694 275.771 263.197 275.89 267.736C275.843 268.996 275.891 270.257 276.034 271.509C276.266 272.705 276.619 273.873 277.086 274.998L280.754 284.791C281.078 285.648 281.397 286.5 281.751 287.338C282.105 288.175 282.444 288.833 282.748 289.62C283.196 290.697 283.55 291.813 283.904 292.924L286.346 300.594L286.665 301.591C287.547 304.352 288.449 307.163 290.114 309.535C291.778 311.908 294.355 313.821 297.25 313.966C298.185 313.931 299.12 313.956 300.051 314.041C300.845 314.234 301.615 314.513 302.349 314.873C304.523 315.776 306.857 316.232 309.211 316.214C311.379 316.214 313.786 315.611 314.963 313.786C315.611 312.79 315.78 311.564 315.959 310.388C316.273 308.025 316.577 305.558 315.775 303.316C315.277 301.975 314.439 300.824 313.861 299.503C313.054 297.704 312.79 295.715 312.266 293.817C311.134 289.73 308.83 286.064 305.638 283.271C304.504 278.783 303.672 274.224 303.146 269.625C303.073 268.607 302.87 267.602 302.543 266.635C301.96 265.14 300.779 263.929 300.285 262.404C299.822 260.988 299.962 259.354 299.119 258.133C306.131 260.061 313.074 259.628 320.355 259.513C322.687 259.521 325.017 259.388 327.332 259.115C328.412 258.917 329.505 258.8 330.602 258.766C332.854 258.766 334.967 259.762 337.036 260.64C342.882 263.131 349.042 265.09 355.391 265.359C361.945 265.633 368.424 264.093 374.828 262.568C377.644 261.895 380.569 261.168 382.802 259.319C385.034 257.47 386.29 254.136 384.915 251.599C383.868 249.69 381.7 248.753 379.677 247.956C374.075 245.743 368.443 243.585 363.046 240.909C354.803 236.892 348.638 227.921 339.607 226.426Z" fill="#454B69"/>
<path d="M328.055 203.879C327.272 205.574 325.957 206.959 324.985 208.554C323.359 211.179 322.823 214.335 323.49 217.35C323.84 218.841 324.528 220.231 325.5 221.414C326.472 222.596 327.702 223.54 329.096 224.173C330.341 224.669 331.65 224.984 332.984 225.11C334.738 225.324 336.607 225.369 338.157 224.522C339.317 223.826 340.269 222.831 340.913 221.641C342.254 219.399 343.016 216.872 343.714 214.355C345.005 209.71 346.106 204.946 345.947 200.126C345.892 198.467 345.563 196.598 344.187 195.641C343.477 195.231 342.69 194.973 341.875 194.883L335.301 193.707C334.03 193.478 331.813 192.546 330.711 193.463C329.61 194.38 329.525 197.091 329.336 198.362C329.037 200.241 328.852 202.15 328.055 203.879Z" fill="#F8B9BF"/>
<path d="M407.959 184.602L406.24 199.015C405.884 201.586 405.679 204.175 405.627 206.77C405.627 208.215 405.672 209.82 404.715 210.901C404.247 211.394 403.655 211.75 403.001 211.933C400.912 212.581 398.635 212.003 396.641 211.111C395.475 210.612 394.284 209.89 393.756 208.729C393.449 207.923 393.321 207.061 393.382 206.202C393.382 197.605 394.194 188.639 398.685 181.313C399.068 180.594 399.608 179.97 400.265 179.489C401.51 178.691 403.14 178.916 404.551 179.349C405.418 179.613 407.76 179.907 408.313 180.68C408.866 181.452 408.079 183.61 407.959 184.602Z" fill="#A1616A"/>
<path d="M362.343 132.482C372.252 132.482 380.285 124.449 380.285 114.54C380.285 104.631 372.252 96.5986 362.343 96.5986C352.435 96.5986 344.402 104.631 344.402 114.54C344.402 124.449 352.435 132.482 362.343 132.482Z" fill="#F8B9BF"/>
<path d="M357.544 141.278C357.479 142.674 357.099 144.037 356.432 145.265C365.593 143.87 374.73 142.315 383.843 140.6C380.819 139.046 378.533 136.359 377.484 133.125C376.988 131.391 376.717 129.6 376.677 127.797C376.532 124.938 376.587 122.072 376.841 119.22C373.651 119.554 370.631 120.75 367.591 121.777C364.535 122.81 361.425 123.68 358.276 124.383C356.756 124.722 355.226 125.011 353.691 125.28C351.897 125.599 351.035 125.594 352.281 127.169C355.625 131.375 358.012 135.651 357.544 141.278Z" fill="#F8B9BF"/>
<path d="M363.056 138.881C360.688 139.235 358.206 139.633 356.318 141.099C355.599 141.716 354.915 142.373 354.269 143.067C350.516 146.71 345.219 148.176 340.664 150.747C339.921 151.114 339.262 151.632 338.73 152.267C338.231 152.96 337.977 153.842 337.454 154.53C336.846 155.327 335.884 155.826 335.411 156.708C334.937 157.59 335.042 158.527 334.992 159.464C334.877 161.522 334.1 163.476 333.497 165.444C330.731 174.869 332.246 185.379 328.06 194.28C328.252 194.793 328.547 195.262 328.925 195.657C329.304 196.053 329.759 196.368 330.262 196.583C331.316 196.962 332.415 197.199 333.532 197.286L342.807 198.437C344.132 198.601 345.538 198.756 346.749 198.203C345.641 201.257 344.857 204.419 344.411 207.637C344.186 209.604 343.836 211.555 343.365 213.478C342.089 217.864 338.879 221.517 335.077 224.014C334.598 224.264 334.194 224.638 333.906 225.095C333.407 226.092 334.145 227.208 334.668 228.185C336.188 231.016 335.979 234.415 335.959 237.624C335.939 240.834 336.263 244.357 338.506 246.66C339.831 248.02 341.645 248.758 343.41 249.461L357.917 255.257C360.312 256.276 362.781 257.109 365.303 257.749C369.126 258.621 373.098 258.586 377.02 258.417C379.612 258.307 382.2 258.141 384.785 257.918C385.813 257.915 386.824 257.649 387.72 257.146C388.492 256.537 389.086 255.731 389.44 254.813C391.458 250.423 392.136 245.299 395.266 241.621C397.414 239.095 400.748 237.076 400.992 233.772C401.107 232.127 400.374 230.527 400.364 228.878C400.364 226.849 401.426 224.921 401.361 222.897C401.226 219.603 398.121 217.091 397.628 213.832C396.372 205.569 400.568 197.316 403.145 189.366C403.609 187.946 404.207 186.376 405.572 185.768C406.938 185.16 408.861 185.479 409.35 184.133C410.581 180.754 410.875 176.792 410.715 173.199C410.626 171.121 409.888 169.087 409.973 167.004C410.033 165.539 410.501 164.114 410.626 162.653C410.815 160.446 410.232 158.253 409.629 156.12C409.455 155.358 409.194 154.619 408.851 153.917C408.483 153.28 408.049 152.684 407.556 152.138L405.129 149.252C403.992 147.901 402.791 146.501 401.142 145.818C400.608 144.498 398.904 143.586 397.683 142.858C396.452 142.159 395.181 141.535 393.875 140.989L380.15 134.929C379.637 134.67 379.087 134.492 378.52 134.4C377.685 134.372 376.855 134.543 376.098 134.899C371.912 136.558 367.541 138.213 363.056 138.881Z" fill="#E8E592"/>
<path d="M348.518 117.66C347.99 115.801 346.639 114.196 346.435 112.273C346.251 110.563 347.003 108.909 347.432 107.244C347.86 105.579 347.845 103.546 346.525 102.44C346.305 102.25 346.026 102.081 345.947 101.802C345.787 101.303 346.29 100.85 346.445 100.346C346.729 99.3497 345.498 98.2483 345.947 97.2914C346.201 96.7681 346.839 96.5837 347.397 96.4192C349.53 95.7863 351.693 94.3809 352.156 92.203C353.826 92.9007 355.605 91.5899 356.886 90.3191C358.167 89.0482 359.742 87.5979 361.506 87.9817L361.112 88.7841C363.833 87.7965 366.808 87.7631 369.55 88.6894H368.712C371.117 88.7301 373.45 89.5193 375.386 90.947C375.171 90.947 375.152 91.266 375.236 91.4454C375.934 93.0751 377.728 93.9373 379.458 94.341C380.499 94.5902 381.63 94.7696 382.393 95.5172C383.155 96.2647 383.17 97.8246 382.164 98.1835C384.217 98.9828 386.161 100.038 387.95 101.323C388.448 101.687 389.011 102.18 388.947 102.818C388.875 103.139 388.772 103.451 388.638 103.75C388.538 104.282 388.574 104.831 388.742 105.345L389.295 107.628C389.903 110.164 390.382 113.22 388.533 115.059C389.225 116.352 389.482 117.834 389.266 119.284C389.049 120.735 388.371 122.077 387.332 123.112C387.478 123.558 387.529 124.029 387.48 124.495C387.432 124.961 387.285 125.412 387.05 125.817C386.814 126.223 386.495 126.574 386.115 126.847C385.734 127.12 385.299 127.31 384.84 127.403C385.453 128.36 384.89 129.726 383.923 130.324C382.956 130.922 381.74 130.927 380.614 130.822C379.487 130.718 378.346 130.463 377.22 130.633C375.58 130.887 373.975 132.003 372.395 131.505C371.807 131.253 371.241 130.95 370.706 130.598C369.6 130.005 368.314 129.87 367.088 129.601C364.998 129.152 363.013 128.306 361.242 127.109C360.068 126.403 359.132 125.362 358.556 124.119C357.459 121.348 359.303 117.715 357.364 115.457C356.228 114.142 353.975 114.122 352.705 115.248C352.072 115.811 351.987 116.997 351.329 117.421C350.411 117.653 349.462 117.734 348.518 117.66Z" fill="#2D2B32"/>
<path opacity="0.1" d="M324.137 260.565C323.429 260.004 322.818 259.331 322.328 258.571C321.837 257.808 321.642 256.892 321.78 255.995C321.586 257.129 321.66 258.294 321.997 259.395C322.333 260.495 322.923 261.502 323.719 262.334C324.97 263.615 327.317 264.871 329.146 264.432C328.887 262.967 325.299 261.552 324.137 260.565Z" fill="black"/>
<path d="M422.727 180.401C422.727 180.401 412.101 174.241 398.077 181.896C384.053 189.551 381.715 234.599 381.715 234.599C381.715 234.599 387.452 280.495 365.334 270.283C365.334 270.283 324.965 257.749 320.923 260.51C320.923 260.51 317.096 260.51 324.746 262.209C332.396 263.909 361.95 273.273 361.95 273.273C361.95 273.273 371.504 276.613 375.55 273.273C379.597 269.934 391.065 273.702 392.555 250.747C393.541 236.281 395.315 221.88 397.868 207.607L401.81 195.92L422.727 180.401Z" fill="#565661"/>
<path d="M424.002 251.38C424.002 251.38 419.327 204.841 426.992 188.051C433.661 173.419 407.875 180.261 401.147 182.255C400.105 182.566 399.197 183.215 398.565 184.099C394.578 189.706 380.275 212.177 384.491 242.244C384.491 242.244 386.19 269.022 375.565 273.268L408.303 262.723C410.96 261.866 413.656 261.153 416.377 260.535C419.846 259.747 425.497 257.51 424.002 251.38Z" fill="white"/>
<path opacity="0.1" d="M509.828 341.875C536.648 341.875 558.39 338.383 558.39 334.075C558.39 329.768 536.648 326.276 509.828 326.276C483.008 326.276 461.266 329.768 461.266 334.075C461.266 338.383 483.008 341.875 509.828 341.875Z" fill="#6C63FF"/>
<path d="M511.388 184.657H508.263V255.013H511.388V184.657Z" fill="#535461"/>
<path d="M531.029 254.798L530.834 257.968L530.555 262.453L530.441 264.317L530.167 268.803L530.047 270.667L529.768 275.152L526.618 326.021C526.474 328.205 525.505 330.252 523.908 331.747C522.311 333.243 520.204 334.075 518.016 334.075H501.635C499.443 334.074 497.334 333.238 495.737 331.736C494.141 330.234 493.177 328.179 493.043 325.992L489.883 275.117L489.609 270.632L489.494 268.768L489.21 264.283L489.095 262.419L488.821 257.933L488.622 254.763C488.587 254.156 488.677 253.548 488.885 252.976C489.093 252.404 489.415 251.88 489.832 251.437C490.249 250.994 490.752 250.64 491.309 250.397C491.867 250.154 492.469 250.027 493.077 250.024H526.578C527.19 250.027 527.794 250.156 528.353 250.401C528.913 250.647 529.417 251.004 529.834 251.451C530.251 251.898 530.572 252.426 530.777 253.001C530.983 253.577 531.068 254.188 531.029 254.798Z" fill="#565661"/>
<path d="M530.834 257.968L530.555 262.438H489.1L488.821 257.968H530.834Z" fill="#9D9CB5"/>
<path d="M530.441 264.308L530.167 268.783H489.494L489.215 264.308H530.441Z" fill="#9D9CB5"/>
<path d="M530.047 270.647L529.768 275.117H489.888L489.609 270.647H530.047Z" fill="#9D9CB5"/>
<path d="M484.047 211.026C502.248 224.193 509.828 244.786 509.828 244.786C509.828 244.786 487.899 244.034 469.694 230.866C451.488 217.699 443.917 197.111 443.917 197.111C443.917 197.111 465.851 197.864 484.047 211.026Z" fill="#6C63FF"/>
<path d="M443.917 197.111C443.917 197.111 466.678 209.745 473.985 220.206C481.291 230.667 509.828 244.786 509.828 244.786" stroke="#535461" stroke-width="2" stroke-miterlimit="10"/>
<path d="M495.793 184.502C505.701 191.664 509.828 202.878 509.828 202.878C509.828 202.878 497.867 202.464 487.984 195.302C478.101 188.14 473.979 176.927 473.979 176.927C473.979 176.927 485.891 177.336 495.793 184.502Z" fill="#6C63FF"/>
<path d="M473.979 176.927C473.979 176.927 486.369 183.805 490.341 189.496C494.313 195.188 509.853 202.878 509.853 202.878" stroke="#535461" stroke-width="2" stroke-miterlimit="10"/>
<path d="M524.221 202.304C512.843 214.809 510.436 231.15 510.436 231.15C510.436 231.15 526.479 227.213 537.847 214.704C549.215 202.195 551.632 185.858 551.632 185.858C551.632 185.858 535.599 189.8 524.221 202.304Z" fill="#6C63FF"/>
<path d="M551.642 185.863C551.642 185.863 536.82 198.681 533.052 207.513C529.285 216.344 510.436 231.151 510.436 231.151" stroke="#535461" stroke-width="2" stroke-miterlimit="10"/>
<path d="M294.036 172.202V173.339H260.34V172.417C261.264 172.07 262.139 171.604 262.942 171.031C264.373 170.007 265.539 168.656 266.343 167.09C267.147 165.525 267.567 163.791 267.567 162.031C267.567 161.111 267.452 160.195 267.223 159.304C266.815 157.702 266.054 156.21 264.995 154.94C263.936 153.67 262.606 152.653 261.103 151.963H293.806C292.303 152.653 290.973 153.67 289.914 154.94C288.855 156.21 288.094 157.702 287.686 159.304C287.459 160.195 287.345 161.111 287.347 162.031C287.346 163.79 287.765 165.525 288.568 167.09C289.372 168.655 290.537 170.006 291.967 171.031C292.614 171.493 293.307 171.885 294.036 172.202Z" fill="#DFE6F5"/>
<path opacity="0.1" d="M293.807 151.963C292.303 152.653 290.973 153.67 289.914 154.94C288.855 156.21 288.094 157.702 287.686 159.304H267.223C266.816 157.702 266.054 156.21 264.995 154.94C263.936 153.67 262.606 152.653 261.103 151.963H293.807Z" fill="black"/>
<path d="M221.761 146.157V152.556C221.761 156.085 224.342 158.951 227.532 158.951H326.664C329.854 158.951 332.44 156.085 332.44 152.556V146.157H221.761Z" fill="#DFE6F5"/>
<path opacity="0.1" d="M294.036 172.202V173.339H260.34V172.417C261.264 172.07 262.139 171.604 262.942 171.031H291.967C292.614 171.493 293.307 171.885 294.036 172.202Z" fill="black"/>
<path d="M303.48 171.385H250.896C249.963 171.385 249.207 172.14 249.207 173.072C249.207 174.004 249.963 174.759 250.896 174.759H303.48C304.413 174.759 305.169 174.004 305.169 173.072C305.169 172.14 304.413 171.385 303.48 171.385Z" fill="#DFE6F5"/>
<path d="M332.44 76.0705C332.44 75.3122 332.291 74.5614 332.001 73.8608C331.71 73.1603 331.285 72.5239 330.748 71.9879C330.212 71.4519 329.575 71.0269 328.874 70.7372C328.173 70.4475 327.422 70.2987 326.664 70.2993H227.532C226.774 70.2987 226.023 70.4475 225.323 70.7373C224.622 71.0271 223.986 71.4522 223.45 71.9882C222.914 72.5242 222.489 73.1607 222.199 73.8612C221.909 74.5617 221.76 75.3125 221.761 76.0705V147.403H332.44V76.0705Z" fill="#474157"/>
<path d="M329.421 78.6471V139.948C329.421 140.321 329.348 140.691 329.206 141.036C329.063 141.381 328.854 141.695 328.59 141.959C328.326 142.224 328.013 142.433 327.668 142.577C327.323 142.72 326.953 142.793 326.58 142.793H227.622C227.249 142.793 226.879 142.72 226.534 142.577C226.189 142.433 225.875 142.224 225.612 141.959C225.348 141.695 225.139 141.381 224.996 141.036C224.854 140.691 224.781 140.321 224.781 139.948V78.6471C224.779 78.1484 224.91 77.6581 225.16 77.2268C225.41 76.7947 225.768 76.4359 226.201 76.1865C226.633 75.9372 227.123 75.8061 227.622 75.8064H326.58C327.333 75.8064 328.056 76.1057 328.589 76.6384C329.121 77.1712 329.421 77.8937 329.421 78.6471Z" fill="#4C4C78"/>
<path d="M277.101 74.3808C277.836 74.3808 278.431 73.7851 278.431 73.0502C278.431 72.3152 277.836 71.7195 277.101 71.7195C276.366 71.7195 275.77 72.3152 275.77 73.0502C275.77 73.7851 276.366 74.3808 277.101 74.3808Z" fill="white"/>
<path d="M277.101 156.105C278.915 156.105 280.385 154.635 280.385 152.821C280.385 151.007 278.915 149.536 277.101 149.536C275.287 149.536 273.816 151.007 273.816 152.821C273.816 154.635 275.287 156.105 277.101 156.105Z" fill="white"/>
<path d="M329.42 78.6471H224.791C224.791 77.8937 225.09 77.1712 225.623 76.6384C226.156 76.1057 226.878 75.8064 227.632 75.8064H326.58C327.333 75.8064 328.056 76.1057 328.588 76.6384C329.121 77.1712 329.42 77.8937 329.42 78.6471Z" fill="#C8CAD7"/>
<path d="M227.622 77.9395C228.015 77.9395 228.335 77.6204 228.335 77.2268C228.335 76.8332 228.015 76.5142 227.622 76.5142C227.228 76.5142 226.909 76.8332 226.909 77.2268C226.909 77.6204 227.228 77.9395 227.622 77.9395Z" fill="#EDEDF4"/>
<path d="M229.755 77.9395C230.148 77.9395 230.467 77.6204 230.467 77.2268C230.467 76.8332 230.148 76.5142 229.755 76.5142C229.361 76.5142 229.042 76.8332 229.042 77.2268C229.042 77.6204 229.361 77.9395 229.755 77.9395Z" fill="#EDEDF4"/>
<path d="M231.888 77.9395C232.282 77.9395 232.601 77.6204 232.601 77.2268C232.601 76.8332 232.282 76.5142 231.888 76.5142C231.494 76.5142 231.175 76.8332 231.175 77.2268C231.175 77.6204 231.494 77.9395 231.888 77.9395Z" fill="#EDEDF4"/>
<defs>
<linearGradient id="paint0_linear" x1="209.047" y1="233.239" x2="210.203" y2="233.239" gradientUnits="userSpaceOnUse">
<stop stop-color="#808080" stop-opacity="0.25"/>
<stop offset="0.54" stop-color="#808080" stop-opacity="0.12"/>
<stop offset="1" stop-color="#808080" stop-opacity="0.1"/>
</linearGradient>
</defs>
</svg>
