<svg width="259" height="150" viewBox="0 0 596 368" fill="none" xmlns="http://www.w3.org/2000/svg">
<g clip-path="url(#clip0)">
<path d="M506.406 89.4556C450.177 11.2094 331.394 -20.5307 214.575 13.6541C152.816 31.7266 93.2693 67.9375 63.7593 138.053C11.0071 263.393 121.767 303.424 194.192 316.182C229.213 322.351 262.196 332.714 292.337 346.823C346.563 372.206 442.547 394.699 514.925 288.965C567.384 212.329 543.861 141.575 506.406 89.4556Z" fill="#EDEDDD"/>
<path d="M180.405 104.936C180.247 103.693 179.929 102.475 179.458 101.313C179.398 101.093 179.293 100.889 179.15 100.712C179.006 100.535 178.827 100.39 178.625 100.286C178.354 100.216 178.07 100.213 177.797 100.277L173.55 100.927C173.194 100.943 172.854 101.075 172.581 101.303C172.028 101.885 172.572 102.822 172.555 103.625C172.536 104.527 171.734 105.26 170.865 105.502C169.977 105.682 169.062 105.67 168.179 105.469L162.239 104.546C163.989 103.988 165.546 102.949 166.732 101.548C167.514 100.622 167.93 98.8932 166.8 98.4548C166.465 98.3627 166.115 98.3346 165.769 98.372C163.078 98.3929 160.96 96.1462 158.441 95.2C156.829 94.6335 155.079 94.5914 153.441 95.0796C151.804 95.5678 150.362 96.5613 149.323 97.9181L152.487 98.0707C152.785 98.0542 153.08 98.1329 153.33 98.2954C154.023 98.8651 153.161 99.9593 153.259 100.851C153.386 102.01 154.925 102.258 156.085 102.375C157.245 102.492 158.716 103.435 158.158 104.458C152.328 106.467 146.395 100.533 140.272 101.263C138.722 101.448 137.259 102.057 135.746 102.44C126.503 104.778 116.948 98.5388 107.506 99.8602C105.407 100.218 103.344 100.762 101.342 101.486C100.057 101.908 98.7162 102.364 97.7825 103.342C96.8488 104.321 96.4934 105.994 97.378 107.018C94.9399 107.218 92.4856 106.985 90.129 106.329C90.7663 106.683 91.2964 107.202 91.6638 107.832C92.0312 108.462 92.2223 109.179 92.217 109.908C88.4102 110.529 84.7043 111.659 81.1989 113.267C81.8531 114.355 82.6173 115.373 83.4794 116.305L78.6602 119.401C80.2883 119.812 81.1301 122.032 80.1833 123.418C81.8715 122.667 82.9178 120.724 84.723 120.33C85.9057 120.072 87.1091 120.556 88.2311 121.011C89.3531 121.465 90.5862 121.906 91.7477 121.565C92.9091 121.224 93.7658 119.718 93.0278 118.758C97.9922 117.31 103.123 116.508 108.292 116.373C108.691 116.323 109.096 116.4 109.449 116.593C110.122 117.06 109.944 118.068 109.908 118.886C109.872 119.705 110.51 120.78 111.241 120.411C110.381 121.157 111.116 122.562 111.942 123.346C112.767 124.131 113.762 125.213 113.257 126.234C113.125 126.5 112.901 126.713 112.774 126.982C112.4 127.776 112.994 128.701 113.696 129.227C114.397 129.754 115.257 130.122 115.744 130.852C116.231 131.582 116.01 132.859 115.139 132.96L112.662 129.816C111.816 130.693 111.235 131.793 110.989 132.986C113.615 135.133 114.01 139.504 111.811 142.087C110.688 143.407 109.09 144.209 107.695 145.239C106.3 146.269 105.01 147.735 105.013 149.469C105.019 152.464 104.775 155.246 105.897 158.023C107.967 163.143 110.356 168.128 113.051 172.949C113.759 174.214 114.673 175.602 116.107 175.82C114.295 171.409 112.664 166.929 111.214 162.38C112.158 162.384 113.25 162.459 113.804 163.224C114.262 163.858 114.164 164.72 114.306 165.489C114.487 166.234 114.79 166.944 115.201 167.592L123.853 183.005C124.571 184.282 125.393 185.654 126.764 186.171C127.641 186.502 128.655 186.44 129.462 186.916C130.094 187.289 130.52 187.952 131.164 188.304C132.987 189.298 135.522 187.391 137.225 188.578C137.712 188.918 138.022 189.457 138.471 189.846C140.044 191.208 142.625 190.297 144.441 191.313C145.611 191.968 146.218 193.278 146.842 194.465C148.406 197.439 150.936 200.352 154.288 200.589C155.341 200.663 156.416 200.463 157.445 200.698C158.474 200.932 159.487 201.83 159.322 202.872C159.039 204.659 159.921 206.616 159.684 208.41C159.252 211.677 154.618 213.113 154.22 216.384C154.133 217.1 154.269 217.84 154.099 218.541C153.89 219.4 153.244 220.1 153.015 220.954C152.58 222.573 153.74 224.184 155.014 225.273C156.288 226.361 157.808 227.301 158.504 228.825C159.24 230.436 158.879 232.315 159.118 234.07C159.641 237.902 162.95 240.743 166.357 242.574C167.394 243.132 168.509 243.673 169.18 244.641C170.057 245.904 169.97 247.57 170.262 249.08C170.979 252.777 174.092 255.824 174.18 259.589C174.243 262.266 172.756 264.694 171.867 267.219C171.034 269.638 170.732 272.209 170.983 274.756C171.234 277.302 172.031 279.765 173.32 281.975C173.985 283.098 174.78 284.156 175.25 285.373C176.089 287.545 175.817 290.014 176.591 292.209C177.614 295.112 180.425 297.51 180.156 300.577C181.432 303.227 184.25 304.529 187.084 305.318L192.162 306.731C193.135 307.002 194.151 307.275 195.141 307.079C196.131 306.883 197.076 306.061 197.051 305.052C194.56 304.49 191.99 303.893 189.937 302.375C187.884 300.857 186.478 298.155 187.256 295.724C187.618 294.596 188.386 293.294 187.656 292.363C187.237 291.829 186.472 291.69 186.001 291.203C185.265 290.444 185.517 289.169 186.047 288.254C186.576 287.339 187.34 286.521 187.554 285.485C187.661 284.906 187.589 284.307 187.347 283.77C187.105 283.233 186.705 282.783 186.2 282.48C187.141 282.124 187.998 281.575 188.713 280.867C189.374 280.112 189.68 278.948 189.16 278.09C190.704 278.286 192.527 278.381 193.541 277.2C194.35 276.257 194.295 274.847 193.975 273.645C193.655 272.444 193.114 271.278 193.098 270.035C196.66 270.203 200.23 270.082 203.773 269.673C203.261 267.947 202.096 266.489 200.527 265.608C202.132 265.336 203.593 263.415 204.1 261.869C204.607 260.323 204.478 258.638 204.165 257.042C204.044 256.63 204.028 256.196 204.117 255.777C204.297 255.201 204.863 254.85 205.386 254.549L213.35 249.975C213.826 249.737 214.256 249.419 214.624 249.035C215.458 248.055 215.335 246.575 214.908 245.361C214.48 244.147 213.796 243.005 213.631 241.729C213.139 237.911 217.226 235.171 218.606 231.577C219.147 230.167 219.257 228.634 219.362 227.127C219.474 225.508 219.483 223.628 218.24 222.585C217.049 221.585 215.187 221.808 213.94 220.878C212.797 220.025 212.403 218.369 211.154 217.68C210.02 217.055 208.599 217.452 207.338 217.158C205.117 216.64 203.72 214.081 201.452 213.844C200.172 213.71 198.724 214.336 197.675 213.591C196.751 212.934 196.714 211.614 196.539 210.494C196.23 208.754 195.396 207.15 194.148 205.898C192.9 204.646 191.299 203.807 189.56 203.493C188.24 203.281 186.804 203.362 185.682 202.637C184.545 201.903 184.024 200.528 183.132 199.511C181.693 197.873 179.427 197.291 177.304 196.792L168.67 194.762C167.137 194.402 165.162 194.211 164.339 195.553C164.096 196.064 163.923 196.607 163.827 197.165C163.519 198.174 162.899 199.059 162.055 199.694C161.212 200.329 160.19 200.68 159.135 200.696C158.411 199.462 157.239 198.555 155.862 198.165C154.987 197.921 154.05 197.893 153.215 197.534C152.76 197.312 152.355 197 152.025 196.616C151.696 196.232 151.447 195.785 151.296 195.302C151.145 194.82 151.094 194.311 151.147 193.807C151.199 193.304 151.354 192.817 151.601 192.375C152.099 191.489 152.291 190.463 152.148 189.457C152.005 188.451 151.535 187.519 150.81 186.807C149.341 185.488 147.217 185.17 145.249 185.302C144.733 184.177 145.595 182.907 146.524 182.09C147.453 181.272 148.582 180.468 148.784 179.247C149.102 177.326 146.652 175.868 144.791 176.44C142.93 177.013 141.742 178.82 140.957 180.602C140.507 181.624 140.124 182.7 139.414 183.562C138.703 184.424 137.559 185.041 136.477 184.765C134.944 184.373 134.353 182.553 134.014 181.008C133.559 178.936 133.101 176.835 133.196 174.715C133.292 172.596 134.006 170.419 135.569 168.984C138.116 166.646 142.023 166.875 145.461 167.248C144.648 166.333 144.849 164.791 145.718 163.93C146.177 163.523 146.728 163.233 147.324 163.087C147.92 162.94 148.542 162.942 149.137 163.09C150.173 163.306 151.106 163.864 151.786 164.674C152.763 165.865 153.041 167.473 153.779 168.825C154.518 170.176 156.178 171.329 157.537 170.604C158.71 169.978 158.896 168.35 158.604 167.052C158.312 165.754 157.692 164.492 157.798 163.166C158 160.636 160.623 159.113 162.937 158.071C165.252 157.028 167.902 155.627 168.269 153.115C168.282 152.623 168.375 152.137 168.544 151.675C168.801 151.267 169.157 150.931 169.58 150.7C176.336 146.236 183.204 141.717 190.925 139.277C191.327 139.15 191.374 139.291 191.783 139.192C192.356 138.861 191.976 137.945 191.427 137.576C190.878 137.207 190.144 136.924 190.004 136.277C189.902 135.801 190.182 135.334 190.255 134.853C190.434 133.671 189.02 132.58 187.922 133.053C187.301 132.231 188.529 131.277 189.521 131.004C192.501 130.184 195.56 129.684 198.646 129.513C199.002 129.456 199.366 129.519 199.684 129.69C200.202 130.049 200.136 130.872 199.769 131.385C199.401 131.897 198.83 132.219 198.372 132.652C197.872 133.14 197.515 133.755 197.341 134.431C197.167 135.107 197.181 135.818 197.383 136.486C198.994 137.306 200.746 138.149 202.53 137.861C204.314 137.572 205.898 135.567 205.059 133.966C204.278 132.475 201.932 132.139 201.529 130.505C201.057 128.591 203.765 126.89 203.155 125.016C202.888 124.195 202.07 123.712 201.442 123.12C200.701 122.393 200.196 121.459 199.995 120.441C199.794 119.423 199.906 118.367 200.316 117.413C199.293 117.593 198.243 117.525 197.252 117.215C196.261 116.905 195.359 116.362 194.622 115.632C193.26 114.257 192.174 112.089 190.24 112.151C188.465 112.207 186.936 114.277 185.277 113.646C184.869 113.49 184.438 113.174 184.043 113.359C183.913 113.444 183.804 113.556 183.724 113.689C183.645 113.821 183.596 113.97 183.582 114.124C183.16 116.14 183.886 118.437 182.787 120.179C181.591 122.075 178.825 122.338 177.376 124.048C176.589 124.976 176.284 126.226 175.561 127.205C174.837 128.183 173.302 128.805 172.434 127.953C172.861 127.076 172.977 126.08 172.764 125.128C172.552 124.176 172.022 123.325 171.263 122.712C170.457 122.187 169.589 121.764 168.677 121.455C167.659 121.024 166.691 120.484 165.789 119.845C165.337 119.572 164.969 119.179 164.728 118.71C164.537 118.122 164.563 117.486 164.801 116.915C165.241 115.654 166.017 114.536 167.046 113.683C168.075 112.83 169.318 112.274 170.639 112.076C171.795 111.919 173.14 111.974 173.905 111.093C174.31 110.628 174.522 109.923 175.11 109.734C175.486 109.658 175.876 109.706 176.222 109.871L180.536 111.389C181.017 111.606 181.547 111.694 182.073 111.643C182.333 111.608 182.571 111.476 182.738 111.273C182.905 111.07 182.989 110.811 182.973 110.548C182.836 109.832 181.733 109.488 181.834 108.766C181.89 108.531 182.016 108.32 182.195 108.159C183.751 106.502 185.655 105.209 187.77 104.374C189.885 103.539 192.158 103.182 194.427 103.328C194.972 104.222 194.11 105.281 193.394 106.045C192.677 106.808 192.102 108.172 192.968 108.76C193.323 108.941 193.718 109.03 194.117 109.019C195.179 109.162 196.211 109.475 197.174 109.946C198.665 110.595 200.127 111.304 201.56 112.075C201.434 111.13 201.313 110.134 201.671 109.251C202.029 108.367 203.047 107.674 203.937 108.018C204.794 108.35 205.233 109.484 206.147 109.588C207.365 109.727 207.845 107.928 207.336 106.812C206.828 105.697 205.82 104.763 205.736 103.54C205.68 102.715 205.994 101.691 205.335 101.192C205.1 101.042 204.834 100.948 204.557 100.919L188.1 97.8908C187.123 97.711 185.711 97.8488 185.668 98.8415C185.643 99.3956 186.138 99.9438 185.919 100.453C185.685 100.997 184.917 100.947 184.357 101.14C183.488 101.438 183.052 102.47 183.136 103.384C183.288 104.293 183.64 105.157 184.166 105.914C183.096 105.466 181.475 105.384 180.405 104.936Z" fill="#3F3D56"/>
<path d="M167.274 90.9666C166.236 90.6232 165.118 90.6072 164.071 90.9208C163.024 91.2344 162.098 91.8624 161.42 92.7197C161.149 93.0765 160.922 93.5683 161.148 93.9546C161.474 94.5085 162.302 94.2897 162.913 94.0916C163.811 93.7708 164.789 93.7475 165.701 94.0251C166.275 94.2221 166.788 94.5702 167.364 94.7597C167.645 94.877 167.952 94.9158 168.253 94.8718C168.554 94.8279 168.837 94.7029 169.072 94.5102C169.467 94.1069 169.492 93.4798 169.493 92.915C169.52 92.726 169.505 92.5332 169.449 92.3508C169.392 92.1684 169.296 92.0009 169.166 91.8606C168.935 91.727 168.676 91.6503 168.41 91.637C167.814 91.5266 167.275 91.2117 166.886 90.7465" fill="#3F3D56"/>
<path d="M173.208 89.314C172.975 89.3014 172.744 89.3487 172.535 89.4514C172.327 89.5541 172.148 89.7088 172.016 89.9006C171.885 90.0923 171.805 90.3147 171.784 90.5464C171.763 90.778 171.802 91.0111 171.897 91.2233C172.611 91.4178 173.356 91.4663 174.088 91.3661C174.454 91.3094 174.794 91.1458 175.066 90.896C175.339 90.6461 175.531 90.3212 175.619 89.9622C174.757 90.1191 173.867 89.9492 173.123 89.4855" fill="#3F3D56"/>
<path d="M193.117 86.555C191.176 86.9678 189.29 87.6083 187.499 88.4634C188.343 88.788 189.061 89.3751 189.546 90.1384C190.032 90.9017 190.259 91.8007 190.195 92.7029C190.119 93.0493 190.128 93.4088 190.22 93.7511C190.427 94.2513 191.025 94.439 191.55 94.5673C192.495 94.8547 193.481 94.9806 194.467 94.9396C194.96 94.9138 195.439 94.7654 195.861 94.5078C196.283 94.2502 196.633 93.8915 196.881 93.4643C197.024 93.0588 197.192 92.6624 197.383 92.2775C198.643 90.3587 202.386 92.6788 203.739 90.8242C204.215 90.1709 204.172 89.1876 204.793 88.6699C205.114 88.4443 205.487 88.3022 205.876 88.2563C208.597 87.7159 211.345 87.3245 214.108 87.0841C215.417 86.9701 217.123 86.5 217.134 85.186C212.203 84.2175 207.09 84.9053 202.59 87.1425C200.969 87.9546 198.824 89.6627 197.263 88.5862C196.678 88.1831 196.707 87.0977 195.902 86.6444C195.079 86.181 193.99 86.3695 193.117 86.555Z" fill="#3F3D56"/>
<path d="M209.243 89.571L211.558 90.0157C211.132 89.9969 210.707 90.0691 210.311 90.2276C209.915 90.386 209.557 90.6271 209.262 90.9348C208.966 91.2424 208.74 91.6095 208.598 92.0116C208.455 92.4136 208.4 92.8414 208.437 93.2664C210.604 93.9905 212.967 93.2859 215.251 93.3821C217.534 93.4784 220.191 95.1095 219.801 97.3614C219.683 98.0423 219.29 98.7228 219.495 99.3829C219.638 99.8455 220.046 100.174 220.276 100.6C220.756 101.488 220.373 102.611 219.767 103.418C219.161 104.225 218.346 104.869 217.814 105.727C216.491 107.86 217.243 110.618 218.031 113.001C218.259 113.902 218.68 114.742 219.264 115.464C220.432 116.706 222.334 116.814 224.038 116.838C225.279 116.857 226.699 116.795 227.484 115.834C228.508 114.58 227.792 112.623 228.466 111.15C229.078 109.813 230.638 109.239 232.051 108.832C234.64 108.087 237.279 107.453 239.727 106.327C242.766 104.929 245.607 102.751 248.948 102.571C249.885 102.52 250.845 102.631 251.748 102.374C252.651 102.117 253.509 101.337 253.44 100.401C253.382 99.6007 252.705 99.0134 252.176 98.4104C251.648 97.8075 251.232 96.8803 251.718 96.2423L260.475 94.6067C259.854 92.9151 259.371 90.6873 260.797 89.5862C261.312 89.1889 262.001 89.0301 262.439 88.5498C263.186 87.7312 262.81 86.3211 261.948 85.625C261.086 84.9288 259.92 84.7672 258.816 84.6755C254.977 84.3566 251.115 84.5673 247.268 84.7782C239.748 85.1904 232.228 85.6026 224.708 86.0148C223.194 86.0978 221.446 85.971 220.057 86.4875C218.882 86.9247 218.046 87.7273 216.702 88.0093C214.22 88.5299 211.489 88.1777 209.243 89.571Z" fill="#3F3D56"/>
<path d="M250.712 107.868C250.476 107.83 250.235 107.885 250.038 108.02C249.908 108.164 249.831 108.347 249.819 108.54C249.67 109.392 249.848 110.269 250.318 110.996C250.557 111.352 250.887 111.638 251.274 111.823C251.661 112.009 252.091 112.088 252.519 112.051C253.561 111.918 254.329 111.029 255.287 110.595C256.764 109.927 263.036 108.885 258.698 106.541C257.202 105.734 256.236 106.447 255.058 106.979C253.717 107.665 252.215 107.972 250.712 107.868Z" fill="#3F3D56"/>
<path d="M288.712 88.2474C288.205 88.4543 287.782 88.8232 287.507 89.2965C287.38 89.5368 287.351 89.8166 287.425 90.078C287.499 90.3393 287.67 90.5623 287.904 90.7007C288.093 90.7693 288.294 90.8012 288.495 90.7945L290.555 90.856C291.43 90.8822 292.523 91.0685 292.758 91.9119C292.933 92.538 292.542 93.3427 293.013 93.7902C293.216 93.9469 293.459 94.0418 293.714 94.0635C294.393 94.2378 295.101 94.2606 295.79 94.1305C297.288 93.7284 296.501 92.8137 296.973 91.9991C297.695 90.7529 297.57 91.5073 298.843 90.793C299.783 90.2655 300.997 89.3086 300.213 87.9642C298.849 85.6262 290.725 87.243 288.712 88.2474Z" fill="#3F3D56"/>
<path d="M329.37 87.0722L328.174 87.2318C325.476 87.5918 322.764 87.955 320.166 88.765C321.291 89.2096 322.47 89.4992 323.673 89.6256C324.335 89.658 324.993 89.7515 325.637 89.9048C326.785 90.2464 327.941 91.1285 329.05 90.6766C329.737 90.3965 329.961 89.6808 330.531 89.3015C330.924 89.0396 332.415 88.6157 332.582 88.3514C333.929 86.2143 330.406 86.934 329.37 87.0722Z" fill="#3F3D56"/>
<path d="M334.621 92.5086C333.024 93.402 331.541 94.4876 330.207 95.7411C329.645 96.2694 329.071 96.9265 329.122 97.6961C329.19 98.7191 330.28 99.3124 331.224 99.7121L335.048 101.331C335.511 100.677 335.087 99.7747 334.607 99.1322C334.128 98.4897 333.558 97.7463 333.77 96.9732C334.012 96.0908 335.088 95.7902 335.99 95.6382C337.46 95.3905 341.425 95.4104 340.948 93.0416C340.387 90.2505 336.097 91.6839 334.621 92.5086Z" fill="#3F3D56"/>
<path d="M333.855 250.461C333.49 251.515 333.456 252.756 334.086 253.676C334.792 254.709 336.206 255.094 337.43 254.832C338.648 254.508 339.734 253.809 340.534 252.836C341.266 252.02 341.869 251.096 342.32 250.097C342.95 248.54 343.394 246.915 343.644 245.254L344.831 239.02C345.096 237.627 345.086 233.356 342.525 234.748C341.826 235.128 340.206 238.129 339.473 238.981C338.152 240.515 337.977 242.003 337.282 243.861C336.411 246.189 334.66 248.129 333.855 250.461Z" fill="#3F3D56"/>
<path d="M469.092 282.359C468.254 282.032 467.441 281.645 466.659 281.201C465.875 283.357 465.458 285.629 465.426 287.923L471.159 284.679C472.021 284.191 472.999 283.513 472.98 282.522C472.988 282.4 472.963 282.277 472.907 282.168C472.851 282.059 472.767 281.967 472.663 281.902C472.536 281.85 472.397 281.834 472.262 281.854C471.411 281.925 470.636 282.344 469.834 282.634C469.032 282.925 468.095 283.079 467.359 282.647" fill="#3F3D56"/>
<path d="M499.335 284.286C498.705 284.457 498.091 284.677 497.496 284.945C496.181 285.615 495.286 286.886 494.102 287.768C492.969 288.612 491.605 289.075 490.266 289.525C489.872 289.873 490.053 290.575 490.481 290.88C490.94 291.142 491.467 291.26 491.995 291.221C493.386 291.251 494.851 291.265 496.069 290.593C496.756 290.148 497.398 289.638 497.988 289.07C499.412 287.882 501.123 287.098 502.816 286.34C503.433 286.107 504.003 285.766 504.499 285.334C505.563 284.285 505.638 282.668 504.104 282.311C502.864 282.023 500.515 283.904 499.335 284.286Z" fill="#3F3D56"/>
<path d="M512.697 275.556C512.766 274.835 512.67 274.107 512.416 273.428C512.163 272.749 511.759 272.137 511.234 271.637C511.218 273.081 511.174 274.618 510.363 275.812C509.784 276.662 508.877 277.236 508.244 278.046C507.61 278.856 507.329 280.14 508.072 280.851C508.547 281.213 509.126 281.412 509.723 281.42C511.202 281.594 512.915 281.691 513.952 280.622C514.519 280.039 514.794 279.175 515.485 278.746C515.742 278.638 515.972 278.473 516.157 278.264C516.443 277.811 515.989 277.213 515.479 277.05C514.969 276.887 514.407 276.963 513.894 276.808C513.382 276.653 512.911 276.077 513.174 275.61" fill="#3F3D56"/>
<path d="M488.947 222.641C488.171 222.829 487.367 222.877 486.574 222.78C485.257 222.538 484.232 221.546 483.168 220.732C480.641 218.807 477.568 217.733 474.391 217.665C471.502 217.61 468.585 218.393 465.747 217.847C465.932 218.878 466.815 219.652 467.757 220.112C468.698 220.571 469.737 220.803 470.683 221.253C472.199 221.982 473.4 223.232 474.068 224.775C474.373 225.486 474.565 226.26 475.026 226.881C475.97 228.15 477.758 228.429 479.336 228.325C481.394 228.19 483.543 227.598 485.457 228.365C486.922 228.951 487.97 230.233 489.192 231.23C490.415 232.226 492.137 232.966 493.541 232.247C492.083 231.775 490.814 230.849 489.919 229.604C489.024 228.36 488.55 226.862 488.567 225.329C489.944 225.455 493.91 225.406 493.697 223.067C493.516 221.084 490.13 222.427 488.947 222.641Z" fill="#3F3D56"/>
<path d="M470.934 238.775C471.179 237.434 472.516 236.25 472.099 234.952C471.811 234.054 470.771 233.611 469.828 233.589C468.886 233.567 467.96 233.847 467.018 233.874C466.404 233.841 465.789 233.85 465.177 233.9C463.307 234.207 462.154 236.168 460.391 236.865C459.319 237.289 458.115 237.208 457 237.501C454.469 238.166 452.868 240.558 451.099 242.485C448.241 245.587 444.517 247.758 440.411 248.719C438.972 249.052 437.425 249.265 436.282 250.199C434.767 251.437 434.394 253.558 434.057 255.485C433.126 260.805 431.704 266.028 429.808 271.086L435.816 271.853C436.959 271.999 438.143 272.141 439.243 271.803C440.043 271.501 440.801 271.098 441.497 270.602C444.174 268.941 447.169 267.86 450.289 267.429C451.863 267.213 453.512 267.173 454.989 267.758C456.466 268.343 457.732 269.669 457.856 271.253C458.495 271.054 459.175 271.033 459.825 271.191C460.475 271.349 461.07 271.68 461.546 272.15C462.487 273.109 463.103 274.339 463.307 275.666C463.465 276.488 463.624 277.473 464.386 277.818C465.009 278.1 465.723 277.797 466.404 277.742C468.714 277.557 470.631 280.251 472.901 279.787C475.337 279.29 475.934 275.643 478.31 274.912C479.675 274.492 481.589 275.003 482.242 273.733C482.818 272.615 481.669 271.324 481.787 270.071C481.933 268.529 483.753 267.874 485.155 267.216C489.991 264.947 492.285 258.439 489.942 253.639C488.554 250.795 485.822 248.556 485.318 245.432C484.93 243.028 485.877 240.225 484.345 238.333C483.565 237.371 482.245 236.839 481.781 235.691C481.489 234.968 481.606 234.148 481.449 233.384C481.292 232.62 480.626 231.822 479.872 232.02C477.683 232.594 476.984 239.357 475.812 241C474.03 243.497 470.373 241.852 470.934 238.775Z" fill="#3F3D56"/>
<path d="M430.471 225.196C429.723 224.986 428.906 224.78 428.189 225.079C427.473 225.379 427.054 226.431 427.629 226.954C432.13 226.778 436.658 226.604 441.12 227.215C446.261 227.92 451.349 229.664 456.513 229.151C453.564 228.28 450.565 227.585 447.534 227.067L442.478 226.101C441.122 225.817 439.752 225.606 438.373 225.467C435.489 225.229 433.307 225.991 430.471 225.196Z" fill="#3F3D56"/>
<path d="M434.979 209.522C434.605 209.49 434.142 209.463 433.949 209.785C433.764 210.092 433.976 210.497 433.876 210.841C433.741 211.311 433.125 211.432 432.64 211.368C432.155 211.304 431.63 211.15 431.2 211.384C430.982 211.533 430.818 211.749 430.733 211.999C430.648 212.249 430.646 212.519 430.728 212.77C430.904 213.269 431.188 213.722 431.56 214.097C432.196 214.898 432.92 215.624 433.719 216.262C435.266 217.404 437.362 217.954 438.336 219.612C438.473 219.933 438.685 220.217 438.953 220.442C439.42 220.738 440.03 220.513 440.534 220.283L442.299 219.476C442.617 219.362 442.901 219.168 443.124 218.915C443.527 218.368 443.279 217.59 442.941 217C442.603 216.411 442.169 215.801 442.242 215.125C442.371 213.92 443.921 213.459 444.558 212.428C445.2 211.389 444.782 210.05 444.856 208.831C444.942 207.405 445.839 205.55 444.397 204.484C443.172 203.579 442.001 204.415 441.121 205.415C439.266 207.523 438.389 209.806 434.979 209.522Z" fill="#3F3D56"/>
<path d="M445.692 188.214C446.295 189.368 447.551 190.057 448.208 191.18C448.92 192.398 448.839 193.972 449.612 195.152C450.405 196.364 452 197.007 452.445 198.384C452.93 199.888 451.829 201.716 452.707 203.03C452.87 203.245 453.077 203.424 453.313 203.554C453.55 203.685 453.81 203.766 454.079 203.79C454.348 203.815 454.619 203.784 454.876 203.698C455.132 203.612 455.367 203.475 455.568 203.293C455.938 202.89 456.136 202.359 456.12 201.812C456.103 201.265 455.874 200.746 455.481 200.365C454.961 199.891 454.215 199.687 453.781 199.133C453.555 198.814 453.404 198.447 453.341 198.061C453.104 196.947 453.142 195.793 453.451 194.697C453.567 194.419 453.597 194.112 453.536 193.817C453.34 193.249 452.571 193.209 452.031 192.945C450.806 192.347 450.835 190.617 451.05 189.27C450.907 190.167 447.712 188.641 447.378 188.133C446.713 187.124 447.075 185.177 446.943 184.062C445.509 184.754 444.955 186.803 445.692 188.214Z" fill="#3F3D56"/>
<path d="M413.508 205.967C412.918 205.307 412.03 204.617 411.239 205.015C410.636 205.319 410.47 206.153 410.707 206.786C410.995 207.4 411.438 207.929 411.993 208.319C413.641 209.678 415.415 210.904 416.852 212.484C419.424 215.31 420.786 219.124 423.583 221.728C424.146 222.331 424.89 222.734 425.703 222.875C426.518 222.951 427.433 222.429 427.527 221.616C427.604 220.946 427.137 220.347 426.681 219.85C425.594 218.669 424.405 217.581 423.379 216.346C422.905 215.871 422.607 215.25 422.535 214.583C422.53 213.918 423.136 213.222 423.78 213.387C422.997 213.186 422.416 211.881 421.266 211.636C420.304 211.431 420.072 212.026 418.928 211.535C416.747 210.6 415.035 207.678 413.508 205.967Z" fill="#3F3D56"/>
<path d="M464.763 141.694C464.137 141.508 463.522 141.288 462.92 141.035C461.301 140.549 459.158 141.74 459.374 143.417C459.517 144.531 460.554 145.282 461.127 146.249C461.976 147.683 461.75 149.501 461.303 151.106C461.194 151.603 460.985 152.073 460.691 152.488C460.278 152.926 459.786 153.28 459.239 153.532C457.052 154.758 455.123 156.397 453.559 158.357C453.389 158.538 453.271 158.762 453.216 159.004C453.139 159.57 453.708 159.983 454.03 160.455C454.745 161.504 454.228 162.916 454.299 164.184C454.288 164.363 454.323 164.542 454.401 164.704C454.478 164.866 454.596 165.005 454.743 165.109C455.174 165.327 455.684 164.956 455.918 164.533C456.693 163.128 456.109 160.875 457.563 160.198C457.838 160.07 458.171 160.016 458.355 159.774C458.646 159.391 458.365 158.823 458.513 158.365C458.734 157.677 459.675 157.647 460.397 157.677C461.64 157.729 462.884 157.564 464.07 157.188C464.536 157.077 464.959 156.832 465.286 156.484C465.721 155.941 465.682 155.17 465.596 154.481C465.161 151.043 464.072 147.72 462.387 144.691C463.664 144.854 465.054 144.995 466.156 144.33C466.773 143.957 467.513 142.843 467.207 142.084C466.723 140.884 465.849 141.894 464.763 141.694Z" fill="#3F3D56"/>
<path d="M301.034 160.602C301.186 161.421 301.337 162.284 301.068 163.074C300.799 163.863 299.954 164.523 299.156 164.281C298.537 164.093 298.179 163.47 297.74 162.996C295.294 160.356 289.776 161.884 288.265 158.618C287.649 157.285 288.068 155.688 287.647 154.28C287.382 153.467 286.854 152.765 286.146 152.284C285.439 151.803 284.592 151.571 283.738 151.624C282.959 151.737 282.201 151.963 281.488 152.296C276.711 154.209 271.697 155.463 266.582 156.024C265.61 156.083 264.648 156.258 263.718 156.545C261.617 157.307 260.182 159.254 259.161 161.241C258.14 163.227 257.386 165.378 256.017 167.144C254.578 168.999 252.562 170.298 250.681 171.703C249.956 172.17 249.353 172.802 248.92 173.548C248.513 174.385 248.536 175.359 248.567 176.289L248.952 187.592C249.001 189.046 249.063 190.552 249.714 191.853C250.526 193.478 252.132 194.542 253.245 195.977C254.382 197.452 254.973 199.274 254.921 201.135C254.897 201.883 254.823 202.768 255.406 203.238C255.76 203.468 256.175 203.588 256.597 203.581L271.887 204.833C274.576 205.053 277.557 205.415 279.313 207.464C280.142 208.431 280.807 209.821 282.077 209.925C282.621 209.97 283.151 209.746 283.696 209.703C285.069 209.594 286.276 210.637 287.038 211.786C288.191 213.536 288.714 215.627 288.522 217.714C288.397 219.025 287.991 220.298 287.904 221.612C287.57 226.609 291.806 230.95 291.889 235.958C291.937 238.903 290.539 241.655 289.175 244.267C291.376 247.6 289.574 252.038 290.45 255.935C291.281 259.632 294.363 262.526 295.131 266.236C295.483 267.935 295.503 270.025 297.001 270.9C297.658 271.22 298.387 271.366 299.117 271.323C303.519 271.376 307.872 270.385 311.818 268.432C313.67 267.513 315.59 266.141 315.913 264.099C316.174 262.452 315.339 260.61 316.189 259.175C317.191 257.484 319.757 257.618 321.231 256.319C323.622 254.21 321.757 250.188 322.726 247.151C323.597 244.42 326.594 242.97 328.08 240.52C328.665 239.466 329.085 238.329 329.324 237.147C330.005 234.325 330.429 231.446 330.59 228.547C330.63 226.785 330.76 225.027 330.98 223.279C332.582 213.326 342.421 206.661 345.616 197.099C345.921 196.186 346.064 194.97 345.252 194.453C344.77 194.223 344.224 194.166 343.705 194.291L336.657 195.18C335.781 195.29 334.853 195.393 334.049 195.03C333.245 194.666 332.669 193.649 333.096 192.877C334.293 190.708 331.83 187.968 330.736 185.746C327.79 179.763 324.282 174.073 320.258 168.753C320.001 168.48 319.84 168.13 319.799 167.756L321.799 167.823C321.124 165.4 320.01 162.748 317.656 161.862C316.329 161.362 314.86 161.535 313.445 161.612C309.391 161.834 305.046 161.222 301.034 160.602Z" fill="#3F3D56"/>
<path d="M313.448 106C314.509 107.127 315.698 108.321 317.232 108.517C319.943 108.864 321.892 106.061 323.133 103.626C323.179 104.247 323.465 104.825 323.931 105.238C324.397 105.651 325.005 105.866 325.627 105.837C326.296 105.725 326.935 105.475 327.503 105.104C332.874 102.169 338.89 100.614 345.01 100.578C344.952 100.114 345.067 99.6454 345.333 99.2616C345.6 98.8777 345.999 98.6062 346.454 98.4995C347.699 98.2528 348.82 99.3287 349.42 100.446C350.02 101.564 350.394 102.859 351.348 103.696C352.302 104.532 354.148 104.496 354.525 103.285C354.887 102.122 353.675 101.13 352.669 100.444C351.662 99.7584 350.601 98.4893 351.279 97.4774C356.421 96.3391 361.596 95.1964 366.858 94.9702C367.754 95.0014 368.647 94.8476 369.481 94.5184C370.283 94.1246 370.921 93.2307 370.705 92.3632C369.557 92.6331 368.354 92.555 367.25 92.1387C366.147 91.7223 365.192 90.9867 364.508 90.0256C371.81 89.4231 379.576 88.9095 386.047 92.3453C386.823 94.0122 382.865 95.3992 383.924 96.9027C384.262 97.3822 384.939 97.4385 385.525 97.4494C390.022 97.5328 394.545 97.6147 398.991 96.9358C400.615 96.6877 402.256 96.3375 403.888 96.5387C406.605 96.8738 408.928 98.6866 411.601 99.2777C412.689 99.5183 413.909 99.5264 414.826 98.8936C415.743 98.2608 416.138 96.82 415.386 95.9974C417.903 93.5307 422.08 94.1421 425.4 95.323C428.72 96.5039 431.866 98.4083 435.38 98.6715C437.9 98.8603 440.455 98.1824 442.945 98.6133C444.51 98.884 445.966 99.5801 447.495 100.008C450.388 100.817 453.447 100.646 456.45 100.685C464.113 100.788 471.692 102.294 478.811 105.128C479.738 105.43 480.586 105.931 481.297 106.597C481.96 107.306 482.297 108.409 481.852 109.271L474.495 108.196C475.188 109.561 476.982 109.793 478.438 110.264C479.894 110.735 481.404 112.343 480.529 113.599C478.951 113.096 477.521 114.674 476.724 116.125C475.927 117.577 474.956 119.315 473.302 119.404C471.821 119.483 470.03 118.222 469.065 119.348C470.399 121.03 471.54 122.856 472.47 124.791C473.423 126.778 474.102 129.281 472.813 131.068C472.611 131.387 472.303 131.626 471.944 131.743C470.891 132.009 470.207 130.721 469.452 129.941C468.501 128.957 467.062 128.679 465.774 128.218C464.486 127.756 463.129 126.849 463.028 125.484C462.966 124.635 463.414 123.846 463.744 123.062C464.299 121.739 464.542 120.306 464.453 118.875C464.381 117.723 464.058 116.525 463.231 115.72C462.404 114.915 460.976 114.66 460.088 115.397C459.673 115.741 459.341 116.291 458.803 116.312C457.853 116.348 457.123 114.691 456.358 115.256C456.448 115.859 456.323 116.475 456.005 116.995C453.722 118.98 450.216 118.14 447.273 118.841C445.874 119.241 444.535 119.827 443.29 120.581C442.824 120.78 442.428 121.112 442.151 121.536C441.784 122.25 442.189 123.164 442.836 123.639C443.523 124.06 444.294 124.323 445.095 124.41C448.682 125.089 452.322 126.141 455.154 128.445C457.986 130.749 459.844 134.558 458.947 138.097L451.873 131.338C452.142 134.176 452.294 137.022 452.331 139.876C452.376 140.433 452.3 140.994 452.106 141.518C451.602 142.632 450.235 143.007 449.037 143.253C448.704 143.316 448.388 143.449 448.11 143.643C447.832 143.837 447.598 144.088 447.424 144.379C447.25 144.67 447.139 144.994 447.099 145.331C447.059 145.668 447.091 146.009 447.192 146.333C447.617 147.72 448.679 148.801 449.65 149.879C450.622 150.957 451.578 152.181 451.705 153.627C451.832 155.072 450.742 156.701 449.294 156.601C448.197 156.524 447.383 155.542 446.915 154.547C446.447 153.551 446.168 152.443 445.465 151.597C443.337 149.037 438.556 150.134 436.649 147.405C436.163 147.956 435.826 148.622 435.67 149.341C435.514 150.059 435.544 150.805 435.758 151.508C436.645 150.953 437.859 151.469 438.525 152.276C439.192 153.083 439.506 154.117 440.03 155.024C440.736 156.246 441.86 157.331 441.959 158.739C441.932 159.272 441.941 159.806 441.985 160.337C442.161 161.191 442.882 161.804 443.382 162.517C444.546 164.177 444.489 166.458 443.738 168.342C442.988 170.225 441.64 171.799 440.305 173.325C437.974 175.991 435.594 178.64 432.83 180.854C432.041 181.485 431.199 182.106 430.708 182.989C430.217 183.872 430.192 185.112 430.947 185.783C430.406 185.811 429.438 186.076 428.898 186.103C428.708 183.936 428.666 181.759 428.774 179.586C426.642 178.563 424.347 181.304 424.622 183.653C424.897 186.001 426.596 187.886 427.805 189.918C428.69 191.404 429.347 193.136 429.052 194.84C428.757 196.544 427.236 198.116 425.513 197.966C422.773 197.727 421.627 193.793 418.913 193.343C418.674 193.287 418.423 193.311 418.199 193.414C417.796 193.635 417.726 194.174 417.704 194.633C417.593 196.885 417.497 199.227 418.376 201.303C419.662 204.341 422.985 206.893 422.288 210.117C418.533 208.372 416.581 204.161 415.694 200.116C414.808 196.071 414.66 191.825 413.071 188.001C411.865 189.548 409.329 188.269 408.226 186.647C407.181 185.109 406.537 183.329 405.523 181.771C404.51 180.212 402.956 178.816 401.099 178.73C399.151 178.64 397.462 179.977 395.976 181.24C394.755 182.278 393.501 183.358 392.787 184.793C391.748 186.882 392.02 189.344 391.97 191.677C391.915 194.198 391.381 196.859 389.662 198.705C387.944 200.551 384.772 201.194 382.876 199.53C381.886 198.662 381.407 197.364 380.98 196.118C378.923 190.114 377.21 183.997 375.848 177.797C375.53 179.212 374.287 181.036 373.1 180.203C372.834 179.979 372.618 179.701 372.467 179.387C370.253 175.634 366.153 173.383 362.01 172.034C357.868 170.684 353.509 170.055 349.412 168.572C347.116 167.74 344.923 166.648 342.877 165.316C342.355 166.083 342.05 166.976 341.995 167.902C341.94 168.827 342.136 169.751 342.562 170.574C343.471 172.183 345.528 173.114 347.288 172.551C348.198 172.261 348.966 171.629 349.869 171.317C350.771 171.006 351.983 171.159 352.377 172.028C352.755 172.861 352.184 173.868 352.467 174.737C352.899 176.06 354.895 176.162 355.593 177.367C356.113 178.263 355.685 179.453 354.944 180.176C354.202 180.9 353.213 181.296 352.307 181.8C349.37 183.433 347.281 186.222 344.714 188.391C342.147 190.56 338.525 192.144 335.465 190.753C336.195 187.06 331.796 184.349 330.987 180.673C330.72 179.463 330.858 178.177 330.478 176.998C329.928 175.291 328.413 174.117 327.17 172.824C325.663 171.237 324.489 169.365 323.717 167.318C322.946 165.271 322.592 163.09 322.676 160.903C322.744 159.384 323.023 157.84 322.677 156.359C322.33 154.878 321.104 153.445 319.585 153.512C316.115 153.665 311.744 153.923 309.923 150.965C309.273 149.91 308.991 148.363 309.93 147.555C310.593 146.984 311.571 147.038 312.441 147.123L320.26 147.892C322.088 148.072 324.065 148.221 325.634 147.265C327.203 146.309 327.883 143.771 326.43 142.647C325.369 141.825 323.467 141.869 323.158 140.563C322.901 139.474 324.105 138.24 323.455 137.33C322.988 136.678 321.94 136.859 321.304 137.348C320.669 137.837 320.208 138.552 319.497 138.922C318.249 139.571 316.758 138.953 315.416 138.533C314.074 138.113 312.274 138.078 311.623 139.324C310.895 140.718 312.269 142.545 311.547 143.942C310.591 145.79 307.356 144.738 306.014 146.327C304.475 148.15 307.062 150.869 306.543 153.198C305.88 153.526 305.143 153.677 304.405 153.635C303.666 153.594 302.951 153.361 302.329 152.961C301.717 152.545 301.23 151.971 300.918 151.3C300.607 150.629 300.483 149.886 300.56 149.15C300.689 148.102 301.235 147.033 300.869 146.043C300.573 145.242 299.769 144.766 299.022 144.353L291.425 140.154C290.719 141.463 291.611 143.085 292.726 144.068C293.842 145.051 295.239 145.791 295.971 147.085C296.435 147.981 296.539 149.02 296.262 149.99C295.985 150.96 295.348 151.788 294.481 152.305C294.373 152.38 294.249 152.43 294.119 152.453C293.989 152.476 293.856 152.47 293.728 152.436C293.607 152.365 293.501 152.27 293.417 152.157C293.333 152.044 293.273 151.916 293.24 151.779C291.899 148.349 289.886 144.966 286.669 143.174C283.451 141.382 278.827 141.751 276.717 144.77C276.216 145.487 275.88 146.304 275.443 147.062C273.123 151.09 268.15 152.997 263.504 152.872C263.05 152.897 262.598 152.791 262.202 152.566C261.451 152.048 261.485 150.947 261.6 150.042L262.087 146.2C262.185 145.428 262.327 144.576 262.938 144.094C263.799 143.415 265.04 143.844 266.136 143.828C266.967 143.789 267.765 143.496 268.423 142.988C269.081 142.48 269.568 141.782 269.816 140.988C270.037 140.187 270.036 139.341 269.811 138.54C269.587 137.74 269.149 137.015 268.544 136.445C268.041 135.974 267.367 135.381 267.632 134.745C267.738 134.569 267.881 134.418 268.052 134.303C268.222 134.189 268.416 134.113 268.618 134.081C270.587 133.509 272.668 133.359 274.604 132.685C276.54 132.01 278.418 130.63 278.876 128.631C279.017 128.019 279.081 127.277 279.631 126.973C279.907 126.857 280.203 126.796 280.503 126.795C281.552 126.646 282.508 126.109 283.182 125.29C283.855 124.472 284.198 123.43 284.142 122.372C285.07 121.723 286.37 122.2 287.268 122.89C288.166 123.579 288.958 124.49 290.05 124.788C292.086 125.342 294.053 123.54 296.162 123.531C297.049 123.528 297.968 123.841 298.802 123.541C299.648 123.236 300.154 122.393 300.803 121.771C301.452 121.149 302.592 120.77 303.191 121.44L302.681 117.658C303.709 117.918 304.781 117.954 305.825 117.766C306.868 117.577 307.859 117.167 308.732 116.564L302.133 114.334C301.903 114.277 301.691 114.163 301.516 114.004C301.036 113.488 301.512 112.683 301.903 112.095C302.836 110.691 302.992 108.376 301.458 107.677C300.41 107.2 299.208 107.773 298.202 108.333L293.386 111.019C293.233 111.934 294.352 112.453 295.046 113.07C295.466 113.443 295.763 113.934 295.898 114.479C296.034 115.024 296.001 115.598 295.805 116.124C295.608 116.65 295.257 117.104 294.798 117.427C294.339 117.75 293.792 117.927 293.231 117.934C293.548 118.346 293.768 118.825 293.876 119.334C293.983 119.843 293.974 120.369 293.85 120.875L290.61 121.108C290.246 121.181 289.868 121.107 289.559 120.902C289.212 120.595 289.259 120.055 289.179 119.599C288.985 118.497 287.906 117.725 286.805 117.527C285.704 117.329 284.577 117.582 283.487 117.833C283.024 118 282.515 117.988 282.061 117.8C281.8 117.631 281.602 117.38 281.496 117.088C281.018 115.929 281.465 114.566 282.233 113.575C283.001 112.584 284.052 111.859 284.996 111.034C287.253 109.054 288.911 106.481 289.784 103.608C291.568 102.86 293.414 101.845 295.198 101.097C297.949 99.7046 301.033 99.107 304.104 99.3716L310.146 99.487C311.934 99.5211 313.772 99.5649 315.425 100.247C317.079 100.929 318.533 102.404 318.647 104.189C318.681 104.391 318.664 104.599 318.596 104.792C318.528 104.986 318.413 105.159 318.26 105.295C318.026 105.423 317.761 105.482 317.496 105.467C315.828 105.526 315.116 105.942 313.448 106Z" fill="#3F3D56"/>
<path d="M265.294 124.934C265.53 124.711 265.699 124.426 265.785 124.113C265.87 123.799 265.866 123.468 265.776 123.156C265.201 122.934 264.576 122.878 263.972 122.992C263.367 123.106 262.806 123.387 262.352 123.803C261.994 124.165 261.685 124.572 261.434 125.015C260.64 126.311 259.938 127.858 260.398 129.305C260.436 129.463 260.504 129.612 260.6 129.743C260.696 129.874 260.817 129.985 260.956 130.068C261.162 130.151 261.385 130.186 261.606 130.17C262.481 130.169 263.354 130.115 264.222 130.009C264.756 129.944 265.375 129.793 265.581 129.297C265.852 128.645 265.196 127.908 265.387 127.228C265.513 126.924 265.703 126.651 265.945 126.428C266.066 126.316 266.158 126.178 266.215 126.024C266.272 125.87 266.293 125.704 266.275 125.541C266.198 125.222 265.709 125.041 265.534 125.318" fill="#3F3D56"/>
<path d="M269.83 119.055C269.053 118.876 268.252 118.826 267.459 118.906C267.284 118.9 267.11 118.94 266.954 119.02C266.803 119.132 266.693 119.291 266.642 119.471C266.475 120.009 266.516 120.59 266.758 121.099C266.999 121.607 267.424 122.006 267.946 122.216C268.231 122.282 268.504 122.391 268.755 122.541C269.426 123.061 268.998 124.125 269.125 124.964C269.268 125.906 270.18 126.697 270.012 127.635C269.881 128.375 269.091 128.96 269.218 129.7C269.351 130.475 270.335 130.708 271.119 130.77C271.573 130.849 272.041 130.796 272.465 130.616C272.891 130.325 273.194 129.886 273.315 129.385C273.636 128.43 273.771 127.422 273.712 126.416C273.709 125.958 273.594 125.508 273.377 125.105C273.141 124.786 272.88 124.486 272.595 124.209C271.093 122.462 272.675 119.856 269.83 119.055Z" fill="#3F3D56"/>
<path opacity="0.8" d="M467.333 255.915C467.333 255.915 352.298 189.883 302.774 202.395C302.774 202.395 197.817 213.69 185.653 238.538C185.653 238.538 152.29 134.277 140.126 130.802" stroke="#6C63FF" stroke-miterlimit="10"/>
<path opacity="0.8" d="M185.653 238.538C204.942 187.103 378.711 130.107 378.711 130.107C354.036 136.362 302.774 202.395 302.774 202.395C302.774 202.395 194.342 123.503 140.126 130.802C140.126 130.802 378.884 138.621 467.333 255.915" stroke="#6C63FF" stroke-miterlimit="10"/>
<path d="M140.127 135.841C142.91 135.841 145.166 133.585 145.166 130.802C145.166 128.018 142.91 125.762 140.127 125.762C137.344 125.762 135.088 128.018 135.088 130.802C135.088 133.585 137.344 135.841 140.127 135.841Z" fill="#6C63FF"/>
<path d="M185.654 243.578C188.437 243.578 190.693 241.322 190.693 238.539C190.693 235.756 188.437 233.5 185.654 233.5C182.87 233.5 180.614 235.756 180.614 238.539C180.614 241.322 182.87 243.578 185.654 243.578Z" fill="#6C63FF"/>
<path d="M378.712 135.146C381.495 135.146 383.751 132.89 383.751 130.107C383.751 127.324 381.495 125.068 378.712 125.068C375.929 125.068 373.673 127.324 373.673 130.107C373.673 132.89 375.929 135.146 378.712 135.146Z" fill="#6C63FF"/>
<path d="M467.334 260.954C470.117 260.954 472.373 258.698 472.373 255.915C472.373 253.132 470.117 250.876 467.334 250.876C464.551 250.876 462.295 253.132 462.295 255.915C462.295 258.698 464.551 260.954 467.334 260.954Z" fill="#6C63FF"/>
<path d="M302.774 207.434C305.557 207.434 307.813 205.178 307.813 202.395C307.813 199.611 305.557 197.355 302.774 197.355C299.991 197.355 297.734 199.611 297.734 202.395C297.734 205.178 299.991 207.434 302.774 207.434Z" fill="#6C63FF"/>
</g>
<defs>
<clipPath id="clip0">
<rect width="596" height="368" fill="white"/>
</clipPath>
</defs>
</svg>