<svg width="259" height="150" viewBox="0 0 596 368" fill="none" xmlns="http://www.w3.org/2000/svg">
<g clip-path="url(#clip0)">
<path opacity="0.5" d="M147.596 237.085C111.537 224.626 70.3083 214.08 36.619 231.984C32.3492 234.254 28.1419 237.11 25.8414 241.361C19.7649 252.545 29.4235 267.049 24.7161 278.87C20.0087 290.692 2.292 296.644 3.74234 309.272C4.12369 312.572 5.91161 315.561 8.01837 318.136C21.2153 334.259 45.4086 335.89 65.8573 331.889C86.3059 327.889 106.304 319.593 127.122 320.637C147.127 321.668 165.531 331.264 183.861 339.341C214.762 352.995 250.852 362.791 281.728 349.069C295.875 342.78 307.572 332.071 321.112 324.594C339.36 314.611 360.336 310.762 380.939 313.616C394.692 315.554 407.821 320.43 421.28 323.794C451.85 331.427 483.758 331.177 515.259 330.877C521.123 330.82 527.081 330.752 532.701 329.076C541.021 326.576 547.885 320.818 554.493 315.185C563.177 307.79 572.323 299.663 575.123 288.604C578.43 275.476 571.585 261.523 561.432 252.602C551.28 243.681 538.302 238.805 525.636 234.103C522.511 232.953 519.172 231.784 515.972 232.653C513.871 233.228 512.102 234.629 510.533 236.135C501.543 244.787 493.948 259.422 481.688 257.072C477.312 256.234 473.73 253.189 470.267 250.376C451.775 235.373 426.9 223.788 404.582 232.078C388.26 238.142 376.738 253.714 360.197 259.21C348.431 263.123 335.647 261.429 323.269 262.191C305.265 263.292 287.742 269.656 269.712 269.268C223.739 268.28 185.436 224.32 139.65 228.508C136.062 228.833 132.148 229.659 129.948 232.497" fill="#38D39F" fill-opacity="0.4"/>
<path d="M89.6197 195.269C89.6197 195.269 51.4168 218.331 121.865 253.852C121.865 253.852 137.387 225.032 120.227 201.533C116.897 196.954 112.003 193.756 106.473 192.544C100.943 191.332 95.1597 192.19 90.2198 194.957L89.6197 195.269Z" fill="#38D39F"/>
<path d="M90.0771 194.788C90.0771 194.788 122.785 219.794 121.872 253.833" stroke="#535461" stroke-miterlimit="10"/>
<path d="M572.956 176.058C580.695 204.359 547.681 284.984 547.681 284.984C547.681 284.984 478.214 232.39 470.468 204.09C468.442 197.304 467.793 190.182 468.558 183.142C469.324 176.102 471.489 169.287 474.926 163.095C478.363 156.904 483.003 151.462 488.573 147.089C494.144 142.716 500.532 139.501 507.362 137.632C514.193 135.764 521.328 135.279 528.348 136.207C535.369 137.135 542.133 139.457 548.243 143.036C554.353 146.615 559.687 151.38 563.929 157.05C568.172 162.719 571.239 169.18 572.949 176.052L572.956 176.058Z" fill="#38D39F"/>
<path opacity="0.1" d="M572.956 176.058C580.695 204.359 547.681 284.984 547.681 284.984C547.681 284.984 478.214 232.39 470.468 204.09C468.442 197.304 467.793 190.182 468.558 183.142C469.324 176.102 471.489 169.287 474.926 163.095C478.363 156.904 483.003 151.462 488.573 147.089C494.144 142.716 500.532 139.501 507.362 137.632C514.193 135.764 521.328 135.279 528.348 136.207C535.369 137.135 542.133 139.457 548.243 143.036C554.353 146.615 559.687 151.38 563.929 157.05C568.172 162.719 571.239 169.18 572.949 176.052L572.956 176.058Z" fill="black"/>
<path d="M507.979 138.993C507.979 138.993 551.22 204.271 547.988 285.141" stroke="#535461" stroke-miterlimit="10"/>
<path d="M583.99 227.783C583.99 227.783 544.78 206.453 549.744 285.191C549.744 285.191 582.452 284.022 594.061 257.34C596.331 252.151 596.618 246.309 594.868 240.923C593.117 235.536 589.451 230.978 584.565 228.115L583.99 227.783Z" fill="#38D39F"/>
<path d="M584.634 227.92C584.634 227.92 579.57 268.793 549.744 285.19" stroke="#535461" stroke-miterlimit="10"/>
<path d="M9.95103 219.006C9.95103 219.006 -28.2707 242.062 42.1838 277.564C42.1838 277.564 57.7062 248.745 40.5459 225.245C37.2157 220.667 32.322 217.468 26.7917 216.256C21.2613 215.044 15.4785 215.903 10.5387 218.669L9.95103 219.006Z" fill="#38D39F"/>
<path d="M10.3887 218.525C10.3887 218.525 43.0965 243.531 42.1838 277.571" stroke="#535461" stroke-miterlimit="10"/>
<path d="M486.859 249.02H446.693C447.617 247.161 448.097 245.113 448.093 243.037V60.143C448.093 56.5767 446.677 53.1564 444.155 50.6346C441.633 48.1128 438.213 46.696 434.646 46.696H123.741C120.174 46.696 116.754 48.1128 114.232 50.6346C111.71 53.1564 110.294 56.5767 110.294 60.143V243.043C110.29 245.119 110.77 247.167 111.694 249.026H70.1089C69.6402 249.026 69.1761 249.118 68.7433 249.298C68.3105 249.478 67.9176 249.742 67.587 250.074C67.2564 250.407 66.9948 250.801 66.8172 251.235C66.6395 251.668 66.5493 252.133 66.5518 252.602V255.471C66.5518 260.747 68.6476 265.807 72.3781 269.537C76.1086 273.268 81.1683 275.363 86.4441 275.363H470.524C475.8 275.363 480.859 273.268 484.59 269.537C488.32 265.807 490.416 260.747 490.416 255.471V252.602C490.419 252.133 490.33 251.667 490.153 251.233C489.975 250.798 489.714 250.403 489.383 250.07C489.052 249.737 488.659 249.473 488.226 249.293C487.793 249.112 487.328 249.02 486.859 249.02ZM239.368 260.397L235.905 256.49H321.413L317.6 260.404L239.368 260.397Z" fill="url(#paint0_linear)"/>
<path d="M429.716 49.2839H128.644C120.613 49.2839 114.103 55.7942 114.103 63.8249V239.786C114.103 247.817 120.613 254.327 128.644 254.327H429.716C437.747 254.327 444.257 247.817 444.257 239.786V63.8249C444.257 55.7942 437.747 49.2839 429.716 49.2839Z" fill="#535461"/>
<path d="M436.609 79.1721H121.052V246.681H436.609V79.1721Z" fill="white"/>
<path d="M278.835 67.3568C280.371 67.3568 281.617 66.1113 281.617 64.5749C281.617 63.0385 280.371 61.793 278.835 61.793C277.298 61.793 276.053 63.0385 276.053 64.5749C276.053 66.1113 277.298 67.3568 278.835 67.3568Z" fill="white"/>
<path d="M327.553 247.026L316.713 258.147H240.283L230.486 247.026H74.8303C73.9085 247.026 73.0244 247.392 72.3725 248.044C71.7207 248.696 71.3545 249.58 71.3545 250.501V253.302C71.3545 258.459 73.4029 263.404 77.049 267.05C80.6951 270.696 85.6403 272.744 90.7967 272.744H466.174C468.727 272.744 471.256 272.241 473.614 271.264C475.973 270.287 478.117 268.855 479.922 267.05C481.727 265.244 483.159 263.101 484.136 260.742C485.113 258.384 485.616 255.855 485.616 253.302V250.501C485.616 249.58 485.25 248.696 484.598 248.044C483.947 247.392 483.062 247.026 482.141 247.026H327.553Z" fill="#535461"/>
<path d="M161.369 89.6001V232.084H396.988" stroke="#535461" stroke-width="2" stroke-miterlimit="10"/>
<path opacity="0.5" d="M206.541 188.993H182.217V226.527H206.541V188.993Z" fill="#38D39F"/>
<path opacity="0.7" d="M248.245 155.628H223.92V226.526H248.245V155.628Z" fill="#38D39F"/>
<path opacity="0.5" d="M289.951 175.783H265.626V226.52H289.951V175.783Z" fill="#38D39F"/>
<path opacity="0.8" d="M331.653 144.507H307.328V226.527H331.653V144.507Z" fill="#38D39F"/>
<path d="M373.356 115.312H349.031V226.52H373.356V115.312Z" fill="#38D39F"/>
<path d="M194.033 166.056L236.431 127.828L278.135 163.968L319.144 120.182L360.848 102.803" stroke="#535461" stroke-width="2" stroke-miterlimit="10"/>
<path d="M194.032 170.919C196.718 170.919 198.895 168.742 198.895 166.056C198.895 163.369 196.718 161.192 194.032 161.192C191.346 161.192 189.168 163.369 189.168 166.056C189.168 168.742 191.346 170.919 194.032 170.919Z" fill="#38D39F"/>
<path d="M277.44 168.138C280.126 168.138 282.304 165.96 282.304 163.274C282.304 160.588 280.126 158.41 277.44 158.41C274.754 158.41 272.576 160.588 272.576 163.274C272.576 165.96 274.754 168.138 277.44 168.138Z" fill="#38D39F"/>
<path d="M319.837 125.046C322.523 125.046 324.701 122.868 324.701 120.182C324.701 117.496 322.523 115.319 319.837 115.319C317.151 115.319 314.974 117.496 314.974 120.182C314.974 122.868 317.151 125.046 319.837 125.046Z" fill="#38D39F"/>
<path d="M236.431 131.991C239.117 131.991 241.295 129.814 241.295 127.128C241.295 124.442 239.117 122.264 236.431 122.264C233.745 122.264 231.567 124.442 231.567 127.128C231.567 129.814 233.745 131.991 236.431 131.991Z" fill="#38D39F"/>
<path d="M360.848 107.667C363.534 107.667 365.712 105.489 365.712 102.803C365.712 100.117 363.534 97.9395 360.848 97.9395C358.162 97.9395 355.984 100.117 355.984 102.803C355.984 105.489 358.162 107.667 360.848 107.667Z" fill="#38D39F"/>
<path d="M541.797 253.114C539.234 252.27 535.433 251.295 532.42 251.639C529.551 250.595 522.805 247.888 518.198 243.812C518.331 239.804 518.228 235.792 517.892 231.796C515.535 204.996 520.836 187.33 520.836 187.33C520.836 187.33 524.999 173.851 524.543 162.667C524.812 163.174 524.962 163.474 524.962 163.474C525.325 153.828 528.613 143.844 531.076 137.624C531.17 137.597 531.262 137.564 531.351 137.524L534.102 130.997C534.321 130.617 534.495 130.212 534.621 129.791L535.064 128.759L534.933 128.703C534.977 128.534 535.021 128.353 535.064 128.172C536.821 120.739 538.19 103.109 538.19 103.109C542.904 84.5549 531.714 73.1022 531.714 73.1022L512.722 56.7607C512.816 56.9735 512.879 57.1988 512.909 57.4296L512.753 57.2921C512.484 56.5232 512.19 55.6042 511.903 54.554C512.572 54.0729 513.2 53.5354 513.778 52.9473C515.937 50.908 517.423 48.258 518.035 45.3517C518.404 43.079 518.498 40.7703 518.317 38.4751L518.004 30.592C517.99 29.0492 517.833 27.511 517.535 25.9971C516.104 19.7456 509.696 15.3696 503.263 15.082C501.216 15.0701 499.171 15.1786 497.137 15.4071C495.473 15.5437 493.803 15.5792 492.135 15.5133C491.945 15.5234 491.757 15.4731 491.598 15.3696C491.453 15.2252 491.37 15.0301 491.366 14.8257C491.334 14.4598 491.375 14.0911 491.489 13.7418C491.603 13.3926 491.787 13.0701 492.029 12.7939C492.281 12.5732 492.574 12.4053 492.892 12.3001L492.435 12.4063C492.66 12.2289 492.914 12.0915 493.186 12C491.518 12.2932 489.915 12.875 488.447 13.7192C488.043 13.9848 487.671 14.2975 487.34 14.6506C486.466 15.4177 485.898 16.4742 485.74 17.6264C484.957 16.9651 484.373 16.0994 484.052 15.1258C483.953 14.7276 483.953 14.3111 484.052 13.913C483.94 14.0505 483.831 14.1922 483.727 14.3381C483.727 14.2943 483.727 14.2505 483.727 14.2068C482.519 15.6918 481.664 17.4318 481.226 19.2955C481.058 19.0937 480.932 18.8604 480.854 18.6093C480.777 18.3581 480.751 18.0941 480.776 17.8327C480.683 18.1265 480.595 18.4203 480.514 18.7141C480.485 18.5193 480.485 18.3213 480.514 18.1265C479.778 20.3802 479.445 22.7463 479.532 25.1156C479.532 27.4787 480.583 31.1608 483.114 31.9923C483.246 32.0361 483.377 32.0673 483.515 32.0986C482.091 34.3105 481.238 36.8411 481.033 39.4637C480.828 42.0862 481.276 44.7187 482.339 47.1251C483.402 49.5315 485.045 51.6366 487.121 53.2518C489.197 54.8669 491.642 55.9416 494.236 56.3794C494.278 56.667 494.317 56.9691 494.355 57.2859H494.455C494.523 57.911 494.58 58.5987 494.617 59.2988C493.978 59.9249 493.279 60.4861 492.529 60.9743C490.404 62.2307 488.033 63.0153 485.578 63.2748C482.645 63.5049 479.796 64.3573 477.219 65.7754C474.187 67.4696 470.843 69.9389 469.792 72.9396C468.042 77.9408 458.402 85.7239 451.938 86.6929L449.638 86.5616L449.469 86.5116V86.5554L448.906 86.5241H448.875H448.725V86.5554L448.144 86.5241C448.144 86.5241 448.087 86.7929 448.006 87.2681C444.755 86.149 437.847 83.0483 428.858 74.8901C418.855 65.8067 405.321 67.5946 400.101 68.7386C399.923 68.7778 399.762 68.8702 399.638 69.0035C399.514 69.1368 399.434 69.3047 399.408 69.4847C399.383 69.6647 399.412 69.8483 399.494 70.011C399.575 70.1737 399.704 70.3078 399.863 70.3953C401.97 71.5518 405.233 73.2334 406.74 73.421C406.74 73.421 403.614 76.6905 406.94 78.4222C407.339 78.6151 407.783 78.6944 408.224 78.6514C408.666 78.6084 409.086 78.4447 409.441 78.1784C411.053 76.9968 415.536 79.6725 422.031 81.0666C422.031 81.0666 440.36 100.034 449.463 102.947C449.672 103.361 449.904 103.764 450.157 104.153L450.719 104.11V104.153H450.957L451.025 104.779C451.025 104.779 465.179 104.035 469.78 98.8959C470.106 98.6042 470.405 98.2841 470.674 97.9394L465.754 159.829H465.798L465.754 160.417H469.374C469.683 168.029 469.355 175.653 468.392 183.21V223.557C468.392 223.557 468.205 227.108 475.581 232.309C483.316 237.694 490.769 243.472 497.912 249.62L498.806 250.395C497.449 262.741 494.611 285.753 492.242 286.61L493.704 286.866C491.204 290.035 484.102 298.744 481.939 298.975C479.289 299.269 477.519 303.395 481.939 304.276C490.764 305.804 499.838 304.91 508.195 301.688C509.029 301.359 509.728 300.761 510.181 299.988C510.635 299.215 510.816 298.313 510.696 297.425L509.84 290.923C510.002 291.013 510.133 291.151 510.215 291.317C510.802 293.086 510.215 288.96 510.215 288.96C512.636 281.176 514.539 273.24 515.91 265.204L524.662 272.769C524.662 272.769 524.837 272.55 525.143 272.144C527.288 277.007 531.113 286.96 530.257 294.249C529.082 304.251 540.259 295.424 539.09 289.535C538.14 284.772 542.391 264.579 544.048 257.028C544.226 256.212 544.095 255.36 543.679 254.636C543.262 253.913 542.592 253.37 541.797 253.114Z" fill="url(#paint1_linear)"/>
<path d="M450.332 89.7439C450.332 89.7439 441.992 88.3061 429.627 77.0909C419.843 68.22 406.646 69.9642 401.557 71.0832C401.384 71.1207 401.226 71.2103 401.105 71.3401C400.984 71.4699 400.906 71.6336 400.881 71.8092C400.856 71.9848 400.885 72.1639 400.964 72.3225C401.044 72.481 401.17 72.6114 401.326 72.6961C403.383 73.8214 406.571 75.4655 408.065 75.6531C408.065 75.6531 404.983 78.8413 408.259 80.548C408.651 80.7406 409.089 80.8204 409.524 80.7785C409.959 80.7365 410.374 80.5745 410.722 80.3104C412.298 79.1601 416.674 81.7733 423.019 83.1299C423.019 83.1299 447.75 108.723 453.501 104.385L450.332 89.7439Z" fill="#FEC3BE"/>
<path d="M492.912 54.9477C492.912 54.9477 495.213 64.7251 492.912 71.6267L503.265 73.0646L512.467 68.4635V62.4245C512.467 62.4245 508.153 53.2223 509.304 42.5823L492.912 54.9477Z" fill="#FEC3BE"/>
<path d="M522.224 266.874C522.224 266.874 529.725 281.54 528.55 291.317C527.375 301.095 538.327 292.468 537.177 286.716C536.246 282.065 540.397 262.335 542.016 254.996C542.191 254.203 542.066 253.373 541.664 252.667C541.262 251.961 540.612 251.43 539.84 251.176C536.383 250.039 530.594 248.645 527.687 250.776C523.393 253.933 522.224 266.874 522.224 266.874Z" fill="#8B416F"/>
<path d="M493.774 282.978C493.774 282.978 483.997 295.631 481.409 295.918C478.821 296.206 477.095 300.232 481.409 301.095C490.021 302.594 498.879 301.729 507.04 298.594C507.856 298.275 508.542 297.692 508.988 296.937C509.433 296.182 509.613 295.299 509.497 294.43L507.846 282.115L493.774 282.978Z" fill="#8B416F"/>
<path d="M477.67 148.689L468.293 149.94C469.58 160.892 469.542 171.96 468.18 182.904V222.288C468.18 222.288 467.999 225.758 475.201 230.803C482.753 236.053 490.03 241.687 497.006 247.682L523.1 270.287C523.1 270.287 533.452 257.634 532.014 250.157C532.014 250.157 514.76 244.694 512.46 235.779C511.14 230.678 504.451 226.402 498.975 223.713C495.532 222.042 492.765 219.242 491.134 215.781C489.502 212.319 489.103 208.403 490.004 204.684C490.324 203.391 490.818 202.148 491.473 200.989C496.074 192.937 502.688 174.82 502.688 174.82L490.035 150.702L477.67 148.689Z" fill="#4D4981"/>
<path opacity="0.05" d="M477.67 148.689L468.293 149.94C469.58 160.892 469.542 171.96 468.18 182.904V222.288C468.18 222.288 467.999 225.758 475.201 230.803C482.753 236.053 490.03 241.687 497.006 247.682L523.1 270.287C523.1 270.287 533.452 257.634 532.014 250.157C532.014 250.157 514.76 244.694 512.46 235.779C511.14 230.678 504.451 226.402 498.975 223.713C495.532 222.042 492.765 219.242 491.134 215.781C489.502 212.319 489.103 208.403 490.004 204.684C490.324 203.391 490.818 202.148 491.473 200.989C496.074 192.937 502.688 174.82 502.688 174.82L490.035 150.702L477.67 148.689Z" fill="black"/>
<path d="M491.473 283.859C491.473 283.859 508.44 286.735 509.015 288.46C509.59 290.186 509.015 286.16 509.015 286.16C509.015 286.16 518.792 256.54 516.517 230.378C514.241 204.215 519.392 186.955 519.392 186.955C519.392 186.955 525.431 167.4 521.98 156.185C518.53 144.97 482.296 149.858 482.296 149.858C482.296 149.858 494.949 179.478 494.661 193.569C494.661 193.569 496.099 236.129 498.687 241.018C498.662 240.993 494.636 282.69 491.473 283.859Z" fill="#4D4981"/>
<path d="M493.467 62.4246C493.467 62.4246 495.192 73.0521 512.447 68.4635L500.969 155.878C500.969 155.878 467.611 157.029 467.898 153.003L474.775 100.096L493.467 62.4246Z" fill="white"/>
<path opacity="0.1" d="M493.918 61.8491C491.671 64.0611 488.744 65.4509 485.61 65.7938C482.747 66.0132 479.964 66.8401 477.446 68.2194C474.489 69.8761 471.194 72.2829 470.194 75.2148C468.181 80.9662 455.528 90.456 449.776 88.443L451.789 105.697C451.789 105.697 468.181 104.834 471.057 98.5079L466.174 160.079H470.488C470.488 160.079 472.788 143.4 474.514 139.949C476.239 136.498 479.69 117.519 479.977 112.918C480.265 108.317 484.578 81.8602 488.317 77.2841L493.943 63.6245L493.918 61.8491Z" fill="black"/>
<path opacity="0.1" d="M493.918 62.7122C491.348 64.7224 488.275 65.9876 485.034 66.3693C482.173 66.5934 479.392 67.4246 476.876 68.8074C473.919 70.464 470.625 72.8708 469.624 75.8028C467.611 81.5542 454.958 91.044 449.207 89.031L451.22 106.285C451.22 106.285 467.611 105.422 470.487 99.0959L465.598 160.629H469.912C469.912 160.629 472.213 143.95 473.938 140.5C475.663 137.049 479.114 118.069 479.402 113.468C479.689 108.867 484.003 82.4106 487.741 77.8345L493.918 64.4313V62.7122Z" fill="black"/>
<path d="M493.917 62.1372C491.347 64.1475 488.274 65.4126 485.034 65.7943C482.171 66.0137 479.388 66.8406 476.869 68.2199C473.912 69.8766 470.618 72.2834 469.618 75.2153C467.605 80.9667 454.952 90.4565 449.2 88.4435L451.213 105.698C451.213 105.698 467.605 104.835 470.48 98.5084L465.598 160.079H469.911C469.911 160.079 472.212 143.4 473.937 139.95C475.663 136.499 479.114 117.519 479.401 112.918C479.689 108.317 484.002 81.8607 487.741 77.2846L493.923 63.9126L493.917 62.1372Z" fill="#FD6F8D"/>
<path opacity="0.1" d="M508.585 51.0656C508.21 48.34 508.96 46.6396 509.304 43.4451L492.912 55.8105C492.912 55.8105 493.306 57.4797 493.606 59.924C494.433 60.0576 495.269 60.1245 496.107 60.1241C501.796 60.1241 505.89 55.6793 508.585 51.0656Z" fill="black"/>
<path d="M496.075 59.2674C504.651 59.2674 511.603 52.315 511.603 43.7387C511.603 35.1624 504.651 28.21 496.075 28.21C487.498 28.21 480.546 35.1624 480.546 43.7387C480.546 52.315 487.498 59.2674 496.075 59.2674Z" fill="#FEC3BE"/>
<path opacity="0.1" d="M479.127 28.5165C479.028 25.8977 479.453 23.2855 480.378 20.8334C480.121 21.2192 480.012 21.6849 480.072 22.1446C480.132 22.6042 480.356 23.0267 480.703 23.334C481.203 20.6615 482.575 18.2302 484.604 16.4198C483.497 16.6011 482.928 17.9702 483.203 19.058C483.577 20.1204 484.242 21.0563 485.123 21.7586C485.029 20.1145 486.117 18.5766 487.492 17.6764C488.925 16.8533 490.49 16.2863 492.118 16.001C491.56 16.1991 491.083 16.5764 490.762 17.074C490.441 17.5716 490.293 18.1615 490.343 18.7516C490.348 18.9521 490.431 19.1428 490.574 19.283C490.73 19.383 490.914 19.4311 491.099 19.4205C492.719 19.483 494.341 19.4475 495.957 19.3143C497.943 19.0907 499.94 18.9843 501.939 18.9955C508.191 19.258 514.473 23.5278 515.874 29.623C516.164 31.1019 516.317 32.6045 516.33 34.1116L516.636 41.8072C516.814 44.0523 516.722 46.3107 516.361 48.5338C515.928 50.5861 515.048 52.5176 513.782 54.1904C512.517 55.8632 510.898 57.2361 509.041 58.2111C506.784 54.9416 506.584 50.7406 505.803 46.8459C505.679 45.9471 505.345 45.0902 504.827 44.3453C504.56 43.9769 504.185 43.7008 503.754 43.5552C503.322 43.4096 502.857 43.4017 502.421 43.5326C501.577 43.8702 501.214 45.158 501.914 45.7331C501.289 46.4708 500.12 45.9207 499.414 45.2643C497.441 43.3928 496.083 40.9665 495.519 38.3063C495.238 36.9685 494.956 35.3181 493.643 34.8618C493.192 34.7376 492.72 34.7058 492.256 34.768C489.517 34.9555 485.235 36.0871 482.585 35.2181C480.153 34.4242 479.127 30.8233 479.127 28.5165Z" fill="black"/>
<path d="M479.415 28.2289C479.315 25.6101 479.74 22.9979 480.665 20.5458C480.408 20.9316 480.299 21.3973 480.359 21.857C480.419 22.3166 480.643 22.7391 480.99 23.0464C481.491 20.3739 482.862 17.9426 484.891 16.1322C483.784 16.3135 483.215 17.6826 483.491 18.7704C483.864 19.8328 484.529 20.7687 485.41 21.471C485.316 19.8269 486.404 18.289 487.779 17.3888C489.212 16.5657 490.777 15.9987 492.405 15.7134C491.847 15.9115 491.37 16.2888 491.049 16.7864C490.728 17.284 490.58 17.8739 490.63 18.464C490.635 18.6645 490.718 18.8552 490.861 18.9954C491.017 19.0954 491.201 19.1435 491.386 19.1329C493.006 19.1954 494.628 19.1599 496.244 19.0267C498.23 18.8031 500.228 18.6967 502.226 18.7078C508.478 18.9704 514.761 23.2402 516.161 29.3354C516.451 30.8143 516.604 32.3169 516.617 33.824L516.924 41.5196C517.101 43.7647 517.009 46.0231 516.649 48.2462C516.216 50.2985 515.335 52.23 514.07 53.9028C512.804 55.5756 511.185 56.9485 509.328 57.9235C507.071 54.654 506.871 50.453 506.09 46.5583C505.966 45.6595 505.632 44.8026 505.115 44.0577C504.847 43.6893 504.472 43.4132 504.041 43.2676C503.609 43.122 503.144 43.1141 502.708 43.245C501.864 43.5826 501.501 44.8704 502.201 45.4455C501.576 46.1832 500.407 45.6331 499.701 44.9767C497.728 43.1052 496.37 40.6789 495.806 38.0187C495.525 36.6809 495.243 35.0305 493.931 34.5742C493.479 34.45 493.007 34.4181 492.543 34.4804C489.805 34.6679 485.522 35.7994 482.872 34.9305C480.44 34.1303 479.415 30.5357 479.415 28.2289Z" fill="#784F69"/>
<path opacity="0.1" d="M448.457 88.45C448.457 88.45 446.156 99.0775 450.47 105.704L452.914 105.504L451.582 88.625L448.457 88.45Z" fill="black"/>
<path d="M449.082 88.45C449.082 88.45 446.781 99.0775 451.095 105.704L453.539 105.504L452.207 88.625L449.082 88.45Z" fill="#FD6F8D"/>
<path opacity="0.1" d="M510.883 59.4302L529.431 75.3903C529.431 75.3903 540.359 86.6055 535.758 104.722C535.758 104.722 533.745 131.179 531.444 132.329C531.444 132.329 523.392 148.433 522.817 163.674C522.817 163.674 512.033 141.963 507.145 155.191C502.256 168.419 490.891 170.288 490.891 170.288L497.217 92.0443C497.217 92.0443 513.183 64.2938 510.883 59.4302Z" fill="black"/>
<path d="M511.458 59.4302L530.006 75.3903C530.006 75.3903 540.934 86.6055 536.333 104.722C536.333 104.722 534.32 131.179 532.019 132.329C532.019 132.329 523.967 148.433 523.392 163.674C523.392 163.674 512.033 140.812 507.138 154.04C502.243 167.269 491.466 170.294 491.466 170.294L497.792 92.0818C497.792 92.0818 513.759 64.2938 511.458 59.4302Z" fill="#FD6F8D"/>
<path d="M519.941 126.84C519.941 126.84 524.542 123.677 532.019 132.304L513.614 165.662L507.432 156.329C507.432 156.329 520.516 130.579 519.941 126.84Z" fill="#FEC3BE"/>
<path opacity="0.1" d="M515.484 128.709C515.484 128.709 525.662 140.137 529.632 138.306L533.307 129.747L519.51 123.821L515.484 128.709Z" fill="black"/>
<path d="M515.484 128.134C515.484 128.134 525.662 139.562 529.632 137.73L533.307 129.172L519.51 123.246L515.484 128.134Z" fill="#FD6F8D"/>
<path opacity="0.1" d="M508.057 154.147C508.057 154.147 512.902 164.074 515.484 164.649L511.733 168.963L506.27 158.61L508.057 154.147Z" fill="black"/>
<path d="M507.77 154.453C507.77 154.453 512.615 164.381 515.197 164.956L511.446 169.269L505.97 158.898L507.77 154.453Z" fill="#4D4981"/>
<path opacity="0.1" d="M516.923 93.051C516.923 93.051 517.498 113.756 515.197 121.52L516.923 93.051Z" fill="black"/>
<path opacity="0.1" d="M470.337 97.077C470.337 97.077 473.788 95.9267 473.788 93.051L470.337 97.077Z" fill="black"/>
<path d="M51.2911 100.54C51.2911 100.54 34.8997 134.448 45.6647 174.577C56.4298 214.705 53.0103 262.723 42.2764 274.601" stroke="#535461" stroke-width="2" stroke-miterlimit="10"/>
<path d="M51.2933 105.066C53.7895 105.066 55.8131 103.043 55.8131 100.546C55.8131 98.0502 53.7895 96.0266 51.2933 96.0266C48.797 96.0266 46.7734 98.0502 46.7734 100.546C46.7734 103.043 48.797 105.066 51.2933 105.066Z" fill="#38D39F"/>
<path d="M44.4775 122.352C44.4775 122.352 61.4691 125.415 65.989 119.226" stroke="#535461" stroke-width="2" stroke-miterlimit="10"/>
<path d="M42.8655 132.198C42.8655 132.198 32.6443 120.889 33.207 114.106" stroke="#535461" stroke-width="2" stroke-miterlimit="10"/>
<path d="M41.9961 152.915C41.9961 152.915 51.2921 155.366 59.7754 137.286" stroke="#535461" stroke-width="2" stroke-miterlimit="10"/>
<path d="M44.4791 167.981C44.4791 167.981 21.3486 153.096 24.168 143.494" stroke="#535461" stroke-width="2" stroke-miterlimit="10"/>
<path d="M48.0908 185.017C48.0908 185.017 64.2947 170.638 62.6006 156.491" stroke="#535461" stroke-width="2" stroke-miterlimit="10"/>
<path d="M49.8547 195.032C49.8547 195.032 29.2247 189.268 29.8499 180.228" stroke="#535461" stroke-width="2" stroke-miterlimit="10"/>
<path d="M51.292 206.966C51.292 206.966 64.2889 194.925 65.983 187.586" stroke="#535461" stroke-width="2" stroke-miterlimit="10"/>
<path d="M52.1983 227.439C52.1983 227.439 38.8638 211.873 38.2949 203.965" stroke="#535461" stroke-width="2" stroke-miterlimit="10"/>
<path d="M52.1982 240.324C52.1982 240.324 67.1206 223.745 68.2458 215.836" stroke="#535461" stroke-width="2" stroke-miterlimit="10"/>
<path d="M33.2054 119.757C35.7016 119.757 37.7252 117.734 37.7252 115.238C37.7252 112.741 35.7016 110.718 33.2054 110.718C30.7091 110.718 28.6855 112.741 28.6855 115.238C28.6855 117.734 30.7091 119.757 33.2054 119.757Z" fill="#38D39F"/>
<path d="M28.1243 184.748C30.6206 184.748 32.6442 182.724 32.6442 180.228C32.6442 177.732 30.6206 175.708 28.1243 175.708C25.6281 175.708 23.6045 177.732 23.6045 180.228C23.6045 182.724 25.6281 184.748 28.1243 184.748Z" fill="#38D39F"/>
<path d="M24.1673 148.014C26.6635 148.014 28.6871 145.99 28.6871 143.494C28.6871 140.998 26.6635 138.974 24.1673 138.974C21.6711 138.974 19.6475 140.998 19.6475 143.494C19.6475 145.99 21.6711 148.014 24.1673 148.014Z" fill="#38D39F"/>
<path d="M65.9905 123.714C68.4868 123.714 70.5104 121.691 70.5104 119.194C70.5104 116.698 68.4868 114.675 65.9905 114.675C63.4943 114.675 61.4707 116.698 61.4707 119.194C61.4707 121.691 63.4943 123.714 65.9905 123.714Z" fill="#38D39F"/>
<path d="M65.9905 193.225C68.4868 193.225 70.5104 191.201 70.5104 188.705C70.5104 186.209 68.4868 184.185 65.9905 184.185C63.4943 184.185 61.4707 186.209 61.4707 188.705C61.4707 191.201 63.4943 193.225 65.9905 193.225Z" fill="#38D39F"/>
<path d="M58.6448 141.8C61.1411 141.8 63.1647 139.776 63.1647 137.28C63.1647 134.784 61.1411 132.76 58.6448 132.76C56.1486 132.76 54.125 134.784 54.125 137.28C54.125 139.776 56.1486 141.8 58.6448 141.8Z" fill="#38D39F"/>
<path d="M67.6829 223.182C70.1792 223.182 72.2028 221.159 72.2028 218.662C72.2028 216.166 70.1792 214.143 67.6829 214.143C65.1867 214.143 63.1631 216.166 63.1631 218.662C63.1631 221.159 65.1867 223.182 67.6829 223.182Z" fill="#38D39F"/>
<path d="M37.1653 211.31C39.6616 211.31 41.6852 209.287 41.6852 206.791C41.6852 204.294 39.6616 202.271 37.1653 202.271C34.6691 202.271 32.6455 204.294 32.6455 206.791C32.6455 209.287 34.6691 211.31 37.1653 211.31Z" fill="#38D39F"/>
<path d="M63.1644 161.011C65.6606 161.011 67.6842 158.987 67.6842 156.491C67.6842 153.995 65.6606 151.971 63.1644 151.971C60.6681 151.971 58.6445 153.995 58.6445 156.491C58.6445 158.987 60.6681 161.011 63.1644 161.011Z" fill="#38D39F"/>
</g>
<defs>
<linearGradient id="paint0_linear" x1="278.484" y1="275.338" x2="278.484" y2="46.6898" gradientUnits="userSpaceOnUse">
<stop stop-color="#808080" stop-opacity="0.25"/>
<stop offset="0.54" stop-color="#808080" stop-opacity="0.12"/>
<stop offset="1" stop-color="#808080" stop-opacity="0.1"/>
</linearGradient>
<linearGradient id="paint1_linear" x1="127517" y1="188638" x2="127517" y2="51307.9" gradientUnits="userSpaceOnUse">
<stop stop-color="#808080" stop-opacity="0.25"/>
<stop offset="0.54" stop-color="#808080" stop-opacity="0.12"/>
<stop offset="1" stop-color="#808080" stop-opacity="0.1"/>
</linearGradient>
<clipPath id="clip0">
<rect width="596" height="368" fill="white"/>
</clipPath>
</defs>
</svg>