<svg width="259" height="150" viewBox="0 0 596 368" fill="none" xmlns="http://www.w3.org/2000/svg">
<path opacity="0.1" d="M534.318 106.152C534.233 106.547 534.153 106.943 534.06 107.333C531.143 120.769 526.376 133.715 519.287 145.604C519.052 146 518.816 146.395 518.576 146.79C513.902 154.44 508.309 161.49 501.923 167.784C498.392 171.266 494.541 174.575 489.961 176.96C483.544 180.309 476.042 181.668 468.669 182.778C461.012 183.938 453.248 184.906 445.506 185.95C442.755 186.314 440.02 186.7 437.302 187.109C429.822 188.215 422.396 189.494 415.148 191.19C406.187 193.282 397.503 196.022 389.298 199.878C388.643 200.174 387.995 200.488 387.355 200.819C386.715 201.139 386.07 201.463 385.438 201.792C384.807 202.12 384.184 202.449 383.566 202.787C383.246 202.96 382.926 203.133 382.61 203.315C382.295 203.497 381.983 203.657 381.676 203.835C380.751 204.35 379.844 204.878 378.937 205.411L378.902 205.434C378.301 205.785 377.71 206.144 377.123 206.504C373.77 208.538 370.488 210.661 367.207 212.797L365.143 214.13L361.946 216.195C361.323 216.599 360.687 217.003 360.06 217.403C359.616 217.696 359.171 217.989 358.686 218.291C356.356 219.757 353.995 221.196 351.572 222.568C350.998 222.897 350.42 223.226 349.837 223.545C344.941 226.274 339.82 228.58 334.531 230.438L334.46 230.465C331.799 231.392 329.085 232.157 326.331 232.757C324.744 233.103 323.152 233.387 321.542 233.605C317.239 234.214 312.876 234.276 308.557 233.787C300.077 232.806 292.131 229.555 283.655 228.458C266.206 226.237 249.259 233.392 232.851 238.997C228.816 240.374 224.751 241.663 220.657 242.865C217.936 243.669 215.206 244.429 212.453 245.161C195.589 249.612 178.377 252.626 161.003 254.173C153.741 254.884 146.434 255.046 139.147 254.657C136.377 254.488 133.638 254.213 130.947 253.769C121.742 252.347 113.16 249.367 106.232 243.909C100.558 239.428 96.4979 233.587 93.4074 227.476C90.2437 221.24 88.01 214.576 86.7772 207.694C86.6082 206.757 86.457 205.816 86.3325 204.874C86.1102 203.263 85.9442 201.644 85.8345 200.015C85.2362 191.335 86.2739 182.62 88.8939 174.322C91.8288 165.031 96.7203 156.113 98.8725 146.75C98.9615 146.354 99.046 145.958 99.126 145.564C99.4199 144.142 99.6381 142.706 99.7797 141.261C100.878 129.758 96.6669 118.543 93.3629 107.294C93.2473 106.903 93.1317 106.507 93.0205 106.112C92.6648 104.863 92.3239 103.615 91.9978 102.368C88.9384 90.4742 88.089 77.7409 90.8149 65.8692C90.8994 65.4739 91.0017 65.0786 91.0995 64.6878C92.9244 57.1836 96.3561 50.1635 101.158 44.1111C106.263 37.7156 112.964 32.3904 120.124 27.7137C123.613 25.4338 127.221 23.3034 130.947 21.3226C133.615 19.9014 136.349 18.5556 139.147 17.2854C161.581 7.07036 187.173 2.08274 212.48 3.18419C213.814 3.24193 215.148 3.31299 216.482 3.4107C217.816 3.50841 219.274 3.62388 220.671 3.75268C236.973 5.3338 252.834 9.1489 268.585 13.3193C273.863 14.7183 279.133 16.1529 284.398 17.5608C286.741 18.1826 289.08 18.8044 291.424 19.4084C302.901 22.3708 314.547 25.0533 326.34 27.0564C329.071 27.5271 331.804 27.9565 334.54 28.3444C344.041 29.7389 353.618 30.5502 363.218 30.7738C366.95 30.8478 370.684 30.8152 374.419 30.6761C376.305 30.608 378.192 30.5058 380.08 30.3696C399.579 28.9972 418.425 24.4049 437.302 20.1146C440.032 19.4928 442.767 18.8799 445.506 18.2758C449.099 17.4853 452.692 16.7214 456.303 16.0152C478.773 11.605 498.801 14.141 519.692 23.2413C524.441 25.3065 529.186 27.8025 532.094 31.6798C535.003 35.5571 535.732 40.3182 536.274 44.915C537.044 51.4615 537.546 58.0924 537.737 64.7589C537.737 65.1497 537.737 65.545 537.764 65.9402C538.066 79.4064 537.061 93.0013 534.318 106.152Z" fill="#38D39F"/>
<path opacity="0.1" d="M385.269 145.605H383.801V146.129V146.791H385.465L385.269 145.605ZM368.624 145.605C368.622 145.615 368.622 145.626 368.624 145.636C368.584 145.96 368.54 146.284 368.495 146.613V146.702V146.791H381.213V146.72L382.103 145.605H368.624ZM334.54 145.605V107.334H349.17C349.014 107.232 348.854 107.125 348.689 107.027L348.476 106.89L348.2 106.721C348.04 106.628 347.88 106.534 347.711 106.446C347.542 106.357 347.44 106.295 347.298 106.219L347.2 106.166H347.177H334.54V104.056L334.197 104.189L333.837 104.358H333.81L333.735 104.398L333.508 104.518L333.281 104.638C333.059 104.758 332.837 104.891 332.614 105.029L332.401 105.171L331.956 105.455C331.382 105.837 330.818 106.237 330.235 106.61C330.088 106.703 329.942 106.796 329.79 106.881C329.475 107.067 329.15 107.245 328.817 107.405C328.674 107.476 328.536 107.538 328.372 107.596L328.132 107.689L327.909 107.765C327.388 107.946 326.852 108.086 326.309 108.182V145.596H304.372C304.372 145.64 304.404 145.676 304.417 145.72C304.537 146.076 304.657 146.426 304.773 146.782H326.34V187.802C326.452 187.802 326.564 187.802 326.673 187.802L327.06 187.824L327.758 187.864L328.874 187.997L329.386 188.046L329.942 188.104H330.026L331.009 188.224L331.218 188.251L331.694 188.317L332.374 188.415L334.006 188.344L334.228 188.384C334.317 188.384 334.411 188.41 334.504 188.428V146.791H368.451V146.702V146.613C368.495 146.284 368.54 145.96 368.58 145.636C368.578 145.626 368.578 145.615 368.58 145.605H334.54ZM385.269 145.605H383.801V146.129V146.791H385.465L385.269 145.605ZM367.708 145.605C367.655 146 367.606 146.395 367.553 146.791H381.734L382.699 145.605H367.708ZM334.54 145.605V107.334H349.17C349.014 107.232 348.854 107.125 348.689 107.027L348.476 106.89L348.2 106.721C348.04 106.628 347.88 106.534 347.711 106.446C347.542 106.357 347.44 106.295 347.298 106.219L347.2 106.166H347.169H334.54V104.056L334.197 104.189L333.837 104.358H333.81L333.735 104.398L333.508 104.518L333.281 104.638C333.059 104.758 332.837 104.891 332.614 105.029L332.401 105.171L331.956 105.455C331.382 105.837 330.818 106.237 330.235 106.61C330.088 106.703 329.942 106.796 329.79 106.881C329.475 107.067 329.15 107.245 328.817 107.405C328.674 107.476 328.536 107.538 328.372 107.596L328.132 107.689L327.909 107.765C327.388 107.946 326.852 108.086 326.309 108.182V145.596H304.372C304.372 145.64 304.404 145.676 304.417 145.72C304.537 146.071 304.661 146.426 304.777 146.782H326.34V187.798H326.673L327.06 187.82L327.758 187.86L328.874 187.997L329.386 188.046L329.942 188.104H330.026L331.009 188.224L331.218 188.251L331.694 188.317L332.374 188.415L334.006 188.344L334.228 188.384C334.317 188.384 334.411 188.41 334.504 188.428V146.791H367.562C367.615 146.395 367.664 146 367.717 145.605H334.54ZM445.505 65.9095H537.763C537.763 65.5143 537.763 65.119 537.737 64.7281H445.505V18.2629C442.766 18.8551 440.031 19.468 437.301 20.1016V64.7281H336.963L336.71 64.5016L337.092 64.1641L374.414 30.6676C370.679 30.8097 366.945 30.8422 363.213 30.7653L334.535 56.4983V28.3447C331.796 27.9569 329.063 27.5275 326.335 27.0567V55.2015L284.406 17.5612C279.141 16.1533 273.872 14.7187 268.593 13.3197L325.615 64.5016L325.361 64.7281H220.683V3.79304C219.287 3.66276 217.891 3.54876 216.495 3.45106C215.161 3.35335 213.826 3.28229 212.492 3.22455V64.7281H139.147V17.3258C136.378 18.593 133.645 19.9388 130.947 21.363V64.7281H91.0989C91.0011 65.119 90.8988 65.5143 90.8143 65.9095H130.947V106.152H93.02C93.1311 106.548 93.2467 106.943 93.3624 107.334H130.947V145.605H99.1254C99.0454 145.999 98.9609 146.394 98.872 146.791H130.947V253.796C133.615 254.209 136.376 254.497 139.147 254.684V146.791H212.479V245.18C215.232 244.447 217.962 243.687 220.683 242.883V146.791H326.34V232.753C329.093 232.153 331.808 231.388 334.469 230.461L334.54 230.434V146.791H437.301V187.109C440.028 186.709 442.763 186.326 445.505 185.959V146.791H518.575C518.815 146.395 519.051 146 519.287 145.605H445.505V107.334H534.059C534.153 106.943 534.233 106.548 534.317 106.152H445.505V65.9095ZM139.147 65.9095H212.479V106.152H139.147V65.9095ZM139.147 145.605V107.334H212.479V145.605H139.147ZM220.683 65.9095H326.34V106.152H220.683V65.9095ZM220.683 145.605V107.334H326.34V145.605H220.683ZM437.301 145.605H334.54V107.334H437.301V145.605ZM437.301 106.152H334.54V66.9888L335.98 65.9095H437.301V106.152ZM368.624 145.605C368.622 145.615 368.622 145.626 368.624 145.636C368.584 145.96 368.54 146.284 368.495 146.613V146.702V146.791H381.213V146.72L382.103 145.605H368.624ZM385.269 145.605H383.801V146.129V146.791H385.465L385.269 145.605ZM334.54 145.605V107.334H349.17C349.014 107.232 348.854 107.125 348.689 107.027L348.476 106.89L348.2 106.721C348.04 106.628 347.88 106.534 347.711 106.446C347.542 106.357 347.44 106.295 347.298 106.219L347.2 106.166H347.177H334.54V104.056L334.197 104.189L333.837 104.358H333.81L333.735 104.398L333.508 104.518L333.281 104.638C333.059 104.758 332.837 104.891 332.614 105.029L332.401 105.171L331.956 105.455C331.382 105.837 330.818 106.237 330.235 106.61C330.088 106.703 329.942 106.796 329.79 106.881C329.475 107.067 329.15 107.245 328.817 107.405C328.674 107.476 328.536 107.538 328.372 107.596L328.132 107.689L327.909 107.765C327.388 107.946 326.852 108.086 326.309 108.182V145.596H304.372C304.372 145.64 304.404 145.676 304.417 145.72C304.537 146.076 304.657 146.426 304.773 146.782H326.34V187.802C326.452 187.802 326.564 187.802 326.673 187.802L327.06 187.824L327.758 187.864L328.874 187.997L329.386 188.046L329.942 188.104H330.026L331.009 188.224L331.218 188.251L331.694 188.317L332.374 188.415L334.006 188.344L334.228 188.384C334.317 188.384 334.411 188.41 334.504 188.428V146.791H368.451V146.702V146.613C368.495 146.284 368.54 145.96 368.58 145.636C368.578 145.626 368.578 145.615 368.58 145.605H334.54Z" fill="#38D39F"/>
<path opacity="0.1" d="M174.406 38.2045H175.042C174.832 38.1159 174.65 37.9735 174.513 37.7918C174.376 37.61 174.29 37.3954 174.264 37.1696C174.264 36.3524 175.486 35.6862 176.981 35.6862H195.995C197.489 35.6862 198.708 36.3524 198.708 37.1696C198.708 37.9824 197.489 38.653 195.995 38.653H195.359C195.569 38.7401 195.752 38.8814 195.889 39.0626C196.025 39.2437 196.111 39.458 196.137 39.6834C196.137 40.3807 195.248 40.967 194.061 41.1224H199.535C201.025 41.1224 202.247 41.7886 202.247 42.6058C202.247 43.423 201.025 44.0892 199.535 44.0892H180.516C179.026 44.0892 177.803 43.4186 177.803 42.6058C177.803 41.9085 178.693 41.3267 179.88 41.1668H174.406C172.912 41.1668 171.693 40.5006 171.693 39.6834C171.693 38.8662 172.912 38.2045 174.406 38.2045Z" fill="#38D39F"/>
<path opacity="0.1" d="M380.488 52.3144H381.124C380.916 52.2252 380.734 52.0825 380.598 51.9008C380.462 51.7191 380.377 51.5048 380.351 51.2795C380.351 50.4623 381.569 49.7961 383.063 49.7961H402.078C403.572 49.7961 404.795 50.4623 404.795 51.2795C404.795 52.0923 403.572 52.7585 402.078 52.7585H401.446C401.655 52.8477 401.837 52.9904 401.972 53.1721C402.108 53.3538 402.194 53.5681 402.22 53.7933C402.22 54.4906 401.331 55.0769 400.143 55.2323H405.617C407.111 55.2323 408.33 55.8985 408.33 56.7157C408.33 57.5329 407.111 58.1991 405.617 58.1991H386.603C385.109 58.1991 383.886 57.5285 383.886 56.7157C383.886 56.0185 384.775 55.4322 385.962 55.2767H380.488C378.999 55.2767 377.776 54.6105 377.776 53.7933C377.776 52.9761 378.999 52.3144 380.488 52.3144Z" fill="#38D39F"/>
<path opacity="0.1" d="M145.221 112.699H145.852C145.643 112.61 145.462 112.467 145.326 112.286C145.19 112.104 145.105 111.889 145.079 111.664C145.079 110.851 146.302 110.18 147.791 110.18H166.81C168.3 110.18 169.523 110.851 169.523 111.664C169.523 112.481 168.3 113.147 166.81 113.147H166.174C166.384 113.235 166.566 113.376 166.702 113.557C166.838 113.738 166.923 113.953 166.948 114.178C166.948 114.875 166.059 115.461 164.871 115.617H170.346C171.84 115.617 173.063 116.287 173.063 117.1C173.063 117.913 171.84 118.583 170.346 118.583H151.349C149.855 118.583 148.636 117.917 148.636 117.1C148.636 116.407 149.526 115.821 150.713 115.661H145.221C143.727 115.661 142.504 114.995 142.504 114.178C142.504 113.36 143.745 112.699 145.221 112.699Z" fill="#38D39F"/>
<path opacity="0.1" d="M503.257 270.968C506.451 255.356 467.343 234.19 415.906 223.691C364.47 213.192 320.182 217.337 316.988 232.948C313.794 248.56 352.902 269.726 404.339 280.225C455.776 290.723 500.063 286.579 503.257 270.968Z" fill="#38D39F"/>
<path d="M399.383 170.938C399.383 170.938 404.439 146.151 423.743 148.447C423.743 148.447 437.083 149.362 439.827 158.085V177.365L399.383 170.938Z" fill="#3A3768"/>
<path d="M505.097 180.123L333.196 165.888L311.136 170.481L312.514 201.237L314.017 201.419L315.729 247.604L484.41 277.899L502.34 262.749V212.682L504.634 211.336L505.097 180.123Z" fill="#D48A9B"/>
<path opacity="0.05" d="M505.329 180.123L504.867 211.336L486.252 220.059L486.021 187.464L505.329 180.123Z" fill="black"/>
<path opacity="0.05" d="M502.34 212.713L502.567 261.834L484.642 276.984L485.794 220.059L502.34 212.713Z" fill="black"/>
<path opacity="0.05" d="M314.249 203.257L485.932 224.181L486.021 220.21L314.12 201.694L314.249 203.257Z" fill="black"/>
<path opacity="0.05" d="M502.34 214.516V212.713L485.331 220.21V224.19L502.34 214.516Z" fill="black"/>
<path d="M310.905 170.481L332.966 165.888L504.866 180.123L485.562 187.464L310.905 170.481Z" fill="#EFC6CD"/>
<path opacity="0.1" d="M486.554 181.007L494.989 181.557L481.009 185.737L473.889 185.226L486.554 181.007Z" fill="black"/>
<path d="M486.554 180.638L494.989 181.189L481.009 185.372L473.889 184.857L486.554 180.638Z" fill="white"/>
<path d="M485.544 181.584C485.878 181.442 486.229 181.713 486.585 181.779C486.79 181.819 486.999 181.779 487.203 181.819C487.617 181.873 488.026 182.148 488.421 182.01" fill="#D3DAE1"/>
<path d="M485.108 181.837C485.437 181.695 485.793 181.961 486.149 182.033C486.353 182.068 486.562 182.033 486.767 182.068C487.181 182.126 487.59 182.401 487.985 182.263" fill="#D3DAE1"/>
<path d="M484.104 182.343C484.437 182.201 484.793 182.468 485.149 182.534C485.349 182.574 485.562 182.534 485.762 182.574C486.18 182.632 486.59 182.907 486.981 182.765" fill="#D3DAE1"/>
<path opacity="0.1" d="M450.09 176.858L458.526 177.413L444.545 181.593L437.425 181.077L450.09 176.858Z" fill="black"/>
<path d="M450.09 176.494L458.526 177.045L444.545 181.224L437.425 180.713L450.09 176.494Z" fill="white"/>
<path d="M449.081 177.44C449.415 177.298 449.766 177.565 450.122 177.636C450.326 177.671 450.535 177.636 450.74 177.671C451.153 177.729 451.563 178.004 451.958 177.867" fill="#D3DAE1"/>
<path d="M448.646 177.693C448.975 177.551 449.33 177.817 449.686 177.884C449.891 177.924 450.1 177.884 450.304 177.924C450.718 177.982 451.127 178.257 451.523 178.115" fill="#D3DAE1"/>
<path d="M447.64 178.195C447.974 178.053 448.329 178.324 448.685 178.391C448.885 178.431 449.099 178.391 449.299 178.431C449.717 178.484 450.126 178.764 450.517 178.622" fill="#D3DAE1"/>
<path opacity="0.1" d="M467.58 178.932L476.02 179.483L462.039 183.667L454.916 183.152L467.58 178.932Z" fill="black"/>
<path d="M467.58 178.568L476.02 179.119L462.039 183.298L454.916 182.783L467.58 178.568Z" fill="white"/>
<path d="M466.571 179.514C466.904 179.372 467.26 179.638 467.616 179.705C467.816 179.745 468.025 179.705 468.229 179.745C468.643 179.798 469.056 180.078 469.448 179.936" fill="#D3DAE1"/>
<path d="M466.135 179.763C466.468 179.621 466.824 179.892 467.18 179.958C467.38 179.998 467.589 179.958 467.793 179.998C468.207 180.052 468.621 180.331 469.012 180.189" fill="#D3DAE1"/>
<path d="M465.134 180.269C465.463 180.127 465.819 180.394 466.175 180.465C466.379 180.5 466.588 180.465 466.793 180.5C467.206 180.558 467.615 180.833 468.011 180.696" fill="#D3DAE1"/>
<path opacity="0.1" d="M276.593 351.478C326.32 351.478 366.632 343.191 366.632 332.967C366.632 322.743 326.32 314.455 276.593 314.455C226.866 314.455 186.554 322.743 186.554 332.967C186.554 343.191 226.866 351.478 276.593 351.478Z" fill="#38D39F"/>
<path d="M375.193 181.375C374.232 172.946 370.43 164.902 370.43 164.902L370.719 162.06C370.719 162.06 370.781 160.639 370.688 158.507C370.698 157.176 370.873 155.851 371.208 154.563C371.987 152.098 370.235 149.069 370.039 148.789C369.843 148.509 370.137 143.104 368.385 140.453C366.633 137.801 354.964 132.871 354.964 132.871C354.964 132.871 354.337 131.561 353.452 130.029L353.532 129.873C352.808 128.562 351.911 127.353 350.864 126.28C350.148 125.517 349.459 125.081 348.903 125.294C348.677 124.557 348.505 123.805 348.387 123.043C348.503 123.074 348.623 123.105 348.739 123.127C349.22 123.239 349.72 123.251 350.206 123.163C351.291 122.918 352.011 121.946 352.616 121.031C355.631 116.456 358.228 111.438 358.757 106.024C358.9 104.919 358.847 103.797 358.602 102.71C358.352 101.865 358.002 101.053 357.561 100.29C356.782 98.7241 355.794 97.2706 354.626 95.9684C352.55 93.7832 349.686 92.4464 346.742 91.6558C343.426 90.7651 339.971 90.5074 336.559 90.8964C335.669 90.9985 334.78 91.1451 333.891 91.2028C332.763 91.2524 331.632 91.2332 330.507 91.1451L324.686 90.8075L324.659 90.7187L323.69 90.661C323.307 91.4204 323.69 92.322 324.166 93.0326C324.641 93.7433 325.188 94.485 325.148 95.3244C325.108 96.1638 324.499 96.8389 324.023 97.545C323.547 98.2512 323.187 99.175 323.663 99.8679C323.73 99.9637 323.809 100.05 323.899 100.125C324.401 100.645 325.277 100.703 326.038 100.694H326.171C324.256 103.213 323.22 106.289 323.223 109.452C323.236 112.155 323.993 114.802 325.412 117.104C326.831 119.405 328.857 121.273 331.267 122.501C331.352 122.79 331.436 123.087 331.516 123.389C332.398 126.509 332.714 129.761 332.45 132.991L332.348 133.213L332.285 132.978C332.285 132.978 325.428 137.624 323.392 138.854C321.355 140.084 319.31 144.255 319.212 145.392C319.114 146.528 315.903 163.676 315.903 163.676C315.251 165.404 314.713 167.172 314.294 168.971L310.198 172.564C310.198 172.564 301.749 173.323 299.303 172.755L299.375 173.225C297.218 172.734 295.021 172.436 292.811 172.337C291.604 172.182 290.377 172.346 289.254 172.812L289.169 172.852L289.102 172.883C287.815 173.059 286.558 173.412 285.367 173.932C285.225 173.989 285.096 174.047 284.971 174.105L284.998 173.523L275.855 173.052L271.186 172.106C271.186 172.106 269.532 170.774 268.558 170.969C267.584 171.165 265.543 169.832 265.543 169.832C265.078 169.468 264.574 169.155 264.04 168.899C263.885 167.825 263.787 167.172 263.787 167.172C263.787 167.172 260.154 152.773 257.432 144.308C255.609 138.654 252.985 135.869 251.438 134.657C250.749 133.458 250.295 132.685 250.295 132.685C249.997 131.646 248.361 129.305 247.943 129.247C247.876 129.141 247.827 129.087 247.8 129.087C247.711 129.078 247.621 129.092 247.538 129.127C246.773 125.326 246.329 120.56 247.498 116.407C249.099 115.093 250.389 113.442 251.276 111.572C252.164 109.701 252.626 107.658 252.63 105.588C252.63 105.526 252.63 105.464 252.63 105.402C252.63 105.34 252.63 105.273 252.63 105.211C252.629 101.91 251.458 98.7163 249.326 96.1949L249.175 96.0261C249.215 95.9975 249.254 95.9663 249.29 95.9328C249.624 95.6622 249.879 95.3062 250.027 94.9027C250.175 94.4993 250.211 94.0633 250.131 93.6411C249.93 92.7884 249.263 92.1177 248.921 91.3094C248.715 90.6871 248.551 90.0522 248.427 89.4085C248.165 88.4943 247.685 87.6575 247.027 86.9702L247.093 87.1479C245.35 85.1892 242.353 84.2166 239.654 84.6518C237.648 84.9716 235.781 85.9043 233.766 86.193C232.321 86.3973 230.849 86.2641 229.395 86.4106C228.046 86.5492 226.733 86.9282 225.517 87.5298C225.2 87.6647 224.918 87.8715 224.695 88.1339C224.488 88.4853 224.349 88.8725 224.286 89.2753C223.792 91.074 222.227 92.3576 221.093 93.8587C219.798 95.5738 219.048 97.6378 218.941 99.7835C218.896 100.329 218.949 100.878 219.096 101.405C219.194 101.72 219.345 102.017 219.416 102.337C219.639 103.314 219.127 104.287 218.878 105.255C218.565 106.49 218.676 107.795 219.194 108.959C220.951 112.885 226.718 114.196 227.919 118.317C228.837 118.739 229.808 119.038 230.805 119.205C230.885 119.614 230.956 120.027 231.014 120.445C230.987 120.456 230.961 120.471 230.938 120.489C229.382 122.003 228.995 124.93 228.995 124.93L228.808 125.081C228.172 125.605 225.998 127.364 224.032 128.719C221.698 130.331 217.807 135.732 215.085 137.344C212.364 138.956 210.123 148.891 210.71 152.502C211.297 156.113 213.725 166.239 212.751 169.934C211.777 173.629 214.209 190.493 214.209 190.493C215.841 190.804 217.438 191.277 218.976 191.906L218.927 192.643L218.781 194.864C218.781 194.864 214.374 210.781 216.059 223.035C217.744 235.289 215.281 236.55 215.281 236.55C215.281 236.55 215.797 241.982 214.503 243.878C213.209 245.774 212.946 249.94 212.946 249.94C212.946 249.94 212.817 259.289 213.075 261.932C213.333 264.575 213.462 269.389 212.555 270.526C211.648 271.663 209.963 279.111 210.091 281.385C210.22 283.659 206.85 288.842 208.664 295.535C210.478 302.228 203.328 302.357 203.328 302.357C203.328 302.357 204.239 312.572 206.183 315.495L206.467 315.912C206.418 316.081 206.37 316.258 206.316 316.449C205.582 319.114 204.577 323.32 205.276 324.337C206.312 325.856 206.832 325.599 206.832 325.599L207.219 332.42C207.219 332.42 215.001 338.989 220.968 338.74C226.936 338.492 225.766 332.42 225.766 332.42L220.684 319.256L220.51 318.812L226.158 308.153C226.158 308.153 227.714 303.481 228.101 301.837C228.488 300.194 230.6 294.372 230.6 294.372C230.6 294.372 235.936 281.74 236.048 280.221C236.159 278.703 236.568 270.499 237.604 268.852C238.64 267.204 241.495 257.748 241.495 257.748L241.566 257.811C242.05 258.286 242.396 258.883 242.567 259.54C242.738 260.196 242.727 260.886 242.535 261.537C241.882 263.935 242.273 268.861 242.273 268.861C242.273 268.861 242.015 273.031 241.495 275.181C240.975 277.33 240.85 294.887 241.757 299.053C242.482 302.388 242.46 308.633 242.424 310.995C241.815 313.505 241.281 316.623 242.273 316.991C243.963 317.626 252.523 317.498 252.523 317.498C252.523 317.498 256.152 316.232 261.083 320.655C266.015 325.079 281.183 319.394 281.183 319.394C281.183 319.394 285.852 318.128 276.642 314.469C270.217 311.915 266.068 310.214 263.355 308.393C263.418 308.273 263.484 308.153 263.542 308.024C263.542 308.024 259.78 304.471 262.893 298.173C266.006 291.876 265.877 286.55 265.877 286.55L266.397 265.325L264.841 237.149L263.636 207.579L263.849 207.508C264.054 212.944 265.116 225.886 270.679 223.377C277.683 220.219 271.715 212.007 271.715 212.007L268.572 205.887L269.51 205.567L265.992 194.215C265.655 191.999 265.61 189.749 265.859 187.522C265.929 186.219 265.902 184.913 265.779 183.614C270.386 182.81 274.797 181.957 275.589 182.152C276.522 182.379 281.747 182.423 283.802 182.432C283.13 182.956 282.592 183.476 282.592 183.476L290.957 189.099C290.957 189.099 293.794 187.549 294.385 185.905C294.967 185.758 295.505 185.472 295.951 185.07C296.039 187.011 296.555 189.112 298.352 189.161C298.801 189.17 299.247 189.082 299.659 188.903L313.338 186.198L312.164 193.522L312.982 194.975C312.568 201.152 312.092 207.712 311.674 213.482L311.483 214.743L311.581 214.765C310.932 223.648 310.412 230.376 310.412 230.376C311.178 228.918 312.366 227.725 313.822 226.952L313.911 240.134C313.911 240.134 314.596 260.977 314.596 263.82C314.596 266.662 314.689 273.009 314.689 273.009C314.689 273.009 316.152 280.777 317.024 283.335C317.896 285.893 318.58 297.547 318.58 297.547C318.58 297.547 320.626 300.767 319.75 301.988C318.874 303.21 323.156 305.87 323.156 305.87C323.156 305.87 320.43 309.565 320.235 312.03C320.212 312.315 320.492 312.617 320.999 312.919C320.839 313.047 320.675 313.176 320.492 313.3C319.23 314.144 317.38 314.731 314.596 314.491C307.005 313.825 301.656 320.837 306.325 322.259C310.994 323.68 325.002 323.964 325.002 323.964C325.002 323.964 329.244 321.322 332.561 322.512C332.512 325.292 332.65 327.841 332.672 328.179L332.632 328.21C330.649 329.987 326.851 333.042 323.143 334.29C317.807 336.089 316.624 343.386 323.53 344.332C330.436 345.278 340.552 343.195 340.552 343.195C340.552 343.195 345.804 339.313 349.793 338.461C353.781 337.608 357.188 335.711 356.507 333.437C356.063 331.985 354.92 328.179 354.146 325.621C354.101 325.467 354.057 325.319 354.013 325.177C354.133 324.91 354.253 324.635 354.364 324.351C354.364 324.351 352.323 313.74 353.977 311.089C355.631 308.437 354.755 281.905 354.755 281.905C354.755 281.905 351.931 275.181 353.394 271.108C354.857 267.035 351.06 261.253 351.06 261.253C351.06 261.253 351.473 249.665 352.585 243.207C352.636 242.932 352.684 242.666 352.732 242.408C354.593 241.856 356.407 241.157 358.157 240.316C358.157 240.316 359.131 225.722 359.713 222.409C359.771 222.098 359.851 221.596 359.949 220.943L360.394 218.602L360.918 215.938L362.697 206.855L365.908 202.707L374.179 194.268C374.179 194.268 376.167 189.809 375.193 181.375ZM247.64 129.265L247.578 129.309C247.569 129.277 247.561 129.245 247.556 129.212C247.582 129.233 247.61 129.251 247.64 129.265ZM329.359 139.609L329.039 140.306L330.209 139.143L328.621 140.919L329.155 139.8L329.359 139.609ZM321.462 155.909C321.155 156.721 320.826 157.601 320.484 158.516L321.111 156.646L321.462 155.909Z" fill="url(#paint0_linear)"/>
<path d="M295.942 182.481C295.942 182.481 294.852 189.725 298.121 189.818C301.389 189.911 303.573 184.231 303.573 184.231L302.239 179.688L295.942 182.481Z" fill="#585B8A"/>
<path opacity="0.2" d="M295.942 182.481C295.942 182.481 294.852 189.725 298.121 189.818C301.389 189.911 303.573 184.231 303.573 184.231L302.239 179.688L295.942 182.481Z" fill="black"/>
<path d="M222.734 339.278C216.917 339.531 209.331 332.967 209.331 332.967L208.953 326.149C208.953 326.149 208.451 326.402 207.437 324.888C206.756 323.871 207.735 319.656 208.451 317.005C208.797 315.708 209.082 314.784 209.082 314.784L221.844 318.195L222.454 319.807L227.407 332.962C227.407 332.962 228.546 339.025 222.734 339.278Z" fill="#636992"/>
<path d="M281.374 319.967C281.374 319.967 266.588 325.647 261.808 321.228C257.028 316.809 253.466 318.07 253.466 318.07C253.466 318.07 245.123 318.199 243.478 317.564C242.509 317.195 243.033 314.038 243.638 311.524C244.047 309.787 244.492 308.353 244.492 308.353C244.492 308.353 259.024 303.427 261.301 306.456C261.985 307.346 262.802 308.125 263.724 308.766C266.357 310.667 270.47 312.39 276.976 315.041C285.923 318.701 281.374 319.967 281.374 319.967Z" fill="#636992"/>
<path d="M268.105 204.586L272.147 212.664C272.147 212.664 277.964 220.872 271.138 224.025C264.312 227.179 264.441 205.851 264.441 205.851L268.105 204.586Z" fill="#FFD6D6"/>
<path d="M251.167 134.528C251.167 134.528 255.591 136.549 258.246 145.005C260.901 153.462 264.44 167.856 264.44 167.856C264.44 167.856 266.842 184.138 266.459 188.179C266.216 190.405 266.259 192.653 266.588 194.868L269.999 206.229L263.173 208.627L252.683 168.487L251.167 134.528Z" fill="#DCE6F2"/>
<path opacity="0.05" d="M251.167 134.528C251.167 134.528 255.591 136.549 258.246 145.005C260.901 153.462 264.44 167.856 264.44 167.856C264.44 167.856 266.842 184.138 266.459 188.179C266.216 190.405 266.259 192.653 266.588 194.868L269.999 206.229L263.173 208.627L252.683 168.487L251.167 134.528Z" fill="black"/>
<path opacity="0.1" d="M221.844 318.199L222.454 319.812L221.707 321.237C218.798 322.499 211.594 321.49 211.594 321.49C211.594 321.49 210.26 319.798 208.437 317.014C208.784 315.717 209.069 314.793 209.069 314.793L221.844 318.199Z" fill="black"/>
<path opacity="0.1" d="M264.187 309.361C260.501 317.702 247.97 314.606 244.488 313.562C243.914 313.389 243.599 313.274 243.599 313.274C243.599 313.274 243.621 312.594 243.63 311.524C244.039 309.787 244.483 308.353 244.483 308.353C244.483 308.353 259.016 303.427 261.292 306.456C261.976 307.346 262.794 308.125 263.716 308.766C263.855 308.978 264.013 309.177 264.187 309.361Z" fill="black"/>
<path d="M263.551 298.76C260.518 305.066 264.187 308.606 264.187 308.606C260.501 316.942 247.969 313.851 244.488 312.803C243.914 312.634 243.598 312.519 243.598 312.519C243.598 312.519 243.852 303.805 242.967 299.639C242.082 295.473 242.206 277.93 242.713 275.785C243.22 273.639 243.469 269.469 243.469 269.469C243.469 269.469 243.091 264.548 243.723 262.15C243.913 261.502 243.925 260.815 243.76 260.16C243.594 259.506 243.256 258.908 242.78 258.428L242.713 258.361C242.713 258.361 239.934 267.83 238.92 269.465C237.906 271.099 237.533 279.311 237.404 280.826C237.275 282.34 232.094 294.967 232.094 294.967C232.094 294.967 230.075 300.772 229.697 302.41C229.319 304.049 227.799 308.726 227.799 308.726L221.707 320.469C218.798 321.73 211.595 320.722 211.595 320.722C211.595 320.722 210.207 318.945 208.308 316.05C206.41 313.154 205.529 302.926 205.529 302.926C205.529 302.926 212.479 302.797 210.71 296.108C208.94 289.419 212.226 284.241 212.101 281.967C211.977 279.693 213.618 272.249 214.503 271.112C215.388 269.975 215.259 265.179 215.005 262.527C214.752 259.876 214.881 250.536 214.881 250.536C214.881 250.536 215.134 246.37 216.397 244.478C217.66 242.586 217.157 237.154 217.157 237.154C217.157 237.154 219.554 235.893 217.913 223.648C216.273 211.403 220.582 195.499 220.582 195.499L220.728 193.278L220.959 189.68C220.959 189.68 257.108 187.407 260.016 190.182C260.776 190.953 261.4 191.846 261.861 192.825C262.856 194.961 263.559 197.221 263.951 199.545L265.468 237.793L266.984 265.943L266.477 287.15C266.477 287.15 266.588 292.444 263.551 298.76Z" fill="#565988"/>
<path opacity="0.1" d="M252.834 223.27L249.041 305.32L244.488 312.799C243.914 312.63 243.598 312.515 243.598 312.515C243.598 312.515 243.852 303.801 242.967 299.635C242.082 295.469 242.207 277.925 242.713 275.78C243.22 273.635 243.469 269.465 243.469 269.465C243.469 269.465 243.091 264.544 243.723 262.145C243.913 261.497 243.926 260.811 243.76 260.156C243.594 259.501 243.256 258.903 242.78 258.424L242.842 257.979L252.834 223.27Z" fill="black"/>
<path opacity="0.1" d="M211.986 311.382C211.986 311.382 221.845 307.469 223.361 308.717C224.877 309.965 211.737 311.871 211.737 311.871L211.986 311.382Z" fill="black"/>
<path opacity="0.1" d="M260.648 301.029C260.27 301.158 250.665 304.582 251.55 308.224C252.434 311.866 260.648 301.029 260.648 301.029Z" fill="black"/>
<path d="M230.631 114.271C230.631 114.271 233.851 122.034 232.148 126.014C230.445 129.993 250.535 136.806 250.535 136.806C250.535 136.806 244.661 121.657 250.349 113.134C256.036 104.611 230.631 114.271 230.631 114.271Z" fill="#FFD6D6"/>
<path d="M348.267 339.025C344.381 339.878 339.262 343.759 339.262 343.759C339.262 343.759 329.404 345.842 322.671 344.896C315.939 343.95 317.082 336.658 322.293 334.859C325.909 333.615 329.613 330.546 331.547 328.788C332.401 328.002 332.908 327.455 332.908 327.455L351.776 323.667C351.776 323.667 352.083 324.719 352.51 326.172C353.265 328.734 354.382 332.536 354.809 333.984C355.471 336.28 352.154 338.172 348.267 339.025Z" fill="#505484"/>
<path d="M343.434 324.444C343.434 324.444 335.47 325.297 332.152 323.405C328.835 321.513 324.095 324.542 324.095 324.542C324.095 324.542 310.443 324.257 305.894 322.836C301.345 321.415 306.556 314.398 313.951 315.073C316.646 315.317 318.469 314.726 319.701 313.883C320.988 313.002 321.885 311.659 322.205 310.134L338.213 311.08L340.437 316.747L343.434 324.444Z" fill="#505484"/>
<path opacity="0.1" d="M340.681 319.332C340.681 319.332 322.076 316.294 319.701 313.883C320.988 313.002 321.885 311.659 322.205 310.134L338.213 311.08L340.437 316.747L340.681 319.332Z" fill="black"/>
<path d="M313.098 213.015L313.289 240.751C313.289 240.751 313.951 261.581 313.951 264.424C313.951 267.266 314.045 273.604 314.045 273.604C314.045 273.604 315.468 281.367 316.321 283.925C317.175 286.484 317.838 298.138 317.838 298.138C317.838 298.138 319.83 301.358 318.976 302.579C318.122 303.8 322.294 306.461 322.294 306.461C322.294 306.461 319.625 310.156 319.452 312.617C319.279 315.077 340.681 318.572 340.681 318.572L332.343 233.179L325.704 211.785L313.098 213.015Z" fill="#575988"/>
<path opacity="0.1" d="M313.098 213.015L313.289 240.751C313.289 240.751 313.951 261.581 313.951 264.424C313.951 267.266 314.045 273.604 314.045 273.604C314.045 273.604 315.468 281.367 316.321 283.925C317.175 286.484 317.838 298.138 317.838 298.138C317.838 298.138 319.83 301.358 318.976 302.579C318.122 303.8 322.294 306.461 322.294 306.461C322.294 306.461 319.625 310.156 319.452 312.617C319.279 315.077 340.681 318.572 340.681 318.572L332.343 233.179L325.704 211.785L313.098 213.015Z" fill="black"/>
<path opacity="0.1" d="M352.509 326.194C346.315 340.943 331.583 329.56 331.583 329.56C331.583 329.56 331.583 329.276 331.547 328.788C332.401 328.001 332.908 327.455 332.908 327.455L351.776 323.667C351.776 323.667 352.082 324.742 352.509 326.194Z" fill="black"/>
<path d="M352.723 324.919C346.653 340.464 331.582 328.801 331.582 328.801C331.582 328.801 331.107 320.753 332.058 317.062C333.01 313.372 331.013 302.291 331.013 302.291C331.013 302.291 329.875 292.444 328.834 290.175C327.794 287.905 327.887 283.357 327.887 282.98C327.887 282.602 328.265 279.569 327.411 277.486C326.558 275.403 326.077 270.291 326.077 270.291C326.077 270.291 326.077 263.096 325.223 258.837L322.284 244.18L316.975 214.166L318.633 213.881L348.351 208.676C348.351 208.676 353.945 237.101 352.047 240.014C351.638 240.654 351.277 242.053 350.979 243.856C349.894 250.305 349.49 261.883 349.49 261.883C349.49 261.883 353.185 267.657 351.766 271.73C350.348 275.802 353.101 282.522 353.101 282.522C353.101 282.522 353.954 309.033 352.34 311.684C350.726 314.335 352.723 324.919 352.723 324.919Z" fill="#575988"/>
<path d="M349.877 131.121C349.877 131.121 322.956 150.055 329.022 140.586C332.29 135.487 331.69 128.994 330.409 124.091C329.762 121.597 328.868 119.173 327.741 116.856C327.741 116.856 350.616 107.138 347.583 115.848C346.872 117.877 346.57 120.026 346.694 122.172C346.875 125.398 347.98 128.504 349.877 131.121Z" fill="#D28690"/>
<path d="M301.407 174.482C301.407 174.482 290.032 171.2 288.138 174.42C286.243 177.64 288.707 184.706 292.14 185.843C295.573 186.98 303.453 181.993 303.453 181.993L301.407 174.482Z" fill="#D28690"/>
<path d="M314.427 168.899L309.687 173.256C309.687 173.256 301.438 174.011 299.068 173.443C299.068 173.443 301.251 188.024 298.121 189.823L317.269 185.941L314.427 168.899Z" fill="#585B8A"/>
<path opacity="0.1" d="M314.427 168.899L309.687 173.256C309.687 173.256 301.438 174.011 299.068 173.443C299.068 173.443 301.251 188.024 298.121 189.823L317.269 185.941L314.427 168.899Z" fill="black"/>
<path opacity="0.1" d="M253.568 106.317C253.568 110.086 252.069 113.701 249.4 116.366C246.731 119.031 243.112 120.529 239.338 120.529C232.036 117.025 225.108 114.173 225.108 106.317C225.032 104.404 225.344 102.497 226.025 100.708C226.705 98.9188 227.74 97.2855 229.068 95.9059C230.396 94.5262 231.989 93.4286 233.752 92.6788C235.515 91.9291 237.411 91.5426 239.327 91.5426C241.243 91.5426 243.139 91.9291 244.902 92.6788C246.665 93.4286 248.258 94.5262 249.586 95.9059C250.914 97.2855 251.949 98.9188 252.629 100.708C253.31 102.497 253.621 104.404 253.546 106.317H253.568Z" fill="black"/>
<path d="M253.568 105.935C253.571 109.277 252.391 112.513 250.238 115.071C248.084 117.63 245.096 119.347 241.798 119.92C238.501 120.492 235.108 119.884 232.216 118.201C229.324 116.519 227.12 113.871 225.993 110.724C224.865 107.577 224.886 104.133 226.053 101C227.219 97.8673 229.455 95.2463 232.367 93.5995C235.279 91.9526 238.68 91.3857 241.97 91.9987C245.26 92.6116 248.227 94.3651 250.349 96.9499C252.427 99.4847 253.564 102.659 253.568 105.935Z" fill="#FFD6D6"/>
<path opacity="0.1" d="M261.862 192.838C260.454 193.712 258.98 194.475 257.455 195.121C257.455 195.121 250.251 194.078 249.21 195.308C248.17 196.538 238.983 197.013 238.983 197.013C238.983 197.013 224.953 196.352 222.867 194.553C222.223 194.031 221.505 193.606 220.737 193.292L220.969 189.694C220.969 189.694 257.117 187.42 260.025 190.196C260.782 190.967 261.403 191.86 261.862 192.838Z" fill="black"/>
<path d="M263.618 190.293C263.333 191.901 257.454 194.362 257.454 194.362C257.454 194.362 250.251 193.322 249.21 194.553C248.169 195.783 238.982 196.258 238.982 196.258C238.982 196.258 224.953 195.592 222.867 193.793C220.782 191.994 216.135 191.128 216.135 191.128C216.135 191.128 213.764 174.278 214.716 170.587C215.668 166.896 213.293 156.761 212.724 153.164C212.155 149.566 214.334 139.627 216.988 138.019C219.643 136.411 223.436 131.01 225.709 129.403C227.625 128.048 229.742 126.294 230.36 125.765L230.542 125.614C230.542 125.614 230.925 122.679 232.441 121.173C233.957 119.667 247.889 130.735 247.889 130.735C247.889 130.735 247.987 131.588 248.934 129.98C249.148 129.62 250.984 132.267 251.304 133.387C251.304 133.387 258.886 146.644 259.362 149.375C259.838 152.107 261.826 161.021 262.204 163.197C262.301 163.756 262.462 165.72 262.648 168.349C262.684 168.864 262.715 169.41 262.755 169.979C263.035 174.34 263.338 179.91 263.52 184.12C263.52 184.6 263.56 185.062 263.573 185.506C263.669 187.1 263.684 188.698 263.618 190.293Z" fill="#DCE6F2"/>
<path opacity="0.1" d="M215.482 156.113C215.482 156.113 220.693 162.455 222.401 162.455C224.108 162.455 215.482 156.113 215.482 156.113Z" fill="black"/>
<path opacity="0.1" d="M226.46 169.748C226.46 169.748 217.926 179.026 219.065 180.731C220.203 182.437 226.46 169.748 226.46 169.748Z" fill="black"/>
<path opacity="0.1" d="M220.204 188.21C220.204 188.21 229.987 177.511 230.432 173.82L220.204 188.21Z" fill="black"/>
<path opacity="0.1" d="M232.526 188.965C232.526 188.965 243.807 183.001 244.754 178.266C245.702 173.532 232.526 188.965 232.526 188.965Z" fill="black"/>
<path opacity="0.1" d="M246.839 131.406L245.274 135.19L247.88 136.42L250.441 143.57C250.441 143.57 257.503 157.676 257.218 165.013C256.934 172.35 258.499 183.378 258.499 183.378L262.572 182.623L260.651 161.043C260.352 157.701 259.514 154.43 258.17 151.356C254.915 143.912 248.858 130.171 248.476 130.171C247.956 130.171 248.32 130.362 248.32 130.362L246.839 131.406Z" fill="black"/>
<path d="M247.218 131.024L245.653 134.812L248.263 136.043L250.82 143.193C250.82 143.193 257.881 157.299 257.597 164.636C257.312 171.973 258.877 183.001 258.877 183.001L262.955 182.246L261.03 160.665C260.734 157.324 259.898 154.053 258.553 150.979C255.298 143.531 249.241 129.794 248.863 129.794C248.338 129.794 248.703 129.985 248.703 129.985L247.218 131.024Z" fill="#575989"/>
<path d="M293.38 186.665C291.397 186.514 286.639 184.111 284.749 183.112L283.948 182.668L284.046 175.335C284.514 175.06 284.998 174.816 285.496 174.602C288.022 173.501 293.202 172.004 295.799 176.823C299.303 183.285 295.893 186.834 293.38 186.665Z" fill="#FFD6D6"/>
<path opacity="0.1" d="M250.349 96.95C250.145 97.0775 249.921 97.1691 249.686 97.2209C248.037 97.5807 246.16 96.1639 244.746 97.0744C243.883 97.634 243.683 98.7932 243.567 99.8147C243.366 101.591 243.164 103.356 242.963 105.109C242.92 105.733 242.789 106.347 242.571 106.934C241.873 108.529 239.957 109.279 238.209 109.252C237.524 109.301 236.848 109.078 236.328 108.631C236.021 108.32 235.857 107.885 235.519 107.6C233.295 105.739 232.619 110.301 233.206 111.598C234.149 113.716 237.498 115.759 236.092 118.45C235.856 118.888 235.498 119.247 235.061 119.485C232.943 118.823 231.01 117.675 229.416 116.134C227.821 114.592 226.61 112.7 225.879 110.607C225.147 108.515 224.916 106.28 225.203 104.083C225.491 101.885 226.288 99.7852 227.533 97.9504C228.778 96.1157 230.435 94.5971 232.372 93.516C234.309 92.4349 236.472 91.8212 238.689 91.724C240.906 91.6268 243.115 92.0488 245.14 92.9562C247.164 93.8636 248.948 95.2313 250.349 96.95Z" fill="black"/>
<path d="M235.14 107.583C235.473 107.862 235.642 108.298 235.949 108.608C236.47 109.055 237.146 109.278 237.83 109.23C239.578 109.257 241.494 108.511 242.188 106.907C242.409 106.323 242.543 105.71 242.584 105.087L243.189 99.7924C243.304 98.7709 243.5 97.6117 244.367 97.0521C245.781 96.1639 247.658 97.5584 249.307 97.1987C249.902 97.0477 250.417 96.6763 250.747 96.1599C251.078 95.6435 251.199 95.0208 251.086 94.4184C250.895 93.5701 250.246 92.8995 249.912 92.0912C249.71 91.4701 249.548 90.8366 249.427 90.1947C248.507 86.7482 244.456 84.8118 240.934 85.3892C238.977 85.7134 237.159 86.6461 235.198 86.9303C233.792 87.1346 232.356 87.0014 230.938 87.1524C229.62 87.2882 228.338 87.6662 227.158 88.2672C226.848 88.4041 226.574 88.6109 226.357 88.8712C226.156 89.2228 226.02 89.608 225.957 90.0082C225.481 91.7847 223.952 93.0949 222.844 94.5916C221.578 96.3137 220.845 98.3691 220.737 100.503C220.693 101.048 220.744 101.597 220.888 102.124C220.981 102.435 221.128 102.737 221.199 103.057C221.417 104.029 220.919 105.002 220.674 105.97C220.37 107.206 220.48 108.507 220.986 109.674C222.693 113.596 228.318 114.906 229.488 119.023C230.526 119.521 231.648 119.822 232.796 119.912C233.944 119.934 235.18 119.441 235.713 118.424C237.114 115.759 233.77 113.689 232.827 111.575C232.236 110.274 232.899 105.717 235.14 107.583Z" fill="#353045"/>
<path opacity="0.1" d="M347.605 115.848C346.894 117.877 346.592 120.026 346.715 122.172C346.03 122.754 345.283 121.013 344.492 121.461C342.322 122.714 339.814 125.694 337.128 125.694C334.799 125.696 332.502 125.146 330.427 124.091C329.779 121.597 328.885 119.173 327.759 116.856C327.759 116.856 350.637 107.138 347.605 115.848Z" fill="black"/>
<path d="M351.9 110.167C351.9 113.089 351.033 115.945 349.407 118.374C347.782 120.803 345.472 122.697 342.77 123.815C340.067 124.933 337.094 125.225 334.225 124.655C331.356 124.086 328.72 122.679 326.652 120.613C324.583 118.547 323.175 115.915 322.604 113.049C322.033 110.184 322.326 107.214 323.446 104.514C324.565 101.815 326.461 99.5082 328.893 97.8851C331.325 96.2619 334.185 95.3956 337.11 95.3956C339.052 95.395 340.976 95.7767 342.771 96.5188C344.565 97.261 346.196 98.349 347.569 99.7209C348.943 101.093 350.032 102.721 350.775 104.514C351.518 106.306 351.901 108.227 351.9 110.167Z" fill="#D28690"/>
<path d="M351.269 134.404C351.269 134.404 348.485 137.433 348.107 137.681C347.729 137.93 339.658 171.88 339.516 172.275C339.374 172.67 329.906 203.324 329.906 203.324L314.738 210.772L316.006 173.279L327.123 142.358C327.123 142.358 330.791 138.192 331.925 136.677C333.059 135.163 347.218 126.072 347.218 126.072L349.637 131.05L351.269 134.404Z" fill="#F0F3F7"/>
<path opacity="0.1" d="M349.264 131.81L331.823 144.281L331.543 137.433C332.682 135.918 346.836 126.831 346.836 126.831L349.264 131.81Z" fill="black"/>
<path d="M349.642 131.05L332.201 143.522L331.93 136.678C333.069 135.159 347.223 126.072 347.223 126.072L349.642 131.05Z" fill="#F0F3F7"/>
<path d="M331.347 133.631L331.93 136.678L328.03 140.635L331.143 133.675C331.143 133.675 324.472 138.316 322.471 139.547C320.47 140.777 318.469 144.943 318.394 146.08C318.318 147.217 315.17 164.352 315.17 164.352C315.17 164.352 312.8 170.694 313.467 172.493C314.134 174.291 309.865 231.003 309.865 231.003C310.435 229.901 311.242 228.939 312.227 228.184C313.213 227.43 314.352 226.901 315.565 226.637L314.045 193.123C314.045 193.123 315.895 170.827 315.988 170.543C316.081 170.259 320.301 157.334 320.301 157.334L331.347 133.631Z" fill="#585B8A"/>
<path opacity="0.1" d="M332.312 137.055L332.009 143.273C332.009 143.273 327.789 156.575 326.371 158.751C324.952 160.927 320.634 173.901 320.634 173.901L318.202 196.436L314.031 198.332L311.977 194.553L315.392 172.79C315.392 172.79 321.835 154.425 322.787 152.529L327.54 142.527L332.312 137.055Z" fill="black"/>
<path d="M331.93 136.678L331.632 142.895C331.632 142.895 327.412 156.197 325.989 158.374C324.566 160.55 320.257 173.523 320.257 173.523L317.838 196.054L313.667 197.946L311.581 194.162L314.996 172.399C314.996 172.399 321.44 154.03 322.387 152.138L327.176 142.149L331.93 136.678Z" fill="#663D5C"/>
<path d="M282.766 184.138L290.917 189.774C290.917 189.774 296.666 186.554 293.318 184.471C289.969 182.388 286.999 182.073 285.923 182.073C284.847 182.073 282.766 184.138 282.766 184.138Z" fill="#D28690"/>
<path d="M288.854 173.718C288.672 173.831 288.522 173.989 288.418 174.177C288.315 174.364 288.261 174.575 288.262 174.789C288.262 176.516 288.458 181.091 289.907 179.026C291.686 176.499 291.362 174.229 294.079 175.868C295.767 176.918 297.245 178.274 298.436 179.865L297.68 174.438C297.68 174.438 292.095 171.684 288.854 173.718Z" fill="#D28690"/>
<path opacity="0.1" d="M352.056 239.996C351.647 240.636 351.287 242.035 350.989 243.838C334.367 248.817 322.205 238.291 322.205 238.291C320.734 233.31 319.531 228.255 318.603 223.146C318.305 221.396 318.372 218.003 318.648 213.863L348.366 208.658C348.366 208.658 353.955 237.06 352.056 239.996Z" fill="black"/>
<path d="M369.118 155.26C368.362 157.725 368.647 162.739 368.647 162.739L361.821 194.93C361.821 194.93 358.504 219.735 357.935 223.048C357.365 226.361 356.418 240.942 356.418 240.942C337.079 250.411 322.178 237.536 322.178 237.536C320.707 232.554 319.504 227.497 318.576 222.386C317.624 216.764 320.426 194.237 321.751 184.231C322.147 181.269 322.413 179.403 322.413 179.403L327.389 160.941C327.389 160.941 333.504 145.365 335.781 140.821C338.057 136.278 347.2 126.072 347.2 126.072C348.334 125.352 350.148 127.893 351.496 130.207C352.514 131.956 353.274 133.582 353.274 133.582C353.274 133.582 364.649 138.503 366.352 141.132C368.056 143.761 367.775 149.18 367.967 149.464C368.158 149.748 369.879 152.8 369.118 155.26Z" fill="#585B8A"/>
<path opacity="0.1" d="M342.295 143.806C342.295 143.806 343.149 148.825 340.961 150.339C338.848 151.805 323.125 182.686 322.146 184.613C322.542 181.646 322.809 179.781 322.809 179.781L327.785 161.323C327.785 161.323 333.904 145.747 336.176 141.199C338.448 136.651 347.6 126.449 347.6 126.449C348.734 125.73 350.544 128.27 351.891 130.584C349.859 134.799 345.621 142.767 342.295 143.806Z" fill="black"/>
<path d="M341.917 143.428C341.917 143.428 342.766 148.447 340.583 149.962C338.399 151.476 322.751 182.303 321.759 184.231C322.155 181.269 322.422 179.403 322.422 179.403L327.398 160.941C327.398 160.941 333.512 145.365 335.789 140.821C338.066 136.278 347.208 126.072 347.208 126.072C348.342 125.352 350.157 127.893 351.504 130.207C349.481 134.417 345.238 142.389 341.917 143.428Z" fill="#585B8A"/>
<path d="M364.476 188.779L359.126 216.577V216.581L358.615 219.242V219.246L357.463 225.229L352.55 224.189L350.259 223.705L318.567 216.999L316.237 216.506L310.918 215.382L311.959 208.48L312.39 205.611L316.228 180.162L364.476 188.779Z" fill="#38D39F"/>
<path d="M334.9 211.501C334.9 211.501 322.293 216.044 325.041 221.441C327.79 226.837 345.421 217.275 345.421 217.275L334.9 211.501Z" fill="#D28690"/>
<path opacity="0.1" d="M343.905 250.22C343.905 250.598 344.381 255.43 346.275 257.131C348.169 258.832 343.905 250.22 343.905 250.22Z" fill="black"/>
<path opacity="0.1" d="M331.205 267.355C331.205 267.355 333.477 273.604 342.482 276.162C351.487 278.72 331.205 267.355 331.205 267.355Z" fill="black"/>
<path opacity="0.1" d="M351.901 110.167C351.901 112.764 351.216 115.315 349.915 117.563C348.613 119.811 346.741 121.677 344.488 122.972C343.638 122.497 342.884 121.869 342.264 121.12C341.62 120.338 341.117 119.272 341.504 118.339C341.815 117.589 342.638 117.114 342.838 116.336C342.932 115.861 342.908 115.37 342.767 114.906C342.602 114.173 342.447 113.441 342.287 112.712C342.149 112.09 341.904 111.358 341.286 111.207C340.668 111.056 340.152 111.571 339.667 111.953C338.48 112.89 336.203 113.525 334.776 112.757C333.349 111.988 333.749 109.417 333.517 108.027C333.515 107.906 333.485 107.787 333.431 107.679C333.378 107.571 333.301 107.476 333.206 107.4C332.998 107.332 332.777 107.316 332.561 107.356C331.792 107.356 331.174 106.668 330.952 105.93C330.794 105.178 330.708 104.412 330.694 103.643C330.609 102.875 330.329 102.062 329.671 101.667C329.145 101.422 328.562 101.327 327.986 101.391L325.198 101.422C327.047 98.9248 329.638 97.0732 332.602 96.1309C335.566 95.1886 338.751 95.2034 341.706 96.1734C344.661 97.1434 347.235 99.019 349.061 101.534C350.887 104.048 351.873 107.074 351.878 110.181L351.901 110.167Z" fill="black"/>
<path d="M340.063 111.953C340.548 111.571 341.081 111.064 341.682 111.211C342.282 111.357 342.54 112.099 342.678 112.712L343.158 114.902C343.3 115.366 343.326 115.859 343.234 116.336C343.007 117.118 342.189 117.589 341.873 118.339C341.486 119.272 341.993 120.338 342.633 121.115C343.801 122.521 345.416 123.485 347.209 123.846C347.677 123.959 348.164 123.969 348.637 123.878C349.695 123.633 350.415 122.661 350.984 121.75C353.924 117.176 356.454 112.161 356.97 106.752C357.111 105.648 357.06 104.529 356.819 103.443C356.578 102.599 356.237 101.786 355.805 101.022C355.048 99.4616 354.086 98.0084 352.946 96.701C350.922 94.5248 348.13 93.1879 345.261 92.3974C342.035 91.5033 338.667 91.2394 335.341 91.6201C334.451 91.7223 333.597 91.8689 332.721 91.9266C331.622 91.9777 330.52 91.9599 329.422 91.8733L322.876 91.4825C322.503 92.2419 322.876 93.1435 323.321 93.8541C323.766 94.5647 324.317 95.302 324.281 96.1459C324.246 96.9897 323.646 97.6559 323.183 98.3665C322.721 99.0771 322.369 99.9965 322.832 100.689C323.294 101.382 324.237 101.427 325.055 101.418L328.355 101.382C328.929 101.323 329.509 101.423 330.031 101.671C330.689 102.066 330.969 102.883 331.054 103.647C331.072 104.416 331.159 105.181 331.312 105.935C331.539 106.672 332.152 107.369 332.922 107.36C333.137 107.317 333.36 107.334 333.566 107.409C333.661 107.483 333.738 107.578 333.791 107.685C333.845 107.793 333.875 107.911 333.878 108.031C334.109 109.421 333.682 111.988 335.136 112.761C336.59 113.534 338.876 112.89 340.063 111.953Z" fill="#663D5C"/>
<path opacity="0.1" d="M358.859 141.128C357.224 140.954 355.579 141.341 354.193 142.225C352.807 143.109 351.763 144.437 351.233 145.991C349.454 151.05 346.488 160.177 347.231 163.783C348.276 168.895 349.508 177.418 349.508 177.418C349.508 177.418 354.91 180.527 352.176 183.662C349.441 186.798 348.667 191.239 348.667 191.239C348.667 191.239 345.159 192.754 344.403 195.974C343.647 199.194 338.524 203.639 338.524 203.639L330.849 211.31C330.849 211.31 343.549 224.19 346.11 224.847L353.977 215.662L363.266 203.355L371.324 194.917C371.324 194.917 373.218 190.475 372.271 182.037C371.324 173.598 367.624 165.564 367.624 165.564L367.909 162.721C367.909 162.721 368.78 142.358 358.859 141.128Z" fill="black"/>
<path d="M359.615 141.128C357.981 140.956 356.338 141.344 354.954 142.228C353.57 143.111 352.528 144.438 351.998 145.991C350.219 151.05 347.253 160.177 347.995 163.783C349.036 168.895 350.268 177.418 350.268 177.418C350.268 177.418 355.671 180.527 352.936 183.662C350.201 186.798 349.432 191.239 349.432 191.239C349.432 191.239 345.923 192.754 345.163 195.974C344.402 199.194 339.289 203.64 339.289 203.64L331.609 211.31C331.609 211.31 344.309 224.19 346.87 224.847L354.737 215.662L364.004 203.355L372.062 194.917C372.062 194.917 373.96 190.475 373.009 182.037C372.057 173.598 368.366 165.564 368.366 165.564L368.651 162.722C368.651 162.722 369.536 142.358 359.615 141.128Z" fill="#585B8A"/>
<path opacity="0.1" d="M351.678 169.939C351.678 169.939 359.735 179.781 363.151 177.604C366.566 175.428 351.678 169.939 351.678 169.939Z" fill="black"/>
<path opacity="0.1" d="M354.711 162.362C355.564 162.646 362.581 172.399 366.183 171.244C369.785 170.09 354.711 162.362 354.711 162.362Z" fill="black"/>
<path opacity="0.1" d="M356.702 179.115C356.702 179.115 357.178 184.702 362.959 183.942C368.74 183.183 356.702 179.115 356.702 179.115Z" fill="black"/>
<path opacity="0.1" d="M331.156 134.053L328.03 141.012L331.934 137.055L331.156 134.053Z" fill="black"/>
<path d="M331.156 133.675L328.03 140.635L331.934 136.677L331.156 133.675Z" fill="#F0F3F7"/>
<path opacity="0.3" d="M318.567 216.999L316.237 216.506L311.959 208.481L312.39 205.612L318.567 216.999Z" fill="black"/>
<path opacity="0.3" d="M359.126 216.582L358.615 219.242V219.246L352.549 224.19L350.259 223.706L359.126 216.582Z" fill="black"/>
<path opacity="0.1" d="M263.56 185.523C262.386 185.719 261.248 185.896 260.207 186.03C254.426 186.789 240.677 179.972 240.677 179.972C240.677 179.972 223.899 165.959 219.065 152.706C214.231 139.453 224.846 137.464 224.846 137.464C228.848 135.19 237.55 141.532 238.782 142.576C240.014 143.619 241.059 146.266 240.961 147.972C240.863 149.677 243.807 151.854 243.807 151.854C243.807 151.854 248.832 160.563 250.064 161.509C251.296 162.455 251.58 163.308 251.958 164.92C252.336 166.532 255.653 167.856 257.076 167.758C258.499 167.66 260.189 168.233 260.189 168.988C260.189 169.597 261.581 169.899 262.724 169.996C263.062 174.851 263.395 181.211 263.56 185.523Z" fill="black"/>
<path opacity="0.1" d="M263.507 184.138C262.618 184.28 261.764 184.409 260.963 184.515C255.183 185.275 241.437 178.457 241.437 178.457C241.437 178.457 224.66 164.445 219.826 151.192C214.992 137.939 225.607 135.949 225.607 135.949C229.609 133.675 238.307 140.017 239.539 141.061C240.77 142.105 241.815 144.752 241.722 146.457C241.629 148.163 244.564 150.339 244.564 150.339C244.564 150.339 249.588 159.049 250.82 159.995C252.052 160.941 252.337 161.793 252.719 163.405C253.101 165.018 256.414 166.337 257.837 166.244C259.26 166.15 260.95 166.719 260.95 167.474C260.95 167.918 261.742 168.215 262.622 168.362C262.658 168.877 262.689 169.424 262.729 169.992C263.022 174.358 263.325 179.927 263.507 184.138Z" fill="black"/>
<path opacity="0.1" d="M285.496 174.602L285.136 183.112H284.749L283.948 182.668L284.046 175.335C284.514 175.061 284.998 174.816 285.496 174.602Z" fill="black"/>
<path d="M224.846 136.704C224.846 136.704 214.231 138.694 219.065 151.947C223.899 165.2 240.677 179.217 240.677 179.217C240.677 179.217 254.422 186.03 260.207 185.275C265.992 184.52 274.801 182.53 275.94 182.814C277.078 183.099 284.758 183.099 284.758 183.099L285.136 174.216L276.242 173.741L271.693 172.795C271.693 172.795 270.079 171.462 269.132 171.658C268.185 171.853 266.197 170.521 266.197 170.521C266.197 170.521 264.676 169.29 263.529 169.29C262.381 169.29 260.211 169.006 260.211 168.251C260.211 167.496 258.504 166.919 257.099 167.021C255.693 167.123 252.336 165.791 251.945 164.161C251.553 162.531 251.282 161.7 250.05 160.754C248.819 159.808 243.794 151.094 243.794 151.094C243.794 151.094 240.854 148.918 240.948 147.217C241.041 145.516 240.001 142.86 238.769 141.816C237.537 140.773 228.821 134.435 224.846 136.704Z" fill="#DCE6F2"/>
<path opacity="0.1" d="M252.15 167.19C252.15 167.19 248.072 171.262 249.113 172.017L252.15 167.19Z" fill="black"/>
<path opacity="0.1" d="M256.507 170.409C256.507 170.409 251.197 174.482 252.62 174.766C254.043 175.051 256.507 170.409 256.507 170.409Z" fill="black"/>
<path opacity="0.1" d="M247.498 176.45C248.258 176.832 259.535 183.556 263.804 183.458L247.498 176.45Z" fill="black"/>
<path opacity="0.1" d="M248.263 131.499C248.263 131.499 246.27 138.032 245.51 138.032C244.914 138.032 234.909 129.94 230.733 126.538L230.916 126.387C230.916 126.387 231.294 123.451 232.81 121.946C234.326 120.44 248.263 131.499 248.263 131.499Z" fill="black"/>
<path d="M247.88 130.739C247.88 130.739 245.893 137.273 245.132 137.273C244.532 137.273 234.527 129.181 230.351 125.779L230.533 125.628C230.533 125.628 230.916 122.692 232.432 121.186C233.949 119.681 247.88 130.739 247.88 130.739Z" fill="#DCE6F2"/>
<g opacity="0.15">
<path opacity="0.15" d="M221.035 109.625C222.369 112.668 226.043 114.142 228.173 116.567C226.905 113.587 223.201 112.126 221.035 109.625Z" fill="black"/>
<path opacity="0.15" d="M234.629 116.634C234.1 117.651 232.85 118.144 231.712 118.122C230.7 118.049 229.709 117.796 228.786 117.376C229.121 117.869 229.376 118.411 229.542 118.983C230.58 119.482 231.702 119.783 232.85 119.872C234.002 119.898 235.238 119.405 235.767 118.384C236.617 116.763 235.732 115.377 234.696 114.067C234.889 114.469 234.983 114.912 234.972 115.358C234.96 115.805 234.843 116.242 234.629 116.634Z" fill="black"/>
<path opacity="0.15" d="M251.132 94.3739C250.94 93.5212 250.291 92.8505 249.958 92.0466C249.753 91.4246 249.591 90.7896 249.473 90.1457C249.22 89.2354 248.752 88.3991 248.108 87.7075C248.197 87.9261 248.273 88.15 248.335 88.3781C248.459 89.0247 248.626 89.6627 248.833 90.2879C249.166 91.0918 249.815 91.7624 250.007 92.6151C250.119 93.2175 249.998 93.8402 249.668 94.3566C249.337 94.873 248.822 95.2444 248.228 95.3954C246.582 95.7552 244.706 94.3339 243.292 95.2488C242.425 95.804 242.225 96.9632 242.109 97.9847C241.91 99.7612 241.709 101.527 241.504 103.283C241.464 103.906 241.332 104.52 241.113 105.104C240.415 106.703 238.498 107.454 236.751 107.427C236.068 107.473 235.394 107.249 234.874 106.805C234.621 106.448 234.35 106.104 234.06 105.775C231.837 103.909 231.161 108.471 231.748 109.772C232.042 110.357 232.406 110.905 232.833 111.402C232.344 109.936 233.029 105.717 235.199 107.525C235.488 107.852 235.758 108.196 236.008 108.555C236.53 108.999 237.205 109.222 237.889 109.177C239.637 109.204 241.553 108.453 242.251 106.854C242.471 106.268 242.603 105.653 242.643 105.029C242.844 103.252 243.046 101.487 243.247 99.7346C243.363 98.7131 243.563 97.5539 244.426 96.9987C245.844 96.0838 247.721 97.505 249.366 97.1408C249.956 96.9881 250.466 96.6177 250.794 96.1043C251.122 95.5909 251.242 94.9726 251.132 94.3739Z" fill="black"/>
</g>
<path opacity="0.1" d="M349.583 122.745C349.11 122.833 348.624 122.821 348.156 122.71C346.365 122.348 344.752 121.386 343.585 119.983C342.94 119.201 342.433 118.135 342.824 117.202C343.136 116.452 343.954 115.981 344.158 115.199C344.251 114.722 344.225 114.23 344.083 113.765L343.602 111.575C343.465 110.953 343.225 110.221 342.606 110.074C341.988 109.927 341.472 110.434 340.988 110.816C339.8 111.753 337.519 112.392 336.096 111.62C334.673 110.847 335.069 108.28 334.838 106.89C334.834 106.77 334.804 106.652 334.75 106.545C334.697 106.437 334.62 106.343 334.527 106.268C334.318 106.195 334.094 106.178 333.877 106.219C333.108 106.219 332.494 105.531 332.268 104.793C332.113 104.04 332.029 103.275 332.014 102.506C331.925 101.742 331.649 100.925 330.987 100.53C330.464 100.284 329.885 100.184 329.31 100.241L326.011 100.276C325.197 100.276 324.232 100.223 323.787 99.5481C323.343 98.873 323.672 97.9137 324.139 97.2252C324.606 96.5368 325.197 95.8529 325.237 95.0046C325.277 94.1563 324.726 93.4235 324.277 92.7128C324.019 92.3242 323.83 91.8947 323.716 91.4426L322.769 91.3849C322.4 92.1399 322.769 93.0415 323.214 93.7566C323.659 94.4716 324.214 95.2044 324.174 96.0439C324.134 96.8833 323.543 97.5583 323.076 98.2645C322.609 98.9707 322.267 99.8945 322.729 100.587C323.192 101.28 324.13 101.329 324.953 101.32L328.252 101.28C328.827 101.225 329.407 101.326 329.929 101.573C330.591 101.969 330.871 102.786 330.956 103.55C330.97 104.319 331.056 105.084 331.214 105.837C331.436 106.57 332.054 107.272 332.823 107.258C333.039 107.22 333.261 107.237 333.468 107.307C333.562 107.383 333.639 107.478 333.693 107.586C333.746 107.694 333.776 107.813 333.779 107.933C334.011 109.319 333.584 111.891 335.038 112.663C336.492 113.436 338.76 112.797 339.929 111.859C340.414 111.477 340.952 110.971 341.553 111.113C342.153 111.255 342.411 112.002 342.544 112.614L343.029 114.808C343.17 115.274 343.194 115.766 343.1 116.243C342.878 117.02 342.055 117.496 341.744 118.242C341.357 119.174 341.859 120.245 342.504 121.022C343.68 122.431 345.305 123.394 347.107 123.749C347.575 123.86 348.061 123.873 348.534 123.784C349.298 123.552 349.954 123.054 350.384 122.381C350.141 122.549 349.87 122.673 349.583 122.745Z" fill="black"/>
<path opacity="0.1" d="M145.577 318.892C151.512 318.892 156.325 318.155 156.325 317.245C156.325 316.335 151.512 315.597 145.577 315.597C139.641 315.597 134.829 316.335 134.829 317.245C134.829 318.155 139.641 318.892 145.577 318.892Z" fill="#38D39F"/>
<path opacity="0.1" d="M520.852 276.051C526.788 276.051 531.6 275.313 531.6 274.403C531.6 273.493 526.788 272.755 520.852 272.755C514.916 272.755 510.104 273.493 510.104 274.403C510.104 275.313 514.916 276.051 520.852 276.051Z" fill="#38D39F"/>
<path opacity="0.1" d="M411.278 345.571C428.47 345.571 442.406 343.436 442.406 340.801C442.406 338.167 428.47 336.031 411.278 336.031C394.087 336.031 380.151 338.167 380.151 340.801C380.151 343.436 394.087 345.571 411.278 345.571Z" fill="#38D39F"/>
<path opacity="0.1" d="M499.766 324.315C513.175 324.315 524.046 322.649 524.046 320.593C524.046 318.538 513.175 316.872 499.766 316.872C486.357 316.872 475.486 318.538 475.486 320.593C475.486 322.649 486.357 324.315 499.766 324.315Z" fill="#38D39F"/>
<path opacity="0.1" d="M495.767 363.989C518.507 363.989 536.94 361.164 536.94 357.678C536.94 354.193 518.507 351.367 495.767 351.367C473.028 351.367 454.594 354.193 454.594 357.678C454.594 361.164 473.028 363.989 495.767 363.989Z" fill="#38D39F"/>
<path opacity="0.1" d="M99.5751 368C116.766 368 130.703 365.864 130.703 363.23C130.703 360.596 116.766 358.46 99.5751 358.46C82.3837 358.46 68.4474 360.596 68.4474 363.23C68.4474 365.864 82.3837 368 99.5751 368Z" fill="#38D39F"/>
<path d="M146.066 264.765C146.066 264.765 147.285 266.355 145.506 268.763C143.727 271.17 142.26 273.204 142.838 274.687C142.838 274.687 145.506 270.246 147.729 270.166C149.953 270.086 148.472 267.448 146.066 264.765Z" fill="#38D39F"/>
<path opacity="0.1" d="M146.066 264.765C146.175 264.917 146.259 265.085 146.315 265.263C148.45 267.768 149.584 270.099 147.534 270.148C145.626 270.202 143.336 273.613 142.789 274.474C142.806 274.541 142.826 274.606 142.851 274.67C142.851 274.67 145.519 270.228 147.743 270.148C149.966 270.068 148.472 267.448 146.066 264.765Z" fill="black"/>
<path d="M148.334 266.791C148.334 267.351 148.268 267.804 148.192 267.804C148.116 267.804 148.05 267.359 148.05 266.791C148.05 266.222 148.13 266.498 148.205 266.498C148.281 266.498 148.334 266.231 148.334 266.791Z" fill="#FFD037"/>
<path d="M149.108 267.461C148.619 267.728 148.188 267.905 148.152 267.821C148.116 267.737 148.481 267.484 148.975 267.213C149.468 266.942 149.273 267.142 149.308 267.213C149.344 267.284 149.602 267.19 149.108 267.461Z" fill="#FFD037"/>
<path d="M139.636 264.765C139.636 264.765 138.418 266.355 140.197 268.763C141.975 271.17 143.447 273.204 142.865 274.687C142.865 274.687 140.197 270.246 137.996 270.166C135.794 270.086 137.217 267.448 139.636 264.765Z" fill="#38D39F"/>
<path opacity="0.1" d="M139.636 264.765C139.53 264.919 139.446 265.086 139.387 265.263C137.253 267.768 136.119 270.099 138.169 270.148C140.076 270.202 142.366 273.613 142.918 274.474C142.9 274.541 142.877 274.606 142.851 274.67C142.851 274.67 140.183 270.228 137.982 270.148C135.781 270.068 137.217 267.448 139.636 264.765Z" fill="black"/>
<path d="M137.373 266.791C137.373 267.351 137.435 267.804 137.511 267.804C137.586 267.804 137.653 267.359 137.653 266.791C137.653 266.222 137.573 266.498 137.498 266.498C137.422 266.498 137.373 266.231 137.373 266.791Z" fill="#FFD037"/>
<path d="M136.595 267.461C137.089 267.728 137.515 267.905 137.555 267.821C137.595 267.737 137.222 267.484 136.728 267.213C136.235 266.942 136.43 267.142 136.395 267.213C136.359 267.284 136.101 267.19 136.595 267.461Z" fill="#FFD037"/>
<path opacity="0.1" d="M142.851 286.848C149.883 286.848 155.583 285.975 155.583 284.898C155.583 283.822 149.883 282.949 142.851 282.949C135.82 282.949 130.12 283.822 130.12 284.898C130.12 285.975 135.82 286.848 142.851 286.848Z" fill="#38D39F"/>
<path d="M149.405 272.538L149.343 273.036L149.259 273.737L149.223 274.031L149.139 274.732L149.099 275.025L149.014 275.727L148.04 283.721C147.956 284.432 146.791 284.987 145.372 284.987H140.33C138.924 284.987 137.759 284.432 137.661 283.721L136.688 275.727L136.603 275.025L136.567 274.732L136.479 274.031L136.443 273.737L136.359 273.036L136.296 272.538C136.247 272.134 136.879 271.797 137.675 271.797H148.031C148.823 271.797 149.454 272.134 149.405 272.538Z" fill="#65617D"/>
<path d="M149.344 273.035L149.259 273.737H136.444L136.359 273.035H149.344Z" fill="#9D9CB5"/>
<path d="M149.223 274.03L149.139 274.732H136.567L136.479 274.03H149.223Z" fill="#9D9CB5"/>
<path d="M149.103 275.025L149.014 275.727H136.688L136.603 275.025H149.103Z" fill="#9D9CB5"/>
<path d="M512.382 258.615C512.382 258.615 510.861 265.685 517.624 266.52L518.043 265.734C518.043 265.734 512.8 260.809 512.382 258.615Z" fill="#38D39F"/>
<path d="M520.194 265.676L518.619 266.009L518.464 266.045C518.464 266.045 514.266 262.643 514.319 255.048C514.88 256.168 515.552 257.229 516.325 258.215C517.988 260.413 519.878 263.345 520.194 265.676Z" fill="#38D39F"/>
<path d="M520.723 266.405C520.6 266.485 520.46 266.537 520.314 266.556C520.167 266.575 520.019 266.561 519.878 266.516C515.841 265.574 517.21 252.432 517.21 252.432C517.433 252.534 517.655 254.209 518.607 256.367C520.23 260.156 522.022 265.454 520.723 266.405Z" fill="#38D39F"/>
<path d="M529.68 258.615C529.68 258.615 529.942 265.685 523.179 266.52L522.756 265.721C522.756 265.721 529.262 260.809 529.68 258.615Z" fill="#38D39F"/>
<path d="M527.741 255.061C527.794 262.656 522.342 266.058 522.342 266.058L522.182 266.022L520.613 265.689C520.924 263.358 522.836 260.426 524.477 258.228C525.419 257.032 526.516 255.967 527.741 255.061Z" fill="#38D39F"/>
<path d="M522.16 265.72C521.921 266.016 521.616 266.251 521.27 266.409C521.163 266.457 521.052 266.494 520.937 266.52C519.945 266.751 519.603 266.036 519.656 264.819C519.75 262.656 521.11 258.903 522.324 256.092C522.909 254.712 523.772 253.468 524.859 252.436C524.859 252.436 524.797 262.665 522.16 265.72Z" fill="#38D39F"/>
<path d="M521.03 247.822C521.03 247.822 516.521 263.811 520.403 266.2C524.286 268.59 522.027 249.234 521.03 247.822Z" fill="#38D39F"/>
<path opacity="0.1" d="M512.382 258.615C512.382 258.615 510.861 265.685 517.624 266.52L518.043 265.734C518.043 265.734 512.8 260.809 512.382 258.615Z" fill="black"/>
<path opacity="0.1" d="M520.194 265.676L518.619 266.009L518.464 266.045C518.464 266.045 514.266 262.643 514.319 255.048C514.88 256.168 515.552 257.229 516.325 258.215C517.988 260.413 519.878 263.345 520.194 265.676Z" fill="black"/>
<path opacity="0.1" d="M520.723 266.405C520.6 266.485 520.46 266.537 520.314 266.556C520.167 266.575 520.019 266.561 519.878 266.516C515.841 265.574 517.21 252.432 517.21 252.432C517.433 252.534 517.655 254.209 518.607 256.367C520.23 260.156 522.022 265.454 520.723 266.405Z" fill="black"/>
<path opacity="0.1" d="M529.68 258.615C529.68 258.615 529.942 265.685 523.179 266.52L522.756 265.721C522.756 265.721 529.262 260.809 529.68 258.615Z" fill="black"/>
<path opacity="0.1" d="M527.741 255.061C527.794 262.656 522.342 266.058 522.342 266.058L522.182 266.022L520.613 265.689C520.924 263.358 522.836 260.426 524.477 258.228C525.419 257.032 526.516 255.967 527.741 255.061Z" fill="black"/>
<path opacity="0.1" d="M522.16 265.72C521.921 266.016 521.616 266.251 521.27 266.409C521.163 266.457 521.052 266.494 520.937 266.52C519.945 266.751 519.603 266.036 519.656 264.819C519.75 262.656 521.11 258.903 522.324 256.092C522.909 254.712 523.772 253.468 524.859 252.436C524.859 252.436 524.797 262.665 522.16 265.72Z" fill="black"/>
<path opacity="0.1" d="M521.03 247.822C521.03 247.822 516.521 263.811 520.403 266.2C524.286 268.59 522.027 249.234 521.03 247.822Z" fill="black"/>
<path d="M512.381 258.615C512.381 258.615 511.492 265.685 518.251 266.52L518.669 265.734C518.669 265.734 512.799 260.809 512.381 258.615Z" fill="#38D39F"/>
<path d="M520.821 265.676L519.246 266.009L519.091 266.045C519.091 266.045 514.266 262.643 514.306 255.061C514.306 255.061 515.542 256.394 516.939 258.228C518.615 260.413 520.505 263.344 520.821 265.676Z" fill="#38D39F"/>
<path opacity="0.1" d="M520.821 265.676L519.247 266.009C517.758 264.703 517.166 261.292 516.953 258.214C518.616 260.413 520.506 263.344 520.821 265.676Z" fill="black"/>
<path d="M521.355 266.405C521.231 266.485 521.09 266.537 520.943 266.556C520.796 266.575 520.647 266.561 520.506 266.516C516.468 265.574 517.206 252.432 517.206 252.432C517.429 252.534 518.3 254.209 519.23 256.367C520.862 260.156 522.649 265.454 521.355 266.405Z" fill="#38D39F"/>
<path d="M529.679 258.615C529.679 258.615 530.568 265.685 523.809 266.52L523.391 265.734C523.391 265.734 529.261 260.809 529.679 258.615Z" fill="#38D39F"/>
<path d="M527.741 255.061C527.794 262.656 522.97 266.058 522.97 266.058L522.814 266.022L521.24 265.689C521.551 263.358 523.463 260.426 525.109 258.228C526.505 256.394 527.741 255.061 527.741 255.061Z" fill="#38D39F"/>
<path opacity="0.1" d="M525.109 258.214C524.904 261.084 524.379 264.241 523.103 265.716C523.016 265.822 522.919 265.92 522.814 266.009L521.24 265.676C521.551 263.344 523.445 260.413 525.109 258.214Z" fill="black"/>
<path d="M522.786 265.72C522.549 266.017 522.244 266.253 521.897 266.409C521.791 266.456 521.681 266.494 521.568 266.52C520.572 266.751 520.234 266.036 520.283 264.819C520.381 262.656 521.741 258.903 522.951 256.092C523.84 254.071 524.645 252.539 524.859 252.436C524.859 252.432 525.424 262.665 522.786 265.72Z" fill="#38D39F"/>
<path opacity="0.1" d="M521.354 266.404C521.124 266.407 520.9 266.335 520.714 266.2C518.815 265.019 518.775 260.586 519.229 256.367C520.861 260.156 522.648 265.454 521.354 266.404Z" fill="black"/>
<path opacity="0.1" d="M522.786 265.72C522.568 266.196 522.275 266.444 521.897 266.409C521.704 266.386 521.519 266.315 521.359 266.205C520.864 265.866 520.488 265.382 520.283 264.819C520.381 262.656 521.741 258.903 522.951 256.092C523.387 259.987 523.533 264.117 522.786 265.72Z" fill="black"/>
<path d="M521.031 247.822C521.031 247.822 517.153 263.811 521.031 266.2C524.909 268.59 522.027 249.234 521.031 247.822Z" fill="#38D39F"/>
<path d="M528.474 265.418H512.328V268.088H514.791L514.853 268.403L515.841 273.586H525.228L526.215 268.403L526.273 268.088H528.474V265.418Z" fill="#4B4770"/>
<path opacity="0.1" d="M528.474 265.418H512.328V268.088H514.791L514.853 268.403L515.841 273.586H525.228L526.215 268.403L526.273 268.088H528.474V265.418Z" fill="black"/>
<path d="M527.114 266.987L526.843 268.403L525.856 273.586H516.468L515.481 268.403L515.21 266.987H527.114Z" fill="#4B4770"/>
<path opacity="0.1" d="M527.114 266.987L526.843 268.403H515.481L515.21 266.987H527.114Z" fill="black"/>
<path d="M529.101 265.418H512.955V268.088H529.101V265.418Z" fill="#4B4770"/>
<path d="M116.984 311.093C116.558 311.679 116.217 312.322 115.97 313.003C115.908 313.167 115.845 313.358 115.783 313.54C115.67 313.488 115.553 313.446 115.432 313.416C114.914 313.285 114.377 313.24 113.844 313.283C113.844 313.074 113.871 312.839 113.876 312.63C113.942 310.289 113.667 307.029 111.43 308.411C109.286 309.743 110.816 311.964 112.199 313.385C112.319 313.509 112.439 313.625 112.555 313.736C111.292 314.624 111.052 316.725 110.843 318.905C110.634 321.086 108.779 323.471 107.548 324.826C107.423 324.963 107.312 325.088 107.201 325.203C106.703 324.806 106.127 324.519 105.51 324.361C104.893 324.202 104.249 324.176 103.621 324.284C103.572 324.093 103.514 323.893 103.457 323.684C102.461 320.091 100.393 313.869 97.7558 312.505L98.1027 312.061C99.2233 310.6 100.486 308.424 98.623 307.869C96.7597 307.314 96.5908 309.752 96.693 311.582C96.7108 311.813 96.7286 312.03 96.7464 312.234C96.3739 312.251 96.0089 312.345 95.6739 312.508C95.3389 312.672 95.041 312.902 94.7987 313.185L94.5097 312.843C92.9977 311.066 90.2274 308.237 89.3869 310.374C88.6043 312.363 91.0456 314.948 92.7621 316.445L92.8688 316.538C91.7171 321.206 96.7464 325.012 99.4545 326.678L99.8058 326.891C96.0705 331.288 93.7626 339.531 93.7626 339.531L104.221 341.396C104.221 341.396 111.159 335.418 110.269 329.804H110.34C117.273 328.419 118.847 321.037 117.766 316.654L117.891 316.605C119.154 316.089 120.261 315.253 121.102 314.18C123.04 311.493 118.985 308.455 116.984 311.093Z" fill="#38D39F"/>
<path opacity="0.1" d="M116.984 311.093C116.558 311.679 116.217 312.322 115.97 313.003C115.908 313.167 115.845 313.358 115.783 313.54C115.67 313.488 115.553 313.446 115.432 313.416C114.914 313.285 114.377 313.24 113.844 313.283C113.844 313.074 113.871 312.839 113.876 312.63C113.942 310.289 113.667 307.029 111.43 308.411C109.286 309.743 110.816 311.964 112.199 313.385C112.319 313.509 112.439 313.625 112.555 313.736C111.292 314.624 111.052 316.725 110.843 318.905C110.634 321.086 108.779 323.471 107.548 324.826C107.423 324.963 107.312 325.088 107.201 325.203C106.703 324.806 106.127 324.519 105.51 324.361C104.893 324.202 104.249 324.176 103.621 324.284C103.572 324.093 103.514 323.893 103.457 323.684C102.461 320.091 100.393 313.869 97.7558 312.505L98.1027 312.061C99.2233 310.6 100.486 308.424 98.623 307.869C96.7597 307.314 96.5908 309.752 96.693 311.582C96.7108 311.813 96.7286 312.03 96.7464 312.234C96.3739 312.251 96.0089 312.345 95.6739 312.508C95.3389 312.672 95.041 312.902 94.7987 313.185L94.5097 312.843C92.9977 311.066 90.2274 308.237 89.3869 310.374C88.6043 312.363 91.0456 314.948 92.7621 316.445L92.8688 316.538C91.7171 321.206 96.7464 325.012 99.4545 326.678L99.8058 326.891C96.0705 331.288 93.7626 339.531 93.7626 339.531L104.221 341.396C104.221 341.396 111.159 335.418 110.269 329.804H110.34C117.273 328.419 118.847 321.037 117.766 316.654L117.891 316.605C119.154 316.089 120.261 315.253 121.102 314.18C123.04 311.493 118.985 308.455 116.984 311.093Z" fill="black"/>
<path d="M96.1637 314.131L94.9408 317.684C94.9408 317.684 94.2604 317.205 93.4022 316.45C91.6857 314.953 89.2444 312.368 90.0271 310.378C90.8675 308.242 93.6379 311.062 95.1498 312.848C95.759 313.558 96.1637 314.131 96.1637 314.131Z" fill="#38D39F"/>
<path d="M98.7432 312.066C98.3718 312.555 97.9739 313.023 97.5515 313.469C97.4471 312.846 97.3744 312.217 97.3336 311.586C97.2313 309.756 97.427 307.327 99.2635 307.873C101.1 308.42 99.8638 310.605 98.7432 312.066Z" fill="#38D39F"/>
<path d="M114.538 312.63C114.503 313.807 114.387 314.748 114.387 314.748C113.849 314.328 113.34 313.872 112.862 313.385C111.479 311.95 109.949 309.738 112.093 308.411C114.307 307.025 114.583 310.289 114.538 312.63Z" fill="#38D39F"/>
<path d="M121.742 314.171C120.901 315.244 119.795 316.08 118.532 316.596C118.181 316.748 117.822 316.878 117.456 316.987L116.015 314.966C116.166 314.298 116.365 313.642 116.611 313.003C116.858 312.322 117.199 311.679 117.625 311.093C119.617 308.455 123.681 311.493 121.742 314.171Z" fill="#38D39F"/>
<path opacity="0.1" d="M95.1502 312.847C95.7594 313.558 96.1641 314.109 96.1641 314.109L94.9412 317.662C94.9412 317.662 94.2608 317.182 93.4026 316.427C93.5933 315.282 94.0671 314.203 94.7811 313.287C94.9012 313.141 95.0301 312.99 95.1502 312.847Z" fill="black"/>
<path opacity="0.1" d="M98.7433 312.066C98.3718 312.555 97.974 313.024 97.5515 313.469C97.4471 312.846 97.3744 312.217 97.3336 311.586C97.8418 311.597 98.3343 311.764 98.7433 312.066Z" fill="black"/>
<path d="M104.755 326.26L101.714 327.593C101.714 327.593 101.051 327.273 100.095 326.678C96.8978 324.715 90.4722 319.772 94.7589 313.945C99.0456 308.118 102.661 318.568 104.097 323.68C104.529 325.234 104.755 326.26 104.755 326.26Z" fill="#38D39F"/>
<path opacity="0.1" d="M112.839 313.385C113.282 312.929 113.881 312.659 114.516 312.63C114.48 313.807 114.365 314.748 114.365 314.748C113.827 314.328 113.317 313.872 112.839 313.385Z" fill="black"/>
<path opacity="0.1" d="M118.541 316.596C118.19 316.748 117.831 316.878 117.465 316.987L116.024 314.966C116.175 314.298 116.374 313.642 116.62 313.003C117.54 313.545 118.225 314.895 118.541 316.596Z" fill="black"/>
<path d="M110.98 329.796C110.816 329.831 110.642 329.862 110.469 329.889C100.273 331.435 107.107 325.941 107.107 325.941C107.107 325.941 107.552 325.497 108.188 324.826C109.42 323.471 111.269 321.1 111.483 318.906C111.803 315.606 112.172 312.51 116.072 313.416C119.901 314.313 120.634 327.864 110.98 329.796Z" fill="#38D39F"/>
<path d="M110.79 355.151H91.3081V360.268H110.79V355.151Z" fill="#D4DFEC"/>
<path d="M113.667 338.523H88.213V356.377H113.667V338.523Z" fill="#D4DFEC"/>
<path opacity="0.1" d="M110.79 355.151H91.3081V360.268H110.79V355.151Z" fill="black"/>
<path opacity="0.1" d="M113.667 338.523H88.213V356.377H113.667V338.523Z" fill="black"/>
<path d="M112.07 355.151H92.5887V360.268H112.07V355.151Z" fill="#D4DFEC"/>
<path opacity="0.1" d="M104.098 323.684C104.542 325.212 104.756 326.26 104.756 326.26L101.714 327.593C101.714 327.593 101.052 327.273 100.096 326.678C101.287 325.172 102.63 324.035 104.098 323.684Z" fill="black"/>
<path opacity="0.1" d="M110.98 329.796C110.816 329.831 110.642 329.862 110.469 329.889C100.273 331.434 107.107 325.941 107.107 325.941C107.107 325.941 107.552 325.496 108.188 324.826C110.091 326.349 110.878 328.063 110.98 329.796Z" fill="black"/>
<path d="M94.4031 339.536C94.4031 339.536 100.113 319.105 108.121 325.408C116.13 331.71 104.862 341.396 104.862 341.396L94.4031 339.536Z" fill="#38D39F"/>
<path opacity="0.1" d="M97.2844 317.786C97.638 317.786 97.9247 317.5 97.9247 317.147C97.9247 316.794 97.638 316.507 97.2844 316.507C96.9307 316.507 96.644 316.794 96.644 317.147C96.644 317.5 96.9307 317.786 97.2844 317.786Z" fill="black"/>
<path opacity="0.1" d="M97.2313 320.771C97.5849 320.771 97.8716 320.484 97.8716 320.131C97.8716 319.778 97.5849 319.492 97.2313 319.492C96.8776 319.492 96.5909 319.778 96.5909 320.131C96.5909 320.484 96.8776 320.771 97.2313 320.771Z" fill="black"/>
<path opacity="0.1" d="M115.806 318.372C116.16 318.372 116.446 318.086 116.446 317.733C116.446 317.38 116.16 317.093 115.806 317.093C115.452 317.093 115.166 317.38 115.166 317.733C115.166 318.086 115.452 318.372 115.806 318.372Z" fill="black"/>
<path opacity="0.1" d="M100.864 333.673C101.218 333.673 101.505 333.387 101.505 333.033C101.505 332.68 101.218 332.394 100.864 332.394C100.511 332.394 100.224 332.68 100.224 333.033C100.224 333.387 100.511 333.673 100.864 333.673Z" fill="black"/>
<path opacity="0.1" d="M114.472 323.329C114.825 323.329 115.112 323.043 115.112 322.69C115.112 322.336 114.825 322.05 114.472 322.05C114.118 322.05 113.831 322.336 113.831 322.69C113.831 323.043 114.118 323.329 114.472 323.329Z" fill="black"/>
<path opacity="0.1" d="M107.855 329.942C108.209 329.942 108.495 329.656 108.495 329.303C108.495 328.949 108.209 328.663 107.855 328.663C107.501 328.663 107.215 328.949 107.215 329.303C107.215 329.656 107.501 329.942 107.855 329.942Z" fill="black"/>
<path opacity="0.1" d="M99.4725 319.065C99.8261 319.065 100.113 318.779 100.113 318.426C100.113 318.073 99.8261 317.786 99.4725 317.786C99.1188 317.786 98.8322 318.073 98.8322 318.426C98.8322 318.779 99.1188 319.065 99.4725 319.065Z" fill="black"/>
<path opacity="0.1" d="M114.045 320.291C114.398 320.291 114.685 320.005 114.685 319.652C114.685 319.299 114.398 319.012 114.045 319.012C113.691 319.012 113.404 319.299 113.404 319.652C113.404 320.005 113.691 320.291 114.045 320.291Z" fill="black"/>
<path opacity="0.1" d="M111.856 325.248C112.21 325.248 112.497 324.961 112.497 324.608C112.497 324.255 112.21 323.969 111.856 323.969C111.503 323.969 111.216 324.255 111.216 324.608C111.216 324.961 111.503 325.248 111.856 325.248Z" fill="black"/>
<path opacity="0.1" d="M105.133 333.193C105.487 333.193 105.774 332.907 105.774 332.554C105.774 332.201 105.487 331.914 105.133 331.914C104.78 331.914 104.493 332.201 104.493 332.554C104.493 332.907 104.78 333.193 105.133 333.193Z" fill="black"/>
<path opacity="0.1" d="M103.746 330.049C104.1 330.049 104.386 329.762 104.386 329.409C104.386 329.056 104.1 328.77 103.746 328.77C103.392 328.77 103.106 329.056 103.106 329.409C103.106 329.762 103.392 330.049 103.746 330.049Z" fill="black"/>
<path opacity="0.1" d="M100.433 322.956C100.787 322.956 101.073 322.67 101.073 322.316C101.073 321.963 100.787 321.677 100.433 321.677C100.079 321.677 99.7927 321.963 99.7927 322.316C99.7927 322.67 100.079 322.956 100.433 322.956Z" fill="black"/>
<path opacity="0.1" d="M112.07 355.151H92.5887V357.021H112.07V355.151Z" fill="black"/>
<path d="M114.948 338.523H89.494V356.377H114.948V338.523Z" fill="#D4DFEC"/>
<path opacity="0.1" d="M105.987 336.071C106.341 336.071 106.627 335.785 106.627 335.432C106.627 335.078 106.341 334.792 105.987 334.792C105.633 334.792 105.347 335.078 105.347 335.432C105.347 335.785 105.633 336.071 105.987 336.071Z" fill="black"/>
<path opacity="0.1" d="M102.145 336.871C102.499 336.871 102.786 336.584 102.786 336.231C102.786 335.878 102.499 335.592 102.145 335.592C101.792 335.592 101.505 335.878 101.505 336.231C101.505 336.584 101.792 336.871 102.145 336.871Z" fill="black"/>
<path opacity="0.1" d="M77.2336 27.7406C79.8025 27.7406 81.885 25.6607 81.885 23.095C81.885 20.5293 79.8025 18.4493 77.2336 18.4493C74.6648 18.4493 72.5823 20.5293 72.5823 23.095C72.5823 25.6607 74.6648 27.7406 77.2336 27.7406Z" fill="#38D39F"/>
<path opacity="0.1" d="M523.947 175.473C527.385 175.473 530.172 172.689 530.172 169.255C530.172 165.821 527.385 163.037 523.947 163.037C520.508 163.037 517.721 165.821 517.721 169.255C517.721 172.689 520.508 175.473 523.947 175.473Z" fill="#38D39F"/>
<path opacity="0.1" d="M535.95 160.47C538.46 160.47 540.494 158.438 540.494 155.931C540.494 153.424 538.46 151.392 535.95 151.392C533.44 151.392 531.405 153.424 531.405 155.931C531.405 158.438 533.44 160.47 535.95 160.47Z" fill="#38D39F"/>
<path opacity="0.1" d="M85.2381 12.4357C88.6764 12.4357 91.4636 9.6519 91.4636 6.21787C91.4636 2.78383 88.6764 0 85.2381 0C81.7998 0 79.0126 2.78383 79.0126 6.21787C79.0126 9.6519 81.7998 12.4357 85.2381 12.4357Z" fill="#38D39F"/>
<path opacity="0.1" d="M61.2255 40.8603C64.6638 40.8603 67.4511 38.0765 67.4511 34.6424C67.4511 31.2084 64.6638 28.4246 61.2255 28.4246C57.7873 28.4246 55 31.2084 55 34.6424C55 38.0765 57.7873 40.8603 61.2255 40.8603Z" fill="#38D39F"/>
<defs>
<linearGradient id="paint0_linear" x1="289.405" y1="344.581" x2="289.405" y2="84.5408" gradientUnits="userSpaceOnUse">
<stop stop-color="#808080" stop-opacity="0.25"/>
<stop offset="0.54" stop-color="#808080" stop-opacity="0.12"/>
<stop offset="1" stop-color="#808080" stop-opacity="0.1"/>
</linearGradient>
</defs>
</svg>