<svg width="259" height="150" viewBox="0 0 596 368" fill="none" xmlns="http://www.w3.org/2000/svg">
<path d="M429.657 29.9969C433.462 29.9969 436.547 26.9118 436.547 23.106C436.547 19.3003 433.462 16.2151 429.657 16.2151C425.851 16.2151 422.766 19.3003 422.766 23.106C422.766 26.9118 425.851 29.9969 429.657 29.9969Z" fill="#F1F1F1"/>
<path d="M389.027 296.657C392.832 296.657 395.918 293.572 395.918 289.766C395.918 285.96 392.832 282.875 389.027 282.875C385.221 282.875 382.136 285.96 382.136 289.766C382.136 293.572 385.221 296.657 389.027 296.657Z" fill="#F1F1F1"/>
<path d="M217.637 96.3116C221.443 96.3116 224.528 93.2264 224.528 89.4207C224.528 85.6149 221.443 82.5298 217.637 82.5298C213.831 82.5298 210.746 85.6149 210.746 89.4207C210.746 93.2264 213.831 96.3116 217.637 96.3116Z" fill="#F1F1F1"/>
<path opacity="0.2" d="M153.579 346.518C194.072 346.518 226.898 351.327 226.898 357.259C226.898 363.191 194.072 368 153.579 368C113.085 368 80.2588 363.191 80.2588 357.259C80.2588 351.327 113.085 346.518 153.579 346.518Z" fill="#83D8F7"/>
<path d="M192.31 279.725L210.717 273.958C209.698 266.303 207.372 258.88 203.841 252.012L185.435 257.778C189.754 264.297 192.138 271.907 192.31 279.725Z" fill="#6C63FF"/>
<path d="M148.067 141.574C157.558 141.574 165.252 133.879 165.252 124.388C165.252 114.896 157.558 107.202 148.067 107.202C138.575 107.202 130.881 114.896 130.881 124.388C130.881 133.879 138.575 141.574 148.067 141.574Z" fill="#2F2E41"/>
<path d="M129.528 339.746L126.259 353.756H134.198L137.467 337.878L129.528 339.746Z" fill="#9F616A"/>
<path d="M167.822 339.746V352.822L175.761 353.756V339.746H167.822Z" fill="#9F616A"/>
<path d="M127.193 191.239C127.193 191.239 128.127 211.32 129.061 212.721C129.995 214.122 138.401 234.203 138.401 234.203L142.605 221.127C142.605 221.127 136.066 210.386 137 204.315C137.934 198.244 137.346 190.773 137.346 190.773L127.193 191.239Z" fill="#9F616A"/>
<path d="M153.813 142.67C161.035 142.67 166.89 136.816 166.89 129.594C166.89 122.372 161.035 116.518 153.813 116.518C146.592 116.518 140.737 122.372 140.737 129.594C140.737 136.816 146.592 142.67 153.813 142.67Z" fill="#9F616A"/>
<path d="M143.072 130.995C143.072 130.995 143.539 149.675 140.269 152.477C137 155.279 158.95 152.944 158.95 152.944C158.95 152.944 154.28 139.868 158.016 137.066C161.752 134.264 143.072 130.995 143.072 130.995Z" fill="#9F616A"/>
<path d="M160.351 152.01C160.351 152.01 157.549 146.873 153.813 147.34C150.077 147.807 137.934 148.741 137.467 149.675C137 150.609 135.599 153.878 134.665 154.812C133.731 155.746 126.726 157.147 126.259 162.751C125.792 168.355 143.071 202.447 143.071 202.447C143.071 202.447 140.736 210.386 141.203 212.254C141.67 214.122 138.868 219.726 139.335 222.061C139.802 224.396 132.33 238.406 136.066 256.619V286.041C136.066 286.041 123.457 336.944 127.193 340.68C130.929 344.416 143.538 342.081 145.874 340.68C148.209 339.279 158.016 268.761 158.016 268.761L162.686 244.944L163.153 297.249C163.153 297.249 162.219 341.147 165.488 342.548C168.757 343.949 181.366 344.416 182.3 341.614C183.028 339.429 186.597 281.282 188.133 255.794C188.665 246.997 187.973 238.168 186.077 229.56C184.133 220.744 181.311 210.386 178.097 206.183C172.026 198.244 168.29 173.025 168.29 173.025L176.229 158.548C176.229 158.548 171.559 153.878 168.757 153.878C165.955 153.878 160.351 152.01 160.351 152.01Z" fill="#2F2E41"/>
<path d="M129.06 159.482L126.598 161.158C126.598 161.158 124.857 191.239 126.258 193.107C127.659 194.975 137.4 194.063 138.134 192.417C138.867 190.772 129.06 159.482 129.06 159.482Z" fill="#2F2E41"/>
<path d="M167.355 187.502C167.355 187.502 167.822 207.117 170.625 212.721C173.427 218.325 183.701 241.675 183.701 241.675C183.701 241.675 183.104 267.375 188.306 261.063C193.508 254.751 190.239 239.807 190.239 239.807L181.366 205.249C181.366 205.249 176.696 189.837 177.163 185.167C177.63 180.497 167.355 187.502 167.355 187.502Z" fill="#9F616A"/>
<path d="M175.761 345.256C175.761 345.256 176.228 344.883 177.629 346.284C179.03 347.685 182.766 349.553 182.299 354.69C181.832 359.827 179.03 360.761 179.03 360.761V359.36H177.629V361.695C177.629 361.695 175.294 369.167 164.553 364.497C164.553 364.497 164.086 360.761 164.553 358.426C165.02 356.091 165.02 344.883 166.421 345.35C167.822 345.817 171.558 346.284 172.492 348.152C173.426 350.02 176.228 349.366 175.761 345.256Z" fill="#2F2E41"/>
<path d="M127.66 345.723C127.66 345.723 127.193 345.35 125.792 346.751C124.391 348.152 120.655 350.02 121.122 355.157C121.589 360.294 124.391 361.228 124.391 361.228V359.827H125.792V362.162C125.792 362.162 128.127 369.634 138.868 364.964C138.868 364.964 139.335 361.228 138.868 358.893C138.401 356.558 138.401 345.35 137 345.817C135.599 346.284 131.863 346.751 130.929 348.619C129.995 350.487 127.193 349.833 127.66 345.723Z" fill="#2F2E41"/>
<path d="M169.69 157.147L176.228 158.548C176.228 158.548 176.228 168.823 178.096 173.026C179.964 177.229 183.233 187.036 181.832 187.503C180.431 187.97 167.355 194.508 166.421 190.772C165.487 187.036 163.152 157.147 169.69 157.147Z" fill="#2F2E41"/>
<path d="M129.449 118.946C138.941 118.946 146.635 111.252 146.635 101.76C146.635 92.2688 138.941 84.5745 129.449 84.5745C119.958 84.5745 112.264 92.2688 112.264 101.76C112.264 111.252 119.958 118.946 129.449 118.946Z" fill="#2F2E41"/>
<path d="M114.627 115.991C116.851 117.599 119.428 118.651 122.142 119.058C124.856 119.466 127.628 119.217 130.227 118.334C132.825 117.45 135.174 115.957 137.077 113.98C138.981 112.002 140.382 109.598 141.166 106.967C140.869 109.325 140.088 111.595 138.869 113.635C137.651 115.675 136.024 117.44 134.089 118.819C132.154 120.198 129.955 121.161 127.629 121.647C125.304 122.133 122.903 122.131 120.578 121.642C118.253 121.154 116.054 120.188 114.121 118.807C112.188 117.426 110.563 115.658 109.347 113.617C108.131 111.576 107.352 109.305 107.058 106.947C106.765 104.59 106.963 102.197 107.641 99.9197C107.256 102.979 107.702 106.085 108.931 108.913C110.16 111.741 112.127 114.186 114.627 115.991Z" fill="#2F2E41"/>
<path d="M143.484 139.855C150.444 139.855 156.087 134.213 156.087 127.252C156.087 120.292 150.444 114.65 143.484 114.65C136.523 114.65 130.881 120.292 130.881 127.252C130.881 134.213 136.523 139.855 143.484 139.855Z" fill="#2F2E41"/>
<path d="M154.082 131.263C160.251 131.263 165.253 127.351 165.253 122.527C165.253 117.702 160.251 113.791 154.082 113.791C147.912 113.791 142.911 117.702 142.911 122.527C142.911 127.351 147.912 131.263 154.082 131.263Z" fill="#2F2E41"/>
<path d="M157.062 135.229C158.232 135.229 159.182 133.55 159.182 131.478C159.182 129.406 158.232 127.727 157.062 127.727C155.891 127.727 154.941 129.406 154.941 131.478C154.941 133.55 155.891 135.229 157.062 135.229Z" fill="#A0616A"/>
<path d="M508.801 81.8388L269.957 10.1169L212.338 201.998L451.182 273.719L508.801 81.8388Z" fill="#83D8F7"/>
<path d="M365.677 66.2649L422.25 89.1318" stroke="#3F3D56" stroke-width="2" stroke-miterlimit="10"/>
<path d="M367.113 70.9662L367.96 70.5706L366.007 66.3998L370.31 64.7569L369.976 63.884L364.735 65.8861L367.113 70.9662Z" fill="#3F3D56"/>
<path d="M417.948 91.5133L417.613 90.6405L421.916 88.998L419.963 84.8267L420.81 84.4312L423.187 89.5122L417.948 91.5133Z" fill="#3F3D56"/>
<path d="M393.962 82.8354C396.799 82.8354 399.099 80.5354 399.099 77.6983C399.099 74.8612 396.799 72.5613 393.962 72.5613C391.125 72.5613 388.825 74.8612 388.825 77.6983C388.825 80.5354 391.125 82.8354 393.962 82.8354Z" fill="#3F3D56"/>
<path d="M361.364 224.793L413.484 193.06" stroke="#3F3D56" stroke-width="2" stroke-miterlimit="10"/>
<path d="M365.994 226.447L366.182 225.531L361.67 224.608L362.921 220.175L362.021 219.922L360.499 225.321L365.994 226.447Z" fill="#3F3D56"/>
<path d="M412.828 197.932L411.928 197.679L413.179 193.247L408.667 192.323L408.856 191.408L414.351 192.534L412.828 197.932Z" fill="#3F3D56"/>
<path d="M387.423 214.063C390.26 214.063 392.56 211.764 392.56 208.926C392.56 206.089 390.26 203.789 387.423 203.789C384.586 203.789 382.286 206.089 382.286 208.926C382.286 211.764 384.586 214.063 387.423 214.063Z" fill="#3F3D56"/>
<path d="M295.882 124.244L295.9 185.264" stroke="#3F3D56" stroke-width="2" stroke-miterlimit="10"/>
<path d="M292.063 127.34L292.748 127.977L295.882 124.602L299.019 127.975L299.702 127.338L295.881 123.231L292.063 127.34Z" fill="#3F3D56"/>
<path d="M292.079 182.17L292.763 181.533L295.899 184.906L299.034 181.531L299.718 182.168L295.9 186.277L292.079 182.17Z" fill="#3F3D56"/>
<path d="M295.891 159.891C298.728 159.891 301.028 157.591 301.028 154.754C301.028 151.917 298.728 149.617 295.891 149.617C293.054 149.617 290.754 151.917 290.754 154.754C290.754 157.591 293.054 159.891 295.891 159.891Z" fill="#3F3D56"/>
<path d="M337.579 0H252.584V105.543H337.579V0Z" fill="#3F3D56"/>
<path d="M289.767 39.2909H270.477C269.161 31.6813 269.161 23.9021 270.477 16.2925H289.767C287.593 23.8046 287.593 31.7788 289.767 39.2909Z" fill="#FF6584"/>
<path d="M300.394 50.9562H319.683C320.999 43.3466 320.999 35.5674 319.683 27.9578H300.394C302.567 35.4699 302.567 43.4441 300.394 50.9562Z" fill="#6C63FF"/>
<path d="M282.183 89.2504H301.472C302.788 81.6408 302.788 73.8616 301.472 66.252H282.183C284.356 73.7641 284.356 81.7382 282.183 89.2504Z" fill="#6C63FF"/>
<path d="M514.573 100.406H429.578V205.949H514.573V100.406Z" fill="#3F3D56"/>
<path d="M502.431 122.823H441.721V125.625H502.431V122.823Z" fill="#6C63FF"/>
<path d="M502.431 132.63H441.721V135.432H502.431V132.63Z" fill="#6C63FF"/>
<path d="M502.431 142.437H441.721V145.239H502.431V142.437Z" fill="#6C63FF"/>
<path d="M502.431 152.244H441.721V155.046H502.431V152.244Z" fill="#6C63FF"/>
<path d="M502.431 162.051H441.721V164.853H502.431V162.051Z" fill="#6C63FF"/>
<path d="M487.956 172.325H456.199V183.533H487.956V172.325Z" fill="#6C63FF"/>
<path d="M345.052 208.751H260.057V314.295H345.052V208.751Z" fill="#3F3D56"/>
<path d="M333.047 267.503H272.336V270.305H333.047V267.503Z" fill="#6C63FF"/>
<path d="M333.047 277.311H272.336V280.113H333.047V277.311Z" fill="#6C63FF"/>
<path d="M333.047 287.118H272.336V289.92H333.047V287.118Z" fill="#6C63FF"/>
<path d="M333.047 296.925H272.336V299.727H333.047V296.925Z" fill="#6C63FF"/>
<path opacity="0.3" d="M290.934 246.317H271.645C270.329 238.708 270.329 230.929 271.645 223.319H290.934C288.761 230.831 288.761 238.805 290.934 246.317Z" fill="#6C63FF"/>
<path opacity="0.3" d="M334.449 225.473H298.956V227.808H334.449V225.473Z" fill="#6C63FF"/>
<path opacity="0.3" d="M334.449 233.879H298.956V236.214H334.449V233.879Z" fill="#6C63FF"/>
<path opacity="0.3" d="M334.449 242.285H298.956V244.62H334.449V242.285Z" fill="#6C63FF"/>
<path opacity="0.3" d="M334.449 250.691H298.956V253.026H334.449V250.691Z" fill="#6C63FF"/>
</svg>