<svg width="259" height="150" viewBox="0 0 596 368" fill="none" xmlns="http://www.w3.org/2000/svg">
<g clip-path="url(#clip0)">
<path opacity="0.1" d="M490.793 366.243C514.368 366.243 533.48 361.522 533.48 355.698C533.48 349.874 514.368 345.153 490.793 345.153C467.217 345.153 448.105 349.874 448.105 355.698C448.105 361.522 467.217 366.243 490.793 366.243Z" fill="#38D39F"/>
<path opacity="0.1" d="M113.976 368C137.551 368 156.663 363.279 156.663 357.455C156.663 351.631 137.551 346.91 113.976 346.91C90.4003 346.91 71.2886 351.631 71.2886 357.455C71.2886 363.279 90.4003 368 113.976 368Z" fill="#38D39F"/>
<path d="M346.238 99.3453C346.238 99.3453 340.238 96.9105 321.161 105.665C302.084 114.419 299.687 113.301 294.758 111.963C289.829 110.624 287.083 110.308 281.77 103.008C281.77 103.008 278.034 82.7625 274.423 79.6241C270.811 76.4858 255.448 81.4108 255.448 81.4108C255.448 81.4108 237.032 85.6364 233.522 61.0245C233.522 61.0245 236.012 42.4717 232.623 36.7792C232.623 36.7792 239.445 39.7342 250.762 34.967C262.078 30.1998 271.097 40.0838 271.097 40.0838C271.097 40.0838 273.945 47.4606 273.655 51.8568C273.365 56.253 275.161 57.9032 280.55 55.7797C280.55 55.7797 283.194 52.0146 279.446 45.7934C275.698 39.5721 273.024 34.9329 274.073 30.1017C275.122 25.2706 278.124 18.5889 287.786 15.2203C297.449 11.8517 310.573 11.2206 316.876 8.59825C323.178 5.97587 324.7 4.27026 324.7 4.27026C324.7 4.27026 320.816 8.16758 329.962 24.631C339.108 41.0944 333.275 48.2452 333.275 48.2452C333.275 48.2452 328.414 59.8263 306.966 58.9052C306.966 58.9052 286.298 59.66 297.585 68.4268C297.585 68.4268 304.804 66.9557 315.592 63.5274C326.38 60.0992 334.17 74.2515 336.102 84.1014C338.034 93.9513 346.238 99.3453 346.238 99.3453Z" fill="#38D39F"/>
<path d="M318.448 16.7679L318.563 16.738C319.391 19.8806 310.151 32.5149 302.258 42.5482L302.164 42.4757C313.306 28.3149 319.092 19.1856 318.448 16.7679Z" fill="#444053"/>
<path d="M302.331 42.2668L302.378 42.3948C296.071 50.4154 288.14 59.9839 281.791 67.0707C281.185 67.7487 280.584 68.4565 280.004 69.1814L279.825 69.0321C280.405 68.3073 281.011 67.5952 281.616 66.9001C287.961 59.8346 296.029 50.2832 302.331 42.2668Z" fill="#444053"/>
<path d="M279.978 68.8445L280.102 69.0577C268.547 83.4829 267.783 105.882 267.736 106.078L265.297 103.264C265.349 103.068 268.342 83.3678 279.978 68.8445Z" fill="#444053"/>
<path d="M332.835 91.5205C332.835 91.5205 319.19 84.4379 308.594 86.9793C297.998 89.5207 274.055 77.9993 274.055 77.9993C274.055 77.9993 263.903 73.8717 261.865 69.1727C261.865 69.1727 254.901 61.813 254.505 58.001C254.108 54.1889 247.329 44.6119 242.907 44.241" stroke="#444053" stroke-miterlimit="10"/>
<path d="M330.866 98.3388C330.866 98.3388 323.993 93.7165 324.803 88.3311" stroke="#444053" stroke-miterlimit="10"/>
<path d="M320.338 104.313C320.338 104.313 310.53 100.748 309.541 86.7832" stroke="#444053" stroke-miterlimit="10"/>
<path d="M304.506 107.929C304.506 107.929 295.125 100.147 298.242 86.553" stroke="#444053" stroke-miterlimit="10"/>
<path d="M285.479 104.126C285.479 104.126 279.233 91.0308 284.788 82.5112" stroke="#444053" stroke-miterlimit="10"/>
<path d="M332.998 82.8901C332.998 82.8901 325.898 85.1415 327.421 88.8598" stroke="#444053" stroke-miterlimit="10"/>
<path d="M324.418 70.009C324.418 70.009 314.922 73.0237 314.696 86.4554" stroke="#444053" stroke-miterlimit="10"/>
<path d="M311.2 66.9087C311.2 66.9087 302.561 77.5688 303.196 87.2694" stroke="#444053" stroke-miterlimit="10"/>
<path d="M296.054 71.092C296.054 71.092 287.47 79.296 288.566 83.8628" stroke="#444053" stroke-miterlimit="10"/>
<path d="M290.876 68.1921C290.876 68.1921 282.826 69.6376 281.7 66.9939" stroke="#444053" stroke-miterlimit="10"/>
<path d="M280.418 58.4746C280.418 58.4746 284.486 63.8601 285.535 62.6533" stroke="#444053" stroke-miterlimit="10"/>
<path d="M320.733 55.0676C320.733 55.0676 300.445 56.5302 295.849 50.4241" stroke="#444053" stroke-miterlimit="10"/>
<path d="M276.149 31.334C276.149 31.334 285.671 51.7715 292.583 54.3597" stroke="#444053" stroke-miterlimit="10"/>
<path d="M286.136 21.5991C286.136 21.5991 291.986 40.3992 299.231 46.2665" stroke="#444053" stroke-miterlimit="10"/>
<path d="M329.275 39.555C329.275 39.555 313.844 46.1771 304.578 39.4783" stroke="#444053" stroke-width="0.75" stroke-miterlimit="10"/>
<path d="M299.883 17.5911C299.883 17.5911 303.41 31.4108 308.16 34.7495" stroke="#444053" stroke-width="0.75" stroke-miterlimit="10"/>
<path d="M326.943 24.0767C326.943 24.0767 318.274 27.36 315.033 24.8442" stroke="#444053" stroke-width="0.75" stroke-miterlimit="10"/>
<path d="M272.989 62.9902C272.989 62.9902 272.989 75.0361 269.71 75.8932" stroke="#444053" stroke-miterlimit="10"/>
<path d="M246.181 78.5966C246.181 78.5966 259.203 79.7138 265.211 72.9937" stroke="#444053" stroke-miterlimit="10"/>
<path d="M269.63 48.7612C269.63 48.7612 266.479 60.9777 257.784 64.2695" stroke="#444053" stroke-miterlimit="10"/>
<path d="M238.371 65.7275C238.371 65.7275 247.589 68.9341 255.516 60.7727" stroke="#444053" stroke-miterlimit="10"/>
<path d="M259.379 38.2588C259.379 38.2588 258.526 48.6332 252.868 53.4899" stroke="#444053" stroke-miterlimit="10"/>
<path d="M238.712 49.9168C238.712 49.9168 246.362 49.9722 248.152 47.4778" stroke="#444053" stroke-miterlimit="10"/>
<path opacity="0.1" d="M306.679 58.6623C276.234 63.7407 245.742 61.0075 216.389 57.2211C187.035 53.4346 157.75 48.5992 127.241 49.5458C107.626 50.1598 85.807 54.0145 72.2347 65.8429C59.1782 77.2236 57.3106 92.783 57.4342 106.854C57.528 117.438 58.5215 128.4 65.6894 136.911C70.6655 142.817 78.2725 147.107 84.0247 152.569C104.066 171.578 98.3817 201.025 85.6919 225.961C79.7223 237.662 72.4265 249.145 68.4226 261.14C64.4187 273.134 64.0221 286.054 71.5609 295.985C79.04 305.831 93.3458 311.502 108.232 314.542C138.459 320.712 172.009 317.527 204.458 313.097C276.281 303.243 347.303 287.304 418.12 271.395C444.331 265.51 470.657 259.592 495.874 250.927C509.877 246.126 524.123 240.084 533.091 230.528C544.471 218.397 544.574 201.652 533.329 191.495C514.465 174.439 472.264 177.646 457.6 158.236C449.524 147.576 452.812 133.24 458.982 120.64C472.2 93.606 498.104 67.0624 494.373 39.8963C491.815 21.2369 473.744 5.61354 449.737 1.29408C424.58 -3.23005 392.425 4.32581 378.196 22.8786C363.544 42.0326 333.56 54.1851 306.679 58.6623Z" fill="#38D39F"/>
<path d="M486.689 64.0559H92.1178C89.1764 64.0559 86.792 66.4403 86.792 69.3817V288.275C86.792 291.217 89.1764 293.601 92.1178 293.601H486.689C489.631 293.601 492.015 291.217 492.015 288.275V69.3817C492.015 66.4403 489.631 64.0559 486.689 64.0559Z" fill="url(#paint0_linear)"/>
<path d="M486.093 67.2842H92.7623C89.821 67.2842 87.4365 69.6686 87.4365 72.61V287.513C87.4365 290.454 89.821 292.838 92.7623 292.838H486.093C489.034 292.838 491.419 290.454 491.419 287.513V72.61C491.419 69.6686 489.034 67.2842 486.093 67.2842Z" fill="white"/>
<path d="M486.093 67.2842H92.7623C89.821 67.2842 87.4365 69.6686 87.4365 72.61V287.513C87.4365 290.454 89.821 292.838 92.7623 292.838H486.093C489.034 292.838 491.419 290.454 491.419 287.513V72.61C491.419 69.6686 489.034 67.2842 486.093 67.2842Z" fill="white"/>
<path opacity="0.04" d="M486.093 67.2842H92.7623C89.821 67.2842 87.4365 69.6686 87.4365 72.61V287.513C87.4365 290.454 89.821 292.838 92.7623 292.838H486.093C489.034 292.838 491.419 290.454 491.419 287.513V72.61C491.419 69.6686 489.034 67.2842 486.093 67.2842Z" fill="#5A5773"/>
<path d="M489.367 64.6953H89.4699C88.926 64.6953 88.4043 64.9114 88.0197 65.296C87.635 65.6807 87.4189 66.2024 87.4189 66.7463V75.4193H491.401V66.7634C491.404 66.494 491.353 66.2269 491.252 65.9772C491.151 65.7275 491.001 65.5001 490.813 65.3081C490.624 65.116 490.399 64.9631 490.151 64.8579C489.903 64.7528 489.637 64.6975 489.367 64.6953Z" fill="#5A5773"/>
<path d="M95.504 72.8274C97.0348 72.8274 98.2757 71.5865 98.2757 70.0558C98.2757 68.5251 97.0348 67.2842 95.504 67.2842C93.9733 67.2842 92.7324 68.5251 92.7324 70.0558C92.7324 71.5865 93.9733 72.8274 95.504 72.8274Z" fill="white"/>
<path d="M102.965 72.8274C104.496 72.8274 105.737 71.5865 105.737 70.0558C105.737 68.5251 104.496 67.2842 102.965 67.2842C101.435 67.2842 100.194 68.5251 100.194 70.0558C100.194 71.5865 101.435 72.8274 102.965 72.8274Z" fill="white"/>
<path d="M110.428 72.8274C111.959 72.8274 113.2 71.5865 113.2 70.0558C113.2 68.5251 111.959 67.2842 110.428 67.2842C108.898 67.2842 107.657 68.5251 107.657 70.0558C107.657 71.5865 108.898 72.8274 110.428 72.8274Z" fill="white"/>
<path d="M446.991 125.352H118.823C116.423 125.352 114.478 127.297 114.478 129.697V288.489C114.478 290.889 116.423 292.834 118.823 292.834H446.991C449.391 292.834 451.336 290.889 451.336 288.489V129.697C451.336 127.297 449.391 125.352 446.991 125.352Z" fill="white"/>
<path opacity="0.2" d="M195.445 86.8005H101.841C100.932 86.8005 100.195 87.5374 100.195 88.4464V95.3243C100.195 96.2333 100.932 96.9702 101.841 96.9702H195.445C196.354 96.9702 197.091 96.2333 197.091 95.3243V88.4464C197.091 87.5374 196.354 86.8005 195.445 86.8005Z" fill="#5A5773"/>
<path opacity="0.2" d="M378.158 144.792H284.554C283.645 144.792 282.908 145.528 282.908 146.437V153.315C282.908 154.224 283.645 154.961 284.554 154.961H378.158C379.067 154.961 379.803 154.224 379.803 153.315V146.437C379.803 145.528 379.067 144.792 378.158 144.792Z" fill="#38D39F"/>
<path opacity="0.2" d="M432.562 173.266H284.554C283.645 173.266 282.908 174.003 282.908 174.912V181.79C282.908 182.699 283.645 183.436 284.554 183.436H432.562C433.471 183.436 434.208 182.699 434.208 181.79V174.912C434.208 174.003 433.471 173.266 432.562 173.266Z" fill="#38D39F"/>
<path opacity="0.2" d="M432.562 189.896H284.554C283.645 189.896 282.908 190.633 282.908 191.542V198.42C282.908 199.329 283.645 200.066 284.554 200.066H432.562C433.471 200.066 434.208 199.329 434.208 198.42V191.542C434.208 190.633 433.471 189.896 432.562 189.896Z" fill="#38D39F"/>
<path opacity="0.2" d="M432.562 206.526H284.554C283.645 206.526 282.908 207.263 282.908 208.172V215.05C282.908 215.959 283.645 216.696 284.554 216.696H432.562C433.471 216.696 434.208 215.959 434.208 215.05V208.172C434.208 207.263 433.471 206.526 432.562 206.526Z" fill="#38D39F"/>
<path opacity="0.2" d="M432.562 223.155H284.554C283.645 223.155 282.908 223.892 282.908 224.801V231.679C282.908 232.588 283.645 233.325 284.554 233.325H432.562C433.471 233.325 434.208 232.588 434.208 231.679V224.801C434.208 223.892 433.471 223.155 432.562 223.155Z" fill="#38D39F"/>
<path opacity="0.2" d="M432.562 241.491H134.388C133.479 241.491 132.742 242.228 132.742 243.137V250.015C132.742 250.924 133.479 251.661 134.388 251.661H432.562C433.471 251.661 434.208 250.924 434.208 250.015V243.137C434.208 242.228 433.471 241.491 432.562 241.491Z" fill="#38D39F"/>
<path opacity="0.2" d="M432.562 258.12H134.388C133.479 258.12 132.742 258.857 132.742 259.766V266.644C132.742 267.553 133.479 268.29 134.388 268.29H432.562C433.471 268.29 434.208 267.553 434.208 266.644V259.766C434.208 258.857 433.471 258.12 432.562 258.12Z" fill="#38D39F"/>
<path opacity="0.2" d="M432.562 274.75H134.388C133.479 274.75 132.742 275.487 132.742 276.396V283.274C132.742 284.183 133.479 284.92 134.388 284.92H432.562C433.471 284.92 434.208 284.183 434.208 283.274V276.396C434.208 275.487 433.471 274.75 432.562 274.75Z" fill="#38D39F"/>
<path d="M365.237 281.475C365.237 281.475 367.765 284.779 364.069 289.772C360.372 294.766 357.327 298.978 358.56 302.091C358.56 302.091 364.133 292.821 368.674 292.71C373.215 292.599 370.23 287.048 365.237 281.475Z" fill="#38D39F"/>
<path opacity="0.1" d="M365.238 281.475C365.458 281.794 365.632 282.143 365.754 282.511C370.184 287.713 372.542 292.57 368.287 292.689C364.321 292.804 359.562 299.895 358.424 301.682C358.46 301.827 358.505 301.969 358.56 302.108C358.56 302.108 364.133 292.838 368.675 292.727C373.216 292.617 370.231 287.048 365.238 281.475Z" fill="black"/>
<path d="M369.937 285.687C369.937 286.851 369.809 287.794 369.647 287.794C369.485 287.794 369.357 286.851 369.357 285.687C369.357 284.523 369.519 285.073 369.682 285.073C369.844 285.073 369.937 284.523 369.937 285.687Z" fill="#FFD037"/>
<path d="M371.553 287.078C370.529 287.632 369.638 287.969 369.561 287.828C369.485 287.688 370.252 287.121 371.267 286.549C372.282 285.978 371.885 286.396 371.962 286.549C372.039 286.703 372.572 286.519 371.553 287.078Z" fill="#FFD037"/>
<path d="M351.882 281.475C351.882 281.475 349.354 284.779 353.046 289.772C356.739 294.766 359.792 298.978 358.56 302.091C358.56 302.091 352.982 292.821 348.445 292.71C343.909 292.599 346.889 287.048 351.882 281.475Z" fill="#38D39F"/>
<path opacity="0.1" d="M351.882 281.475C351.66 281.793 351.484 282.142 351.362 282.511C346.936 287.713 344.578 292.57 348.834 292.689C352.799 292.804 357.553 299.895 358.692 301.682C358.658 301.827 358.613 301.969 358.56 302.108C358.56 302.108 352.982 292.838 348.445 292.727C343.909 292.617 346.889 287.048 351.882 281.475Z" fill="black"/>
<path d="M347.179 285.688C347.179 286.852 347.311 287.794 347.473 287.794C347.635 287.794 347.763 286.852 347.763 285.688C347.763 284.524 347.601 285.082 347.444 285.082C347.286 285.082 347.179 284.524 347.179 285.688Z" fill="#FFD037"/>
<path d="M345.568 287.078C346.591 287.632 347.482 287.969 347.559 287.828C347.636 287.688 346.868 287.121 345.854 286.549C344.839 285.978 345.235 286.396 345.158 286.549C345.082 286.703 344.544 286.519 345.568 287.078Z" fill="#FFD037"/>
<path opacity="0.1" d="M358.561 327.381C373.161 327.381 384.998 325.565 384.998 323.326C384.998 321.086 373.161 319.271 358.561 319.271C343.96 319.271 332.124 321.086 332.124 323.326C332.124 325.565 343.96 327.381 358.561 327.381Z" fill="#38D39F"/>
<path d="M372.174 297.635L372.046 298.667L371.872 300.125L371.795 300.735L371.62 302.193L371.543 302.803L371.364 304.257L369.343 320.844C369.16 322.324 366.742 323.479 363.8 323.479H353.302C350.381 323.479 347.967 322.324 347.788 320.844L345.759 304.27L345.584 302.816L345.507 302.206L345.328 300.748L345.256 300.138L345.076 298.68L344.949 297.648C344.85 296.795 346.159 296.104 347.81 296.104H369.309C370.959 296.091 372.268 296.795 372.174 297.635Z" fill="#65617D"/>
<path d="M372.039 298.667L371.864 300.125H345.256L345.077 298.667H372.039Z" fill="#9D9CB5"/>
<path d="M371.787 300.731L371.612 302.189H345.508L345.329 300.731H371.787Z" fill="#9D9CB5"/>
<path d="M371.536 302.799L371.357 304.257H345.76L345.585 302.799H371.536Z" fill="#9D9CB5"/>
<path opacity="0.2" d="M257.891 139.15H136.366C134.364 139.15 132.742 140.773 132.742 142.775V229.991C132.742 231.993 134.364 233.615 136.366 233.615H257.891C259.893 233.615 261.515 231.993 261.515 229.991V142.775C261.515 140.773 259.893 139.15 257.891 139.15Z" fill="#38D39F"/>
<path d="M533.986 244.211C534.149 243.785 532.946 241.346 532.946 241.227C532.946 241.107 531.705 239.755 531.705 239.001C531.705 238.246 530.064 236.613 530.064 236.613C530.064 236.613 527.859 235.7 527.62 233.709C527.382 231.718 524.981 231.684 524.977 231.684C524.977 231.684 524.977 231.505 524.977 231.227C525.025 230.441 524.925 229.653 524.682 228.904C524.399 228.354 523.91 227.938 523.322 227.748C523.322 227.748 523.079 226.196 522.602 225.718C522.335 225.44 522.144 225.098 522.045 224.725C521.947 224.352 521.945 223.96 522.039 223.586C522.282 222.836 521.719 220.926 520.559 220.644C519.399 220.363 518.073 219.928 518.073 219.928L517.753 219.983L517.596 219.928C517.314 219.982 517.029 220.017 516.743 220.034C516.498 220.042 516.258 219.963 516.065 219.813C515.664 219.386 512.419 218.533 511.801 218.533C511.182 218.533 509.477 217.736 509.477 217.736C509.477 217.736 508.274 216.824 507.771 216.423C507.268 216.022 506.394 214.568 506.262 214.346V214.316C506.115 213.978 505.994 213.628 505.899 213.272C506.486 212.658 506.986 211.968 507.387 211.221C507.43 211.144 507.469 211.067 507.507 210.986C507.595 210.986 507.683 210.973 507.767 210.948L507.874 210.905C508.075 210.8 508.255 210.657 508.401 210.483C508.547 210.308 508.658 210.107 508.726 209.89C508.756 209.804 508.782 209.715 508.803 209.626C508.803 209.596 508.803 209.566 508.803 209.536L508.842 209.357C508.839 209.323 508.839 209.289 508.842 209.255L508.867 209.076V208.973C508.867 208.897 508.867 208.824 508.897 208.748C508.923 208.461 508.964 208.177 509.021 207.895C509.259 206.816 509.912 205.903 510.368 204.91C510.432 204.769 510.496 204.624 510.551 204.483C510.607 204.343 510.662 204.164 510.709 204.002L510.748 203.852C510.777 203.733 510.803 203.614 510.829 203.494C510.854 203.375 510.829 203.388 510.858 203.332C510.884 203.17 510.905 203.004 510.922 202.833C510.998 201.882 510.852 200.926 510.496 200.04C510.197 199.294 509.75 198.62 509.447 197.874C508.987 196.744 508.863 195.461 508.304 194.382C507.849 193.507 507.097 192.822 506.183 192.45C505.269 192.078 504.253 192.044 503.315 192.352C502.463 192.676 501.687 193.303 500.804 193.585C499.618 193.964 498.356 193.678 497.128 193.512C495.9 193.346 494.57 193.325 493.564 194.126C492.429 195.047 492.122 196.778 491.056 197.789C490.63 198.215 490.054 198.484 489.581 198.876C489.248 199.143 488.992 199.493 488.839 199.891L488.813 199.972C488.802 200.007 488.794 200.043 488.788 200.079C488.778 200.118 488.771 200.158 488.767 200.198C488.764 200.225 488.764 200.252 488.767 200.279C488.758 200.35 488.758 200.422 488.767 200.492C488.772 200.56 488.782 200.627 488.796 200.693V200.748C488.796 200.804 488.826 200.859 488.848 200.914C488.869 200.97 488.848 200.936 488.848 200.944C488.848 200.953 488.894 201.068 488.92 201.128L488.958 201.217C488.958 201.243 488.958 201.268 488.992 201.29C489.145 201.586 489.269 201.896 489.363 202.215C489.413 202.417 489.399 202.63 489.325 202.825C489.224 203.046 489.079 203.245 488.899 203.409C488.101 204.237 487.485 205.224 487.091 206.304C487.042 206.429 487 206.553 486.963 206.675H487.018C487.133 206.708 487.25 206.732 487.368 206.748C487.435 206.752 487.502 206.752 487.568 206.748C487.843 206.764 488.118 206.744 488.387 206.688L488.592 206.637C488.87 206.564 489.142 206.466 489.402 206.343C489.402 206.424 489.402 206.505 489.402 206.586C489.402 206.667 489.402 206.675 489.402 206.722C489.404 208.482 489.898 210.206 490.827 211.7C491.755 213.195 493.083 214.4 494.659 215.182C494.659 215.267 494.681 215.352 494.693 215.438L494.719 215.655L494.612 215.553C494.612 215.553 493.892 215.195 493.21 216.227C492.709 216.904 492.03 217.428 491.248 217.74C491.248 217.74 483.957 218.892 483.675 219.847L480.264 220.047C480.264 220.047 479.062 220.205 478.942 222.712C478.823 225.219 478.183 225.454 478.183 225.454C478.183 225.454 476.78 227.923 476.904 229.194C476.919 229.581 476.826 229.965 476.634 230.303C476.443 230.64 476.161 230.918 475.821 231.104L475.663 233.372C475.663 233.372 474.341 233.172 473.958 234.724C473.805 235.546 473.463 236.321 472.96 236.988C472.96 236.988 470.755 238.822 470.636 240.37L469.271 241.222C469.271 241.222 466.107 240.506 465.387 239.235C465.387 239.235 465.302 239.15 465.165 239.026V238.996C464.692 238.57 463.69 237.615 463.843 237.832C463.937 238.032 463.96 238.258 463.907 238.472L463.673 238.212L463.042 237.513C463.042 237.513 457.925 232.72 454.94 232.34C454.902 232.264 454.705 231.488 454.194 231.978C453.77 232.367 453.431 232.839 453.199 233.365C452.966 233.892 452.845 234.46 452.842 235.035C452.839 235.61 452.955 236.18 453.183 236.708C453.41 237.236 453.744 237.712 454.164 238.105L458.957 242.578L459.08 242.668L460.108 243.99C459.933 244.416 459.788 244.808 459.682 245.175V245.213L459.605 245.444C459.596 245.469 459.589 245.494 459.584 245.52C459.558 245.597 459.537 245.67 459.515 245.742L459.477 245.87C459.477 245.896 459.477 245.921 459.477 245.947C459.362 246.348 459.289 246.655 459.255 246.825L458.987 246.74L459.247 246.855V246.893C459.247 246.949 459.247 246.979 459.247 246.979L459.494 247.085C460.897 247.695 467.898 250.769 468.257 251.234C468.615 251.699 471.301 253.264 473.706 251.989C476.111 250.714 476.627 248.77 476.627 248.77C476.627 248.77 478.951 245.546 479.032 245.068C479.113 244.591 480.912 244.037 480.912 244.037C480.912 244.037 481.074 249.362 480.153 251.315C479.232 253.268 477.509 261.894 477.509 261.894C477.623 261.878 477.737 261.878 477.851 261.894L477.748 262.393C477.889 262.367 478.034 262.367 478.175 262.393C478.047 263.374 477.322 267.936 477.322 267.936C477.322 267.936 477.083 270.005 476.682 270.721C476.281 271.437 476.256 275.177 476.256 275.177L475.612 277.88C475.612 277.88 475.697 278.068 475.855 278.345C476.287 279.265 476.915 280.079 477.697 280.729C477.646 281.154 477.537 281.57 477.373 281.965C477.124 282.57 477.015 283.223 477.053 283.875C477.053 283.875 476.375 286.937 476.452 287.811C476.529 288.685 476.026 290.834 476.026 290.834L475.305 297.755C475.305 297.755 474.827 303.759 475.066 305.392C475.181 306.672 475.126 307.963 474.904 309.229C474.904 309.229 475.386 313.962 475.267 314.478C475.147 314.994 474.546 317.224 474.904 318.457C475.262 319.689 475.066 323.07 475.066 323.07C475.066 323.07 475.305 327.526 475.586 328.959C475.737 330.043 475.709 331.145 475.505 332.221C475.505 332.221 475.224 335.282 475.105 335.282C474.985 335.282 473.945 337.389 476.064 339.457C478.183 341.525 476.87 341.205 476.87 341.205C476.87 341.205 475.164 340.352 475.386 342.084C475.574 343.708 475.838 343.286 475.864 343.239L475.463 344.548L475.744 344.587L475.514 344.864C475.272 345.174 475.001 345.46 474.704 345.717C474.392 346.021 474.206 346.432 474.184 346.868C474.184 346.868 471.22 350.091 468.457 351.72C467.003 352.573 465.749 353.302 465.203 353.908C464.709 354.445 464.777 354.88 465.813 355.221C467.975 355.937 471.783 356.296 474.503 355.379C476.133 354.84 477.6 353.896 478.767 352.637C478.767 352.637 480.473 351.759 482.179 352.078C483.884 352.398 487.227 350.211 487.227 350.211L487.163 349.648L486.988 348.019C486.876 347.883 486.792 347.724 486.744 347.554C486.695 347.384 486.683 347.205 486.707 347.03C486.728 346.548 486.68 346.066 486.566 345.597C486.536 345.439 486.507 345.282 486.477 345.137L486.784 345.077C486.784 345.077 486.387 343.052 487.108 342.651C487.828 342.25 487.624 337.044 487.624 337.044C487.624 337.044 486.707 335.85 486.225 335.653C485.743 335.457 486.182 332.984 486.268 332.669C486.353 332.353 486.988 326.183 486.988 326.183C486.988 326.183 486.745 324.239 487.065 323.403C487.385 322.567 486.664 319.344 486.664 319.344C486.598 319.196 486.581 319.031 486.618 318.873C486.654 318.715 486.741 318.573 486.865 318.469C487.291 317.992 487.146 313.736 487.146 313.736C487.146 313.736 487.108 311.604 487.108 311.029C487.108 310.453 487.585 308.445 488.029 307.771C488.472 307.097 488.187 304.987 488.187 304.987L488.212 304.829C488.212 304.769 488.212 304.692 488.246 304.603L488.28 304.39C488.476 303.224 488.738 302.071 489.065 300.936C489.585 299.269 490.186 296.326 490.186 296.326L493.909 286.613L493.952 286.498C493.952 286.498 495.657 289.679 495.657 292.625C495.657 292.625 496.084 296.164 495.981 297.119C495.879 298.075 496.258 302.565 496.258 302.565C496.258 302.565 496.779 309.008 496.779 309.285C496.779 309.562 497.422 314.534 497.823 315.293C498.224 316.052 497.422 318.354 497.179 318.593C496.936 318.832 497.26 324.678 497.26 324.678C497.26 324.678 496.659 329.292 496.54 330.247C496.42 331.202 495.939 334.86 496.339 336.293C496.74 337.726 496.578 337.922 496.578 337.922C496.578 337.922 498.024 339.397 497.179 339.517C496.873 339.584 496.585 339.715 496.333 339.903C496.082 340.09 495.873 340.329 495.721 340.603C495.57 340.878 495.478 341.182 495.453 341.494C495.428 341.807 495.47 342.121 495.576 342.416C496.078 343.872 496.668 345.296 497.341 346.68L498.007 346.54V347.013L498.054 349.384C498.054 349.384 498.335 351.648 498.173 352.168C498.058 352.543 497.896 354.326 497.819 355.259C497.789 355.601 497.772 355.827 497.772 355.827C497.772 355.827 497.772 357.933 502.219 357.298C506.667 356.662 507.464 354.91 507.464 354.91L507.498 354.692C507.562 354.292 507.707 353.439 507.827 352.961C507.984 352.326 506.547 349.46 506.547 349.46C506.547 349.46 506.309 347.512 505.908 347.077C505.74 346.819 505.629 346.528 505.584 346.224C505.55 346.062 505.516 345.896 505.49 345.734C505.59 345.745 505.69 345.763 505.788 345.785C505.788 345.785 505.545 344.395 506.471 343.956C507.396 343.516 507.149 342.604 507.029 342.207C506.91 341.811 507.387 339.581 507.387 339.581C507.32 339.358 507.314 339.122 507.37 338.897C507.426 338.671 507.543 338.465 507.707 338.301C508.27 337.743 508.709 333.845 508.709 333.845L508.79 318.811C508.79 318.811 509.072 316.146 508.752 315.071C508.432 313.996 508.112 311.928 508.552 311.37C508.991 310.811 508.59 308.231 508.59 308.231C508.59 308.231 508.59 302.782 509.191 301.409C509.792 300.036 509.592 291.504 509.592 291.504L509.75 285.897C509.75 285.897 511.059 284.66 510.752 278.221C512.146 278.132 513.737 278.081 513.958 278.277C514.385 278.635 517.242 280.464 518.926 279.309C519.621 278.831 520.289 278.314 520.926 277.761L520.218 265.822C520.644 266.487 520.926 266.926 520.926 266.926C520.926 265.259 525.655 259.848 525.655 259.848C525.655 259.848 530.059 254.159 531.019 253.486C531.978 252.812 533.863 249.222 533.863 249.222C534.141 248.539 534.463 247.876 534.826 247.235C535.27 246.557 533.829 244.646 533.986 244.211ZM523.655 248.386C522.452 248.505 519.928 251.251 519.89 251.848C519.802 252.242 519.619 252.608 519.357 252.914C519.357 252.675 519.318 252.432 519.297 252.185C519.016 248.667 518.708 244.386 518.871 243.973C519.109 243.256 519.028 240.033 519.028 240.033L519.075 239.969C519.881 242.467 522.388 245.41 522.388 245.41C522.388 245.41 522.815 246.689 523.352 246.719C523.889 246.749 523.655 248.386 523.655 248.386Z" fill="url(#paint1_linear)"/>
<path d="M459.438 247.477C459.438 247.477 460.901 239.802 465.596 239.802L469.033 246.867L466.743 248.445C466.743 248.445 461.767 248.582 459.438 247.477Z" fill="#65617D"/>
<path opacity="0.1" d="M469.033 246.847L466.743 248.425C466.743 248.425 463.242 248.535 460.739 247.921C460.292 247.823 459.857 247.68 459.438 247.495L459.464 247.371V247.346C459.678 246.384 459.975 245.442 460.351 244.531C460.496 244.186 460.658 243.832 460.837 243.478C461.524 242.156 462.492 240.856 463.822 240.216C464.309 239.97 464.842 239.825 465.387 239.79H465.596L465.672 239.948L466.832 242.335L469.033 246.847Z" fill="black"/>
<path d="M508.032 278.66C508.032 278.66 512.966 278.187 513.4 278.545C513.835 278.903 516.637 280.715 518.291 279.568C519.946 278.421 518.846 274.452 518.846 274.281C518.846 274.11 518.688 268.478 518.688 268.478L515.729 264.491L512.019 257.506L504.438 256.756L504.634 267.842L504.595 273.526L508.032 278.66Z" fill="#65617D"/>
<path opacity="0.1" d="M508.032 278.66C508.032 278.66 512.966 278.187 513.4 278.545C513.835 278.903 516.637 280.715 518.291 279.568C519.946 278.421 518.846 274.452 518.846 274.281C518.846 274.11 518.688 268.478 518.688 268.478L515.729 264.491L512.019 257.506L504.438 256.756L504.634 267.842L504.595 273.526L508.032 278.66Z" fill="black"/>
<path d="M464.611 239.585C464.611 239.585 464.214 244.399 461.199 244.48C461.199 244.48 460.347 243.968 459.204 243.111C456.569 241.137 452.382 237.346 453.541 233.82C455.2 228.767 463.25 238.084 463.25 238.084L463.873 238.779L464.611 239.585Z" fill="#FBBEBE"/>
<path opacity="0.1" d="M464.611 239.585C464.611 239.585 464.214 244.399 461.2 244.48C461.2 244.48 460.347 243.968 459.204 243.111L458.948 242.783C459.459 243.043 460.021 243.189 460.594 243.209C461.045 243.227 461.49 243.107 461.871 242.866C462.252 242.624 462.55 242.272 462.726 241.857C463.049 241.237 463.334 240.598 463.579 239.943C463.72 239.561 463.821 239.165 463.882 238.762L464.611 239.585Z" fill="black"/>
<path d="M463.306 248.309L462.632 247.456L460.36 244.531L459.204 243.035C459.713 243.296 460.274 243.441 460.846 243.461C461.297 243.48 461.743 243.361 462.124 243.12C462.505 242.878 462.803 242.525 462.978 242.109C463.294 241.49 463.572 240.852 463.809 240.199C464.185 239.133 464.176 238.587 464.044 238.4C463.912 238.212 464.897 239.116 465.349 239.559L465.566 239.764L465.647 239.926L466.837 242.229C466.839 242.261 466.839 242.294 466.837 242.327C466.922 243.052 467.306 247.652 463.306 248.309Z" fill="#E7EFFD"/>
<path d="M486.954 349.895C486.954 349.895 483.636 352.069 481.978 351.75C480.829 351.605 479.663 351.798 478.622 352.304C477.482 353.552 476.042 354.49 474.439 355.029C471.753 355.937 468.004 355.579 465.872 354.871C464.866 354.534 464.785 354.099 465.271 353.566C465.757 353.033 467.045 352.248 468.478 351.396C471.203 349.775 474.123 346.582 474.123 346.582C474.142 346.148 474.325 345.738 474.635 345.435C474.928 345.177 475.196 344.892 475.432 344.582C475.859 344.083 476.255 343.558 476.255 343.558L486.024 343.925C486.024 343.925 486.191 344.629 486.323 345.349C486.434 345.814 486.48 346.292 486.459 346.769C486.435 346.944 486.447 347.121 486.495 347.291C486.543 347.46 486.625 347.618 486.736 347.754L486.911 349.366L486.954 349.895Z" fill="#65617D"/>
<path d="M507.345 352.632C507.23 353.106 507.085 353.95 507.021 354.338C507.021 354.47 506.991 354.555 506.991 354.555C506.991 354.555 506.202 356.291 501.819 356.922C497.435 357.553 497.439 355.464 497.439 355.464L497.482 354.897C497.559 353.975 497.717 352.206 497.832 351.831C497.989 351.319 497.717 349.068 497.717 349.068L497.67 346.714L497.636 345.081L504.884 344.33C504.931 344.873 505.009 345.413 505.119 345.946C505.161 346.251 505.27 346.542 505.439 346.799C505.831 347.226 506.07 349.166 506.07 349.166C506.07 349.166 507.515 352.001 507.345 352.632Z" fill="#65617D"/>
<path opacity="0.1" d="M486.025 343.925C486.025 343.925 486.191 344.629 486.323 345.349C485.27 345.541 480.665 346.339 479.501 345.776C478.196 345.145 475.395 344.791 475.395 344.791L475.441 344.629C475.868 344.13 476.264 343.605 476.264 343.605L486.025 343.925Z" fill="black"/>
<path opacity="0.1" d="M505.145 345.959C503.307 345.648 499.269 346.386 497.683 346.727L497.648 345.094L504.897 344.343C504.948 344.886 505.031 345.426 505.145 345.959Z" fill="black"/>
<path d="M509.25 286.123L509.097 291.666C509.097 291.666 509.293 300.151 508.7 301.473C508.108 302.795 508.108 308.223 508.108 308.223C508.108 308.223 508.504 310.781 508.069 311.34C507.634 311.899 507.95 313.945 508.265 315.011C508.581 316.077 508.304 318.721 508.304 318.721L508.227 333.645C508.227 333.645 507.801 337.513 507.238 338.067C507.076 338.233 506.961 338.439 506.906 338.664C506.85 338.888 506.856 339.124 506.922 339.346C506.922 339.346 506.449 341.555 506.568 341.951C506.688 342.348 506.922 343.252 506.018 343.687C505.114 344.122 505.344 345.503 505.344 345.503C503.174 344.987 497.017 346.356 497.017 346.356C496.352 344.984 495.771 343.573 495.277 342.131C495.171 341.838 495.128 341.526 495.152 341.216C495.176 340.906 495.266 340.604 495.415 340.331C495.565 340.058 495.771 339.821 496.02 339.634C496.269 339.447 496.555 339.315 496.859 339.248C497.686 339.133 496.266 337.67 496.266 337.67C496.266 337.67 496.424 337.474 496.028 336.05C495.631 334.626 496.109 330.997 496.228 330.051C496.347 329.104 496.936 324.507 496.936 324.507C496.936 324.507 496.62 318.704 496.859 318.469C497.098 318.235 497.882 315.941 497.49 315.195C497.098 314.448 496.462 309.511 496.462 309.225C496.462 308.939 495.951 302.552 495.951 302.552C495.951 302.552 495.477 298.092 495.597 297.145C495.716 296.198 495.277 292.685 495.277 292.685C495.277 289.764 493.571 286.604 493.571 286.604L493.529 286.72L489.862 296.424C489.862 296.424 489.269 299.345 488.757 301.004C488.434 302.125 488.176 303.264 487.986 304.415L487.951 304.628L487.917 304.85L487.892 305.008C487.892 305.008 488.165 307.097 487.73 307.771C487.245 308.79 486.94 309.885 486.826 311.007C486.826 311.562 486.864 313.694 486.864 313.694C486.864 313.694 487.022 317.915 486.587 318.384C486.467 318.487 486.384 318.625 486.349 318.778C486.313 318.932 486.328 319.092 486.391 319.237C486.391 319.237 487.099 322.435 486.783 323.262C486.468 324.089 486.706 326.025 486.706 326.025C486.706 326.025 486.075 332.144 485.994 332.46C485.913 332.775 485.483 335.223 485.956 335.419C486.429 335.615 487.337 336.8 487.337 336.8C487.337 336.8 487.534 341.973 486.826 342.365C486.118 342.757 486.506 344.774 486.506 344.774C486.506 344.774 480.784 345.879 479.483 345.248C478.183 344.616 475.377 344.263 475.377 344.263L475.769 342.983C475.743 343.03 475.483 343.452 475.3 341.836C475.1 340.131 476.758 340.983 476.758 340.983C476.758 340.983 478.063 341.299 475.969 339.248C473.876 337.197 474.903 335.103 475.023 335.103C475.142 335.103 475.415 332.063 475.415 332.063C475.617 330.996 475.644 329.903 475.496 328.827C475.219 327.407 474.984 322.985 474.984 322.985C474.984 322.985 475.181 319.629 474.822 318.405C474.464 317.182 475.061 314.994 475.181 314.457C475.3 313.92 474.822 309.246 474.822 309.246C475.045 307.98 475.1 306.689 474.984 305.409C474.746 303.788 475.219 297.827 475.219 297.827L475.931 290.962C475.931 290.962 476.443 288.83 476.358 287.977C476.272 287.125 476.95 284.072 476.95 284.072C476.912 283.423 477.02 282.775 477.266 282.174C477.662 281.385 477.82 278.763 477.82 278.763L481.611 270.081L483.466 262.406L508.53 262.167C508.53 262.167 508.619 262.832 508.773 264.039C508.926 265.246 509.139 267.024 509.378 269.237C509.596 271.241 509.834 273.599 510.069 276.221C510.832 284.622 509.25 286.123 509.25 286.123Z" fill="#3F3D56"/>
<path d="M506.919 217.007L501.082 223.253C501.082 223.253 493.585 220.269 494.374 219.224C494.677 218.827 494.63 217.574 494.455 216.192C494.178 214.005 493.603 211.502 493.603 211.502C493.603 211.502 506.706 209.37 505.597 211.579C505.245 212.412 505.216 213.347 505.516 214.201C505.832 215.205 506.306 216.152 506.919 217.007Z" fill="#FBBEBE"/>
<path opacity="0.1" d="M505.58 211.557C505.179 212.367 504.987 212.444 505.239 213.314C503.533 215.152 501.346 217.151 498.634 217.151C497.184 217.153 495.753 216.817 494.455 216.171C494.178 213.983 493.603 211.48 493.603 211.48C493.603 211.48 506.689 209.348 505.58 211.557Z" fill="black"/>
<path d="M508.032 207.532C508.032 210.024 507.042 212.414 505.28 214.176C503.518 215.938 501.128 216.928 498.636 216.928C496.144 216.928 493.754 215.938 491.992 214.176C490.23 212.414 489.24 210.024 489.24 207.532C489.24 207.485 489.24 207.443 489.24 207.396C489.249 206.162 489.501 204.942 489.981 203.806C490.462 202.67 491.161 201.639 492.04 200.773C492.918 199.907 493.959 199.223 495.102 198.759C496.245 198.295 497.468 198.061 498.702 198.07C499.936 198.079 501.155 198.331 502.292 198.811C503.428 199.292 504.458 199.991 505.324 200.87C506.19 201.749 506.875 202.789 507.338 203.932C507.802 205.075 508.036 206.299 508.027 207.532H508.032Z" fill="#FBBEBE"/>
<path opacity="0.1" d="M509.391 269.51C508.146 269.51 504.001 269.552 499.371 269.629H499.315L497.784 269.655H497.737C492.245 269.74 486.834 268.67 484.66 268.87C480.042 269.296 486.318 264.606 486.318 264.606C489.76 265.439 493.299 265.796 496.838 265.668L498.168 265.6C502.364 265.361 506.581 264.968 508.786 264.32C508.939 265.531 509.152 267.305 509.391 269.51Z" fill="black"/>
<path d="M509.391 269.271C508.146 269.271 504.001 269.318 499.371 269.391H499.315L497.784 269.416H497.737C492.245 269.506 486.834 268.431 484.66 268.636C480.042 269.062 486.318 264.372 486.318 264.372C489.759 265.207 493.299 265.565 496.838 265.434L498.168 265.365C502.364 265.131 506.581 264.734 508.786 264.086C508.939 265.293 509.152 267.067 509.391 269.271Z" fill="#5F5D7E"/>
<path opacity="0.1" d="M496.11 219.612L488.861 223.023L483.254 266.363C483.254 266.363 486.571 264.862 488.465 265.808C490.358 266.755 496.199 265.889 496.199 265.889C496.199 265.889 500.463 265.651 501.095 266.128C501.726 266.606 509.149 264.154 509.149 264.154C509.149 264.154 510.492 261.169 509.465 260.679C508.437 260.188 509.78 255.562 509.78 255.562L509.149 224.298L507.87 220.273L504.459 218.218L500.988 220.981L499.329 221.219L496.11 219.612Z" fill="black"/>
<path d="M496.109 219.139L488.86 222.55L483.24 265.894C483.24 265.894 486.558 264.393 488.451 265.339C490.344 266.286 496.186 265.42 496.186 265.42C496.186 265.42 500.45 265.182 501.081 265.655C501.712 266.128 509.136 263.685 509.136 263.685C509.136 263.685 510.479 260.7 509.451 260.21C508.424 259.719 509.767 255.093 509.767 255.093L509.136 223.829L507.856 219.804L504.445 217.749L500.974 220.512L499.316 220.75L496.109 219.139Z" fill="#E7EFFD"/>
<path opacity="0.1" d="M495.99 221.151C495.99 221.151 498.083 223.637 498.045 224.136C498.007 224.635 497.926 225.876 497.926 225.876L496.348 229.069C496.348 229.069 495.495 233.056 495.495 233.888C495.495 234.719 494.114 241.9 494.114 241.9L492.421 252.965L490.327 267.463L492.459 271.134L494.988 269.002L498.343 243.187L499.051 238.096C499.051 238.096 499.802 228.937 499.802 227.99C499.721 226.839 499.579 225.694 499.375 224.558C499.375 224.558 499.891 222.187 502.023 221.637C504.155 221.087 501.861 221.518 501.861 221.518L500.642 220.533L499.576 220.959C499.576 220.959 496.621 220.047 495.99 221.151Z" fill="black"/>
<path d="M495.755 220.913C495.755 220.913 497.845 223.399 497.806 223.898C497.768 224.397 497.687 225.633 497.687 225.633L496.109 228.831C496.109 228.831 495.257 232.818 495.257 233.645C495.257 234.473 493.875 241.658 493.875 241.658L492.221 252.71L490.127 267.208L492.259 270.879L494.783 268.747L498.139 242.932L498.851 237.841C498.851 237.841 499.602 228.682 499.602 227.735C499.521 226.583 499.379 225.436 499.175 224.299C499.175 224.299 499.687 221.932 501.819 221.378C503.951 220.823 501.661 221.263 501.661 221.263L500.437 220.273L499.371 220.7C499.371 220.7 496.387 219.809 495.755 220.913Z" fill="#38D39F"/>
<path opacity="0.1" d="M494.374 216.768C494.374 216.768 494.058 217.007 493.977 218.584C493.896 220.162 492.792 223.701 492.792 223.701C492.792 223.701 496.898 220.861 498.949 221.177L494.374 216.768Z" fill="black"/>
<path d="M494.374 216.294C494.374 216.294 494.058 216.533 493.977 218.111C493.896 219.689 492.792 223.228 492.792 223.228C492.792 223.228 496.898 220.388 498.949 220.703L494.374 216.294Z" fill="#E7EFFD"/>
<path opacity="0.1" d="M505.584 215.506L499.111 221.19C499.111 221.19 504.557 224.426 505.269 225.215C505.981 226.004 506.689 217.48 506.689 217.48L505.584 215.506Z" fill="black"/>
<path d="M505.818 215.032L499.345 220.716C499.345 220.716 504.794 223.953 505.502 224.742C506.21 225.531 506.922 217.007 506.922 217.007L505.818 215.032Z" fill="#E7EFFD"/>
<path opacity="0.1" d="M494.608 216.768C494.608 216.768 493.9 216.414 493.226 217.441C492.734 218.11 492.065 218.629 491.295 218.938C491.295 218.938 484.11 220.085 483.832 221.032L480.477 221.228C480.477 221.228 479.291 221.386 479.198 223.876C479.104 226.366 478.447 226.596 478.447 226.596C478.447 226.596 477.066 229.044 477.168 230.306C477.183 230.69 477.092 231.071 476.903 231.406C476.715 231.741 476.438 232.017 476.102 232.203L481.035 245.03C481.035 245.03 481.193 250.321 480.285 252.253C479.377 254.184 477.68 262.755 477.68 262.755C477.68 262.755 478.392 262.597 478.349 263.071C478.306 263.544 477.496 268.716 477.496 268.716C477.496 268.716 477.257 270.767 476.865 271.479C476.473 272.191 476.439 275.897 476.439 275.897L475.808 278.583C475.808 278.583 477.304 281.939 479.594 281.466C481.884 280.992 486.024 272.029 486.024 272.029L488.668 262.359L490.723 252.807L491.316 246.334L492.262 232.003L493.644 222.533C493.644 222.533 495.162 217.441 494.608 216.768Z" fill="black"/>
<path d="M494.373 216.294C494.373 216.294 493.661 215.941 492.991 216.968C492.497 217.637 491.827 218.155 491.055 218.465C491.055 218.465 483.87 219.612 483.593 220.558L480.242 220.755C480.242 220.755 479.056 220.912 478.937 223.398C478.818 225.884 478.186 226.123 478.186 226.123C478.186 226.123 476.805 228.571 476.907 229.833C476.924 230.217 476.832 230.598 476.644 230.933C476.456 231.268 476.178 231.544 475.841 231.73L480.792 244.574C480.792 244.574 480.95 249.865 480.041 251.797C479.133 253.728 477.436 262.299 477.436 262.299C477.436 262.299 478.148 262.141 478.11 262.615C478.071 263.088 477.257 268.256 477.257 268.256C477.257 268.256 477.022 270.311 476.626 271.019C476.229 271.727 476.199 275.441 476.199 275.441L475.568 278.127C475.568 278.127 477.069 281.483 479.359 281.005C481.649 280.528 485.793 271.573 485.793 271.573L488.437 261.903L490.488 252.351L491.055 245.853L492.002 231.521L493.383 222.051C493.383 222.051 494.923 216.968 494.373 216.294Z" fill="#65617D"/>
<path opacity="0.1" d="M469.033 246.846L466.743 248.424C466.743 248.424 463.242 248.535 460.739 247.921L459.46 247.354L459.204 247.243L459.468 247.328C460.485 247.69 461.589 247.729 462.628 247.439C465.869 246.347 465.511 241 465.383 239.789C465.383 239.666 465.361 239.589 465.357 239.559V239.589C465.403 239.662 465.452 239.731 465.506 239.798L465.651 239.951L466.837 242.228C466.839 242.261 466.839 242.294 466.837 242.326L469.033 246.846Z" fill="black"/>
<path d="M476.964 231.415L475.86 231.73L475.702 233.977C475.702 233.977 474.423 233.781 474.043 235.321C473.892 236.137 473.555 236.907 473.059 237.572C473.059 237.572 470.888 239.389 470.769 240.928L469.426 241.755C469.426 241.755 466.309 241.043 465.588 239.781C465.588 239.781 467.012 249.963 459.431 247.456C459.431 247.456 467.916 251.166 468.313 251.682C468.709 252.198 471.297 253.694 473.681 252.432C476.065 251.17 476.564 249.234 476.564 249.234C476.564 249.234 478.853 246.036 478.93 245.563C479.007 245.09 480.785 244.535 480.785 244.535L484.196 236.327L476.964 231.415Z" fill="#65617D"/>
<path opacity="0.1" d="M504.675 220.243L505.818 215.032C505.818 215.032 506.334 216.738 506.845 217.126L508.551 218.405C508.551 218.405 510.256 219.194 510.841 219.194C511.425 219.194 514.631 220.047 515.024 220.473C515.416 220.9 516.998 220.593 516.998 220.593C516.998 220.593 518.298 221.019 519.445 221.305C520.592 221.591 521.151 223.475 520.904 224.226C520.809 224.599 520.81 224.99 520.906 225.363C521.003 225.736 521.193 226.078 521.458 226.358C521.931 226.831 522.17 228.37 522.17 228.37C522.75 228.56 523.231 228.97 523.509 229.513C523.906 230.366 523.786 232.276 523.786 232.276L517.906 240.565C517.906 240.565 517.983 243.764 517.748 244.476C517.514 245.188 518.576 257.268 518.576 257.268L519.799 278.029C519.172 278.58 518.512 279.094 517.825 279.569C517.471 279.726 517.117 272.226 517.117 271.953C517.117 271.68 507.997 258.308 507.997 258.308C507.997 258.308 506.773 256.334 506.773 255.899C506.773 255.464 505.63 251.477 505.63 251.477L503.895 243.802L504.675 220.243Z" fill="black"/>
<path d="M524.269 231.829C524.269 232.102 524.269 232.281 524.269 232.281L518.393 240.561C518.393 240.561 518.474 243.759 518.235 244.471C518.099 244.898 518.397 249.132 518.662 252.62C518.862 255.136 519.045 257.259 519.045 257.259L519.566 266.064L520.269 278.004C519.641 278.555 518.982 279.069 518.295 279.543C517.941 279.701 517.587 272.2 517.587 271.923C517.587 271.646 508.466 258.278 508.466 258.278C508.466 258.278 507.242 256.304 507.242 255.869C507.242 255.434 506.1 251.447 506.1 251.447L504.364 243.772L505.153 220.248L505.823 215.037C505.823 215.037 506.812 216.742 507.323 217.126L509.029 218.431C509.029 218.431 510.735 219.22 511.319 219.22C511.903 219.22 515.11 220.073 515.502 220.499C515.894 220.925 517.476 220.618 517.476 220.618C517.476 220.618 518.781 221.045 519.924 221.331C521.066 221.616 521.629 223.501 521.382 224.251C521.287 224.625 521.288 225.016 521.385 225.389C521.482 225.761 521.672 226.104 521.936 226.383C522.41 226.857 522.648 228.396 522.648 228.396C523.228 228.585 523.709 228.996 523.987 229.539C524.219 230.279 524.315 231.055 524.269 231.829Z" fill="#65617D"/>
<path opacity="0.1" d="M476.017 337.001C476.213 337.001 484.502 337.316 484.344 338.659C484.187 340.003 476.017 337.001 476.017 337.001Z" fill="black"/>
<path opacity="0.1" d="M477.872 339.235C477.872 339.235 483.437 340.144 481.978 340.971C480.52 341.798 477.872 339.235 477.872 339.235Z" fill="black"/>
<path opacity="0.1" d="M498.557 336.135C498.557 336.135 507.793 336.924 506.411 337.947C505.03 338.971 501.755 339.133 501.597 339.171C501.439 339.209 498.557 336.135 498.557 336.135Z" fill="black"/>
<path opacity="0.1" d="M497.451 340.199C497.451 340.199 502.568 341.052 502.739 342.054C502.909 343.056 497.451 340.199 497.451 340.199Z" fill="black"/>
<path opacity="0.1" d="M500.293 316.436C500.293 316.436 504.983 317.54 505.269 318.29L500.293 316.436Z" fill="black"/>
<path opacity="0.1" d="M482.186 319.83C482.186 319.83 479.739 320.542 482.109 321.962C484.48 323.381 482.186 319.83 482.186 319.83Z" fill="black"/>
<path opacity="0.1" d="M493.031 281.897C493.308 281.897 497.611 280.477 499.112 281.108C500.184 281.509 501.318 281.722 502.463 281.739L493.031 281.897Z" fill="black"/>
<path opacity="0.1" d="M493.584 286.395L493.541 286.788L489.862 296.424C489.862 296.424 489.269 299.345 488.757 301.004C488.434 302.125 488.176 303.264 487.985 304.415L491.243 284.216L493.584 286.395Z" fill="black"/>
<path d="M499.316 269.39L497.785 269.416H497.739L496.839 265.438L498.169 265.365L499.316 269.39Z" fill="#3F3D56"/>
<path d="M517.937 264.572L516.956 265.382L513.673 268.081C513.673 268.081 504.795 272.819 502.348 268.32C500.19 264.355 510.258 261.523 512.684 260.905L513.2 260.781L517.937 264.572Z" fill="#FBBEBE"/>
<path opacity="0.1" d="M480.004 225.77C480.004 225.77 481.739 226.558 482.136 227.663C482.532 228.767 480.004 225.77 480.004 225.77Z" fill="black"/>
<path opacity="0.1" d="M474.636 237.611C474.636 237.611 472.111 240.689 473.135 241.875C474.158 243.06 474.636 237.611 474.636 237.611Z" fill="black"/>
<path opacity="0.1" d="M519.792 227.518C519.792 227.518 517.426 227.757 517.345 229.808L519.792 227.518Z" fill="black"/>
<path opacity="0.1" d="M497.845 259.873C498.084 259.634 503.529 251.584 504.795 252.296L497.845 259.873Z" fill="black"/>
<path opacity="0.1" d="M508.032 207.532C508.032 209.079 507.65 210.602 506.919 211.966H506.851C506.254 211.838 505.943 211.148 505.491 210.713C505.211 210.446 504.855 210.274 504.473 210.22C504.09 210.167 503.701 210.235 503.359 210.414C503.013 210.621 502.731 210.92 502.546 211.278C502.361 211.635 502.279 212.038 502.31 212.44C502.011 211.16 502.105 209.83 501.811 208.564C501.517 207.297 500.634 206.005 499.423 206.005C498.903 206.005 498.293 206.197 497.918 205.805C497.692 205.57 497.645 205.199 497.491 204.914C496.639 203.511 493.995 204.218 492.92 204.939C491.846 205.66 490.596 206.803 489.262 207.417C489.28 204.925 490.287 202.543 492.061 200.794C493.836 199.045 496.232 198.073 498.724 198.091C501.215 198.109 503.597 199.116 505.346 200.891C507.095 202.665 508.067 205.062 508.049 207.553L508.032 207.532Z" fill="black"/>
<path d="M497.474 204.654C497.644 204.939 497.691 205.31 497.9 205.549C498.276 205.937 498.885 205.737 499.406 205.745C500.617 205.767 501.503 207.05 501.793 208.304C502.083 209.557 501.994 210.913 502.297 212.175C502.262 211.774 502.342 211.372 502.527 211.014C502.712 210.656 502.994 210.358 503.341 210.154C503.683 209.976 504.072 209.908 504.454 209.961C504.836 210.013 505.193 210.184 505.473 210.449C505.925 210.875 506.237 211.579 506.834 211.702C507.43 211.826 508.002 211.254 508.215 210.628C508.368 209.98 508.482 209.323 508.556 208.662C508.825 207.434 509.631 206.423 510.074 205.251C510.603 203.826 510.59 202.257 510.036 200.842C509.737 200.1 509.298 199.435 509 198.71C508.543 197.588 508.424 196.318 507.87 195.247C507.425 194.38 506.685 193.701 505.784 193.33C504.883 192.96 503.879 192.923 502.953 193.226C502.1 193.55 501.35 194.173 500.48 194.454C499.312 194.829 498.067 194.548 496.86 194.377C495.653 194.207 494.302 194.194 493.346 194.987C492.229 195.904 491.922 197.622 490.873 198.624C490.447 199.051 489.884 199.315 489.419 199.703C489.168 199.889 488.963 200.13 488.822 200.408C488.681 200.687 488.606 200.994 488.605 201.306C488.677 202.125 489.458 202.867 489.18 203.626C489.078 203.845 488.933 204.04 488.754 204.202C487.875 205.124 487.221 206.238 486.844 207.455C488.976 208.112 491.244 205.784 492.894 204.684C493.977 203.963 496.608 203.255 497.474 204.654Z" fill="#7C5C5C"/>
<path opacity="0.1" d="M517.936 264.572L516.955 265.382C516.103 263.937 512.529 261.054 512.529 261.054L512.683 260.905L513.199 260.781L517.936 264.572Z" fill="black"/>
<path d="M518.883 263.109C518.883 263.109 518.534 263.988 518.167 264.747C517.8 265.506 517.404 266.197 517.387 265.638C517.344 264.529 512.769 260.82 512.769 260.82L513.387 260.214L514.107 259.515L518.883 263.109Z" fill="#E7EFFD"/>
<path opacity="0.1" d="M519.041 257.267L519.561 266.073C518.333 264.167 514.968 259.28 512.807 259.438L518.056 253.4C518.274 253.157 518.475 252.899 518.657 252.628C518.857 255.144 519.041 257.267 519.041 257.267Z" fill="black"/>
<path opacity="0.1" d="M518.884 263.109C518.884 263.109 518.534 263.988 518.168 264.747C516.79 262.862 514.901 260.632 513.388 260.214L514.108 259.515L518.884 263.109Z" fill="black"/>
<path d="M522.832 231.176L524.252 232.28C524.252 232.28 526.623 232.323 526.857 234.293C527.092 236.263 529.267 237.176 529.267 237.176C529.267 237.176 530.883 238.796 530.883 239.546C530.883 240.297 532.106 241.636 532.106 241.755C532.106 241.874 533.292 244.279 533.134 244.714C532.976 245.149 534.413 247.042 533.961 247.755C533.607 248.393 533.29 249.052 533.015 249.729C533.015 249.729 531.16 253.281 530.213 253.95C529.267 254.62 524.926 260.269 524.926 260.269C524.926 260.269 520.265 265.634 520.265 267.292C520.265 267.292 515.728 259.715 513.042 259.911L518.291 253.873C518.291 253.873 519.199 252.884 519.242 252.296C519.285 251.707 521.766 248.978 522.952 248.859C522.952 248.859 523.148 247.243 522.636 247.2C522.124 247.158 521.689 245.921 521.689 245.921C521.689 245.921 518.214 241.815 518.176 239.209C518.137 236.604 522.832 231.176 522.832 231.176Z" fill="#65617D"/>
<path opacity="0.1" d="M524.926 234.924C524.926 234.924 521.609 237.372 522.321 238.165C523.033 238.958 524.926 234.924 524.926 234.924Z" fill="black"/>
<path opacity="0.1" d="M525.084 245.03C525.084 245.03 531.241 243.056 531.872 245.03H525.084Z" fill="black"/>
<path opacity="0.1" d="M486.954 349.895C486.954 349.895 483.636 352.07 481.978 351.75C480.829 351.606 479.663 351.798 478.622 352.305C477.482 353.553 476.042 354.491 474.439 355.029C471.753 355.938 468.004 355.579 465.872 354.872C464.866 354.535 464.785 354.1 465.271 353.567C467.587 354.027 472.767 354.944 474.162 354.279C475.699 353.463 477.176 352.54 478.584 351.516C478.584 351.516 481.995 351.042 482.451 351.042C482.788 351.042 485.41 349.959 486.89 349.337L486.954 349.895Z" fill="black"/>
<path opacity="0.1" d="M507.032 354.351C507.032 354.483 507.003 354.569 507.003 354.569C507.003 354.569 506.214 356.304 501.83 356.935C497.447 357.566 497.451 355.477 497.451 355.477L497.494 354.91C498.88 355.438 501.907 356.023 507.032 354.351Z" fill="black"/>
<path opacity="0.1" d="M481.642 234.451C481.642 234.451 481.642 243.452 480.874 244.339C480.107 245.226 481.642 234.451 481.642 234.451Z" fill="black"/>
<path opacity="0.1" d="M517.225 237.355L518.372 240.57C518.372 240.57 518.824 237.414 517.225 237.355Z" fill="black"/>
<g opacity="0.1">
<path opacity="0.1" d="M489.317 202.85C489.607 202.113 488.848 201.383 488.75 200.59C488.648 200.813 488.604 201.058 488.622 201.302C488.673 201.904 489.117 202.462 489.232 203.008C489.265 202.958 489.294 202.905 489.317 202.85Z" fill="black"/>
<path opacity="0.1" d="M502.416 211.353C502.135 210.108 502.22 208.794 501.93 207.545C501.64 206.296 500.753 204.987 499.542 204.987C499.022 204.987 498.412 205.174 498.037 204.786C497.807 204.552 497.764 204.181 497.611 203.891C496.758 202.492 494.114 203.204 493.035 203.921C491.424 204.991 489.198 207.238 487.134 206.726C487.036 206.965 486.942 207.208 486.865 207.46C488.997 208.116 491.266 205.788 492.916 204.688C493.995 203.972 496.626 203.264 497.491 204.662C497.662 204.948 497.709 205.319 497.918 205.558C498.293 205.946 498.903 205.746 499.423 205.754C500.634 205.775 501.521 207.059 501.811 208.312C502.101 209.566 502.011 210.922 502.314 212.184C502.293 211.903 502.327 211.62 502.416 211.353Z" fill="black"/>
<path opacity="0.1" d="M508.352 209.873C508.139 210.5 507.576 211.075 506.967 210.947C506.357 210.819 506.063 210.129 505.611 209.694C505.33 209.429 504.974 209.258 504.592 209.204C504.21 209.151 503.821 209.218 503.479 209.395C503.149 209.592 502.878 209.874 502.694 210.21C502.51 210.547 502.418 210.926 502.43 211.31C502.588 210.827 502.919 210.42 503.359 210.167C503.701 209.988 504.09 209.921 504.472 209.973C504.854 210.026 505.211 210.197 505.491 210.461C505.943 210.888 506.254 211.591 506.851 211.715C507.448 211.839 508.02 211.267 508.233 210.64C508.349 210.272 508.422 209.891 508.45 209.506C508.426 209.63 508.393 209.753 508.352 209.873Z" fill="black"/>
<path opacity="0.1" d="M510.21 204.492C509.784 205.661 508.961 206.671 508.692 207.903C508.641 208.151 508.607 208.407 508.577 208.662C508.85 207.434 509.647 206.428 510.091 205.251C510.289 204.725 510.411 204.174 510.453 203.614C510.395 203.912 510.314 204.206 510.21 204.492Z" fill="black"/>
</g>
<path d="M453.166 233.073C453.221 233.073 453.264 233.029 453.264 232.975C453.264 232.921 453.221 232.877 453.166 232.877C453.112 232.877 453.068 232.921 453.068 232.975C453.068 233.029 453.112 233.073 453.166 233.073Z" fill="#E6E8EC"/>
<path d="M490.767 235.176H419.149C417.592 235.176 416.33 236.438 416.33 237.994V321.143C416.33 322.699 417.592 323.961 419.149 323.961H490.767C492.324 323.961 493.586 322.699 493.586 321.143V237.994C493.586 236.438 492.324 235.176 490.767 235.176Z" fill="white"/>
<path opacity="0.1" d="M490.767 235.176H419.149C417.592 235.176 416.33 236.438 416.33 237.994V321.143C416.33 322.699 417.592 323.961 419.149 323.961H490.767C492.324 323.961 493.586 322.699 493.586 321.143V237.994C493.586 236.438 492.324 235.176 490.767 235.176Z" fill="#5A5773"/>
<path d="M486.826 239.704H423.087C421.53 239.704 420.269 240.966 420.269 242.522V316.614C420.269 318.171 421.53 319.433 423.087 319.433H486.826C488.382 319.433 489.644 318.171 489.644 316.614V242.522C489.644 240.966 488.382 239.704 486.826 239.704Z" fill="white"/>
<path d="M475.385 255.694H432.933C431.512 255.694 430.361 256.846 430.361 258.266V269.548C430.361 270.968 431.512 272.119 432.933 272.119H475.385C476.805 272.119 477.956 270.968 477.956 269.548V258.266C477.956 256.846 476.805 255.694 475.385 255.694Z" fill="#38D39F"/>
<path d="M476.214 278.128H432.111V281.479H476.214V278.128Z" fill="#38D39F"/>
<path d="M485.3 285.201H424.614V288.553H485.3V285.201Z" fill="#38D39F"/>
<path d="M485.3 292.646H424.614V295.998H485.3V292.646Z" fill="#38D39F"/>
<path d="M485.3 300.092H424.614V303.443H485.3V300.092Z" fill="#38D39F"/>
<path d="M233.351 205.826H57.0807C55.5241 205.826 54.2622 207.088 54.2622 208.645V291.793C54.2622 293.35 55.5241 294.612 57.0807 294.612H233.351C234.908 294.612 236.17 293.35 236.17 291.793V208.645C236.17 207.088 234.908 205.826 233.351 205.826Z" fill="white"/>
<path opacity="0.1" d="M233.351 205.826H57.0807C55.5241 205.826 54.2622 207.088 54.2622 208.645V291.793C54.2622 293.35 55.5241 294.612 57.0807 294.612H233.351C234.908 294.612 236.17 293.35 236.17 291.793V208.645C236.17 207.088 234.908 205.826 233.351 205.826Z" fill="#5A5773"/>
<path d="M224.068 210.355H66.359C64.8024 210.355 63.5405 211.617 63.5405 213.174V287.265C63.5405 288.822 64.8024 290.084 66.359 290.084H224.068C225.625 290.084 226.887 288.822 226.887 287.265V213.174C226.887 211.617 225.625 210.355 224.068 210.355Z" fill="white"/>
<path d="M196.805 226.349H89.8842C88.4642 226.349 87.313 227.501 87.313 228.921V240.203C87.313 241.623 88.4642 242.774 89.8842 242.774H196.805C198.225 242.774 199.376 241.623 199.376 240.203V228.921C199.376 227.501 198.225 226.349 196.805 226.349Z" fill="#38D39F"/>
<path d="M195.265 248.778H91.4229V252.129H195.265V248.778Z" fill="#38D39F"/>
<path d="M216.658 255.852H73.77V259.204H216.658V255.852Z" fill="#38D39F"/>
<path d="M216.658 263.297H73.77V266.648H216.658V263.297Z" fill="#38D39F"/>
<path d="M216.658 270.742H73.77V274.094H216.658V270.742Z" fill="#38D39F"/>
<path d="M98.723 358.5C99.2304 356.649 99.5758 355.02 99.5758 355.02C99.5853 353.783 99.9112 352.569 100.522 351.494V350.982L100.667 347.226C100.442 346.534 100.157 345.863 99.8146 345.221C99.1835 344.015 100.028 339.712 100.028 339.712C100.028 339.712 102.77 333.713 102.309 329.82C101.849 325.927 108.117 312.836 108.117 312.836C108.133 311.546 108.002 310.258 107.724 308.999C107.674 308.736 107.66 308.468 107.682 308.201C107.68 308.168 107.68 308.136 107.682 308.103V308.133C107.865 305.575 110.065 300.884 110.065 300.884L110.146 291.759C110.146 291.759 109.063 286.335 111.426 279.202C112.257 276.711 112.803 274.716 113.161 273.172C113.204 272.997 113.242 272.831 113.276 272.669C108.978 271.842 105.695 271.168 105.695 271.168C105.695 271.168 108.607 260.772 110.385 259.003C112.163 257.233 113.724 251.511 113.724 251.511C113.724 251.511 114.892 244.134 113.553 241.917C112.214 239.7 112.155 235.947 112.155 235.947C112.155 235.947 108.991 233.461 108.624 232.4C108.257 231.338 107.673 228.946 107.72 227.709C107.767 226.473 108.219 225.364 108.108 224.703C107.997 224.042 109.178 221.595 108.68 220.392C108.555 220.023 108.498 219.634 108.509 219.245C108.509 219.245 108.509 219.245 108.509 219.211C108.544 218.178 108.68 217.152 108.914 216.145C109.883 215.387 111.002 214.844 112.197 214.55L112.278 214.269L112.492 213.54C112.596 213.475 112.705 213.415 112.816 213.361L112.837 213.092L112.905 212.03L112.496 209.608C111.643 205.404 117.237 204.999 117.237 204.999C117.598 204.373 118.176 203.902 118.862 203.677C119.996 203.327 118.811 209.95 118.269 210.355C117.843 210.657 116.564 212.7 115.945 213.702L115.843 213.868C115.933 213.954 116.016 214.046 116.09 214.145L115.822 215.582L115.779 215.8C116.131 216.272 116.411 216.793 116.611 217.348C116.611 217.348 115.549 218.422 115.707 219.676C115.753 220.651 115.608 221.626 115.28 222.545C115.34 222.481 116.086 221.735 116.794 221.948C117.502 222.162 119.472 222.84 119.472 222.84C119.472 222.84 120.951 223.159 120.802 223.484C120.653 223.808 121.753 225.291 121.753 225.291L125.902 221.654C125.949 221.539 125.991 221.428 126.034 221.313C126.225 220.777 126.368 220.225 126.461 219.663C126.023 219.544 125.596 219.391 125.181 219.207C124.765 219.047 124.394 218.789 124.098 218.456C123.715 217.962 123.672 217.305 123.523 216.704C123.25 215.527 122.61 214.461 122.162 213.331C121.411 211.435 121.213 209.365 121.591 207.361C121.682 206.747 121.916 206.163 122.273 205.656C122.964 204.782 124.162 204.462 125.053 203.779C125.945 203.097 126.542 202.018 127.565 201.52C128.494 201.068 129.599 201.17 130.618 201.375C132.597 201.778 134.484 202.546 136.183 203.639C136.754 204.01 137.381 204.436 138.059 204.338C138.621 204.188 139.117 203.853 139.466 203.387C139.464 203.367 139.464 203.347 139.466 203.327L139.513 203.281C139.9 204.238 140.072 205.268 140.016 206.299C140.016 206.457 140.016 206.619 139.982 206.777C139.982 206.832 139.982 206.888 139.982 206.943C139.978 206.99 139.978 207.037 139.982 207.084C139.98 207.155 139.988 207.225 140.007 207.293C140.082 207.503 140.203 207.694 140.361 207.852C140.477 207.994 140.58 208.147 140.668 208.308C140.668 208.252 140.638 208.197 140.621 208.142C140.863 208.524 140.99 208.968 140.988 209.421C140.998 209.751 140.877 210.071 140.651 210.312C140.445 210.503 140.219 210.672 139.978 210.815C140.193 212.364 139.93 213.941 139.223 215.335C138.515 216.73 137.398 217.874 136.02 218.614C135.969 218.725 135.918 218.84 135.871 218.955C135.237 220.31 134.93 221.796 134.976 223.292C134.976 223.398 134.976 223.505 135.01 223.611C135.044 223.718 135.108 223.727 135.151 223.786C135.151 223.786 141.76 224.106 143.372 222.754C144.983 221.403 147.167 226.349 147.167 226.349C147.167 226.349 149.52 226.899 150.011 226.46C150.501 226.021 153.268 226.519 153.268 226.519C154.441 225.552 155.939 225.069 157.456 225.168C158.409 224.5 159.453 223.972 160.556 223.599L160.632 223.573C161.115 223.416 161.627 223.371 162.129 223.441C162.129 223.441 165.485 220.882 166.487 219.471C167.489 218.06 172.192 212.887 172.192 212.862L172.222 212.606L172.303 211.83C172.435 211.857 172.569 211.874 172.704 211.881L172.806 211.612C173.094 210.863 173.444 210.139 173.851 209.446C173.851 209.446 173.889 208.461 173.612 208.206C173.335 207.95 173.881 204.368 173.881 204.368C173.881 204.368 177.075 197.631 179.501 202.846C179.501 202.846 184.336 206.346 180.021 210.039C180.021 210.039 178.315 210.781 178.072 211.408C177.902 211.834 177.292 212.951 176.883 213.706L176.699 214.043L176.746 214.086L176.661 214.725L176.627 214.977C177.39 215.45 177.906 215.911 177.765 216.256C177.511 216.815 177.329 217.404 177.224 218.009C177.224 218.009 171.194 224.959 170.333 228.025C170.333 228.025 154.531 236.612 149.439 237.073L150.143 241.695C150.226 242.943 150.246 244.194 150.203 245.443C150.096 246.424 150.603 250.905 150.603 250.905C150.603 250.905 151.23 257.498 151.942 258.444C152.654 259.391 152.369 263.322 152.369 263.322C152.476 265.212 152.744 267.09 153.17 268.934C153.819 271.454 153.17 274.515 153.17 274.515C153.17 274.515 155.52 280.515 149.508 276.276C149.508 276.276 146.489 275.974 143.009 275.722C143.009 275.833 143.009 275.952 143.009 276.067C143.009 276.519 142.988 277.006 142.975 277.517C142.89 280.899 142.732 285.555 142.442 289.073C141.93 295.294 139.56 307.549 139.56 307.549L139.321 313.74C139.422 314.327 139.459 314.923 139.432 315.518C139.392 317.703 138.73 319.831 137.526 321.654L136.89 325.769C136.89 325.769 135.675 328.447 135.59 330.071C135.588 330.204 135.599 330.337 135.624 330.468C135.655 330.678 135.665 330.891 135.654 331.103C135.654 332.979 134.34 337.423 134.34 337.423C134.34 337.423 134.097 341.947 133.411 342.181C132.822 342.386 134.085 344.821 134.46 345.52C134.474 345.478 134.484 345.435 134.49 345.392L134.571 345.528C134.696 345.9 134.753 346.292 134.737 346.684C134.762 346.994 134.699 347.306 134.555 347.582C134.411 347.858 134.192 348.088 133.923 348.245C132.605 348.982 131.889 349.609 132.972 349.916C133.372 349.994 133.767 350.092 134.157 350.21L134.221 350.061C134.374 350.127 134.5 350.244 134.577 350.391C134.655 350.538 134.68 350.708 134.647 350.871C134.618 351.407 134.458 351.928 134.183 352.389C133.658 353.553 132.999 354.652 132.221 355.664L131.701 355.587C131.771 355.787 131.866 355.978 131.982 356.154C132.169 356.448 132.424 356.692 132.724 356.866C133.001 357.045 133.312 357.164 133.637 357.216C134.004 357.243 134.362 357.347 134.687 357.521C135.011 357.695 135.296 357.936 135.522 358.227C136.161 359.126 136.541 360.333 135.163 361.327L130.256 362.811C130.256 362.811 121.881 363.574 122.393 361.723C122.904 359.873 123.245 358.244 123.245 358.244C123.254 357.099 123.529 355.972 124.047 354.952C124.142 354.786 124.247 354.627 124.363 354.474L124.068 354.432C124.068 354.432 123.582 350.274 122.781 349.468C122.602 349.277 122.563 349.136 122.61 349.042C122.538 348.816 122.751 348.692 123.037 348.616C123.037 348.667 123.075 348.722 123.092 348.778C123.36 348.732 123.631 348.714 123.902 348.722C123.902 348.722 124.256 346.569 123.407 345.737C123.339 345.646 123.291 345.541 123.266 345.429C123.241 345.317 123.24 345.201 123.263 345.089C123.264 344.792 123.306 344.497 123.386 344.211C123.395 344.229 123.405 344.246 123.416 344.262C123.936 342.318 125.548 339.256 125.548 339.256C125.548 339.256 125.689 337.29 125.177 336.48C124.665 335.67 125.659 325.795 125.659 325.795C125.659 325.795 125.638 321.002 126.333 318.797C127.028 316.593 125.774 313.915 125.774 313.915C125.774 313.915 125.774 313.864 125.795 313.774C125.797 313.761 125.797 313.749 125.795 313.736C125.795 313.736 125.838 313.442 125.906 312.985V313.032C126.094 311.753 126.439 309.489 126.669 308.431C126.998 306.935 126.938 299.707 126.938 299.707L125.834 296.594L123.459 301.822L120.9 308.815C120.9 308.815 119.702 310.265 119.621 311.8C119.621 311.877 119.621 311.949 119.621 312.026C119.632 312.184 119.632 312.342 119.621 312.499C119.625 313.395 119.344 314.268 118.819 314.994C118.819 314.994 118.082 318.315 117.114 319.13C116.146 319.944 116.069 321.586 116.069 321.586C116.069 321.586 114.73 326.396 114.155 327.227C113.673 327.927 113.57 329.901 113.553 330.506C113.553 330.617 113.553 330.681 113.553 330.681C113.553 330.681 113.327 332.412 113.276 333.871C113.276 334.05 113.276 334.225 113.276 334.387C113.274 334.375 113.274 334.364 113.276 334.352C113.26 334.748 113.291 335.145 113.37 335.534C113.37 335.534 113.37 335.58 113.37 335.606V335.359C113.573 336.357 113.651 337.377 113.604 338.395C113.566 340.139 113.221 342.194 112.116 343.367C110.206 345.396 109.068 345.072 109.068 345.072C109.068 345.072 109.848 347.729 110.91 348.296C110.951 348.317 110.989 348.343 111.025 348.373C111.025 348.321 111.025 348.27 111.055 348.223C111.167 348.36 111.251 348.518 111.299 348.688C111.348 348.859 111.36 349.037 111.336 349.213C111.37 350.368 110.568 352.197 109.844 353.05C109.58 353.294 109.258 353.467 108.91 353.553C108.963 353.594 109.018 353.631 109.076 353.664C109.194 353.734 109.317 353.797 109.443 353.852C109.615 353.936 109.799 353.992 109.989 354.018C110.357 354.043 110.715 354.146 111.04 354.32C111.365 354.494 111.649 354.736 111.873 355.029C112.513 355.924 112.892 357.131 111.515 358.124L106.607 359.608C106.607 359.608 98.2071 360.35 98.723 358.5Z" fill="url(#paint2_linear)"/>
<path d="M130.426 362.82L135.18 361.332C136.515 360.334 136.148 359.127 135.53 358.227C135.316 357.939 135.043 357.7 134.729 357.527C134.415 357.354 134.067 357.251 133.709 357.225C133.391 357.173 133.089 357.052 132.822 356.871C132.532 356.695 132.288 356.453 132.11 356.163C131.79 355.607 131.629 354.972 131.645 354.33C131.645 354.33 126.554 352.624 125.087 354.078C124.828 354.342 124.608 354.643 124.435 354.97C123.932 355.995 123.664 357.119 123.65 358.261C123.65 358.261 123.326 359.886 122.827 361.741C122.328 363.596 130.426 362.82 130.426 362.82Z" fill="#2D293D"/>
<path d="M107.567 359.625L112.321 358.137C113.656 357.139 113.289 355.933 112.671 355.037C112.457 354.748 112.184 354.508 111.869 354.334C111.554 354.16 111.205 354.057 110.846 354.031C110.662 354.006 110.483 353.952 110.317 353.869C110.195 353.812 110.077 353.748 109.963 353.677C108.684 352.905 108.782 351.118 108.782 351.118C108.782 351.118 103.691 349.413 102.224 350.867C102.027 351.063 101.853 351.28 101.704 351.515C101.108 352.599 100.791 353.813 100.783 355.05C100.783 355.05 100.454 356.679 99.9597 358.529C99.4651 360.38 107.567 359.625 107.567 359.625Z" fill="#2D293D"/>
<path opacity="0.1" d="M125.084 354.078C124.826 354.342 124.608 354.643 124.436 354.969L132.111 356.159C131.791 355.602 131.63 354.968 131.647 354.325C131.647 354.325 126.568 352.624 125.084 354.078Z" fill="black"/>
<path opacity="0.1" d="M101.703 351.532L101.648 352.978C102.774 355.003 108.594 354.794 110.317 353.869C110.195 353.812 110.077 353.748 109.963 353.677C108.684 352.905 108.782 351.118 108.782 351.118C108.782 351.118 103.69 349.413 102.224 350.867C102.026 351.068 101.851 351.292 101.703 351.532Z" fill="black"/>
<path d="M101.026 345.273C101.365 345.916 101.65 346.587 101.879 347.277L101.67 352.453C102.898 354.671 109.746 354.21 110.71 353.067C111.674 351.925 112.774 348.876 111.746 348.313C110.718 347.75 109.964 345.089 109.964 345.089C109.964 345.089 111.068 345.396 112.923 343.384C114.778 341.371 114.428 336.676 114.138 335.551C113.848 334.425 114.33 330.698 114.33 330.698C114.33 330.698 114.364 328.072 114.923 327.24C115.481 326.409 116.782 321.599 116.782 321.599C116.782 321.599 116.842 319.957 117.792 319.143C118.743 318.328 119.464 315.002 119.464 315.002C120.034 314.188 120.304 313.201 120.227 312.21C120.095 310.564 121.472 308.841 121.472 308.841L123.975 301.848L126.278 296.616L127.34 299.742C127.34 299.742 127.391 306.969 127.071 308.466C126.751 309.962 126.218 313.949 126.218 313.949C126.218 313.949 127.429 316.623 126.755 318.832C126.082 321.04 126.09 325.829 126.09 325.829C126.09 325.829 125.118 335.709 125.613 336.514C126.107 337.32 125.967 339.286 125.967 339.286C125.967 339.286 123.058 344.953 123.877 345.776C124.696 346.599 124.355 348.761 124.355 348.761C124.355 348.761 122.521 348.688 123.276 349.507C124.031 350.326 124.436 354.449 124.436 354.449L132.328 355.673C133.085 354.655 133.723 353.555 134.23 352.394C135.373 350.01 134.119 350.223 133.075 349.921C132.03 349.618 132.721 348.987 133.996 348.249C135.271 347.511 134.618 345.712 134.618 345.712C134.618 345.712 132.84 342.424 133.51 342.19C134.179 341.955 134.414 337.431 134.414 337.431C134.414 337.431 135.932 332.101 135.659 330.647C135.386 329.193 136.899 325.769 136.899 325.769L137.513 321.659C139.008 319.37 139.628 316.619 139.257 313.911L139.505 307.549C139.505 307.549 141.824 295.315 142.345 289.073C142.669 285.09 142.831 279.645 142.903 276.247C142.946 274.336 142.963 273.074 142.963 273.074L114.748 269.032C114.65 270.445 114.423 271.847 114.07 273.219C113.725 274.767 113.191 276.763 112.364 279.253C110.053 286.387 111.085 291.81 111.085 291.81L110.996 300.935C110.996 300.935 108.267 306.939 108.714 309.058C108.982 310.32 109.108 311.607 109.09 312.896C109.09 312.896 103.018 325.978 103.461 329.854C103.904 333.73 101.239 339.751 101.239 339.751C101.239 339.751 100.416 344.066 101.026 345.273Z" fill="#575988"/>
<path opacity="0.05" d="M118.539 311.732L109.959 310.24C109.959 310.24 114.654 315.425 118.539 311.732Z" fill="black"/>
<path opacity="0.1" d="M111.528 301.878C111.528 301.878 111.102 304.914 112.94 306.142C112.923 306.133 109.618 305.481 111.528 301.878Z" fill="black"/>
<path opacity="0.1" d="M112.432 292.19C112.432 292.19 119.412 298.403 122.052 298.015C124.691 297.627 112.432 292.19 112.432 292.19Z" fill="black"/>
<path opacity="0.1" d="M129.125 314.93C129.125 314.93 134.553 316.389 134.634 318.589C134.715 320.789 129.125 314.93 129.125 314.93Z" fill="black"/>
<path opacity="0.05" d="M126.862 342.22C126.862 342.22 134.537 343.96 132.311 344.859C130.085 345.759 126.44 346.407 126.44 346.407C126.44 346.407 123.941 346.45 126.862 342.22Z" fill="black"/>
<g opacity="0.05">
<path opacity="0.05" d="M133.816 346.484C134.015 346.37 134.186 346.212 134.315 346.023C134.445 345.835 134.531 345.619 134.567 345.393L134.639 345.533C134.639 345.533 135.296 347.328 134.017 348.092C133.872 348.173 133.735 348.258 133.59 348.339C133.364 348.288 133.117 348.245 132.883 348.177C131.842 347.857 132.537 347.226 133.816 346.484Z" fill="black"/>
<path opacity="0.05" d="M123.864 345.58C123.66 345.376 123.689 344.873 123.864 344.229C124.158 344.823 124.285 345.487 124.231 346.148C124.154 345.933 124.028 345.739 123.864 345.58Z" fill="black"/>
<path opacity="0.05" d="M126.312 313.003C126.566 313.791 126.709 314.61 126.738 315.438C126.612 314.862 126.433 314.299 126.201 313.758C126.201 313.758 126.248 313.463 126.312 313.003Z" fill="black"/>
<path opacity="0.05" d="M108.73 308.88C108.687 308.642 108.671 308.4 108.683 308.159C108.764 308.654 108.815 309.11 108.845 309.511C108.811 309.306 108.773 309.097 108.73 308.88Z" fill="black"/>
<path opacity="0.05" d="M125.599 336.323C125.471 335.847 125.425 335.352 125.463 334.861C125.682 335.452 125.786 336.08 125.77 336.711C125.728 336.576 125.671 336.445 125.599 336.323Z" fill="black"/>
<path opacity="0.05" d="M123.502 348.616C123.859 349.949 124.108 351.308 124.248 352.68L132.141 353.904C132.9 352.888 133.539 351.787 134.047 350.625C134.149 350.416 134.226 350.228 134.294 350.058C134.759 350.292 134.929 350.795 134.247 352.211C133.739 353.371 133.101 354.47 132.345 355.486L124.436 354.271C124.436 354.271 124.009 350.117 123.246 349.303C122.892 348.898 123.156 348.715 123.502 348.616Z" fill="black"/>
<path opacity="0.05" d="M134.43 337.253C134.43 337.253 134.191 341.777 133.526 342.011C133.223 341.248 133.027 340.532 133.326 340.425C133.991 340.186 134.234 335.666 134.234 335.666C134.234 335.666 135.752 330.341 135.479 328.882C135.206 327.424 136.715 324.009 136.715 324.009L137.334 319.894C138.829 317.605 139.448 314.854 139.078 312.146L139.321 305.784C139.321 305.784 141.632 293.529 142.135 287.308C142.455 283.325 142.617 277.88 142.694 274.482C142.694 273.868 142.719 273.322 142.728 272.862L142.954 272.896C142.954 272.896 142.954 274.175 142.894 276.064C142.821 279.475 142.659 284.912 142.335 288.894C141.832 295.111 139.525 307.37 139.525 307.37L139.278 313.728C139.648 316.436 139.031 319.186 137.538 321.476L136.916 325.591C136.916 325.591 135.402 329.002 135.675 330.469C135.948 331.935 134.43 337.253 134.43 337.253Z" fill="black"/>
<path opacity="0.05" d="M110.513 351.307C111.192 350.399 111.66 349.352 111.886 348.241C112.666 349 111.63 351.802 110.714 352.889C109.797 353.976 102.902 354.492 101.674 352.279L101.721 351.03C103.426 352.855 109.601 352.39 110.513 351.307Z" fill="black"/>
<path opacity="0.05" d="M100.83 343.5C101.168 344.143 101.454 344.813 101.682 345.504L101.644 346.421C101.465 345.964 101.263 345.517 101.039 345.082C100.851 344.559 100.775 344.002 100.817 343.448L100.83 343.5Z" fill="black"/>
<path opacity="0.05" d="M110.364 344.915C110.133 344.401 109.937 343.873 109.775 343.333C109.775 343.333 110.88 343.636 112.73 341.606C114.078 340.127 114.261 337.248 114.15 335.355C114.44 336.485 114.786 341.159 112.935 343.188C111.716 344.519 110.824 344.847 110.364 344.915Z" fill="black"/>
<path opacity="0.05" d="M114.334 330.502C114.168 331.791 114.074 333.088 114.053 334.387C114.027 334.18 113.99 333.975 113.942 333.773C113.656 332.643 114.129 328.92 114.129 328.92C114.129 328.92 114.168 326.294 114.722 325.462C115.276 324.631 116.581 319.821 116.581 319.821C116.581 319.821 116.645 318.184 117.596 317.365C118.547 316.546 119.268 313.225 119.268 313.225C119.836 312.409 120.106 311.423 120.031 310.432C119.899 308.786 121.276 307.063 121.276 307.063L123.779 300.07L126.081 294.838L127.143 297.968C127.143 297.968 127.143 298.352 127.143 298.966L126.29 296.407L123.988 301.635L121.485 308.632C121.485 308.632 120.108 310.338 120.24 312.001C120.317 312.992 120.047 313.979 119.476 314.794C119.476 314.794 118.756 318.115 117.805 318.93C116.854 319.744 116.794 321.386 116.794 321.386C116.794 321.386 115.49 326.196 114.935 327.032C114.381 327.867 114.334 330.502 114.334 330.502Z" fill="black"/>
</g>
<path d="M113.469 209.651L113.87 212.064L113.801 213.13L113.75 213.915L116.475 214.303L116.803 213.749C117.409 212.747 118.662 210.704 119.059 210.397C119.579 209.992 120.739 203.37 119.639 203.72C118.968 203.951 118.406 204.421 118.061 205.042C118.061 205.042 112.663 205.451 113.469 209.651Z" fill="#FFCDD3"/>
<path opacity="0.1" d="M113.75 213.915L116.474 214.303L116.803 213.749C116.451 213.32 115.963 213.024 115.419 212.913C114.876 212.801 114.31 212.879 113.818 213.135L113.75 213.915Z" fill="black"/>
<path d="M113.007 215.186L116.584 216.162L116.678 215.625L116.938 214.188C116.751 213.919 116.512 213.689 116.236 213.513C115.959 213.336 115.651 213.216 115.328 213.16C115.005 213.103 114.674 213.111 114.354 213.183C114.034 213.255 113.731 213.389 113.463 213.578L113.258 214.307L113.007 215.186Z" fill="#DCE6F2"/>
<path d="M171.655 212.167L175.425 214.384C175.425 214.384 175.582 214.081 175.804 213.668C176.201 212.913 176.789 211.779 176.955 211.369C177.207 210.743 178.844 209.996 178.844 209.996C183.027 206.299 178.35 202.807 178.35 202.807C176.005 197.592 172.909 204.334 172.909 204.334C172.909 204.334 172.376 207.928 172.645 208.171C172.913 208.414 172.875 209.412 172.875 209.412C172.477 210.105 172.138 210.83 171.86 211.578C171.728 211.932 171.655 212.167 171.655 212.167Z" fill="#FFCDD3"/>
<path opacity="0.1" d="M171.655 212.167L175.425 214.385C175.425 214.385 175.582 214.082 175.804 213.668C175.275 213.195 173.408 211.536 172.772 211.605C172.469 211.635 172.163 211.635 171.86 211.605C171.728 211.933 171.655 212.167 171.655 212.167Z" fill="black"/>
<path d="M171.215 213.306L175.479 215.604L175.599 214.674L175.684 214.035C175.684 214.035 173.262 211.792 172.52 211.843C172.142 211.881 171.76 211.865 171.386 211.796L171.309 212.572L171.215 213.306Z" fill="#DCE6F2"/>
<path d="M123.348 225.957C123.348 225.957 142.139 228.814 138.656 227.535C136.229 226.639 135.313 225.04 135.176 223.301C135.129 221.808 135.421 220.324 136.029 218.96C136.523 217.787 137.132 216.667 137.85 215.617C137.85 215.617 123.727 207.127 126.337 214.453C126.74 215.561 126.972 216.724 127.023 217.902C127.064 219.072 126.894 220.239 126.52 221.348C125.907 223.147 124.809 224.742 123.348 225.957Z" fill="#FFCDD3"/>
<path opacity="0.1" d="M126.355 214.453C126.758 215.561 126.99 216.724 127.041 217.902C128.355 219.092 129.847 219.075 131.762 219.147C133.233 219.207 134.845 219.625 136.026 218.96C136.519 217.787 137.129 216.667 137.846 215.617C137.846 215.617 123.745 207.127 126.355 214.453Z" fill="black"/>
<path d="M132.298 219.663C136.61 219.663 140.106 216.168 140.106 211.856C140.106 207.544 136.61 204.048 132.298 204.048C127.986 204.048 124.491 207.544 124.491 211.856C124.491 216.168 127.986 219.663 132.298 219.663Z" fill="#FFCDD3"/>
<path opacity="0.1" d="M123.348 225.957C123.348 225.957 142.139 228.814 138.656 227.534C136.229 226.639 135.313 225.04 135.176 223.3C134.276 222.247 132.417 221.441 131.219 221.002C130.128 220.591 128.937 220.526 127.808 220.814C127.357 220.928 126.926 221.107 126.529 221.347C125.913 223.148 124.813 224.743 123.348 225.957Z" fill="black"/>
<path opacity="0.1" d="M113.007 215.186L116.584 216.163L116.678 215.625C116.314 215.082 115.791 214.664 115.18 214.428C114.57 214.193 113.902 214.15 113.267 214.308L113.007 215.186Z" fill="black"/>
<path opacity="0.1" d="M171.215 213.306L175.479 215.604L175.599 214.674C174.217 213.875 172.777 213.18 171.292 212.594L171.215 213.306Z" fill="black"/>
<path opacity="0.1" d="M114.052 273.219C121.301 274.656 131.663 276.558 133.33 276.119C134.716 275.756 139.086 275.97 142.886 276.247C142.928 274.336 142.945 273.074 142.945 273.074L114.73 269.032C114.632 270.445 114.405 271.847 114.052 273.219Z" fill="black"/>
<path d="M106.833 271.224C106.833 271.224 130.738 276.281 133.351 275.594C135.965 274.908 149.192 276.268 149.192 276.268C155.004 280.498 152.74 274.503 152.74 274.503C152.74 274.503 153.384 271.441 152.74 268.921C152.328 267.075 152.069 265.198 151.968 263.31C151.968 263.31 152.254 259.378 151.567 258.436C150.881 257.493 150.288 250.897 150.288 250.897C150.288 250.897 149.806 246.415 149.909 245.435C150.011 244.454 149.858 241.687 149.858 241.687L149.18 237.064C154.122 236.6 169.425 227.995 169.425 227.995C170.278 224.942 176.115 217.94 176.115 217.94C176.22 217.337 176.398 216.748 176.644 216.188C177.071 215.156 171.259 212.832 171.259 212.832C171.259 212.832 166.649 218.038 165.694 219.446C164.739 220.853 161.468 223.42 161.468 223.42C160.981 223.352 160.485 223.397 160.019 223.552H159.942C158.876 223.929 157.871 224.459 156.957 225.125C155.48 225.033 154.025 225.518 152.898 226.477C152.898 226.477 150.224 225.982 149.751 226.421C149.278 226.861 146.996 226.315 146.996 226.315C146.996 226.315 144.864 221.377 143.325 222.729C141.786 224.081 135.364 223.769 135.364 223.769C134.558 222.601 132.511 221.71 131.232 221.241C130.142 220.828 128.95 220.762 127.821 221.053C127.331 221.174 126.865 221.377 126.444 221.654L122.419 225.304C122.419 225.304 121.357 223.82 121.502 223.496C121.647 223.172 120.223 222.857 120.223 222.857C120.223 222.857 118.342 222.192 117.63 221.97C116.918 221.748 116.223 222.499 116.163 222.567C116.489 221.647 116.634 220.672 116.59 219.697C116.44 218.443 117.464 217.365 117.464 217.365C115.387 211.638 110.027 216.162 110.027 216.162C110.027 216.162 109.315 219.22 109.797 220.426C110.279 221.633 109.132 224.076 109.234 224.737C109.336 225.398 108.906 226.498 108.859 227.743C108.812 228.988 109.375 231.376 109.712 232.434C110.049 233.491 113.123 235.981 113.123 235.981C113.123 235.981 113.178 239.725 114.47 241.951C115.762 244.177 114.628 251.545 114.628 251.545C114.628 251.545 113.093 257.263 111.383 259.037C109.673 260.811 106.833 271.224 106.833 271.224Z" fill="#656691"/>
<path opacity="0.1" d="M143.572 229.428C143.572 229.428 144.378 227.296 145.039 227.121C145.701 226.906 146.348 226.645 146.974 226.341L146.582 225.518C146.582 225.518 144.092 226.102 143.674 226.797C143.256 227.492 143.572 229.428 143.572 229.428Z" fill="black"/>
<path opacity="0.1" d="M156.936 225.151C157.042 225.812 162.854 226.627 162.854 226.627L160.018 223.552H159.946C158.87 223.936 157.856 224.474 156.936 225.151Z" fill="black"/>
<path d="M174.168 217.322C174.457 217.322 174.692 217.087 174.692 216.798C174.692 216.508 174.457 216.273 174.168 216.273C173.878 216.273 173.643 216.508 173.643 216.798C173.643 217.087 173.878 217.322 174.168 217.322Z" fill="#575988"/>
<path d="M173.454 218.346C173.744 218.346 173.979 218.111 173.979 217.821C173.979 217.531 173.744 217.297 173.454 217.297C173.165 217.297 172.93 217.531 172.93 217.821C172.93 218.111 173.165 218.346 173.454 218.346Z" fill="#575988"/>
<path d="M172.759 219.288C173.049 219.288 173.284 219.053 173.284 218.764C173.284 218.474 173.049 218.239 172.759 218.239C172.47 218.239 172.235 218.474 172.235 218.764C172.235 219.053 172.47 219.288 172.759 219.288Z" fill="#575988"/>
<path d="M172.034 220.311C172.323 220.311 172.558 220.076 172.558 219.787C172.558 219.497 172.323 219.262 172.034 219.262C171.744 219.262 171.509 219.497 171.509 219.787C171.509 220.076 171.744 220.311 172.034 220.311Z" fill="#575988"/>
<path d="M110.228 217.778C110.463 217.778 110.654 217.587 110.654 217.352C110.654 217.116 110.463 216.926 110.228 216.926C109.992 216.926 109.801 217.116 109.801 217.352C109.801 217.587 109.992 217.778 110.228 217.778Z" fill="#575988"/>
<path d="M110.126 218.742C110.361 218.742 110.552 218.552 110.552 218.316C110.552 218.081 110.361 217.89 110.126 217.89C109.89 217.89 109.699 218.081 109.699 218.316C109.699 218.552 109.89 218.742 110.126 218.742Z" fill="#575988"/>
<path d="M110.027 219.706C110.262 219.706 110.453 219.515 110.453 219.279C110.453 219.044 110.262 218.853 110.027 218.853C109.791 218.853 109.6 219.044 109.6 219.279C109.6 219.515 109.791 219.706 110.027 219.706Z" fill="#575988"/>
<path opacity="0.1" d="M142.856 247.196C142.92 247.124 127.42 265.22 116.359 253.993C116.359 253.993 134.396 257.148 142.856 247.196Z" fill="black"/>
<path opacity="0.1" d="M150.975 257.229C150.975 257.229 142.118 257.131 141.095 259.638L140.993 262.286C141.239 262.435 141.52 262.519 141.807 262.53C142.095 262.541 142.381 262.48 142.639 262.35C143.551 261.903 149.001 259.391 150.838 260.773L150.975 257.229Z" fill="black"/>
<path d="M150.809 257.221C150.809 257.221 142.344 257.127 141.364 259.519L141.266 262.043C141.501 262.186 141.769 262.267 142.045 262.277C142.32 262.288 142.593 262.228 142.839 262.103C143.692 261.677 148.924 259.285 150.681 260.598L150.809 257.221Z" fill="#656691"/>
<path opacity="0.1" d="M146.886 237.836C145.9 239.892 144.674 241.823 143.232 243.589C141.656 245.541 139.772 247.223 137.654 248.569C137.654 248.569 146.69 239.03 146.886 237.836Z" fill="black"/>
<path opacity="0.1" d="M150.173 227.671C150.173 227.671 148.468 233.986 144.566 236.003L150.173 227.671Z" fill="black"/>
<path opacity="0.1" d="M152.412 228.401C152.455 228.285 153.529 233.492 147.206 236.106C147.206 236.106 149.879 235.308 152.412 228.401Z" fill="black"/>
<path opacity="0.1" d="M113.955 222.644C114.053 222.644 110.812 224.541 109.917 225.441C109.938 225.441 112.092 222.439 113.955 222.644Z" fill="black"/>
<path d="M134.136 219.011C134.056 219.425 133.823 219.793 133.484 220.043C133.25 220.145 132.996 220.19 132.742 220.175C130.358 220.235 127.876 220.243 125.715 219.241C125.31 219.081 124.951 218.823 124.67 218.491C124.295 217.996 124.244 217.344 124.111 216.738C123.847 215.561 123.229 214.5 122.798 213.37C122.073 211.467 121.885 209.402 122.256 207.4C122.342 206.788 122.568 206.204 122.917 205.695C123.583 204.82 124.747 204.501 125.608 203.814C126.469 203.128 127.049 202.053 128.047 201.55C128.942 201.098 130.013 201.196 130.998 201.405C132.931 201.81 134.769 202.582 136.413 203.678C136.963 204.049 137.569 204.471 138.225 204.373C138.788 204.216 139.279 203.87 139.615 203.392C140.038 204.476 140.193 205.646 140.067 206.803C140.037 206.972 140.037 207.146 140.067 207.315C140.14 207.523 140.256 207.714 140.408 207.873C140.967 208.577 141.295 209.669 140.69 210.334C140.425 210.624 140.029 210.76 139.773 211.071C139.313 211.6 139.428 212.393 139.411 213.097C139.426 213.341 139.357 213.584 139.215 213.783C139.082 213.895 138.923 213.972 138.753 214.005C138.583 214.039 138.407 214.029 138.242 213.975C137.913 213.863 137.566 213.817 137.219 213.839C136.849 213.945 136.526 214.174 136.302 214.487C135.147 215.826 134.669 217.348 134.136 219.011Z" fill="#2D293D"/>
<g opacity="0.1">
<path opacity="0.1" d="M124.435 217.877C124.715 218.212 125.074 218.471 125.48 218.632C127.642 219.634 130.123 219.621 132.507 219.566C132.762 219.582 133.017 219.535 133.249 219.429C133.589 219.182 133.822 218.814 133.901 218.401C134.426 216.734 134.912 215.216 136.068 213.86C136.291 213.545 136.614 213.315 136.984 213.208C137.331 213.188 137.678 213.234 138.008 213.344C138.173 213.399 138.349 213.41 138.519 213.376C138.689 213.343 138.848 213.266 138.98 213.152C139.123 212.955 139.192 212.714 139.176 212.47C139.176 211.767 139.078 210.974 139.538 210.441C139.794 210.146 140.191 210.014 140.455 209.707C140.627 209.49 140.737 209.23 140.774 208.955C140.81 208.681 140.773 208.401 140.664 208.146C141.056 208.824 141.206 209.682 140.694 210.24C140.43 210.53 140.037 210.667 139.777 210.978C139.317 211.507 139.436 212.3 139.419 213.003C139.435 213.248 139.364 213.492 139.219 213.69C139.087 213.802 138.928 213.879 138.758 213.912C138.587 213.946 138.411 213.935 138.246 213.882C137.919 213.77 137.573 213.723 137.227 213.745C136.855 213.852 136.53 214.082 136.306 214.398C135.155 215.749 134.669 217.271 134.14 218.934C134.133 219.105 134.09 219.272 134.015 219.425C133.939 219.578 133.833 219.714 133.702 219.824C133.571 219.934 133.419 220.015 133.255 220.063C133.091 220.111 132.919 220.125 132.75 220.103C130.367 220.158 127.885 220.167 125.719 219.165C125.315 219.003 124.956 218.746 124.674 218.414C124.533 218.22 124.428 218.002 124.363 217.77C124.384 217.808 124.408 217.843 124.435 217.877Z" fill="black"/>
<path opacity="0.1" d="M140.05 207.093C139.944 206.97 139.868 206.824 139.828 206.667C139.798 206.498 139.798 206.324 139.828 206.155C139.931 205.201 139.844 204.236 139.572 203.315L139.615 203.269C140.041 204.352 140.197 205.522 140.071 206.68C140.052 206.817 140.045 206.955 140.05 207.093Z" fill="black"/>
</g>
<path opacity="0.1" d="M135.343 223.795C135.343 223.795 125.536 224.712 124.726 223.211L135.343 223.795Z" fill="black"/>
<path opacity="0.1" d="M116.551 219.032C116.551 219.032 111.132 218.832 109.865 220.814L116.551 219.032Z" fill="black"/>
</g>
<defs>
<linearGradient id="paint0_linear" x1="289.406" y1="293.601" x2="289.406" y2="64.0559" gradientUnits="userSpaceOnUse">
<stop stop-color="#808080" stop-opacity="0.25"/>
<stop offset="0.54" stop-color="#808080" stop-opacity="0.12"/>
<stop offset="1" stop-color="#808080" stop-opacity="0.1"/>
</linearGradient>
<linearGradient id="paint1_linear" x1="87402.5" y1="141769" x2="87402.5" y2="77695.5" gradientUnits="userSpaceOnUse">
<stop stop-color="#808080" stop-opacity="0.25"/>
<stop offset="0.54" stop-color="#808080" stop-opacity="0.12"/>
<stop offset="1" stop-color="#808080" stop-opacity="0.1"/>
</linearGradient>
<linearGradient id="paint2_linear" x1="-72995.9" y1="140365" x2="-70502.5" y2="78030.6" gradientUnits="userSpaceOnUse">
<stop stop-color="#808080" stop-opacity="0.25"/>
<stop offset="0.54" stop-color="#808080" stop-opacity="0.12"/>
<stop offset="1" stop-color="#808080" stop-opacity="0.1"/>
</linearGradient>
<clipPath id="clip0">
<rect width="596" height="368" fill="white"/>
</clipPath>
</defs>
</svg>