<svg width="259" height="150" viewBox="0 0 596 368" fill="none" xmlns="http://www.w3.org/2000/svg">
<path opacity="0.1" d="M358.414 59.3286C338.556 71.8875 312.8 71.0703 290.232 64.5419C267.664 58.0135 246.929 46.3704 224.948 38.0995C206.485 31.161 187.207 26.6213 167.587 24.5919C139.562 21.694 108.264 25.2212 88.7394 45.525C66.9937 68.1396 68.661 108.93 92.182 129.68C104.145 140.238 119.813 145.419 133.471 153.662C147.129 161.904 159.772 175.595 158.617 191.508C157.541 206.236 145.02 217.541 132.057 224.633C122.044 230.114 109.705 236.098 108.498 247.45C107.329 258.435 117.704 267.044 127.609 271.938C159.918 287.907 199.732 287.752 231.918 271.534C243.401 265.748 253.96 258.055 266.002 253.546C297.62 241.706 332.465 253.626 365.947 257.985C394.378 261.666 423.254 259.766 450.958 252.391C467.542 247.966 484.187 241.203 495.834 228.602C504.232 219.514 509.455 208.016 514.377 196.665C519.618 184.553 524.655 172.358 529.486 160.077C532.389 152.703 535.24 145.189 535.991 137.298C537.348 123.006 531.628 108.879 523.841 96.8129C505.35 68.163 474.206 48.033 440.498 42.9183C406.79 37.8036 371.053 47.7982 344.892 69.6519" fill="#3B38D3"/>
<path opacity="0.1" d="M122.95 368C158.16 368 186.703 362.419 186.703 355.535C186.703 348.651 158.16 343.07 122.95 343.07C87.7404 343.07 59.1973 348.651 59.1973 355.535C59.1973 362.419 87.7404 368 122.95 368Z" fill="#38D39F"/>
<path opacity="0.1" d="M312.345 341.966C386.152 341.966 445.984 336.385 445.984 329.501C445.984 322.617 386.152 317.036 312.345 317.036C238.538 317.036 178.705 322.617 178.705 329.501C178.705 336.385 238.538 341.966 312.345 341.966Z" fill="#38D39F"/>
<path d="M403.056 240.753C403.056 240.753 421.791 207.566 450.023 198.013C461.863 193.997 472.201 186.45 479.269 176.136C482.612 171.235 485.5 166.039 487.897 160.613" stroke="#535461" stroke-width="2" stroke-miterlimit="10"/>
<path d="M505.622 154.469C502.405 157.588 487.432 160.815 487.432 160.815C487.432 160.815 491.104 145.95 494.322 142.826C495.866 141.328 497.942 140.504 500.093 140.536C502.244 140.568 504.295 141.454 505.793 142.998C507.292 144.542 508.116 146.618 508.084 148.769C508.051 150.92 507.166 152.971 505.622 154.469Z" fill="#38D39F"/>
<path d="M497.149 181.377C492.758 182.246 478.433 176.816 478.433 176.816C478.433 176.816 489.597 166.333 493.993 165.46C496.103 165.041 498.294 165.478 500.082 166.675C501.871 167.871 503.111 169.729 503.529 171.84C503.948 173.951 503.511 176.141 502.314 177.93C501.118 179.718 499.26 180.958 497.149 181.377Z" fill="#38D39F"/>
<path d="M466.311 210.492C462.084 209.026 452.456 197.111 452.456 197.111C452.456 197.111 467.386 193.691 471.618 195.157C473.603 195.897 475.22 197.385 476.123 199.302C477.026 201.219 477.144 203.413 476.451 205.415C475.758 207.418 474.309 209.069 472.414 210.018C470.52 210.967 468.329 211.137 466.311 210.492Z" fill="#38D39F"/>
<path d="M438.018 227.263C433.598 226.535 422.096 216.419 422.096 216.419C422.096 216.419 436.238 210.529 440.658 211.252C441.709 211.426 442.715 211.804 443.62 212.366C444.524 212.929 445.31 213.664 445.93 214.53C446.551 215.395 446.995 216.375 447.237 217.412C447.479 218.449 447.514 219.524 447.341 220.575C447.168 221.626 446.789 222.633 446.227 223.537C445.664 224.442 444.929 225.227 444.064 225.848C443.198 226.468 442.219 226.912 441.181 227.155C440.144 227.397 439.069 227.432 438.018 227.259V227.263Z" fill="#38D39F"/>
<path d="M465.949 165.216C465.949 169.696 474.051 182.692 474.051 182.692C474.051 182.692 482.171 169.701 482.171 165.22C482.171 163.069 481.317 161.006 479.795 159.485C478.274 157.964 476.211 157.109 474.06 157.109C471.909 157.109 469.846 157.964 468.324 159.485C466.803 161.006 465.949 163.069 465.949 165.22V165.216Z" fill="#38D39F"/>
<path d="M433.105 185.237C434.444 189.511 446.068 199.487 446.068 199.487C446.068 199.487 449.929 184.664 448.59 180.39C447.948 178.335 446.515 176.619 444.607 175.621C442.699 174.622 440.473 174.422 438.417 175.064C436.362 175.707 434.646 177.14 433.647 179.048C432.649 180.956 432.449 183.182 433.091 185.237H433.105Z" fill="#38D39F"/>
<path d="M403.845 209.092C404.456 213.535 414.225 225.333 414.225 225.333C414.225 225.333 420.537 211.379 419.941 206.936C419.799 205.88 419.451 204.862 418.915 203.941C418.38 203.02 417.669 202.213 416.822 201.567C415.975 200.92 415.009 200.447 413.979 200.174C412.949 199.901 411.876 199.834 410.82 199.976C408.687 200.262 406.756 201.384 405.451 203.094C404.804 203.941 404.331 204.907 404.058 205.937C403.785 206.967 403.717 208.041 403.859 209.096L403.845 209.092Z" fill="#38D39F"/>
<path opacity="0.25" d="M505.622 154.469C502.405 157.588 487.432 160.815 487.432 160.815C487.432 160.815 491.104 145.95 494.322 142.826C495.866 141.328 497.942 140.504 500.093 140.536C502.244 140.568 504.295 141.454 505.793 142.998C507.292 144.542 508.116 146.618 508.084 148.769C508.051 150.92 507.166 152.971 505.622 154.469Z" fill="black"/>
<path opacity="0.25" d="M497.149 181.377C492.758 182.246 478.433 176.816 478.433 176.816C478.433 176.816 489.597 166.333 493.993 165.46C496.103 165.041 498.294 165.478 500.082 166.675C501.871 167.871 503.111 169.729 503.529 171.84C503.948 173.951 503.511 176.141 502.314 177.93C501.118 179.718 499.26 180.958 497.149 181.377Z" fill="black"/>
<path opacity="0.25" d="M466.311 210.492C462.084 209.026 452.456 197.111 452.456 197.111C452.456 197.111 467.386 193.691 471.618 195.157C473.603 195.897 475.22 197.385 476.123 199.302C477.026 201.219 477.144 203.413 476.451 205.415C475.758 207.418 474.309 209.069 472.414 210.018C470.52 210.967 468.329 211.137 466.311 210.492Z" fill="black"/>
<path opacity="0.25" d="M438.018 227.263C433.598 226.535 422.096 216.419 422.096 216.419C422.096 216.419 436.238 210.529 440.658 211.252C441.709 211.426 442.715 211.804 443.62 212.366C444.524 212.929 445.31 213.664 445.93 214.53C446.551 215.395 446.995 216.375 447.237 217.412C447.479 218.449 447.514 219.524 447.341 220.575C447.168 221.626 446.789 222.633 446.227 223.537C445.664 224.442 444.929 225.227 444.064 225.848C443.198 226.468 442.219 226.912 441.181 227.155C440.144 227.397 439.069 227.432 438.018 227.259V227.263Z" fill="black"/>
<path opacity="0.25" d="M465.949 165.216C465.949 169.696 474.051 182.692 474.051 182.692C474.051 182.692 482.171 169.701 482.171 165.22C482.171 163.069 481.317 161.006 479.795 159.485C478.274 157.964 476.211 157.109 474.06 157.109C471.909 157.109 469.846 157.964 468.324 159.485C466.803 161.006 465.949 163.069 465.949 165.22V165.216Z" fill="black"/>
<path opacity="0.25" d="M433.105 185.237C434.444 189.511 446.068 199.487 446.068 199.487C446.068 199.487 449.929 184.664 448.59 180.39C447.948 178.335 446.515 176.619 444.607 175.621C442.699 174.622 440.473 174.422 438.417 175.064C436.362 175.707 434.646 177.14 433.647 179.048C432.649 180.956 432.449 183.182 433.091 185.237H433.105Z" fill="black"/>
<path opacity="0.25" d="M403.845 209.092C404.456 213.535 414.225 225.333 414.225 225.333C414.225 225.333 420.537 211.379 419.941 206.936C419.799 205.88 419.451 204.862 418.915 203.941C418.38 203.02 417.669 202.213 416.822 201.567C415.975 200.92 415.009 200.447 413.979 200.174C412.949 199.901 411.876 199.834 410.82 199.976C408.687 200.262 406.756 201.384 405.451 203.094C404.804 203.941 404.331 204.907 404.058 205.937C403.785 206.967 403.717 208.041 403.859 209.096L403.845 209.092Z" fill="black"/>
<path d="M404.132 240.09C404.132 240.09 407.814 202.16 429.729 181.987C438.93 173.533 445.322 162.426 447.576 150.134C448.649 144.3 449.185 138.379 449.178 132.447" stroke="#535461" stroke-width="2" stroke-miterlimit="10"/>
<path d="M462.935 119.658C461.263 123.814 448.882 132.808 448.882 132.808C448.882 132.808 446.215 117.727 447.891 113.552C448.758 111.651 450.325 110.158 452.265 109.384C454.205 108.609 456.369 108.613 458.306 109.395C460.244 110.177 461.805 111.675 462.664 113.579C463.524 115.483 463.616 117.645 462.921 119.615L462.935 119.658Z" fill="#38D39F"/>
<path d="M466.095 147.678C462.432 150.256 447.139 151.097 447.139 151.097C447.139 151.097 453.095 137.007 456.763 134.41C458.523 133.199 460.69 132.732 462.793 133.109C464.895 133.487 466.764 134.679 467.993 136.426C469.223 138.174 469.713 140.336 469.357 142.442C469.002 144.549 467.829 146.43 466.095 147.678Z" fill="#38D39F"/>
<path d="M449.699 186.792C445.237 187.168 431.607 180.174 431.607 180.174C431.607 180.174 443.875 171.002 448.342 170.626C450.485 170.446 452.613 171.125 454.256 172.513C455.899 173.902 456.923 175.886 457.103 178.03C457.283 180.174 456.604 182.301 455.216 183.945C453.827 185.588 451.843 186.612 449.699 186.792Z" fill="#38D39F"/>
<path d="M430.617 213.591C426.282 214.714 411.666 210.125 411.666 210.125C411.666 210.125 422.205 199.008 426.545 197.885C428.627 197.345 430.839 197.655 432.694 198.746C434.548 199.837 435.893 201.62 436.433 203.702C436.973 205.785 436.664 207.997 435.573 209.851C434.482 211.706 432.699 213.051 430.617 213.591Z" fill="#38D39F"/>
<path d="M431.015 145.537C432.828 149.632 445.505 158.218 445.505 158.218C445.505 158.218 447.665 143.057 445.852 138.961C444.98 136.994 443.362 135.453 441.355 134.678C439.347 133.904 437.113 133.958 435.146 134.83C433.178 135.702 431.638 137.32 430.863 139.328C430.089 141.336 430.143 143.569 431.015 145.537Z" fill="#38D39F"/>
<path d="M409.111 177.164C412.069 180.527 426.737 184.937 426.737 184.937C426.737 184.937 424.257 169.823 421.303 166.456C420.6 165.654 419.746 164.998 418.789 164.527C417.833 164.055 416.793 163.776 415.729 163.706C414.665 163.637 413.597 163.777 412.587 164.12C411.578 164.463 410.645 165.001 409.843 165.704C409.041 166.407 408.386 167.261 407.914 168.218C407.443 169.174 407.164 170.214 407.094 171.278C407.024 172.343 407.165 173.41 407.508 174.42C407.85 175.43 408.389 176.362 409.092 177.164H409.111Z" fill="#38D39F"/>
<path d="M392.037 210.825C394.385 214.643 408.095 221.467 408.095 221.467C408.095 221.467 408.208 206.152 405.864 202.333C404.738 200.5 402.93 199.188 400.837 198.688C398.744 198.188 396.538 198.539 394.705 199.666C392.871 200.792 391.56 202.6 391.06 204.693C390.559 206.785 390.911 208.991 392.037 210.825Z" fill="#38D39F"/>
<path d="M191.568 0V12.8595V331.333H429.878V12.8595V0H191.568Z" fill="url(#paint0_linear)"/>
<path d="M427.789 2.90747H193.659V15.5369H427.789V2.90747Z" fill="#F6F7F9"/>
<g opacity="0.2">
<path opacity="0.2" d="M427.789 2.90747H193.659V15.5369H427.789V2.90747Z" fill="#38D39F"/>
</g>
<path d="M427.789 15.5369H193.659V328.426H427.789V15.5369Z" fill="#F6F7F9"/>
<path d="M199.816 11.3613C200.999 11.3613 201.958 10.4024 201.958 9.21957C201.958 8.03675 200.999 7.07788 199.816 7.07788C198.633 7.07788 197.674 8.03675 197.674 9.21957C197.674 10.4024 198.633 11.3613 199.816 11.3613Z" fill="#F6F7F9"/>
<path d="M205.621 11.3613C206.804 11.3613 207.763 10.4024 207.763 9.21957C207.763 8.03675 206.804 7.07788 205.621 7.07788C204.438 7.07788 203.479 8.03675 203.479 9.21957C203.479 10.4024 204.438 11.3613 205.621 11.3613Z" fill="#F6F7F9"/>
<path d="M211.426 11.3613C212.609 11.3613 213.568 10.4024 213.568 9.21957C213.568 8.03675 212.609 7.07788 211.426 7.07788C210.244 7.07788 209.285 8.03675 209.285 9.21957C209.285 10.4024 210.244 11.3613 211.426 11.3613Z" fill="#F6F7F9"/>
<g opacity="0.2">
<path opacity="0.2" d="M385.997 34.8257H235.445V40.72H385.997V34.8257Z" fill="#38D39F"/>
</g>
<path d="M385.998 34.8257H365.995V40.72H385.998V34.8257Z" fill="#38D39F"/>
<g opacity="0.5">
<path d="M405.465 155.282H215.982V223.145H405.465V155.282Z" fill="#E1E8FA"/>
<path d="M405.466 155.286H399.83V155.756H405.466V155.286ZM394.194 155.286H388.558V155.756H394.194V155.286ZM382.922 155.286H377.286V155.756H382.922V155.286ZM371.65 155.286H366.014V155.756H371.65V155.286ZM360.378 155.286H354.742V155.756H360.378V155.286ZM349.106 155.286H343.47V155.756H349.106V155.286ZM337.834 155.286H332.198V155.756H337.834V155.286ZM326.562 155.286H320.926V155.756H326.562V155.286ZM315.29 155.286H309.654V155.756H315.29V155.286ZM304.018 155.286H298.381V155.756H304.018V155.286ZM292.745 155.286H287.109V155.756H292.745V155.286ZM281.473 155.286H275.837V155.756H281.473V155.286ZM270.201 155.286H264.565V155.756H270.201V155.286ZM258.929 155.286H253.293V155.756H258.929V155.286ZM247.657 155.286H242.021V155.756H247.657V155.286ZM236.385 155.286H230.749V155.756H236.385V155.286ZM225.113 155.286H219.477V155.756H225.113V155.286ZM216.448 157.428H215.978V163.064H216.448V157.428ZM216.448 168.7H215.978V174.336H216.448V168.7ZM216.448 179.972H215.978V185.608H216.448V179.972ZM216.448 191.244H215.978V196.88H216.448V191.244ZM216.448 202.516H215.978V208.152H216.448V202.516ZM216.448 213.788H215.978V219.424H216.448V213.788ZM223.521 222.679H217.885V223.149H223.521V222.679ZM234.793 222.679H229.157V223.149H234.793V222.679ZM246.065 222.679H240.429V223.149H246.065V222.679ZM257.337 222.679H251.701V223.149H257.337V222.679ZM268.609 222.679H262.973V223.149H268.609V222.679ZM279.881 222.679H274.245V223.149H279.881V222.679ZM291.153 222.679H285.517V223.149H291.153V222.679ZM302.425 222.679H296.789V223.149H302.425V222.679ZM313.697 222.679H308.061V223.149H313.697V222.679ZM324.969 222.679H319.333V223.149H324.969V222.679ZM336.241 222.679H330.605V223.149H336.241V222.679ZM347.514 222.679H341.878V223.149H347.514V222.679ZM358.786 222.679H353.15V223.149H358.786V222.679ZM370.058 222.679H364.422V223.149H370.058V222.679ZM381.33 222.679H375.694V223.149H381.33V222.679ZM392.602 222.679H386.966V223.149H392.602V222.679ZM403.874 222.679H398.238V223.149H403.874V222.679ZM405.461 213.464H404.992V219.1H405.461V213.464ZM405.461 202.192H404.992V207.828H405.461V202.192ZM405.461 190.92H404.992V196.556H405.461V190.92ZM405.461 179.648H404.992V185.284H405.461V179.648ZM405.461 168.376H404.992V174.012H405.461V168.376ZM405.461 157.104H404.992V162.74H405.461V157.104Z" fill="#E1E8FA"/>
</g>
<path d="M66.0261 210.614C66.0261 210.614 68.0269 215.7 67.3083 216.949C67.3083 216.949 67.67 220.707 72.5169 223.285C77.3639 225.864 82.8497 232.031 82.8497 232.031C83.3259 232.799 83.9554 233.46 84.6989 233.974C85.4423 234.488 86.2838 234.843 87.1706 235.018C87.2176 235.609 87.2505 235.957 87.2505 235.957L87.5041 236.065C87.4477 236.272 87.3914 236.488 87.335 236.708C87.2035 237.22 87.072 237.765 86.9499 238.329C86.1467 241.987 85.663 246.524 87.2833 249.075C87.5052 249.419 87.7029 249.779 87.8751 250.15C90.0638 254.791 88.5655 260.615 88.5655 260.615C88.5655 260.615 90.4818 273.822 91.3178 275.963C91.9143 277.48 91.3648 279.599 90.9937 280.702C90.8166 281.232 90.7247 281.787 90.7213 282.346V287.043C90.7213 287.043 89.782 290.969 90.2516 292.04C90.7213 293.111 89.4156 296.089 89.4156 296.089C89.4156 296.089 86.3017 309.056 87.6168 311.198C88.9319 313.34 88.8145 318.097 88.8145 318.097C88.8145 318.097 91.3272 336.659 92.29 337.354C93.0739 338.051 93.7582 338.852 94.3237 339.735C94.3237 339.735 92.6141 343.939 93.6427 345.672C93.6681 345.716 93.6963 345.758 93.7272 345.798C93.5393 346.268 93.1166 347.438 92.8865 348.33C92.8113 348.621 92.7362 348.992 92.6704 349.401C92.5395 350.189 92.4782 350.988 92.4873 351.787L92.4121 351.852L92.492 351.923C92.4964 352.277 92.5485 352.63 92.647 352.97C93.0039 354.041 95.6998 354.041 95.6998 354.041C95.6998 354.041 100.519 355.413 102.674 356.483C104.83 357.554 106.296 356.986 106.296 356.986C111.236 358.118 117.568 356.155 119.498 355.77C121.428 355.384 122.166 352.914 119.794 352.435C119.492 352.373 119.196 352.283 118.911 352.167C117.726 351.656 116.699 350.837 115.938 349.795C114.337 348.265 112.653 346.824 110.894 345.479C109.684 344.587 108.618 343.514 107.733 342.299C107.243 341.828 106.62 341.519 105.948 341.416C106.167 341.033 106.247 340.586 106.174 340.15C106.102 339.714 105.881 339.317 105.549 339.026C105.752 338.623 105.808 338.162 105.707 337.722C105.607 337.283 105.357 336.892 104.999 336.616L104.112 335.931L104.318 335.691C104.586 335.38 104.747 334.991 104.78 334.581C104.812 334.172 104.713 333.763 104.497 333.413C104.112 332.77 103.736 331.629 103.637 329.628C103.393 324.987 102.2 323.203 102.2 323.203L102.919 302.021C102.852 300.872 102.852 299.721 102.919 298.573C103.036 297.263 105.267 298.104 105.61 297.77C105.953 297.437 106.028 295.718 106.986 295.239C107.324 295.07 107.62 294.473 107.855 293.773C108.276 292.437 108.36 291.017 108.099 289.64C108.04 289.313 108.049 288.978 108.125 288.655C108.201 288.332 108.342 288.028 108.541 287.761C109.621 286.352 109.259 281.458 109.259 281.458L110.917 271.257C113.547 279.913 116.896 290.34 118.004 291.096C119.921 292.402 119.676 294.187 119.676 294.187C118.122 296.093 118.737 304.303 118.737 304.303C118.737 304.303 118.737 327.026 119.86 328.576C120.982 330.126 123.147 334.879 123.147 334.879C123.147 334.879 116.76 340.515 121.738 343.394L121.95 345.798C121.92 345.83 121.893 345.865 121.87 345.902C121.405 346.474 121.083 347.149 120.93 347.87L120.898 347.907C120.808 348.668 121.142 349.415 122.546 349.73C125.904 350.472 137.637 350.415 137.637 350.415L144.212 351.453C144.212 351.453 155.484 352.524 156.752 349.044C158.02 345.564 155.766 345.756 155.766 345.756H155.677L150.98 345.38C150.98 345.38 145.024 343.088 142.836 341.51C141.112 340.177 139.483 338.726 137.961 337.166C137.533 337.099 137.096 337.181 136.721 337.396L136.519 337.194L136.195 336.87L137.43 334.991C138.665 332.85 133.818 328.801 133.818 328.801C133.818 328.801 135.114 323.804 134.635 323.569C134.156 323.334 133.842 318.797 133.842 318.797C133.842 318.797 135.02 302.359 134.541 300.832C134.325 300.137 134.668 299.39 135.11 298.785C135.771 297.857 136.102 296.734 136.049 295.596C136.012 294.656 136.157 293.59 136.833 292.862C138.271 291.312 136.833 284.652 136.833 284.652L135.64 275.846V261.859C135.634 259.166 135.135 256.497 134.17 253.983C133.543 252.232 133.136 250.41 132.959 248.558L133.358 248.676C133.199 248.584 133.056 248.466 132.935 248.328C132.912 248.103 132.884 247.858 132.865 247.647C132.484 243.242 130.15 238.963 128.511 236.441C128.135 234.966 128.553 228.818 128.553 228.818C130.432 225.605 128.642 220.965 128.642 220.965C128.642 220.965 126.764 199.013 125.59 195.979C124.415 192.945 123.885 174.116 126.67 174.294C129.455 174.473 147.41 165.37 147.41 165.37C147.41 165.37 146.964 164.656 152.891 162.247C158.819 159.838 167.451 152.342 167.451 152.342L179.395 138.064C179.352 138.074 179.307 138.074 179.263 138.064L179.508 137.984C180.872 137.579 182.135 136.89 183.215 135.962C184.295 135.034 185.166 133.889 185.773 132.602C187.839 128.065 183.702 121.926 180.992 119.169L178.404 117.779C177.713 118.347 177.967 120.85 176.84 123.532C175.905 125.923 175.12 128.37 174.491 130.859L174.369 131.329L174.257 131.122L167.977 136.096L162.05 140.915C162.05 140.915 148.937 147.251 147.321 148.857C145.705 150.463 145.165 150.017 143.733 150.374C142.3 150.731 142.112 151.712 141.666 151.623C141.22 151.534 140.408 152.872 139.788 152.694C139.168 152.516 137.815 153.229 136.913 153.408C136.011 153.586 129.633 156.292 129.633 156.292C125.679 154.328 114.994 155.132 114.994 155.132C114.994 155.132 111.49 153.079 110.504 155.132C110.233 155.714 109.803 156.208 109.262 156.556C108.722 156.904 108.094 157.09 107.451 157.095L103.191 155.282C103.191 155.169 103.191 155.052 103.224 154.939V154.869C103.257 154.601 103.299 154.347 103.341 154.103C105.512 153.243 107.437 151.86 108.943 150.076C110.45 148.293 111.491 146.164 111.975 143.88C112.459 141.596 112.371 139.227 111.717 136.986C111.064 134.744 109.866 132.699 108.231 131.033L107.86 130.676C108.296 130.471 108.708 130.215 109.085 129.915C109.208 129.836 109.3 129.719 109.348 129.582C109.361 129.534 109.364 129.485 109.358 129.437C109.351 129.389 109.335 129.342 109.311 129.3C109.274 129.184 109.213 129.078 109.132 128.988C109.051 128.898 108.952 128.827 108.841 128.778C107.545 128.079 106.112 128.309 104.99 127.186C104.731 126.93 104.531 126.621 104.403 126.28C104.278 125.913 104.278 125.515 104.403 125.148C104.717 124.312 105.732 123.739 105.671 122.837H105.629C105.629 122.785 105.629 122.734 105.629 122.682C104.565 123.112 103.421 123.307 102.275 123.255L102.487 122.316H102.566L102.679 121.818L102.599 121.841L102.632 121.682L99.4759 122.527C99.3626 122.576 99.2395 122.597 99.1164 122.59C98.9933 122.582 98.8736 122.547 98.7668 122.485C98.6479 122.342 98.5642 122.173 98.5225 121.992C98.2501 121.33 97.3718 121.118 96.6814 121.306C96.0101 121.559 95.3777 121.906 94.8027 122.335C92.7597 123.579 90.2657 123.744 87.8892 124.044C85.5127 124.345 82.9859 124.857 81.3138 126.566C79.097 128.849 79.1252 132.442 77.7397 135.302C77.4797 135.76 77.2673 136.243 77.1056 136.744C76.9629 137.498 76.9757 138.273 77.1432 139.022C77.4813 141.22 77.8524 143.503 79.0219 145.386L78.8951 145.236C79.036 145.483 79.1925 145.727 79.3647 145.968C80.2054 147.152 81.389 148.115 82.2861 149.256C82.2297 149.148 82.1593 149.049 82.0982 148.941C82.6027 149.516 83.0003 150.176 83.2724 150.89C83.5823 151.773 83.6481 152.769 84.0191 153.605C84.143 153.932 84.3244 154.234 84.5546 154.498C84.8482 154.793 85.206 155.017 85.6002 155.153C85.9944 155.288 86.4144 155.33 86.8278 155.277C86.4404 156.292 85.9691 157.272 85.4188 158.208L85.3483 158.33C85.1107 158.319 84.8729 158.346 84.6438 158.41C83.6011 158.602 80.0317 161.669 80.0317 161.669L73.6582 167.305C64.0488 174.82 66.2046 186.491 66.2046 186.491V192.409C66.2046 192.409 64.3259 198.745 66.2046 205.09L66.0261 210.614ZM80.0598 210.703C80.0598 210.703 83.3851 208.026 82.2156 206.419C81.8399 205.903 81.6896 204.818 81.6567 203.601L85.9871 213.22C85.9871 213.22 88.5937 217.414 87.2458 219.288V219.321L82.0794 213.31C82.0794 213.31 81.8587 210.703 80.0598 210.703Z" fill="url(#paint1_linear)"/>
<path d="M173.346 134.447L176.164 139.947C177.061 139.872 177.946 139.687 178.799 139.398C180.148 138.992 181.397 138.306 182.463 137.384C183.529 136.462 184.388 135.326 184.984 134.048C187.511 128.459 180.64 120.428 178.691 119.376C176.741 118.324 177.624 121.503 176.164 125.012C175.245 127.387 174.478 129.819 173.867 132.292C173.548 133.569 173.346 134.447 173.346 134.447Z" fill="#CC818C"/>
<path d="M83.3853 163.041L87.9082 169.781C87.9082 169.781 109.278 179.977 105.201 168.01C103.403 162.736 103.187 158.87 103.511 156.203C103.513 156.178 103.513 156.153 103.511 156.128C103.933 152.788 105.192 151.337 105.192 151.337C105.192 151.337 84.3575 140.675 87.4573 147.969C88.1022 149.483 88.3667 151.131 88.2275 152.769C87.9687 155.124 87.2028 157.395 85.9825 159.425C85.2418 160.715 84.3716 161.927 83.3853 163.041Z" fill="#CC818C"/>
<path d="M89.8619 296.464C89.8619 296.464 86.7856 309.347 88.0865 311.494C89.3875 313.64 89.2654 318.351 89.2654 318.351C89.2654 318.351 91.75 336.795 92.6987 337.504C93.4719 338.192 94.1481 338.982 94.7089 339.852C94.7089 339.852 93.0181 344.028 94.0325 345.751C94.1858 346.021 94.4235 346.232 94.7089 346.353C96.2917 347.019 102.144 344.056 105.478 342.238C105.895 342.012 106.21 341.636 106.361 341.186C106.487 340.831 106.502 340.446 106.406 340.081C106.309 339.717 106.106 339.39 105.821 339.143C106.02 338.742 106.074 338.285 105.975 337.848C105.876 337.412 105.629 337.023 105.276 336.748L104.403 336.067L104.605 335.827C104.868 335.516 105.027 335.13 105.059 334.724C105.091 334.318 104.994 333.912 104.783 333.563C104.398 332.925 104.027 331.793 103.928 329.806C103.694 325.199 102.519 323.423 102.519 323.423L103.219 302.359C103.155 301.217 103.155 300.072 103.219 298.93C103.337 297.629 105.525 298.489 105.882 298.132C106.239 297.775 106.291 296.093 107.24 295.619C107.573 295.45 107.864 294.858 108.099 294.163C108.512 292.834 108.594 291.425 108.339 290.058C108.279 289.732 108.287 289.396 108.362 289.073C108.437 288.75 108.578 288.446 108.775 288.179C109.837 286.77 109.485 281.914 109.485 281.914L111.119 271.778C113.716 280.378 117.023 290.739 118.117 291.505C119.996 292.806 119.77 294.576 119.77 294.576C118.235 296.455 118.831 304.632 118.831 304.632C118.831 304.632 118.831 327.209 119.939 328.749C121.048 330.29 123.227 335.01 123.227 335.01C123.227 335.01 116.891 340.646 121.875 343.492L121.926 343.525C127.013 346.343 137.538 338.443 137.538 338.443L136.434 337.344L136.115 337.02L137.336 335.141C138.557 333.014 133.771 328.994 133.771 328.994C133.771 328.994 135.049 324.024 134.579 323.79C134.109 323.555 133.771 319.06 133.771 319.06C133.771 319.06 134.931 302.744 134.462 301.213C134.246 300.522 134.584 299.804 135.021 299.179C135.668 298.253 135.987 297.137 135.927 296.009C135.894 295.069 136.035 294.017 136.707 293.294C138.116 291.753 136.707 285.136 136.707 285.136L135.523 276.386V262.465C135.53 259.793 135.052 257.142 134.114 254.64C133.383 252.613 132.933 250.496 132.776 248.347C132.39 243.866 129.958 239.507 128.361 237.028C127.501 235.717 126.862 234.928 126.862 234.928L89.0353 233.449C89.0353 233.449 88.4153 235.13 87.8188 237.478C87.6873 237.986 87.5558 238.526 87.4337 239.089C86.6447 242.725 86.1656 247.229 87.7672 249.765C87.985 250.109 88.1795 250.466 88.3495 250.836C90.5147 255.443 89.0353 261.234 89.0353 261.234C89.0353 261.234 90.9139 274.357 91.75 276.484C92.337 277.992 91.7969 280.096 91.4306 281.181C91.2554 281.708 91.1651 282.26 91.1629 282.816V287.47C91.1629 287.47 90.2235 291.373 90.6932 292.434C91.1629 293.496 89.8619 296.464 89.8619 296.464Z" fill="#444053"/>
<path opacity="0.1" d="M88.1238 250.118C88.3359 250.455 88.5273 250.805 88.6968 251.165L90.8291 251.043C90.6224 249.949 92.0737 239.663 92.0737 239.663L87.7856 239.423C86.9966 243.077 86.5175 247.582 88.1238 250.118Z" fill="black"/>
<path d="M87.7577 249.756C87.9755 250.099 88.17 250.457 88.3401 250.827L90.4724 250.705C90.2657 249.61 91.7123 239.325 91.7123 239.325L87.4242 239.08C86.6446 242.711 86.1655 247.224 87.7577 249.756Z" fill="#444053"/>
<path opacity="0.05" d="M87.7577 249.756C87.9755 250.099 88.17 250.457 88.3401 250.827L90.4724 250.705C90.2657 249.61 91.7123 239.325 91.7123 239.325L87.4242 239.08C86.6446 242.711 86.1655 247.224 87.7577 249.756Z" fill="black"/>
<path opacity="0.1" d="M94.0332 345.752C94.1864 346.021 94.4241 346.232 94.7095 346.353C96.2923 347.02 102.144 344.056 105.479 342.239C105.896 342.012 106.211 341.636 106.362 341.187C104.483 340.839 103.22 342.953 103.22 342.953C102.903 342.756 102.55 342.624 102.182 342.565C101.814 342.506 101.437 342.52 101.075 342.608C100.712 342.695 100.37 342.854 100.069 343.074C99.7685 343.295 99.5143 343.572 99.3217 343.892C97.6919 346.287 94.207 345.277 94.207 345.277C94.207 345.277 94.1365 345.465 94.0332 345.752Z" fill="black"/>
<path d="M93.0515 353.004C93.4084 354.065 96.0667 354.065 96.0667 354.065C96.0667 354.065 100.829 355.427 102.957 356.493C105.084 357.559 106.531 356.991 106.531 356.991C111.406 358.118 117.676 356.164 119.564 355.784C121.452 355.403 122.194 352.966 119.86 352.496C119.561 352.435 119.269 352.345 118.987 352.229C117.825 351.719 116.821 350.909 116.079 349.88C114.5 348.353 112.838 346.914 111.101 345.569C109.903 344.682 108.85 343.616 107.978 342.408C105.202 339.956 103.22 343.347 103.22 343.347C102.903 343.151 102.55 343.019 102.182 342.96C101.813 342.901 101.437 342.915 101.074 343.002C100.712 343.09 100.37 343.248 100.069 343.469C99.7684 343.689 99.5142 343.967 99.3216 344.286C97.6918 346.677 94.2069 345.667 94.2069 345.667C94.2069 345.667 93.5822 347.269 93.291 348.42C93.2159 348.711 93.1407 349.077 93.075 349.486C92.8871 350.66 92.7885 352.205 93.0515 353.004Z" fill="#FF748F"/>
<path d="M101.181 345.521C101.359 345.521 101.505 345.376 101.505 345.197C101.505 345.018 101.359 344.873 101.181 344.873C101.002 344.873 100.856 345.018 100.856 345.197C100.856 345.376 101.002 345.521 101.181 345.521Z" fill="#575988"/>
<path d="M103.957 348.123C104.136 348.123 104.281 347.978 104.281 347.799C104.281 347.62 104.136 347.475 103.957 347.475C103.778 347.475 103.633 347.62 103.633 347.799C103.633 347.978 103.778 348.123 103.957 348.123Z" fill="#575988"/>
<path d="M106.779 350.457C106.958 350.457 107.103 350.312 107.103 350.133C107.103 349.954 106.958 349.809 106.779 349.809C106.6 349.809 106.455 349.954 106.455 350.133C106.455 350.312 106.6 350.457 106.779 350.457Z" fill="#575988"/>
<path d="M105.319 349.415C105.498 349.415 105.643 349.27 105.643 349.091C105.643 348.912 105.498 348.767 105.319 348.767C105.14 348.767 104.995 348.912 104.995 349.091C104.995 349.27 105.14 349.415 105.319 349.415Z" fill="#575988"/>
<path d="M102.511 346.738C102.69 346.738 102.835 346.593 102.835 346.414C102.835 346.235 102.69 346.09 102.511 346.09C102.332 346.09 102.187 346.235 102.187 346.414C102.187 346.593 102.332 346.738 102.511 346.738Z" fill="#575988"/>
<path d="M93.0515 353.003C93.4084 354.065 96.0667 354.065 96.0667 354.065C96.0667 354.065 100.829 355.427 102.957 356.493C105.084 357.559 106.531 356.991 106.531 356.991C111.406 358.118 117.676 356.164 119.564 355.784C121.452 355.403 122.194 352.966 119.86 352.496C119.561 352.435 119.269 352.345 118.987 352.229C116.923 352.936 114.769 353.344 112.59 353.44C107.771 353.647 103.957 353.44 103.957 353.44L99.082 351.872C98.158 351.314 97.1335 350.944 96.0667 350.782C95.0335 350.679 93.7701 349.937 93.075 349.481C92.8871 350.66 92.7885 352.205 93.0515 353.003Z" fill="#DCE6F2"/>
<path opacity="0.5" d="M105.187 356.061C105.459 356.061 105.729 356.034 105.995 355.981L105.925 355.633C104.932 355.784 103.917 355.642 103.003 355.225C102.567 355.055 102.134 354.849 101.712 354.652C101.214 354.417 100.697 354.182 100.171 353.98L99.7015 353.811C99.4385 353.722 99.1661 353.632 98.9125 353.524C98.7622 353.463 98.6213 353.393 98.4757 353.322C98.1288 353.141 97.7614 353.002 97.3814 352.909C97.1842 352.871 96.9851 352.844 96.7849 352.829C96.6038 352.817 96.4235 352.795 96.2448 352.764C95.89 352.676 95.5465 352.549 95.2209 352.383C94.8713 352.205 94.5026 352.068 94.1219 351.974L93.8588 351.932C93.5809 351.926 93.3132 351.826 93.098 351.65L92.835 351.89C93.1025 352.128 93.4445 352.266 93.8025 352.28L94.0514 352.322C94.4048 352.413 94.7479 352.541 95.0753 352.702C95.4239 352.882 95.7929 353.019 96.1743 353.111C96.3669 353.146 96.5614 353.169 96.7567 353.182C96.9427 353.196 97.1277 353.221 97.3109 353.257C97.6638 353.344 98.0046 353.475 98.3254 353.646C98.471 353.717 98.6213 353.787 98.7716 353.848C99.0393 353.966 99.3211 354.06 99.5888 354.149L100.058 354.313C100.57 354.501 101.078 354.741 101.571 354.971C102.064 355.201 102.435 355.38 102.886 355.553C103.614 355.866 104.395 356.038 105.187 356.061Z" fill="#575988"/>
<path opacity="0.1" d="M104.046 297.319C104.046 297.319 101.594 293.773 97.3951 293.801C93.1963 293.83 91.3975 293.332 91.3975 293.332C91.3975 293.332 94.084 294.929 95.9486 295.135C97.8131 295.342 104.046 297.319 104.046 297.319Z" fill="black"/>
<path opacity="0.1" d="M102.628 298.132C102.628 298.132 100.411 296.596 99.1428 296.535C97.8747 296.474 96.7944 296.356 96.7944 296.356C97.3901 296.771 98.0481 297.088 98.7436 297.296C99.7909 297.615 102.628 298.132 102.628 298.132Z" fill="black"/>
<path opacity="0.1" d="M102.153 299.212C102.153 299.212 98.8138 299.475 98.7856 300.363L102.153 299.212Z" fill="black"/>
<path opacity="0.1" d="M133.264 249.362C133.09 249.395 130.103 246.262 129.897 245.017C129.732 244.235 129.264 243.549 128.596 243.11C128.596 243.11 126.675 243.881 128.389 246.238C130.103 248.596 133.264 249.362 133.264 249.362Z" fill="black"/>
<path opacity="0.1" d="M87.4667 147.969C88.1477 149.575 88.7442 149.697 88.6174 151.257C89.41 152.095 90.3215 152.812 91.3226 153.384C93.4362 154.638 95.7375 157.095 98.3677 157.095C100.136 157.1 101.889 156.77 103.534 156.122C103.957 152.783 105.215 151.332 105.215 151.332C105.215 151.332 84.3669 140.675 87.4667 147.969Z" fill="black"/>
<path d="M84.2725 142.296C84.2725 145.083 85.0988 147.807 86.6471 150.124C88.1953 152.441 90.3959 154.247 92.9705 155.313C95.5451 156.38 98.3782 156.659 101.111 156.115C103.845 155.572 106.355 154.23 108.326 152.259C110.296 150.289 111.638 147.778 112.182 145.045C112.726 142.312 112.447 139.478 111.38 136.904C110.314 134.329 108.508 132.129 106.191 130.58C103.873 129.032 101.149 128.206 98.3625 128.206C94.6256 128.206 91.0417 129.69 88.3993 132.333C85.7569 134.975 84.2725 138.559 84.2725 142.296Z" fill="#CC818C"/>
<path opacity="0.1" d="M83.3853 163.041L87.9082 169.781C87.9082 169.781 109.278 179.978 105.201 168.01C103.403 162.736 103.187 158.871 103.511 156.203H103.478C103.224 157.087 103.081 157.999 103.05 158.918C102.985 160.759 102.938 163.084 98.3536 163.854C90.745 165.136 86.6542 160.374 85.9403 159.439C85.2121 160.723 84.3561 161.93 83.3853 163.041Z" fill="black"/>
<path opacity="0.1" d="M173.346 134.447L176.164 139.947C177.061 139.872 177.946 139.687 178.799 139.398L179.043 139.102C177.892 139.543 173.989 132.184 173.989 132.184L173.867 132.282C173.548 133.569 173.346 134.447 173.346 134.447Z" fill="black"/>
<path opacity="0.1" d="M87.8193 237.474C96.945 241.433 128.521 238.057 128.521 238.057C128.423 237.721 128.369 237.373 128.361 237.023C127.502 235.713 126.863 234.924 126.863 234.924L89.0358 233.444C89.0358 233.444 88.4158 235.126 87.8193 237.474Z" fill="black"/>
<path d="M103.473 156.541L107.7 158.344C108.337 158.339 108.958 158.153 109.493 157.807C110.027 157.461 110.451 156.969 110.716 156.391C111.692 154.352 115.149 156.391 115.149 156.391C115.149 156.391 125.703 155.592 129.601 157.546C129.601 157.546 135.899 154.883 136.787 154.728C137.675 154.573 139.004 153.84 139.605 154.019C140.206 154.197 141.014 152.863 141.484 152.953C141.953 153.042 142.103 152.065 143.527 151.713C144.95 151.36 145.476 151.802 147.073 150.205C148.669 148.608 161.632 142.315 161.632 142.315L167.447 137.505L173.651 132.541C173.651 132.541 177.554 139.9 178.709 139.454L166.916 153.643C166.916 153.643 158.401 161.092 152.549 163.506C146.697 165.92 147.143 166.606 147.143 166.606C147.143 166.606 129.408 175.652 126.656 175.473C123.904 175.295 124.439 194.006 125.595 197.022C126.75 200.037 128.619 221.83 128.619 221.83C128.619 221.83 130.39 226.442 128.53 229.635C128.53 229.635 128.089 236.211 128.53 237.347C128.53 237.347 96.757 240.748 87.7393 236.727C87.7393 236.727 86.4101 222.008 87.7393 220.148C89.0685 218.288 86.4994 214.118 86.4994 214.118L80.8258 201.437L66.994 187.516C66.994 187.516 64.8664 175.901 74.3537 168.452L80.6379 162.867C80.6379 162.867 84.1604 159.819 85.189 159.627C86.2176 159.434 85.8418 159.627 85.8418 159.627C85.8418 159.627 89.9468 165.615 98.3726 164.196C102.938 163.426 102.989 161.097 103.069 159.26C103.094 158.341 103.229 157.428 103.473 156.541Z" fill="#67647E"/>
<path opacity="0.1" d="M86.1367 204.273C86.1367 204.273 105.642 205.072 109.545 211.191C109.545 211.191 104.491 208.796 99.9685 209.505C95.4456 210.214 86.1367 204.273 86.1367 204.273Z" fill="black"/>
<path opacity="0.1" d="M107.681 225.643C107.681 225.643 98.4618 226.263 96.508 224.314C94.5542 222.365 94.5542 221.209 94.5542 221.209L107.681 225.643Z" fill="black"/>
<path opacity="0.1" d="M84.273 185.477C84.273 185.477 92.0789 194.696 82.5869 198.689L84.273 185.477Z" fill="black"/>
<path opacity="0.1" d="M130.469 167.653C130.469 167.653 127.651 173.444 126.214 173.829L130.469 167.653Z" fill="black"/>
<path opacity="0.1" d="M140.046 165.169C140.046 165.169 132.954 171.556 131.625 172.176C131.625 172.176 138.985 165.169 140.046 165.169Z" fill="black"/>
<path opacity="0.1" d="M111.763 159.053C111.763 159.053 118.587 169.25 114.153 175.454C114.153 175.454 116.638 168.094 111.763 159.053Z" fill="black"/>
<path d="M94.5542 236.286L96.6395 238.249L96.9307 238.521L99.3495 240.804C99.5233 240.935 99.6924 241.067 99.8615 241.184C109.701 248.229 111.674 237.526 111.674 237.526C111.674 237.526 116.018 240.344 116.638 238.056C117.258 235.769 106.545 232.472 104.934 232.65C104.792 232.667 104.648 232.667 104.506 232.65C103.734 232.517 102.989 232.253 102.304 231.871L101.834 231.612C100.937 231.11 100.242 230.612 100.242 230.612L94.5542 236.286Z" fill="#CC818C"/>
<path opacity="0.1" d="M83.9209 142.296C83.9194 144.739 84.5533 147.141 85.7604 149.265C86.9676 151.39 88.7064 153.164 90.8062 154.413C91.0026 154.084 91.1753 153.742 91.3229 153.389C91.8301 152.206 92.1354 150.947 92.6474 149.768C93.2135 148.478 94.0182 147.307 95.0192 146.316C95.1861 146.12 95.4015 145.971 95.6438 145.884C95.8728 145.853 96.1057 145.869 96.3284 145.93C96.5512 145.991 96.7593 146.097 96.9401 146.241C97.5364 146.646 98.2018 146.939 98.9033 147.105C99.2557 147.182 99.622 147.168 99.9673 147.063C100.313 146.959 100.625 146.768 100.876 146.508C101.425 145.851 101.346 144.888 101.191 144.047C100.843 142.211 100.251 140.407 100.251 138.543C100.251 136.678 100.96 134.663 102.6 133.743C104.009 132.926 105.807 133.132 107.395 132.695C107.641 132.629 107.883 132.546 108.118 132.447C106.161 130.434 103.648 129.051 100.9 128.477C98.1526 127.902 95.2958 128.161 92.6963 129.221C90.0969 130.281 87.8732 132.093 86.3105 134.425C84.7478 136.757 83.9174 139.502 83.9256 142.31L83.9209 142.296Z" fill="black"/>
<path d="M109.066 130.207C109.324 130.343 109.601 130.587 109.536 130.869C109.489 131.004 109.398 131.12 109.277 131.198C108.622 131.73 107.862 132.121 107.046 132.344C105.459 132.776 103.679 132.574 102.246 133.386C100.626 134.326 99.8981 136.322 99.8981 138.186C99.8981 140.051 100.481 141.859 100.837 143.691C100.997 144.531 101.077 145.494 100.527 146.152C100.277 146.412 99.9646 146.604 99.6192 146.708C99.2737 146.813 98.9072 146.826 98.5549 146.748C97.8517 146.585 97.1846 146.294 96.587 145.889C96.4072 145.745 96.2001 145.638 95.9781 145.576C95.7561 145.514 95.5239 145.497 95.2954 145.527C95.054 145.619 94.8381 145.767 94.666 145.959C93.6746 146.955 92.8781 148.127 92.3177 149.416C91.801 150.59 91.4957 151.849 90.9932 153.032C90.5505 154.251 89.7164 155.288 88.6214 155.982C87.4989 156.602 85.9349 156.555 85.0707 155.606C84.2065 154.658 84.2675 153.324 83.8589 152.164C83.1544 150.153 81.1865 148.876 79.956 147.157C78.5798 145.203 78.1806 142.747 77.8237 140.389C77.6564 139.645 77.6437 138.874 77.7861 138.125C77.9483 137.627 78.1575 137.146 78.4108 136.688C79.7775 133.87 79.754 130.282 81.9427 128.013C83.5818 126.313 86.0758 125.792 88.4241 125.505C90.7724 125.219 93.2335 125.035 95.2484 123.81C95.8122 123.38 96.4356 123.035 97.0989 122.786C97.7799 122.598 98.6441 122.786 98.9118 123.467C98.9545 123.648 99.038 123.816 99.156 123.96C99.2607 124.021 99.3783 124.056 99.4991 124.062C99.6199 124.069 99.7406 124.047 99.8512 123.997L102.974 123.161L102.618 124.735C103.742 124.786 104.863 124.592 105.905 124.167C105.966 125.054 104.966 125.632 104.651 126.463C104.541 126.844 104.54 127.249 104.648 127.631C104.756 128.012 104.969 128.356 105.262 128.624C106.375 129.727 107.789 129.521 109.066 130.207Z" fill="#585268"/>
<path opacity="0.1" d="M121.72 342.07L121.847 343.479L121.898 343.511C126.985 346.329 137.51 338.43 137.51 338.43L136.406 337.331C136.23 337.532 136.098 337.768 136.017 338.024C135.936 338.279 135.909 338.548 135.937 338.815L133.79 338.932L131.216 341.708C131.216 341.708 124.265 342.516 122.382 342.065L121.72 342.07Z" fill="black"/>
<path d="M122.608 349.796C125.919 350.533 137.511 350.477 137.511 350.477L144.011 351.51C144.011 351.51 155.151 352.571 156.391 349.115C157.631 345.658 155.414 345.865 155.414 345.865H155.33L150.69 345.489C150.69 345.489 144.809 343.211 142.649 341.642C140.945 340.316 139.335 338.874 137.83 337.326C137.83 337.326 135.895 336.95 135.928 339.205L133.782 339.322L131.208 342.102C131.208 342.102 124.257 342.906 122.373 342.455H121.72L122.021 345.883L121.936 345.987C121.504 346.508 119.654 349.124 122.608 349.796Z" fill="#FF748F"/>
<path d="M134.607 341.496C134.786 341.496 134.931 341.351 134.931 341.172C134.931 340.993 134.786 340.848 134.607 340.848C134.428 340.848 134.283 340.993 134.283 341.172C134.283 341.351 134.428 341.496 134.607 341.496Z" fill="#575988"/>
<path d="M142.944 345.113C143.123 345.113 143.268 344.968 143.268 344.789C143.268 344.61 143.123 344.465 142.944 344.465C142.765 344.465 142.62 344.61 142.62 344.789C142.62 344.968 142.765 345.113 142.944 345.113Z" fill="#575988"/>
<path d="M147.237 346.414C147.416 346.414 147.561 346.269 147.561 346.09C147.561 345.911 147.416 345.766 147.237 345.766C147.058 345.766 146.913 345.911 146.913 346.09C146.913 346.269 147.058 346.414 147.237 346.414Z" fill="#575988"/>
<path d="M140.756 344.423C140.935 344.423 141.08 344.278 141.08 344.099C141.08 343.92 140.935 343.775 140.756 343.775C140.577 343.775 140.432 343.92 140.432 344.099C140.432 344.278 140.577 344.423 140.756 344.423Z" fill="#575988"/>
<path d="M145.1 345.765C145.279 345.765 145.424 345.62 145.424 345.441C145.424 345.262 145.279 345.117 145.1 345.117C144.921 345.117 144.776 345.262 144.776 345.441C144.776 345.62 144.921 345.765 145.1 345.765Z" fill="#575988"/>
<path d="M138.543 343.394C138.722 343.394 138.867 343.249 138.867 343.07C138.867 342.891 138.722 342.746 138.543 342.746C138.364 342.746 138.219 342.891 138.219 343.07C138.219 343.249 138.364 343.394 138.543 343.394Z" fill="#575988"/>
<path d="M136.359 342.445C136.538 342.445 136.683 342.3 136.683 342.121C136.683 341.942 136.538 341.797 136.359 341.797C136.18 341.797 136.035 341.942 136.035 342.121C136.035 342.3 136.18 342.445 136.359 342.445Z" fill="#575988"/>
<path d="M122.608 349.795C125.919 350.533 137.511 350.476 137.511 350.476L144.011 351.51C144.011 351.51 155.151 352.571 156.391 349.114C157.631 345.658 155.414 345.864 155.414 345.864H155.33C154.616 346.78 153.193 347.827 150.394 347.879L142.381 348.203L134.077 347.611C134.077 347.611 126.304 347.376 125.036 347.113C123.971 346.826 122.934 346.444 121.936 345.972C121.504 346.508 119.654 349.124 122.608 349.795Z" fill="#DCE6F2"/>
<path opacity="0.5" d="M143.381 350.735C143.825 350.737 144.267 350.682 144.696 350.57L144.602 350.227C143.512 350.463 142.379 350.411 141.315 350.077C140.92 349.979 140.53 349.861 140.145 349.744C139.435 349.518 138.712 349.336 137.98 349.199C136.79 349.045 135.588 349.01 134.392 349.096H134.138C130.582 349.282 127.016 349.125 123.491 348.626C122.697 348.494 121.795 348.307 121.217 347.715L120.964 347.959C121.617 348.631 122.584 348.837 123.434 348.974C126.983 349.479 130.573 349.637 134.152 349.443H134.406C135.579 349.36 136.757 349.395 137.924 349.546C138.64 349.68 139.348 349.859 140.042 350.082C140.436 350.199 140.831 350.312 141.225 350.415C141.928 350.612 142.652 350.719 143.381 350.735Z" fill="#575988"/>
<path opacity="0.1" d="M94.5542 236.286L96.6395 238.249L101.806 231.608C100.909 231.105 100.214 230.607 100.214 230.607L94.5542 236.286Z" fill="black"/>
<path d="M71.0606 181.842L66.9839 187.516V193.457C66.9839 193.457 65.1052 199.751 66.9839 206.049L66.7772 211.544C66.7772 211.544 68.7545 216.598 68.0453 217.842C68.0453 217.842 68.4023 221.567 73.1882 224.136C77.9741 226.705 83.3847 232.848 83.3847 232.848C83.3847 232.848 85.4278 236.751 90.9229 235.863L96.155 238.08L102.186 230.368L94.0274 225.935C94.0274 225.935 91.2094 222.121 89.5045 222.299L82.591 214.207C82.591 214.207 82.4172 211.633 80.6419 211.633C80.6419 211.633 83.9296 208.975 82.7695 207.378C81.6094 205.781 82.591 198.689 82.591 198.689L71.0606 181.842Z" fill="#67647E"/>
<path opacity="0.1" d="M78.6887 207.73C78.6887 207.73 69.3751 207.556 68.2244 209.947C67.0737 212.337 75.8519 206.401 78.6887 207.73Z" fill="black"/>
<path opacity="0.1" d="M96.8923 238.057C96.8903 238.214 96.9029 238.371 96.9299 238.526C97.037 239.24 97.3871 239.894 97.9211 240.38C98.4551 240.865 99.1401 241.151 99.8606 241.189H100.03C100.441 241.189 100.848 241.108 101.228 240.951C101.608 240.793 101.953 240.562 102.243 240.272C102.534 239.981 102.764 239.635 102.921 239.255C103.078 238.875 103.158 238.468 103.158 238.057C103.158 237.71 103.099 237.365 102.984 237.037C104.463 235.849 104.543 233.712 104.506 232.646C103.733 232.512 102.988 232.249 102.303 231.866C101.916 232.973 101.397 234.03 100.758 235.013C100.297 234.901 99.817 234.894 99.3537 234.995C98.8903 235.095 98.4559 235.3 98.0834 235.593C97.7109 235.886 97.4101 236.261 97.2037 236.688C96.9973 237.114 96.8908 237.583 96.8923 238.057Z" fill="black"/>
<path d="M102.022 231.171C102.022 231.171 104.121 231.641 104.121 232.026C104.121 232.411 104.591 235.873 102.285 237.291C99.9785 238.709 100.218 235.309 100.218 235.309C100.218 235.309 102.2 232.265 102.022 231.171Z" fill="#575988"/>
<path d="M99.6737 241.189C101.404 241.189 102.806 239.787 102.806 238.057C102.806 236.326 101.404 234.924 99.6737 234.924C97.9436 234.924 96.541 236.326 96.541 238.057C96.541 239.787 97.9436 241.189 99.6737 241.189Z" fill="#E4AAB4"/>
<path d="M99.6731 240.748C101.159 240.748 102.364 239.543 102.364 238.056C102.364 236.57 101.159 235.365 99.6731 235.365C98.1868 235.365 96.9819 236.57 96.9819 238.056C96.9819 239.543 98.1868 240.748 99.6731 240.748Z" fill="#DCE6F2"/>
<path opacity="0.1" d="M111.88 239.268C111.88 239.268 105.258 244.768 96.7476 241.279V243.942C96.7476 243.942 102.421 247.84 107.55 245.477C112.679 243.115 111.88 239.268 111.88 239.268Z" fill="black"/>
<path opacity="0.1" d="M111.88 238.559C111.88 238.559 105.258 244.054 96.7476 240.569V243.228C96.7476 243.228 102.421 247.13 107.55 244.768C112.679 242.406 111.88 238.559 111.88 238.559Z" fill="black"/>
<path d="M111.88 238.559C111.88 238.559 105.258 244.054 96.7476 240.569V243.228C96.7476 243.228 102.421 247.13 107.55 244.768C112.679 242.406 111.88 238.559 111.88 238.559Z" fill="#444053"/>
<path opacity="0.05" d="M111.71 238.559C111.71 238.559 105.088 244.054 96.5776 240.569V243.228C96.5776 243.228 102.251 247.13 107.38 244.768C112.509 242.406 111.71 238.559 111.71 238.559Z" fill="black"/>
<path opacity="0.1" d="M132.686 337.307C132.686 337.307 123.819 338.937 122.518 339.289C121.217 339.641 122.875 340.266 122.875 340.266C122.875 340.266 130.967 338.815 132.686 337.307Z" fill="black"/>
<path opacity="0.1" d="M132.893 332.61C132.747 332.61 126.867 330.952 125.594 328.115L132.893 332.61Z" fill="black"/>
<path opacity="0.1" d="M124.312 298.676C124.312 298.676 121.931 301.809 120.391 301.725C118.85 301.64 122.913 298.559 124.312 298.676Z" fill="black"/>
<path opacity="0.1" d="M122.983 303.881C122.983 303.881 121.978 306.098 120.499 305.388L122.983 303.881Z" fill="black"/>
<path opacity="0.05" d="M117.408 255.199L111.119 271.783C111.119 271.783 110.232 261.113 112.106 257.919C112.639 257.008 113.421 256.268 114.361 255.786C115.3 255.305 116.357 255.101 117.408 255.199Z" fill="black"/>
<g opacity="0.1">
<path opacity="0.1" d="M101.928 123.804L101.984 123.565L102.994 123.292L102.881 123.79C102.564 123.814 102.246 123.819 101.928 123.804Z" fill="black"/>
<path opacity="0.1" d="M104.704 127.792L104.601 127.693C104.307 127.426 104.094 127.082 103.986 126.7C103.878 126.318 103.879 125.914 103.99 125.533C104.114 125.242 104.284 124.972 104.493 124.734C104.991 124.637 105.478 124.493 105.949 124.302C106.01 125.19 105.009 125.767 104.699 126.599C104.565 126.985 104.566 127.406 104.704 127.792Z" fill="black"/>
<path opacity="0.1" d="M87.9364 155.051C89.0229 154.354 89.8484 153.317 90.2847 152.102C90.7873 150.923 91.0972 149.664 91.6092 148.485C92.1685 147.197 92.9651 146.026 93.9575 145.033C94.127 144.838 94.3437 144.689 94.5869 144.601C94.8159 144.569 95.0489 144.585 95.2718 144.646C95.4947 144.707 95.7027 144.813 95.8832 144.958C96.4786 145.364 97.1443 145.655 97.8464 145.817C98.1983 145.897 98.5647 145.884 98.9102 145.78C99.2558 145.676 99.5687 145.485 99.819 145.226C100.369 144.568 100.289 143.601 100.129 142.76C99.7861 140.928 99.1896 139.12 99.1896 137.255C99.1896 135.391 99.8941 133.381 101.514 132.46C102.947 131.643 104.727 131.845 106.315 131.413C107.129 131.192 107.889 130.803 108.545 130.271L108.668 130.159C108.801 130.211 108.932 130.272 109.057 130.342C109.311 130.478 109.588 130.722 109.527 131.004C109.476 131.139 109.384 131.254 109.264 131.333C108.608 131.866 107.848 132.256 107.033 132.479C105.446 132.911 103.666 132.704 102.233 133.522C100.613 134.461 99.8847 136.457 99.9082 138.322C99.9317 140.186 100.486 141.994 100.848 143.826C101.007 144.667 101.087 145.63 100.538 146.287C100.288 146.547 99.9748 146.739 99.6293 146.843C99.2839 146.948 98.9173 146.962 98.565 146.884C97.8636 146.719 97.1983 146.428 96.6018 146.024C96.421 145.88 96.2131 145.774 95.9904 145.712C95.7677 145.649 95.5348 145.633 95.3055 145.662C95.0632 145.752 94.847 145.901 94.6761 146.095C93.6847 147.09 92.8883 148.263 92.3278 149.551C91.8158 150.726 91.5059 151.984 91.0033 153.168C90.5668 154.382 89.7411 155.417 88.655 156.113C87.5278 156.737 85.9685 156.69 85.0996 155.737C84.8698 155.476 84.69 155.175 84.5688 154.849C85.0477 155.211 85.6229 155.424 86.2221 155.459C86.8213 155.495 87.4177 155.353 87.9364 155.051Z" fill="black"/>
<path opacity="0.1" d="M82.8642 150.542C81.9765 149.424 80.8117 148.466 79.9804 147.287C79.8107 147.055 79.6539 146.814 79.5107 146.564C80.5957 147.931 82.0657 149.035 82.8642 150.542Z" fill="black"/>
</g>
<g opacity="0.1">
<path opacity="0.2" d="M316.731 121.339L193.659 145.879V76.6782L303.463 54.7822L316.731 121.339Z" fill="black"/>
</g>
<g opacity="0.5">
<path d="M405.465 67.252H215.982V135.114H405.465V67.252Z" fill="#E1E8FA"/>
<path d="M405.466 67.2563H399.83V67.726H405.466V67.2563ZM394.194 67.2563H388.558V67.726H394.194V67.2563ZM382.922 67.2563H377.286V67.726H382.922V67.2563ZM371.65 67.2563H366.014V67.726H371.65V67.2563ZM360.378 67.2563H354.742V67.726H360.378V67.2563ZM349.106 67.2563H343.47V67.726H349.106V67.2563ZM337.834 67.2563H332.198V67.726H337.834V67.2563ZM326.562 67.2563H320.926V67.726H326.562V67.2563ZM315.29 67.2563H309.654V67.726H315.29V67.2563ZM304.018 67.2563H298.381V67.726H304.018V67.2563ZM292.745 67.2563H287.109V67.726H292.745V67.2563ZM281.473 67.2563H275.837V67.726H281.473V67.2563ZM270.201 67.2563H264.565V67.726H270.201V67.2563ZM258.929 67.2563H253.293V67.726H258.929V67.2563ZM247.657 67.2563H242.021V67.726H247.657V67.2563ZM236.385 67.2563H230.749V67.726H236.385V67.2563ZM225.113 67.2563H219.477V67.726H225.113V67.2563ZM216.448 69.4027H215.978V75.0388H216.448V69.4027ZM216.448 80.6748H215.978V86.3108H216.448V80.6748ZM216.448 91.9469H215.978V97.5829H216.448V91.9469ZM216.448 103.219H215.978V108.855H216.448V103.219ZM216.448 114.491H215.978V120.127H216.448V114.491ZM216.448 125.763H215.978V131.399H216.448V125.763ZM223.521 134.654H217.885V135.124H223.521V134.654ZM234.793 134.654H229.157V135.124H234.793V134.654ZM246.065 134.654H240.429V135.124H246.065V134.654ZM257.337 134.654H251.701V135.124H257.337V134.654ZM268.609 134.654H262.973V135.124H268.609V134.654ZM279.881 134.654H274.245V135.124H279.881V134.654ZM291.153 134.654H285.517V135.124H291.153V134.654ZM302.425 134.654H296.789V135.124H302.425V134.654ZM313.697 134.654H308.061V135.124H313.697V134.654ZM324.969 134.654H319.333V135.124H324.969V134.654ZM336.241 134.654H330.605V135.124H336.241V134.654ZM347.514 134.654H341.878V135.124H347.514V134.654ZM358.786 134.654H353.15V135.124H358.786V134.654ZM370.058 134.654H364.422V135.124H370.058V134.654ZM381.33 134.654H375.694V135.124H381.33V134.654ZM392.602 134.654H386.966V135.124H392.602V134.654ZM403.874 134.654H398.238V135.124H403.874V134.654ZM405.461 125.439H404.992V131.075H405.461V125.439ZM405.461 114.167H404.992V119.803H405.461V114.167ZM405.461 102.895H404.992V108.531H405.461V102.895ZM405.461 91.6228H404.992V97.2588H405.461V91.6228ZM405.461 80.3507H404.992V85.9868H405.461V80.3507ZM405.461 69.0787H404.992V74.7147H405.461V69.0787Z" fill="#E1E8FA"/>
</g>
<g opacity="0.5">
<path d="M405.466 242.166H215.983V310.028H405.466V242.166Z" fill="#E1E8FA"/>
<path d="M405.466 242.17H399.83V242.64H405.466V242.17ZM394.194 242.17H388.558V242.64H394.194V242.17ZM382.922 242.17H377.286V242.64H382.922V242.17ZM371.65 242.17H366.014V242.64H371.65V242.17ZM360.378 242.17H354.742V242.64H360.378V242.17ZM349.106 242.17H343.47V242.64H349.106V242.17ZM337.834 242.17H332.198V242.64H337.834V242.17ZM326.562 242.17H320.926V242.64H326.562V242.17ZM315.29 242.17H309.654V242.64H315.29V242.17ZM304.018 242.17H298.381V242.64H304.018V242.17ZM292.745 242.17H287.109V242.64H292.745V242.17ZM281.473 242.17H275.837V242.64H281.473V242.17ZM270.201 242.17H264.565V242.64H270.201V242.17ZM258.929 242.17H253.293V242.64H258.929V242.17ZM247.657 242.17H242.021V242.64H247.657V242.17ZM236.385 242.17H230.749V242.64H236.385V242.17ZM225.113 242.17H219.477V242.64H225.113V242.17ZM216.448 244.312H215.978V249.948H216.448V244.312ZM216.448 255.584H215.978V261.22H216.448V255.584ZM216.448 266.856H215.978V272.492H216.448V266.856ZM216.448 278.128H215.978V283.764H216.448V278.128ZM216.448 289.4H215.978V295.036H216.448V289.4ZM216.448 300.672H215.978V306.308H216.448V300.672ZM223.521 309.563H217.885V310.032H223.521V309.563ZM234.793 309.563H229.157V310.032H234.793V309.563ZM246.065 309.563H240.429V310.032H246.065V309.563ZM257.337 309.563H251.701V310.032H257.337V309.563ZM268.609 309.563H262.973V310.032H268.609V309.563ZM279.881 309.563H274.245V310.032H279.881V309.563ZM291.153 309.563H285.517V310.032H291.153V309.563ZM302.425 309.563H296.789V310.032H302.425V309.563ZM313.697 309.563H308.061V310.032H313.697V309.563ZM324.969 309.563H319.333V310.032H324.969V309.563ZM336.241 309.563H330.605V310.032H336.241V309.563ZM347.514 309.563H341.878V310.032H347.514V309.563ZM358.786 309.563H353.15V310.032H358.786V309.563ZM370.058 309.563H364.422V310.032H370.058V309.563ZM381.33 309.563H375.694V310.032H381.33V309.563ZM392.602 309.563H386.966V310.032H392.602V309.563ZM403.874 309.563H398.238V310.032H403.874V309.563ZM405.461 300.348H404.992V305.984H405.461V300.348ZM405.461 289.076H404.992V294.712H405.461V289.076ZM405.461 277.804H404.992V283.44H405.461V277.804ZM405.461 266.532H404.992V272.168H405.461V266.532ZM405.461 255.26H404.992V260.896H405.461V255.26ZM405.461 243.988H404.992V249.624H405.461V243.988Z" fill="#E1E8FA"/>
</g>
<path d="M295.566 50.1292L109.743 87.1929L123.017 153.744L308.84 116.681L295.566 50.1292Z" fill="#F6F7F9"/>
<path opacity="0.4" d="M295.566 50.1292L109.743 87.1929L123.017 153.744L308.84 116.681L295.566 50.1292Z" fill="#D38C38"/>
<path d="M183.749 85.1464C183.147 86.1954 182.906 87.4133 183.064 88.6126C184.258 88.3473 185.301 87.6268 185.972 86.604C186.643 85.5813 186.889 84.3372 186.657 83.1362C185.494 83.4701 184.472 84.1762 183.749 85.1464Z" fill="#F6F7F9"/>
<path d="M257.176 71.9911C257.92 72.9452 258.956 73.6284 260.126 73.9356C260.332 72.73 260.059 71.4917 259.367 70.484C258.674 69.4762 257.615 68.7784 256.416 68.5391C256.284 69.7421 256.551 70.955 257.176 71.9911Z" fill="#F6F7F9"/>
<path d="M230.1 71.3143C229.949 72.1308 230.071 72.9741 230.447 73.7143C231.16 73.2696 231.671 72.5641 231.871 71.7481C232.071 70.9322 231.944 70.0704 231.518 69.3464C230.843 69.8293 230.344 70.5207 230.1 71.3143Z" fill="#F6F7F9"/>
<path d="M195.824 103.074C195.674 103.892 195.796 104.736 196.172 105.478C196.885 105.033 197.396 104.326 197.596 103.51C197.796 102.693 197.669 101.83 197.243 101.106C196.567 101.589 196.069 102.28 195.824 103.074Z" fill="#F6F7F9"/>
<path d="M213.629 109.01C214.041 109.732 214.677 110.3 215.442 110.626C215.703 109.826 215.641 108.957 215.27 108.203C214.898 107.448 214.248 106.868 213.456 106.587C213.246 107.392 213.307 108.243 213.629 109.01Z" fill="#F6F7F9"/>
<path d="M207.092 85.2825C207.301 86.4755 207.897 87.5665 208.787 88.3871C209.535 87.418 209.875 86.1954 209.734 84.9795C209.594 83.7637 208.985 82.6507 208.036 81.8774C207.357 82.8785 207.025 84.0748 207.092 85.2825Z" fill="#F6F7F9"/>
<path d="M229.55 86.3723C228.971 87.4341 228.756 88.6569 228.94 89.8526C230.129 89.562 231.158 88.8187 231.807 87.7809C232.456 86.743 232.674 85.4928 232.415 84.2964C231.258 84.6546 230.251 85.3842 229.55 86.3723Z" fill="#F6F7F9"/>
<path d="M278.466 115.061C288.695 113.02 296.707 109.964 296.362 108.234C296.017 106.505 287.446 106.756 277.217 108.796C266.988 110.837 258.976 113.893 259.321 115.623C259.666 117.352 268.238 117.101 278.466 115.061Z" fill="#F6F7F9"/>
<path d="M284.474 105.3C285.181 104.443 285.61 103.391 285.704 102.284C285.704 101.181 285.018 100.002 283.929 99.814C282.712 99.6074 281.656 100.636 280.899 101.613C280.143 102.59 279.265 103.703 278.03 103.773C278.537 103.091 278.858 102.288 278.961 101.444C279.065 100.601 278.948 99.7443 278.622 98.9592C278.503 98.6315 278.296 98.3424 278.025 98.1232C277.264 97.5737 276.179 98.0903 275.531 98.7714C273.474 100.932 273.455 104.323 274.024 107.254C273.554 106.244 273.554 105.102 273.333 104.018C273.112 102.933 272.577 101.796 271.544 101.397C270.915 101.201 270.245 101.178 269.604 101.331C268.519 101.505 267.34 101.852 266.786 102.787C266.067 103.947 266.631 105.539 267.641 106.46C268.651 107.38 269.989 107.812 271.257 108.338C272.255 108.693 273.161 109.267 273.906 110.02C273.998 110.127 274.079 110.243 274.146 110.367L280.895 109.02C282.25 107.947 283.454 106.696 284.474 105.3Z" fill="#F6F7F9"/>
<path d="M152.572 136.096C152.572 136.096 147.208 125.876 149.416 117.121C150.362 113.457 150.095 109.584 148.655 106.084C147.959 104.429 147.113 102.841 146.128 101.34" stroke="#F6F7F9" stroke-miterlimit="10"/>
<path d="M147.485 95.836C147.753 97.1651 146.109 101.505 146.109 101.505C146.109 101.505 142.93 98.128 142.667 96.8082C142.592 96.4867 142.582 96.1535 142.639 95.8283C142.696 95.5031 142.818 95.1928 142.997 94.9157C143.177 94.6387 143.41 94.4006 143.684 94.2158C143.957 94.031 144.265 93.9032 144.589 93.8401C144.913 93.7769 145.246 93.7797 145.569 93.8483C145.892 93.9168 146.198 94.0498 146.468 94.2391C146.738 94.4285 146.968 94.6704 147.143 94.9504C147.317 95.2304 147.434 95.5428 147.485 95.8688V95.836Z" fill="#F6F7F9"/>
<path d="M152.938 102.411C152.441 103.675 148.711 106.427 148.711 106.427C148.711 106.427 147.88 101.862 148.383 100.598C148.498 100.293 148.672 100.014 148.897 99.7767C149.121 99.5398 149.39 99.3498 149.688 99.2179C149.987 99.0861 150.308 99.015 150.634 99.0087C150.96 99.0025 151.285 99.0613 151.588 99.1817C151.891 99.3021 152.167 99.4817 152.4 99.71C152.633 99.9382 152.818 100.211 152.945 100.511C153.071 100.812 153.137 101.135 153.137 101.461C153.138 101.787 153.073 102.11 152.948 102.411H152.938Z" fill="#F6F7F9"/>
<path d="M155.278 115.046C154.207 115.882 149.595 116.37 149.595 116.37C149.595 116.37 151.182 112.012 152.248 111.176C152.762 110.774 153.413 110.593 154.06 110.671C154.707 110.75 155.296 111.083 155.698 111.596C156.1 112.109 156.281 112.761 156.202 113.408C156.124 114.055 155.791 114.644 155.278 115.046Z" fill="#F6F7F9"/>
<path d="M154.893 125.003C153.981 126.008 149.52 127.271 149.52 127.271C149.52 127.271 150.341 122.706 151.257 121.701C151.466 121.436 151.726 121.218 152.022 121.058C152.319 120.899 152.645 120.802 152.98 120.773C153.316 120.745 153.653 120.786 153.972 120.894C154.291 121.001 154.585 121.173 154.834 121.399C155.084 121.625 155.285 121.9 155.424 122.206C155.563 122.513 155.637 122.845 155.643 123.181C155.648 123.518 155.584 123.852 155.455 124.163C155.326 124.474 155.135 124.755 154.893 124.989V125.003Z" fill="#F6F7F9"/>
<path d="M143.695 107.69C144.832 108.428 149.472 108.503 149.472 108.503C149.472 108.503 147.504 104.304 146.363 103.566C145.817 103.231 145.16 103.122 144.535 103.264C143.909 103.406 143.364 103.787 143.016 104.326C142.667 104.864 142.543 105.518 142.67 106.146C142.797 106.775 143.165 107.329 143.695 107.69Z" fill="#F6F7F9"/>
<path d="M143.395 119.343C144.701 119.705 149.148 118.404 149.148 118.404C149.148 118.404 146.016 114.985 144.705 114.618C144.394 114.532 144.069 114.508 143.749 114.548C143.428 114.587 143.119 114.69 142.838 114.849C142.557 115.008 142.31 115.221 142.112 115.476C141.913 115.73 141.767 116.021 141.681 116.333C141.595 116.644 141.571 116.969 141.61 117.289C141.65 117.61 141.752 117.919 141.911 118.2C142.071 118.481 142.284 118.728 142.538 118.926C142.793 119.125 143.084 119.271 143.395 119.357V119.343Z" fill="#F6F7F9"/>
<path d="M144.653 130.704C145.884 131.286 150.491 130.737 150.491 130.737C150.491 130.737 147.979 126.839 146.734 126.261C146.147 125.995 145.478 125.972 144.874 126.194C144.269 126.417 143.776 126.869 143.501 127.452C143.226 128.035 143.191 128.703 143.404 129.311C143.617 129.919 144.061 130.42 144.639 130.704H144.653Z" fill="#F6F7F9"/>
<path d="M170.288 112.956C170.288 112.956 171.796 114.285 170.518 116.995C169.241 119.705 168.193 121.987 169.071 123.345C169.071 123.345 170.837 118.432 172.97 117.943C175.102 117.455 173.176 115.125 170.288 112.956Z" fill="#F6F7F9"/>
<path opacity="0.1" d="M170.288 112.956C170.421 113.089 170.537 113.239 170.631 113.402C173.214 115.445 174.792 117.521 172.787 117.976C170.908 118.408 169.339 122.203 168.968 123.166C169.001 123.227 169.034 123.288 169.072 123.345C169.109 123.401 170.838 118.432 172.97 117.943C175.102 117.455 173.176 115.125 170.288 112.956Z" fill="black"/>
<path d="M172.909 114.491C173.021 115.041 173.045 115.501 172.97 115.515C172.895 115.529 172.744 115.097 172.632 114.543C172.519 113.989 172.632 114.238 172.73 114.224C172.829 114.21 172.801 113.956 172.909 114.491Z" fill="#F6F7F9"/>
<path d="M173.806 115.013C173.374 115.374 172.985 115.618 172.933 115.557C172.881 115.496 173.191 115.158 173.623 114.797C174.055 114.435 173.9 114.67 173.952 114.726C174.004 114.782 174.234 114.656 173.806 115.013Z" fill="#F6F7F9"/>
<path d="M163.966 114.219C163.966 114.219 163.083 116.022 165.3 118.037C167.517 120.052 169.362 121.757 169.057 123.344C169.057 123.344 165.544 119.484 163.384 119.85C161.223 120.216 162.129 117.309 163.966 114.219Z" fill="#F6F7F9"/>
<path opacity="0.1" d="M163.966 114.219C163.891 114.391 163.842 114.573 163.821 114.759C162.214 117.638 161.557 120.155 163.581 119.813C165.46 119.493 168.391 122.4 169.1 123.138C169.095 123.207 169.086 123.276 169.072 123.344C169.072 123.344 165.558 119.484 163.398 119.85C161.238 120.216 162.13 117.309 163.966 114.219Z" fill="black"/>
<path d="M162.14 116.657C162.248 117.206 162.403 117.643 162.478 117.624C162.553 117.605 162.525 117.154 162.417 116.6C162.309 116.046 162.28 116.323 162.205 116.342C162.13 116.361 162.032 116.107 162.14 116.657Z" fill="#F6F7F9"/>
<path d="M161.496 117.464C162.036 117.633 162.487 117.708 162.51 117.633C162.534 117.558 162.116 117.366 161.571 117.197C161.026 117.028 161.266 117.197 161.242 117.258C161.219 117.319 160.97 117.309 161.496 117.464Z" fill="#F6F7F9"/>
<path d="M153.286 139.072C160.521 137.629 166.188 135.467 165.944 134.244C165.7 133.02 159.637 133.198 152.403 134.641C145.168 136.084 139.501 138.246 139.745 139.469C139.989 140.693 146.052 140.515 153.286 139.072Z" fill="#F6F7F9"/>
<path d="M169.484 125.714C174.62 124.689 178.643 123.156 178.47 122.288C178.297 121.421 173.993 121.548 168.858 122.572C163.722 123.597 159.698 125.13 159.871 125.998C160.044 126.865 164.348 126.738 169.484 125.714Z" fill="#F6F7F9"/>
<path d="M218.518 117.055C222.039 116.353 224.797 115.301 224.678 114.705C224.559 114.11 221.609 114.197 218.089 114.899C214.568 115.601 211.81 116.653 211.929 117.248C212.048 117.844 214.998 117.757 218.518 117.055Z" fill="#F6F7F9"/>
<path d="M244.287 105.743C247.07 105.188 249.25 104.356 249.156 103.886C249.062 103.415 246.73 103.484 243.947 104.039C241.164 104.594 238.984 105.425 239.078 105.896C239.172 106.366 241.504 106.298 244.287 105.743Z" fill="#F6F7F9"/>
<path d="M194.794 130.129C199.93 129.104 203.953 127.571 203.78 126.703C203.607 125.836 199.304 125.963 194.168 126.987C189.032 128.012 185.008 129.545 185.181 130.413C185.354 131.28 189.658 131.153 194.794 130.129Z" fill="#F6F7F9"/>
<path d="M233.044 124.133C238.18 123.108 242.203 121.575 242.03 120.707C241.857 119.84 237.554 119.967 232.418 120.991C227.282 122.016 223.258 123.549 223.431 124.417C223.604 125.284 227.908 125.157 233.044 124.133Z" fill="#F6F7F9"/>
<path d="M289.619 58.3286L269.123 62.4167L270.061 67.124L290.558 63.0359L289.619 58.3286Z" fill="#F6F7F9"/>
<path d="M305.59 190.108L304.985 189.507C304.921 189.446 304.871 189.373 304.837 189.292C304.803 189.212 304.785 189.125 304.785 189.037C304.785 188.95 304.803 188.863 304.837 188.782C304.871 188.701 304.921 188.628 304.985 188.568L310.264 183.289C310.325 183.225 310.397 183.175 310.478 183.141C310.559 183.107 310.646 183.089 310.733 183.089C310.821 183.089 310.908 183.107 310.988 183.141C311.069 183.175 311.142 183.225 311.203 183.289L316.477 188.563C316.54 188.624 316.591 188.697 316.625 188.777C316.659 188.858 316.677 188.945 316.677 189.033C316.677 189.12 316.659 189.207 316.625 189.288C316.591 189.368 316.54 189.441 316.477 189.502L315.857 190.108C315.796 190.171 315.724 190.221 315.643 190.256C315.562 190.29 315.475 190.308 315.388 190.308C315.3 190.308 315.213 190.29 315.133 190.256C315.052 190.221 314.979 190.171 314.918 190.108L311.804 186.82V194.626C311.805 194.712 311.788 194.797 311.756 194.876C311.724 194.955 311.676 195.027 311.616 195.088C311.556 195.148 311.484 195.197 311.405 195.229C311.326 195.262 311.242 195.279 311.156 195.279H310.287C310.114 195.279 309.948 195.21 309.825 195.088C309.703 194.966 309.634 194.799 309.634 194.626V186.844L306.516 190.132C306.454 190.192 306.381 190.24 306.301 190.271C306.22 190.303 306.134 190.318 306.048 190.316C305.962 190.314 305.877 190.294 305.798 190.259C305.719 190.223 305.649 190.172 305.59 190.108Z" fill="#C8CCD6"/>
<path d="M310.724 178.512C312.842 178.511 314.913 179.138 316.674 180.314C318.436 181.49 319.809 183.162 320.62 185.119C321.432 187.076 321.644 189.229 321.232 191.306C320.819 193.384 319.799 195.292 318.302 196.791C316.805 198.289 314.897 199.309 312.819 199.723C310.742 200.136 308.589 199.924 306.632 199.114C304.675 198.304 303.002 196.931 301.825 195.17C300.648 193.409 300.02 191.338 300.02 189.22C300.022 186.382 301.151 183.66 303.157 181.653C305.164 179.645 307.885 178.516 310.724 178.512ZM310.724 177.103C308.327 177.102 305.984 177.812 303.99 179.143C301.997 180.474 300.443 182.366 299.525 184.58C298.607 186.794 298.367 189.23 298.834 191.581C299.301 193.932 300.455 196.092 302.149 197.787C303.843 199.482 306.003 200.637 308.353 201.104C310.704 201.572 313.141 201.333 315.355 200.416C317.569 199.499 319.462 197.946 320.794 195.953C322.126 193.96 322.836 191.617 322.836 189.22C322.837 187.629 322.524 186.054 321.916 184.583C321.307 183.113 320.415 181.777 319.29 180.652C318.166 179.527 316.83 178.634 315.36 178.025C313.89 177.416 312.315 177.103 310.724 177.103Z" fill="#C8CCD6"/>
<path d="M305.59 276.997L304.985 276.396C304.921 276.335 304.871 276.262 304.837 276.181C304.803 276.101 304.785 276.014 304.785 275.926C304.785 275.838 304.803 275.752 304.837 275.671C304.871 275.59 304.921 275.517 304.985 275.456L310.264 270.177C310.325 270.114 310.397 270.064 310.478 270.03C310.559 269.996 310.646 269.978 310.733 269.978C310.821 269.978 310.908 269.996 310.988 270.03C311.069 270.064 311.142 270.114 311.203 270.177L316.477 275.452C316.54 275.513 316.591 275.586 316.625 275.666C316.659 275.747 316.677 275.834 316.677 275.921C316.677 276.009 316.659 276.096 316.625 276.177C316.591 276.257 316.54 276.33 316.477 276.391L315.857 276.997C315.796 277.059 315.723 277.109 315.642 277.143C315.562 277.177 315.475 277.194 315.388 277.194C315.3 277.194 315.214 277.177 315.133 277.143C315.052 277.109 314.979 277.059 314.918 276.997L311.79 273.709V281.515C311.79 281.688 311.721 281.854 311.599 281.977C311.476 282.099 311.31 282.168 311.137 282.168H310.287C310.202 282.168 310.117 282.151 310.038 282.118C309.959 282.085 309.887 282.037 309.827 281.977C309.767 281.916 309.719 281.844 309.687 281.765C309.655 281.686 309.638 281.601 309.639 281.515V273.709L306.52 276.997C306.46 277.06 306.388 277.11 306.308 277.144C306.228 277.178 306.142 277.196 306.055 277.196C305.968 277.196 305.882 277.178 305.803 277.144C305.723 277.11 305.65 277.06 305.59 276.997Z" fill="#C8CCD6"/>
<path d="M310.724 265.396C312.842 265.395 314.913 266.022 316.675 267.198C318.436 268.375 319.81 270.047 320.621 272.004C321.432 273.961 321.644 276.114 321.231 278.192C320.818 280.27 319.798 282.178 318.3 283.676C316.803 285.174 314.894 286.194 312.816 286.607C310.739 287.02 308.585 286.807 306.628 285.996C304.671 285.185 302.999 283.812 301.823 282.05C300.646 280.289 300.019 278.218 300.02 276.099C300.024 273.262 301.153 270.541 303.159 268.535C305.166 266.528 307.886 265.399 310.724 265.396ZM310.724 263.987C308.327 263.986 305.983 264.696 303.99 266.027C301.996 267.358 300.443 269.25 299.525 271.465C298.607 273.679 298.367 276.116 298.834 278.467C299.302 280.818 300.456 282.977 302.151 284.672C303.846 286.367 306.005 287.521 308.356 287.989C310.707 288.456 313.144 288.216 315.358 287.298C317.573 286.38 319.465 284.827 320.796 282.833C322.127 280.84 322.837 278.496 322.836 276.099C322.836 272.887 321.56 269.806 319.289 267.534C317.017 265.263 313.936 263.987 310.724 263.987Z" fill="#C8CCD6"/>
<path d="M496.727 298.005C496.727 298.005 500.08 302.387 495.181 309C490.283 315.613 486.258 321.211 487.878 325.326C487.878 325.326 495.266 313.039 501.282 312.87C507.299 312.701 503.344 305.393 496.727 298.005Z" fill="#38D39F"/>
<path opacity="0.1" d="M496.727 298.005C497.02 298.427 497.251 298.889 497.413 299.376C503.284 306.271 506.407 312.706 500.766 312.87C495.511 313.02 489.208 322.414 487.7 324.785C487.748 324.969 487.807 325.15 487.879 325.326C487.879 325.326 495.267 313.039 501.283 312.87C507.3 312.701 503.345 305.393 496.727 298.005Z" fill="black"/>
<path d="M502.945 303.59C502.945 305.13 502.772 306.379 502.556 306.379C502.34 306.379 502.17 305.13 502.17 303.59C502.17 302.049 502.386 302.772 502.598 302.772C502.809 302.772 502.945 302.044 502.945 303.59Z" fill="#FFD037"/>
<path d="M505.097 305.43C503.739 306.168 502.561 306.614 502.457 306.426C502.354 306.238 503.397 305.487 504.726 304.749C506.055 304.012 505.548 304.552 505.665 304.749C505.783 304.946 506.45 304.707 505.097 305.43Z" fill="#FFD037"/>
<path d="M479.025 298.005C479.025 298.005 475.676 302.387 480.575 309C485.473 315.613 489.498 321.211 487.878 325.326C487.878 325.326 480.49 313.039 474.474 312.87C468.457 312.701 472.416 305.393 479.025 298.005Z" fill="#38D39F"/>
<path opacity="0.1" d="M479.025 298.005C478.735 298.428 478.506 298.89 478.344 299.376C472.473 306.271 469.35 312.706 474.99 312.87C480.241 313.02 486.549 322.414 488.056 324.785C488.007 324.969 487.947 325.149 487.878 325.326C487.878 325.326 480.49 313.039 474.474 312.87C468.457 312.701 472.416 305.393 479.025 298.005Z" fill="black"/>
<path d="M472.797 303.59C472.797 305.13 472.971 306.379 473.182 306.379C473.394 306.379 473.572 305.13 473.572 303.59C473.572 302.049 473.356 302.772 473.14 302.772C472.924 302.772 472.797 302.044 472.797 303.59Z" fill="#FFD037"/>
<path d="M470.661 305.43C472.013 306.168 473.197 306.614 473.296 306.426C473.394 306.238 472.384 305.487 471.032 304.749C469.679 304.012 470.21 304.552 470.092 304.749C469.975 304.946 469.308 304.707 470.661 305.43Z" fill="#FFD037"/>
<path opacity="0.1" d="M487.878 358.851C507.229 358.851 522.915 356.443 522.915 353.473C522.915 350.503 507.229 348.095 487.878 348.095C468.528 348.095 452.841 350.503 452.841 353.473C452.841 356.443 468.528 358.851 487.878 358.851Z" fill="#38D39F"/>
<path d="M505.914 319.422L505.744 320.789L505.51 322.724L505.411 323.527L505.176 325.462L505.073 326.27L504.824 328.191L502.142 350.171C501.903 352.135 498.699 353.661 494.829 353.661H480.899C477.029 353.661 473.826 352.135 473.586 350.171L470.918 328.191L470.679 326.261L470.585 325.453L470.346 323.518L470.247 322.715L470.012 320.779L469.843 319.413C469.711 318.304 471.445 317.365 473.633 317.365H502.128C504.312 317.388 506.05 318.328 505.914 319.422Z" fill="#65617D"/>
<path d="M505.745 320.789L505.51 322.719H470.247L470.012 320.789H505.745Z" fill="#9D9CB5"/>
<path d="M505.411 323.527L505.176 325.462H470.585L470.346 323.527H505.411Z" fill="#9D9CB5"/>
<path d="M505.073 326.265L504.838 328.2H470.918L470.684 326.265H505.073Z" fill="#9D9CB5"/>
<defs>
<linearGradient id="paint0_linear" x1="310.723" y1="331.333" x2="310.723" y2="0" gradientUnits="userSpaceOnUse">
<stop stop-color="#808080" stop-opacity="0.25"/>
<stop offset="0.54" stop-color="#808080" stop-opacity="0.12"/>
<stop offset="1" stop-color="#808080" stop-opacity="0.1"/>
</linearGradient>
<linearGradient id="paint1_linear" x1="-121737" y1="196327" x2="-121737" y2="74132.9" gradientUnits="userSpaceOnUse">
<stop stop-color="#808080" stop-opacity="0.25"/>
<stop offset="0.54" stop-color="#808080" stop-opacity="0.12"/>
<stop offset="1" stop-color="#808080" stop-opacity="0.1"/>
</linearGradient>
</defs>
</svg>