{
  "accessors": [
    {
      "name": "MechKeyboard_01_1_0_positions",
      "componentType": 5126,
      "count": 17572,
      "min": [
        -14.550000190734863,
        -0.004184000194072723,
        -5.050000190734863
      ],
      "max": [
        14.550000190734863,
        4.078897953033447,
        5.050000190734863
      ],
      "type": "VEC3",
      "bufferView": 0,
      "byteOffset": 0
    },
    {
      "name": "MechKeyboard_01_1_0_normals",
      "componentType": 5126,
      "count": 17572,
      "min": [
        -0.9999991655349731,
        -0.9999998807907104,
        -0.9999992251396179
      ],
      "max": [
        0.9999991655349731,
        0.9998677372932434,
        0.999998927116394
      ],
      "type": "VEC3",
      "bufferView": 1,
      "byteOffset": 0
    },
    {
      "name": "MechKeyboard_01_1_0_texcoords",
      "componentType": 5126,
      "count": 17572,
      "min": [
        0.0009769999887794256,
        0.0019920000340789557
      ],
      "max": [
        0.9990230202674866,
        0.9990230202674866
      ],
      "type": "VEC2",
      "bufferView": 2,
      "byteOffset": 0
    },
    {
      "name": "MechKeyboard_01_1_0_indices",
      "componentType": 5123,
      "count": 26358,
      "min": [
        0
      ],
      "max": [
        17571
      ],
      "type": "SCALAR",
      "bufferView": 3,
      "byteOffset": 0
    },
    {
      "name": "MechKeyboard_01_1_1_positions",
      "componentType": 5126,
      "count": 272,
      "min": [
        -14.275181770324707,
        2.903326988220215,
        -4.81223201751709
      ],
      "max": [
        -12.697504043579102,
        4.070104122161865,
        -3.0896360874176025
      ],
      "type": "VEC3",
      "bufferView": 0,
      "byteOffset": 210864
    },
    {
      "name": "MechKeyboard_01_1_1_normals",
      "componentType": 5126,
      "count": 272,
      "min": [
        -0.993910014629364,
        0.01897299662232399,
        -0.999819815158844
      ],
      "max": [
        0.9939106106758118,
        0.9998580813407898,
        0.949725866317749
      ],
      "type": "VEC3",
      "bufferView": 1,
      "byteOffset": 210864
    },
    {
      "name": "MechKeyboard_01_1_1_texcoords",
      "componentType": 5126,
      "count": 272,
      "min": [
        0.12714700400829315,
        0.12766599655151367
      ],
      "max": [
        0.8115040063858032,
        0.998013973236084
      ],
      "type": "VEC2",
      "bufferView": 2,
      "byteOffset": 140576
    },
    {
      "name": "MechKeyboard_01_1_1_indices",
      "componentType": 5123,
      "count": 408,
      "min": [
        0
      ],
      "max": [
        271
      ],
      "type": "SCALAR",
      "bufferView": 3,
      "byteOffset": 52716
    }
  ],
  "asset": {
    "generator": "obj2gltf",
    "version": "2.0"
  },
  "buffers": [
    {
      "name": "out",
      "byteLength": 624540,
      "uri": "data:application/octet-stream;base64,"
    }
  ],
  "bufferViews": [
    {
      "name": "bufferView_0",
      "buffer": 0,
      "byteLength": 214128,
      "byteOffset": 0,
      "byteStride": 12,
      "target": 34962
    },
    {
      "name": "bufferView_1",
      "buffer": 0,
      "byteLength": 214128,
      "byteOffset": 214128,
      "byteStride": 12,
      "target": 34962
    },
    {
      "name": "bufferView_2",
      "buffer": 0,
      "byteLength": 142752,
      "byteOffset": 428256,
      "byteStride": 8,
      "target": 34962
    },
    {
      "name": "bufferView_3",
      "buffer": 0,
      "byteLength": 53532,
      "byteOffset": 571008,
      "target": 34963
    }
  ],
  "materials": [
    {
      "name": "MechKeyboard_01SG",
      "pbrMetallicRoughness": {
        "baseColorFactor": [
          0.5,
          0.5,
          0.5,
          1
        ],
        "metallicFactor": 0,
        "roughnessFactor": 0.99569
      },
      "emissiveFactor": [
        0,
        0,
        0
      ],
      "alphaMode": "OPAQUE",
      "doubleSided": false
    },
    {
      "name": "MechKeyboard_01SG1",
      "pbrMetallicRoughness": {
        "baseColorFactor": [
          0.5,
          0.5,
          0.5,
          1
        ],
        "metallicFactor": 0,
        "roughnessFactor": 0.99569
      },
      "emissiveFactor": [
        0,
        0,
        0
      ],
      "alphaMode": "OPAQUE",
      "doubleSided": false
    }
  ],
  "meshes": [
    {
      "name": "MechKeyboard_01_1",
      "primitives": [
        {
          "attributes": {
            "POSITION": 0,
            "NORMAL": 1,
            "TEXCOORD_0": 2
          },
          "indices": 3,
          "material": 0,
          "mode": 4
        },
        {
          "attributes": {
            "POSITION": 4,
            "NORMAL": 5,
            "TEXCOORD_0": 6
          },
          "indices": 7,
          "material": 1,
          "mode": 4
        }
      ]
    }
  ],
  "nodes": [
    {
      "name": "MechKeyboard_01",
      "mesh": 0
    }
  ],
  "scene": 0,
  "scenes": [
    {
      "nodes": [
        0
      ]
    }
  ]
}
