{
  "accessors": [
    {
      "name": "MechKeyboard_01 group_1_0_positions",
      "componentType": 5126,
      "count": 17572,
      "min": [
        -35.455135345458984,
        -8.508803367614746,
        1.7392820119857788
      ],
      "max": [
        35.29929733276367,
        16.04857635498047,
        5.421196937561035
      ],
      "type": "VEC3",
      "bufferView": 0,
      "byteOffset": 0
    },
    {
      "name": "MechKeyboard_01 group_1_0_normals",
      "componentType": 5126,
      "count": 17572,
      "min": [
        -0.9999944567680359,
        -0.9999921321868896,
        -1
      ],
      "max": [
        0.9999945163726807,
        0.9999943971633911,
        0.9999818205833435
      ],
      "type": "VEC3",
      "bufferView": 1,
      "byteOffset": 0
    },
    {
      "name": "MechKeyboard_01 group_1_0_texcoords",
      "componentType": 5126,
      "count": 17572,
      "min": [
        0.0009769999887794256,
        0.0019920000340789557
      ],
      "max": [
        0.9990230202674866,
        0.9990230202674866
      ],
      "type": "VEC2",
      "bufferView": 2,
      "byteOffset": 0
    },
    {
      "name": "MechKeyboard_01 group_1_0_indices",
      "componentType": 5123,
      "count": 26358,
      "min": [
        0
      ],
      "max": [
        17571
      ],
      "type": "SCALAR",
      "bufferView": 3,
      "byteOffset": 0
    },
    {
      "name": "MechKeyboard_01 group_1_1_positions",
      "componentType": 5126,
      "count": 272,
      "min": [
        -34.78693389892578,
        11.28210163116455,
        4.361126899719238
      ],
      "max": [
        -30.950931549072266,
        15.47046184539795,
        5.413267135620117
      ],
      "type": "VEC3",
      "bufferView": 0,
      "byteOffset": 210864
    },
    {
      "name": "MechKeyboard_01 group_1_1_normals",
      "componentType": 5126,
      "count": 272,
      "min": [
        -0.95903480052948,
        -0.7475791573524475,
        0.0510990209877491
      ],
      "max": [
        0.9590380787849426,
        0.9986934065818787,
        0.9999804496765137
      ],
      "type": "VEC3",
      "bufferView": 1,
      "byteOffset": 210864
    },
    {
      "name": "MechKeyboard_01 group_1_1_texcoords",
      "componentType": 5126,
      "count": 272,
      "min": [
        0.12714700400829315,
        0.12766599655151367
      ],
      "max": [
        0.8115040063858032,
        0.998013973236084
      ],
      "type": "VEC2",
      "bufferView": 2,
      "byteOffset": 140576
    },
    {
      "name": "MechKeyboard_01 group_1_1_indices",
      "componentType": 5123,
      "count": 408,
      "min": [
        0
      ],
      "max": [
        271
      ],
      "type": "SCALAR",
      "bufferView": 3,
      "byteOffset": 52716
    },
    {
      "name": "group pasted__typeMesh1_1_0_positions",
      "componentType": 5126,
      "count": 13918,
      "min": [
        -44.66240310668945,
        -25.100141525268555,
        -42.50157165527344
      ],
      "max": [
        45.61787796020508,
        32.320045471191406,
        45.193851470947266
      ],
      "type": "VEC3",
      "bufferView": 0,
      "byteOffset": 214128
    },
    {
      "name": "group pasted__typeMesh1_1_0_normals",
      "componentType": 5126,
      "count": 13918,
      "min": [
        -0.9998828172683716,
        -0.9999998211860657,
        -0.9992749691009521
      ],
      "max": [
        0.9989924430847168,
        0.9999780654907227,
        0.9992749691009521
      ],
      "type": "VEC3",
      "bufferView": 1,
      "byteOffset": 214128
    },
    {
      "name": "group pasted__typeMesh1_1_0_texcoords",
      "componentType": 5126,
      "count": 13918,
      "min": [
        0.0019209999591112137,
        0.0019920000340789557
      ],
      "max": [
        0.9622979760169983,
        0.9980080127716064
      ],
      "type": "VEC2",
      "bufferView": 2,
      "byteOffset": 142752
    },
    {
      "name": "group pasted__typeMesh1_1_0_indices",
      "componentType": 5123,
      "count": 50412,
      "min": [
        0
      ],
      "max": [
        13917
      ],
      "type": "SCALAR",
      "bufferView": 3,
      "byteOffset": 53532
    }
  ],
  "asset": {
    "generator": "obj2gltf",
    "version": "2.0"
  },
  "buffers": [
    {
      "name": "new-systems",
      "byteLength": 1170740,
      "uri": "data:application/octet-stream;base64,"
    }
  ],
  "bufferViews": [
    {
      "name": "bufferView_0",
      "buffer": 0,
      "byteLength": 381144,
      "byteOffset": 0,
      "byteStride": 12,
      "target": 34962
    },
    {
      "name": "bufferView_1",
      "buffer": 0,
      "byteLength": 381144,
      "byteOffset": 381144,
      "byteStride": 12,
      "target": 34962
    },
    {
      "name": "bufferView_2",
      "buffer": 0,
      "byteLength": 254096,
      "byteOffset": 762288,
      "byteStride": 8,
      "target": 34962
    },
    {
      "name": "bufferView_3",
      "buffer": 0,
      "byteLength": 154356,
      "byteOffset": 1016384,
      "target": 34963
    }
  ],
  "materials": [
    {
      "name": "MechKeyboard_01SG",
      "pbrMetallicRoughness": {
        "baseColorFactor": [
          0.5,
          0.5,
          0.5,
          1
        ],
        "metallicFactor": 0,
        "roughnessFactor": 0.99569
      },
      "emissiveFactor": [
        0,
        0,
        0
      ],
      "alphaMode": "OPAQUE",
      "doubleSided": false
    },
    {
      "name": "MechKeyboard_01SG1",
      "pbrMetallicRoughness": {
        "baseColorFactor": [
          0.5,
          0.5,
          0.5,
          1
        ],
        "metallicFactor": 0,
        "roughnessFactor": 0.99569
      },
      "emissiveFactor": [
        0,
        0,
        0
      ],
      "alphaMode": "OPAQUE",
      "doubleSided": false
    },
    {
      "name": "pasted__typeBlinnSG",
      "pbrMetallicRoughness": {
        "baseColorFactor": [
          1,
          1,
          1,
          1
        ],
        "metallicFactor": 0,
        "roughnessFactor": 1
      },
      "emissiveFactor": [
        0,
        0,
        0
      ],
      "alphaMode": "OPAQUE",
      "doubleSided": false
    }
  ],
  "meshes": [
    {
      "name": "MechKeyboard_01 group_1",
      "primitives": [
        {
          "attributes": {
            "POSITION": 0,
            "NORMAL": 1,
            "TEXCOORD_0": 2
          },
          "indices": 3,
          "material": 0,
          "mode": 4
        },
        {
          "attributes": {
            "POSITION": 4,
            "NORMAL": 5,
            "TEXCOORD_0": 6
          },
          "indices": 7,
          "material": 1,
          "mode": 4
        }
      ]
    },
    {
      "name": "group pasted__typeMesh1_1",
      "primitives": [
        {
          "attributes": {
            "POSITION": 8,
            "NORMAL": 9,
            "TEXCOORD_0": 10
          },
          "indices": 11,
          "material": 2,
          "mode": 4
        }
      ]
    }
  ],
  "nodes": [
    {
      "name": "MechKeyboard_01 group",
      "mesh": 0
    },
    {
      "name": "group pasted__typeMesh1",
      "mesh": 1
    }
  ],
  "scene": 0,
  "scenes": [
    {
      "nodes": [
        0,
        1
      ]
    }
  ]
}
