{
  "accessors": [
    {
      "name": "Tree-Mesh_0_positions",
      "componentType": 5126,
      "count": 220,
      "min": [
        -2.7079379558563232,
        0,
        -5.079645156860352
      ],
      "max": [
        3.662992000579834,
        14.202574729919434,
        3.2142269611358643
      ],
      "type": "VEC3",
      "bufferView": 0,
      "byteOffset": 0
    },
    {
      "name": "Tree-Mesh_0_normals",
      "componentType": 5126,
      "count": 220,
      "min": [
        -0.9787558913230896,
        -1,
        -0.9868744611740112
      ],
      "max": [
        0.9869227409362793,
        0.9446279406547546,
        0.9851735830307007
      ],
      "type": "VEC3",
      "bufferView": 1,
      "byteOffset": 0
    },
    {
      "name": "Tree-Mesh_0_texcoords",
      "componentType": 5126,
      "count": 220,
      "min": [
        0.002710999920964241,
        0.22590500116348267
      ],
      "max": [
        0.9906479716300964,
        0.997298002243042
      ],
      "type": "VEC2",
      "bufferView": 2,
      "byteOffset": 0
    },
    {
      "name": "Tree-Mesh_0_indices",
      "componentType": 5123,
      "count": 444,
      "min": [
        0
      ],
      "max": [
        219
      ],
      "type": "SCALAR",
      "bufferView": 3,
      "byteOffset": 0
    },
    {
      "name": "Tree-Mesh_1_positions",
      "componentType": 5126,
      "count": 528,
      "min": [
        -4.402393817901611,
        6.1425089836120605,
        -5.456007957458496
      ],
      "max": [
        4.1567888259887695,
        10.033862113952637,
        4.999514102935791
      ],
      "type": "VEC3",
      "bufferView": 0,
      "byteOffset": 2640
    },
    {
      "name": "Tree-Mesh_1_normals",
      "componentType": 5126,
      "count": 528,
      "min": [
        -0.9993400573730469,
        -0.9932831525802612,
        -0.9477822184562683
      ],
      "max": [
        0.9892445206642151,
        0.9972171187400818,
        0.9871214032173157
      ],
      "type": "VEC3",
      "bufferView": 1,
      "byteOffset": 2640
    },
    {
      "name": "Tree-Mesh_1_texcoords",
      "componentType": 5126,
      "count": 528,
      "min": [
        0.0027089999057352543,
        0.004970999900251627
      ],
      "max": [
        0.9971190094947815,
        0.997298002243042
      ],
      "type": "VEC2",
      "bufferView": 2,
      "byteOffset": 1760
    },
    {
      "name": "Tree-Mesh_1_indices",
      "componentType": 5123,
      "count": 960,
      "min": [
        0
      ],
      "max": [
        527
      ],
      "type": "SCALAR",
      "bufferView": 3,
      "byteOffset": 888
    },
    {
      "name": "Tree-Mesh_2_positions",
      "componentType": 5126,
      "count": 1298,
      "min": [
        -6.10389518737793,
        5.443004131317139,
        -5.598247051239014
      ],
      "max": [
        4.486680030822754,
        16.72641372680664,
        2.5662009716033936
      ],
      "type": "VEC3",
      "bufferView": 0,
      "byteOffset": 8976
    },
    {
      "name": "Tree-Mesh_2_normals",
      "componentType": 5126,
      "count": 1298,
      "min": [
        -0.9908442497253418,
        -0.9942136406898499,
        -0.9977896213531494
      ],
      "max": [
        0.9872814416885376,
        0.999754786491394,
        0.9987159967422485
      ],
      "type": "VEC3",
      "bufferView": 1,
      "byteOffset": 8976
    },
    {
      "name": "Tree-Mesh_2_texcoords",
      "componentType": 5126,
      "count": 1298,
      "min": [
        0.0027020000852644444,
        0.002701000077649951
      ],
      "max": [
        0.9955080151557922,
        0.997298002243042
      ],
      "type": "VEC2",
      "bufferView": 2,
      "byteOffset": 5984
    },
    {
      "name": "Tree-Mesh_2_indices",
      "componentType": 5123,
      "count": 2400,
      "min": [
        0
      ],
      "max": [
        1297
      ],
      "type": "SCALAR",
      "bufferView": 3,
      "byteOffset": 2808
    },
    {
      "name": "Tree-Mesh_3_positions",
      "componentType": 5126,
      "count": 256,
      "min": [
        -4.818020820617676,
        8.739313125610352,
        1.2396140098571777
      ],
      "max": [
        -1.5548150539398193,
        12.334739685058594,
        4.4555439949035645
      ],
      "type": "VEC3",
      "bufferView": 0,
      "byteOffset": 24552
    },
    {
      "name": "Tree-Mesh_3_normals",
      "componentType": 5126,
      "count": 256,
      "min": [
        -0.9311109185218811,
        -0.986161470413208,
        -0.9499151110649109
      ],
      "max": [
        0.9276039600372314,
        0.9836409091949463,
        0.9804336428642273
      ],
      "type": "VEC3",
      "bufferView": 1,
      "byteOffset": 24552
    },
    {
      "name": "Tree-Mesh_3_texcoords",
      "componentType": 5126,
      "count": 256,
      "min": [
        0.03064900077879429,
        0.006769999861717224
      ],
      "max": [
        0.9956669807434082,
        0.9972890019416809
      ],
      "type": "VEC2",
      "bufferView": 2,
      "byteOffset": 16368
    },
    {
      "name": "Tree-Mesh_3_indices",
      "componentType": 5123,
      "count": 480,
      "min": [
        0
      ],
      "max": [
        255
      ],
      "type": "SCALAR",
      "bufferView": 3,
      "byteOffset": 7608
    }
  ],
  "asset": {
    "generator": "obj2gltf",
    "version": "2.0"
  },
  "buffers": [
    {
      "name": "tree",
      "byteLength": 82232,
      "uri": "data:application/octet-stream;base64,"
    }
  ],
  "bufferViews": [
    {
      "name": "bufferView_0",
      "buffer": 0,
      "byteLength": 27624,
      "byteOffset": 0,
      "byteStride": 12,
      "target": 34962
    },
    {
      "name": "bufferView_1",
      "buffer": 0,
      "byteLength": 27624,
      "byteOffset": 27624,
      "byteStride": 12,
      "target": 34962
    },
    {
      "name": "bufferView_2",
      "buffer": 0,
      "byteLength": 18416,
      "byteOffset": 55248,
      "byteStride": 8,
      "target": 34962
    },
    {
      "name": "bufferView_3",
      "buffer": 0,
      "byteLength": 8568,
      "byteOffset": 73664,
      "target": 34963
    }
  ],
  "materials": [
    {
      "name": "trunk_color",
      "pbrMetallicRoughness": {
        "baseColorFactor": [
          0.5,
          0.5,
          0.5,
          1
        ],
        "metallicFactor": 0,
        "roughnessFactor": 1
      },
      "emissiveFactor": [
        0,
        0,
        0
      ],
      "alphaMode": "OPAQUE",
      "doubleSided": false
    },
    {
      "name": "branch_color.001",
      "pbrMetallicRoughness": {
        "baseColorFactor": [
          0.5,
          0.5,
          0.5,
          1
        ],
        "metallicFactor": 0,
        "roughnessFactor": 1
      },
      "emissiveFactor": [
        0,
        0,
        0
      ],
      "alphaMode": "OPAQUE",
      "doubleSided": false
    },
    {
      "name": "branch_color",
      "pbrMetallicRoughness": {
        "baseColorFactor": [
          0.5,
          0.5,
          0.5,
          1
        ],
        "metallicFactor": 0,
        "roughnessFactor": 1
      },
      "emissiveFactor": [
        0,
        0,
        0
      ],
      "alphaMode": "OPAQUE",
      "doubleSided": false
    },
    {
      "name": "branch_color.003",
      "pbrMetallicRoughness": {
        "baseColorFactor": [
          0.5,
          0.5,
          0.5,
          1
        ],
        "metallicFactor": 0,
        "roughnessFactor": 1
      },
      "emissiveFactor": [
        0,
        0,
        0
      ],
      "alphaMode": "OPAQUE",
      "doubleSided": false
    }
  ],
  "meshes": [
    {
      "name": "Tree-Mesh",
      "primitives": [
        {
          "attributes": {
            "POSITION": 0,
            "NORMAL": 1,
            "TEXCOORD_0": 2
          },
          "indices": 3,
          "material": 0,
          "mode": 4
        },
        {
          "attributes": {
            "POSITION": 4,
            "NORMAL": 5,
            "TEXCOORD_0": 6
          },
          "indices": 7,
          "material": 1,
          "mode": 4
        },
        {
          "attributes": {
            "POSITION": 8,
            "NORMAL": 9,
            "TEXCOORD_0": 10
          },
          "indices": 11,
          "material": 2,
          "mode": 4
        },
        {
          "attributes": {
            "POSITION": 12,
            "NORMAL": 13,
            "TEXCOORD_0": 14
          },
          "indices": 15,
          "material": 3,
          "mode": 4
        }
      ]
    }
  ],
  "nodes": [
    {
      "name": "Tree",
      "mesh": 0
    }
  ],
  "scene": 0,
  "scenes": [
    {
      "nodes": [
        0
      ]
    }
  ]
}
